<?xml version="1.0" encoding="utf-8"?>
<!-- Generator: Adobe Illustrator 25.4.1, SVG Export Plug-In . SVG Version: 6.00 Build 0)  -->
<svg version="1.1" id="Camada_1" xmlns="http://www.w3.org/2000/svg" xmlns:xlink="http://www.w3.org/1999/xlink" x="0px" y="0px"
	 viewBox="0 0 611.8 374.7" style="enable-background:new 0 0 611.8 374.7;" xml:space="preserve">
<style type="text/css">
	.st0{fill:#498BCA;}
	.st1{font-family:'Arial-BoldMT';}
	.st2{font-size:45.523px;}
	.st3{fill:#2E2A26;}
	.st4{font-family:'ArialMT';}
	.st5{font-size:22.761px;}
	.st6{fill:#76A1D5;}
	.st7{fill:#A0BBE2;}
</style>
<g>
	<path id="Path_831" class="st0" d="M166.1,308.7l-37.2-133.3L192.2,53c-31.2-16.1-61.7-18.8-95.7-8.8C25.9,65-15.1,141.1,5.2,213.7
		C25.1,285,96.7,326.9,166.1,308.7"/>
	<g>
		<text transform="matrix(1 0 0 1 291.573 53.0576)" class="st0 st1 st2">63%</text>
		<text transform="matrix(1 0 0 1 291.573 83.9297)" class="st3 st4 st5">Other Developing Countries</text>
	</g>
	<path id="Path_830" class="st6" d="M199.4,56.9l-60.2,116.4l123.2,36.3C277.7,148.6,252.7,88.1,199.4,56.9"/>
	<g>
		<text transform="matrix(1 0 0 1 291.573 165.0288)" class="st6 st1 st2">22%</text>
		<text transform="matrix(1 0 0 1 291.573 195.9009)" class="st3 st4 st5">Developed Countries</text>
	</g>
	<path id="Path_829" class="st7" d="M139.2,182l34.7,124.4c41.9-13.7,73-45.7,86.3-88.7L139.2,182z"/>
	<g>
		<text transform="matrix(1 0 0 1 291.573 276.999)" class="st7 st1 st2">15%</text>
		<text transform="matrix(1 0 0 1 291.573 307.8706)" class="st3 st4 st5">Countries in Special Situation</text>
		<text transform="matrix(1 0 0 1 291.573 336.3208)" class="st3 st4 st5">(LDCs, LLDCs, SIDs)</text>
	</g>
</g>
</svg>
