<?xml version="1.0" encoding="utf-8"?>
<!-- Generator: Adobe Illustrator 25.4.1, SVG Export Plug-In . SVG Version: 6.00 Build 0)  -->
<svg version="1.1" id="Camada_1" xmlns="http://www.w3.org/2000/svg" xmlns:xlink="http://www.w3.org/1999/xlink" x="0px" y="0px"
	 viewBox="0 0 919.8 268.2" style="enable-background:new 0 0 919.8 268.2;" xml:space="preserve">
<style type="text/css">
	.st0{fill:#7F4593;}
	.st1{fill:#2D2A26;}
	.st2{font-family:'ArialMT';}
	.st3{font-size:25px;}
	.st4{font-family:'Arial-BoldMT';}
	.st5{font-size:30px;}
	.st6{fill:#56A35C;}
	.st7{fill:#E2973F;}
	.st8{fill:#5B89C4;}
	.st9{fill:#72BEE9;}
	.st10{fill:#7173AD;}
	.st11{fill:#32415F;}
</style>
<g>
	<g>
		<path id="Path_770" class="st0" d="M95.1,0.6c-5.7,0-10.3,4.6-10.3,10.3s4.6,10.3,10.3,10.3c5.7,0,10.3-4.6,10.3-10.3c0,0,0,0,0,0
			C105.3,5.2,100.7,0.6,95.1,0.6C95.1,0.6,95.1,0.6,95.1,0.6"/>
		<path id="Path_771" class="st0" d="M66.8,0.6c-5.7,0-10.3,4.6-10.3,10.3s4.6,10.3,10.3,10.3c5.7,0,10.3-4.6,10.3-10.3c0,0,0,0,0,0
			C77.1,5.2,72.5,0.6,66.8,0.6C66.8,0.6,66.8,0.6,66.8,0.6"/>
		<path id="Path_772" class="st0" d="M38.5,0.6c-5.7,0-10.3,4.6-10.3,10.3s4.6,10.3,10.3,10.3s10.3-4.6,10.3-10.3c0,0,0,0,0,0
			C48.8,5.2,44.2,0.6,38.5,0.6C38.5,0.6,38.5,0.6,38.5,0.6"/>
		<path id="Path_773" class="st0" d="M10.3,0.6C4.6,0.6,0,5.2,0,10.9s4.6,10.3,10.3,10.3c5.7,0,10.3-4.6,10.3-10.3c0,0,0,0,0,0
			C20.6,5.2,16,0.6,10.3,0.6C10.3,0.6,10.3,0.6,10.3,0.6"/>
	</g>
	<g>
		<text transform="matrix(1 0 0 1 391.436 27)" class="st1 st2 st3">Foundation</text>
		<text transform="matrix(1 0 0 1 335.795 27)" class="st0 st4 st5">4%</text>
	</g>
	<g>
		<path id="Path_719" class="st6" d="M263.8,0.6c-5.7,0-10.3,4.6-10.3,10.3s4.6,10.3,10.3,10.3s10.3-4.6,10.3-10.3c0,0,0,0,0,0
			C274.1,5.2,269.5,0.6,263.8,0.6C263.9,0.6,263.9,0.6,263.8,0.6"/>
		<path id="Path_720" class="st6" d="M235.6,0.6c-5.7,0-10.3,4.6-10.3,10.3s4.6,10.3,10.3,10.3c5.7,0,10.3-4.6,10.3-10.3
			c0,0,0,0,0,0C245.9,5.2,241.3,0.6,235.6,0.6C235.6,0.6,235.6,0.6,235.6,0.6"/>
		<path id="Path_721" class="st6" d="M207.3,0.6c-5.7,0-10.3,4.6-10.3,10.3s4.6,10.3,10.3,10.3c5.7,0,10.3-4.6,10.3-10.3
			c0,0,0,0,0,0C217.6,5.2,213,0.6,207.3,0.6C207.3,0.6,207.3,0.6,207.3,0.6"/>
		<path id="Path_722" class="st6" d="M179.1,0.6c-5.7,0-10.3,4.6-10.3,10.3s4.6,10.3,10.3,10.3c5.7,0,10.3-4.6,10.3-10.3
			c0,0,0,0,0,0C189.3,5.2,184.7,0.6,179.1,0.6C179.1,0.6,179.1,0.6,179.1,0.6"/>
		<path id="Path_723" class="st6" d="M150.8,0.6c-5.7,0-10.3,4.6-10.3,10.3s4.6,10.3,10.3,10.3c5.7,0,10.3-4.6,10.3-10.3
			c0,0,0,0,0,0C161.1,5.2,156.5,0.6,150.8,0.6C150.8,0.6,150.8,0.6,150.8,0.6"/>
		<path id="Path_769" class="st6" d="M123.3,0.6c-5.7,0-10.3,4.6-10.3,10.3s4.6,10.3,10.3,10.3s10.3-4.6,10.3-10.3c0,0,0,0,0,0
			C133.6,5.2,129,0.6,123.3,0.6C123.3,0.6,123.3,0.6,123.3,0.6"/>
	</g>
	<g>
		<text transform="matrix(1 0 0 1 391.436 87.2432)" class="st1 st2 st3">Private Sector</text>
		<text transform="matrix(1 0 0 1 335.795 86.752)" class="st6 st4 st5">6%</text>
	</g>
	<g>
		<path id="Path_764" class="st7" d="M123.3,27.3c-5.7,0-10.3,4.6-10.3,10.3s4.6,10.3,10.3,10.3s10.3-4.6,10.3-10.3c0,0,0,0,0,0
			C133.6,31.9,129,27.3,123.3,27.3"/>
		<path id="Path_765" class="st7" d="M95.1,27.3c-5.7,0-10.3,4.6-10.3,10.3s4.6,10.3,10.3,10.3c5.7,0,10.3-4.6,10.3-10.3
			c0,0,0,0,0,0C105.3,31.9,100.7,27.3,95.1,27.3C95.1,27.3,95.1,27.3,95.1,27.3"/>
		<path id="Path_766" class="st7" d="M66.8,27.3c-5.7,0-10.3,4.6-10.3,10.3s4.6,10.3,10.3,10.3c5.7,0,10.3-4.6,10.3-10.3
			c0,0,0,0,0,0C77.1,31.9,72.5,27.3,66.8,27.3C66.8,27.3,66.8,27.3,66.8,27.3"/>
		<path id="Path_767" class="st7" d="M38.5,27.3c-5.7,0-10.3,4.6-10.3,10.3s4.6,10.3,10.3,10.3s10.3-4.6,10.3-10.3c0,0,0,0,0,0
			C48.8,31.9,44.2,27.3,38.5,27.3C38.5,27.3,38.5,27.3,38.5,27.3"/>
		<path id="Path_768" class="st7" d="M10.3,27.3C4.6,27.3,0,31.9,0,37.6s4.6,10.3,10.3,10.3c5.7,0,10.3-4.6,10.3-10.3c0,0,0,0,0,0
			C20.6,31.9,16,27.3,10.3,27.3C10.3,27.3,10.3,27.3,10.3,27.3"/>
	</g>
	<g>
		<text transform="matrix(1 0 0 1 390.156 137.2656)" class="st1 st2 st3">International </text>
		<text transform="matrix(1 0 0 1 390.156 167.2656)" class="st1 st2 st3">Organization (non UN)  </text>
		<text transform="matrix(1 0 0 1 335.795 147.0977)" class="st7 st4 st5">5%</text>
	</g>
	<g>
		<path id="Path_709" class="st8" d="M263.8,54.9c-5.7,0-10.3,4.6-10.3,10.3s4.6,10.3,10.3,10.3s10.3-4.6,10.3-10.3c0,0,0,0,0,0
			C274.1,59.5,269.5,54.9,263.8,54.9C263.9,54.9,263.9,54.9,263.8,54.9"/>
		<path id="Path_710" class="st8" d="M235.6,54.9c-5.7,0-10.3,4.6-10.3,10.3s4.6,10.3,10.3,10.3c5.7,0,10.3-4.6,10.3-10.3
			c0,0,0,0,0,0C245.9,59.5,241.3,54.9,235.6,54.9C235.6,54.9,235.6,54.9,235.6,54.9"/>
		<path id="Path_711" class="st8" d="M207.3,54.9c-5.7,0-10.3,4.6-10.3,10.3s4.6,10.3,10.3,10.3c5.7,0,10.3-4.6,10.3-10.3
			c0,0,0,0,0,0C217.6,59.5,213,54.9,207.3,54.9C207.3,54.9,207.3,54.9,207.3,54.9"/>
		<path id="Path_712" class="st8" d="M179.1,54.9c-5.7,0-10.3,4.6-10.3,10.3s4.6,10.3,10.3,10.3c5.7,0,10.3-4.6,10.3-10.3
			c0,0,0,0,0,0C189.3,59.5,184.7,54.9,179.1,54.9C179.1,54.9,179.1,54.9,179.1,54.9"/>
		<path id="Path_713" class="st8" d="M150.8,54.9c-5.7,0-10.3,4.6-10.3,10.3s4.6,10.3,10.3,10.3c5.7,0,10.3-4.6,10.3-10.3
			c0,0,0,0,0,0C161.1,59.5,156.5,54.9,150.8,54.9C150.8,54.9,150.8,54.9,150.8,54.9"/>
		<path id="Path_714" class="st8" d="M263.8,27.3c-5.7,0-10.3,4.6-10.3,10.3s4.6,10.3,10.3,10.3s10.3-4.6,10.3-10.3c0,0,0,0,0,0
			C274.1,31.9,269.5,27.3,263.8,27.3"/>
		<path id="Path_715" class="st8" d="M235.6,27.3c-5.7,0-10.3,4.6-10.3,10.3s4.6,10.3,10.3,10.3c5.7,0,10.3-4.6,10.3-10.3
			c0,0,0,0,0,0C245.9,31.9,241.3,27.3,235.6,27.3C235.6,27.3,235.6,27.3,235.6,27.3"/>
		<path id="Path_716" class="st8" d="M207.3,27.3c-5.7,0-10.3,4.6-10.3,10.3s4.6,10.3,10.3,10.3c5.7,0,10.3-4.6,10.3-10.3
			c0,0,0,0,0,0C217.6,31.9,213,27.3,207.3,27.3C207.3,27.3,207.3,27.3,207.3,27.3"/>
		<path id="Path_717" class="st8" d="M179.1,27.3c-5.7,0-10.3,4.6-10.3,10.3s4.6,10.3,10.3,10.3c5.7,0,10.3-4.6,10.3-10.3
			c0,0,0,0,0,0C189.3,31.9,184.7,27.3,179.1,27.3C179.1,27.3,179.1,27.3,179.1,27.3"/>
		<path id="Path_718" class="st8" d="M150.8,27.3c-5.7,0-10.3,4.6-10.3,10.3s4.6,10.3,10.3,10.3c5.7,0,10.3-4.6,10.3-10.3
			c0,0,0,0,0,0C161.1,31.9,156.5,27.3,150.8,27.3C150.8,27.3,150.8,27.3,150.8,27.3"/>
		<path id="Path_757" class="st8" d="M38.5,82.4c-5.7,0-10.3,4.6-10.3,10.3c0,5.7,4.6,10.3,10.3,10.3c5.7,0,10.3-4.6,10.3-10.3
			c0,0,0,0,0,0C48.8,87,44.2,82.4,38.5,82.4C38.5,82.4,38.5,82.4,38.5,82.4"/>
		<path id="Path_758" class="st8" d="M10.3,82.4C4.6,82.4,0,87,0,92.7C0,98.4,4.6,103,10.3,103s10.3-4.6,10.3-10.3c0,0,0,0,0,0
			C20.6,87,16,82.4,10.3,82.4C10.3,82.4,10.3,82.4,10.3,82.4"/>
		<path id="Path_759" class="st8" d="M123.3,54.9c-5.7,0-10.3,4.6-10.3,10.3s4.6,10.3,10.3,10.3s10.3-4.6,10.3-10.3c0,0,0,0,0,0
			C133.6,59.5,129,54.9,123.3,54.9C123.3,54.9,123.3,54.9,123.3,54.9"/>
		<path id="Path_760" class="st8" d="M95.1,54.9c-5.7,0-10.3,4.6-10.3,10.3s4.6,10.3,10.3,10.3c5.7,0,10.3-4.6,10.3-10.3
			c0,0,0,0,0,0C105.3,59.5,100.7,54.9,95.1,54.9C95.1,54.9,95.1,54.9,95.1,54.9"/>
		<path id="Path_761" class="st8" d="M66.8,54.9c-5.7,0-10.3,4.6-10.3,10.3s4.6,10.3,10.3,10.3c5.7,0,10.3-4.6,10.3-10.3
			c0,0,0,0,0,0C77.1,59.5,72.5,54.9,66.8,54.9C66.8,54.9,66.8,54.9,66.8,54.9"/>
		<path id="Path_762" class="st8" d="M38.5,54.9c-5.7,0-10.3,4.6-10.3,10.3s4.6,10.3,10.3,10.3s10.3-4.6,10.3-10.3c0,0,0,0,0,0
			C48.8,59.5,44.2,54.9,38.5,54.9C38.5,54.9,38.5,54.9,38.5,54.9"/>
		<path id="Path_763" class="st8" d="M10.3,54.9C4.6,54.9,0,59.5,0,65.1s4.6,10.3,10.3,10.3c5.7,0,10.3-4.6,10.3-10.3c0,0,0,0,0,0
			C20.6,59.5,16,54.9,10.3,54.9C10.3,54.9,10.3,54.9,10.3,54.9"/>
	</g>
	<g>
		<text transform="matrix(1 0 0 1 390.156 211.3369)" class="st1 st2 st3">Government</text>
		<text transform="matrix(1 0 0 1 319.089 211.3369)" class="st8 st4 st5">17%</text>
	</g>
	<g>
		<path id="Path_699" class="st9" d="M263.8,109.9c-5.7,0-10.3,4.6-10.3,10.3s4.6,10.3,10.3,10.3s10.3-4.6,10.3-10.3c0,0,0,0,0,0
			C274.1,114.5,269.5,109.9,263.8,109.9C263.9,109.9,263.9,109.9,263.8,109.9"/>
		<path id="Path_700" class="st9" d="M235.6,109.9c-5.7,0-10.3,4.6-10.3,10.3s4.6,10.3,10.3,10.3c5.7,0,10.3-4.6,10.3-10.3
			c0,0,0,0,0,0C245.9,114.5,241.3,109.9,235.6,109.9C235.6,109.9,235.6,109.9,235.6,109.9"/>
		<path id="Path_701" class="st9" d="M207.3,109.9c-5.7,0-10.3,4.6-10.3,10.3s4.6,10.3,10.3,10.3c5.7,0,10.3-4.6,10.3-10.3
			c0,0,0,0,0,0C217.6,114.5,213,109.9,207.3,109.9C207.3,109.9,207.3,109.9,207.3,109.9"/>
		<path id="Path_702" class="st9" d="M179.1,109.9c-5.7,0-10.3,4.6-10.3,10.3s4.6,10.3,10.3,10.3c5.7,0,10.3-4.6,10.3-10.3
			c0,0,0,0,0,0C189.3,114.5,184.7,109.9,179.1,109.9C179.1,109.9,179.1,109.9,179.1,109.9"/>
		<path id="Path_703" class="st9" d="M150.8,109.9c-5.7,0-10.3,4.6-10.3,10.3s4.6,10.3,10.3,10.3c5.7,0,10.3-4.6,10.3-10.3
			c0,0,0,0,0,0C161.1,114.5,156.5,109.9,150.8,109.9C150.8,109.9,150.8,109.9,150.8,109.9"/>
		<path id="Path_704" class="st9" d="M263.8,82.4c-5.7,0-10.3,4.6-10.3,10.3c0,5.7,4.6,10.3,10.3,10.3c5.7,0,10.3-4.6,10.3-10.3
			c0,0,0,0,0,0C274.1,87,269.5,82.4,263.8,82.4C263.9,82.4,263.9,82.4,263.8,82.4"/>
		<path id="Path_705" class="st9" d="M235.6,82.4c-5.7,0-10.3,4.6-10.3,10.3c0,5.7,4.6,10.3,10.3,10.3s10.3-4.6,10.3-10.3
			c0,0,0,0,0,0C245.9,87,241.3,82.4,235.6,82.4C235.6,82.4,235.6,82.4,235.6,82.4"/>
		<path id="Path_706" class="st9" d="M207.3,82.4c-5.7,0-10.3,4.6-10.3,10.3c0,5.7,4.6,10.3,10.3,10.3s10.3-4.6,10.3-10.3
			c0,0,0,0,0,0C217.6,87,213,82.4,207.3,82.4C207.3,82.4,207.3,82.4,207.3,82.4"/>
		<path id="Path_707" class="st9" d="M179.1,82.4c-5.7,0-10.3,4.6-10.3,10.3c0,5.7,4.6,10.3,10.3,10.3s10.3-4.6,10.3-10.3
			c0,0,0,0,0,0C189.3,87,184.7,82.4,179.1,82.4C179.1,82.4,179.1,82.4,179.1,82.4"/>
		<path id="Path_708" class="st9" d="M150.8,82.4c-5.7,0-10.3,4.6-10.3,10.3c0,5.7,4.6,10.3,10.3,10.3s10.3-4.6,10.3-10.3
			c0,0,0,0,0,0C161.1,87,156.5,82.4,150.8,82.4C150.8,82.4,150.8,82.4,150.8,82.4"/>
		<path id="Path_747" class="st9" d="M38.5,137.5c-5.7,0-10.3,4.6-10.3,10.3S32.9,158,38.5,158s10.3-4.6,10.3-10.3c0,0,0,0,0,0
			C48.8,142.1,44.2,137.5,38.5,137.5C38.5,137.5,38.5,137.5,38.5,137.5"/>
		<path id="Path_748" class="st9" d="M10.3,137.5c-5.7,0-10.3,4.6-10.3,10.3S4.6,158,10.3,158c5.7,0,10.3-4.6,10.3-10.3c0,0,0,0,0,0
			C20.6,142.1,16,137.5,10.3,137.5C10.3,137.5,10.3,137.5,10.3,137.5"/>
		<path id="Path_749" class="st9" d="M123.3,109.9c-5.7,0-10.3,4.6-10.3,10.3s4.6,10.3,10.3,10.3s10.3-4.6,10.3-10.3c0,0,0,0,0,0
			C133.6,114.5,129,109.9,123.3,109.9C123.3,109.9,123.3,109.9,123.3,109.9"/>
		<path id="Path_750" class="st9" d="M95.1,109.9c-5.7,0-10.3,4.6-10.3,10.3s4.6,10.3,10.3,10.3c5.7,0,10.3-4.6,10.3-10.3
			c0,0,0,0,0,0C105.3,114.5,100.7,109.9,95.1,109.9C95.1,109.9,95.1,109.9,95.1,109.9"/>
		<path id="Path_751" class="st9" d="M66.8,109.9c-5.7,0-10.3,4.6-10.3,10.3s4.6,10.3,10.3,10.3c5.7,0,10.3-4.6,10.3-10.3
			c0,0,0,0,0,0C77.1,114.5,72.5,109.9,66.8,109.9C66.8,109.9,66.8,109.9,66.8,109.9"/>
		<path id="Path_752" class="st9" d="M38.5,109.9c-5.7,0-10.3,4.6-10.3,10.3s4.6,10.3,10.3,10.3s10.3-4.6,10.3-10.3c0,0,0,0,0,0
			C48.8,114.5,44.2,109.9,38.5,109.9C38.5,109.9,38.5,109.9,38.5,109.9"/>
		<path id="Path_753" class="st9" d="M10.3,109.9c-5.7,0-10.3,4.6-10.3,10.3s4.6,10.3,10.3,10.3c5.7,0,10.3-4.6,10.3-10.3
			c0,0,0,0,0,0C20.6,114.5,16,109.9,10.3,109.9C10.3,109.9,10.3,109.9,10.3,109.9"/>
		<path id="Path_754" class="st9" d="M123.3,82.4c-5.7,0-10.3,4.6-10.3,10.3c0,5.7,4.6,10.3,10.3,10.3c5.7,0,10.3-4.6,10.3-10.3
			c0,0,0,0,0,0C133.6,87,129,82.4,123.3,82.4C123.3,82.4,123.3,82.4,123.3,82.4"/>
		<path id="Path_755" class="st9" d="M95.1,82.4c-5.7,0-10.3,4.6-10.3,10.3c0,5.7,4.6,10.3,10.3,10.3s10.3-4.6,10.3-10.3
			c0,0,0,0,0,0C105.3,87,100.7,82.4,95.1,82.4C95.1,82.4,95.1,82.4,95.1,82.4"/>
		<path id="Path_756" class="st9" d="M66.8,82.4c-5.7,0-10.3,4.6-10.3,10.3c0,5.7,4.6,10.3,10.3,10.3s10.3-4.6,10.3-10.3
			c0,0,0,0,0,0C77.1,87,72.5,82.4,66.8,82.4C66.8,82.4,66.8,82.4,66.8,82.4"/>
	</g>
	<g>
		<text transform="matrix(1 0 0 1 755.787 27.001)" class="st1 st2 st3">Academia</text>
		<text transform="matrix(1 0 0 1 685.795 27)" class="st9 st4 st5">20%</text>
	</g>
	<g>
		<path id="Path_689" class="st10" d="M263.8,165c-5.7,0-10.3,4.6-10.3,10.3c0,5.7,4.6,10.3,10.3,10.3c5.7,0,10.3-4.6,10.3-10.3
			c0,0,0,0,0,0C274.1,169.6,269.5,165,263.8,165C263.9,165,263.9,165,263.8,165"/>
		<path id="Path_690" class="st10" d="M235.6,165c-5.7,0-10.3,4.6-10.3,10.3c0,5.7,4.6,10.3,10.3,10.3s10.3-4.6,10.3-10.3
			c0,0,0,0,0,0C245.9,169.6,241.3,165,235.6,165C235.6,165,235.6,165,235.6,165"/>
		<path id="Path_691" class="st10" d="M207.3,165c-5.7,0-10.3,4.6-10.3,10.3c0,5.7,4.6,10.3,10.3,10.3s10.3-4.6,10.3-10.3
			c0,0,0,0,0,0C217.6,169.6,213,165,207.3,165C207.3,165,207.3,165,207.3,165"/>
		<path id="Path_692" class="st10" d="M179.1,165c-5.7,0-10.3,4.6-10.3,10.3c0,5.7,4.6,10.3,10.3,10.3s10.3-4.6,10.3-10.3
			c0,0,0,0,0,0C189.3,169.6,184.7,165,179.1,165C179.1,165,179.1,165,179.1,165"/>
		<path id="Path_693" class="st10" d="M150.8,165c-5.7,0-10.3,4.6-10.3,10.3c0,5.7,4.6,10.3,10.3,10.3s10.3-4.6,10.3-10.3
			c0,0,0,0,0,0C161.1,169.6,156.5,165,150.8,165C150.8,165,150.8,165,150.8,165"/>
		<path id="Path_694" class="st10" d="M263.8,137.5c-5.7,0-10.3,4.6-10.3,10.3s4.6,10.3,10.3,10.3s10.3-4.6,10.3-10.3c0,0,0,0,0,0
			C274.1,142.1,269.5,137.5,263.8,137.5C263.9,137.5,263.9,137.5,263.8,137.5"/>
		<path id="Path_695" class="st10" d="M235.6,137.5c-5.7,0-10.3,4.6-10.3,10.3s4.6,10.3,10.3,10.3c5.7,0,10.3-4.6,10.3-10.3
			c0,0,0,0,0,0C245.9,142.1,241.3,137.5,235.6,137.5C235.6,137.5,235.6,137.5,235.6,137.5"/>
		<path id="Path_696" class="st10" d="M207.3,137.5c-5.7,0-10.3,4.6-10.3,10.3s4.6,10.3,10.3,10.3c5.7,0,10.3-4.6,10.3-10.3
			c0,0,0,0,0,0C217.6,142.1,213,137.5,207.3,137.5C207.3,137.5,207.3,137.5,207.3,137.5"/>
		<path id="Path_697" class="st10" d="M179.1,137.5c-5.7,0-10.3,4.6-10.3,10.3s4.6,10.3,10.3,10.3c5.7,0,10.3-4.6,10.3-10.3
			c0,0,0,0,0,0C189.3,142.1,184.7,137.5,179.1,137.5C179.1,137.5,179.1,137.5,179.1,137.5"/>
		<path id="Path_698" class="st10" d="M150.8,137.5c-5.7,0-10.3,4.6-10.3,10.3s4.6,10.3,10.3,10.3c5.7,0,10.3-4.6,10.3-10.3
			c0,0,0,0,0,0C161.1,142.1,156.5,137.5,150.8,137.5C150.8,137.5,150.8,137.5,150.8,137.5"/>
		<path id="Path_736" class="st10" d="M66.8,192.6c-5.7,0-10.3,4.6-10.3,10.3s4.6,10.3,10.3,10.3c5.7,0,10.3-4.6,10.3-10.3
			c0,0,0,0,0,0C77.1,197.2,72.5,192.6,66.8,192.6C66.8,192.6,66.8,192.6,66.8,192.6"/>
		<path id="Path_737" class="st10" d="M38.5,192.6c-5.7,0-10.3,4.6-10.3,10.3s4.6,10.3,10.3,10.3s10.3-4.6,10.3-10.3c0,0,0,0,0,0
			C48.8,197.2,44.2,192.6,38.5,192.6"/>
		<path id="Path_738" class="st10" d="M10.3,192.6c-5.7,0-10.3,4.6-10.3,10.3s4.6,10.3,10.3,10.3c5.7,0,10.3-4.6,10.3-10.3
			c0,0,0,0,0,0C20.6,197.2,16,192.6,10.3,192.6C10.3,192.6,10.3,192.6,10.3,192.6"/>
		<path id="Path_739" class="st10" d="M123.3,165c-5.7,0-10.3,4.6-10.3,10.3c0,5.7,4.6,10.3,10.3,10.3c5.7,0,10.3-4.6,10.3-10.3
			c0,0,0,0,0,0C133.6,169.6,129,165,123.3,165C123.3,165,123.3,165,123.3,165"/>
		<path id="Path_740" class="st10" d="M95.1,165c-5.7,0-10.3,4.6-10.3,10.3c0,5.7,4.6,10.3,10.3,10.3s10.3-4.6,10.3-10.3
			c0,0,0,0,0,0C105.3,169.6,100.7,165,95.1,165C95.1,165,95.1,165,95.1,165"/>
		<path id="Path_741" class="st10" d="M66.8,165c-5.7,0-10.3,4.6-10.3,10.3c0,5.7,4.6,10.3,10.3,10.3s10.3-4.6,10.3-10.3
			c0,0,0,0,0,0C77.1,169.6,72.5,165,66.8,165C66.8,165,66.8,165,66.8,165"/>
		<path id="Path_742" class="st10" d="M38.5,165c-5.7,0-10.3,4.6-10.3,10.3c0,5.7,4.6,10.3,10.3,10.3c5.7,0,10.3-4.6,10.3-10.3
			c0,0,0,0,0,0C48.8,169.6,44.2,165,38.5,165C38.5,165,38.5,165,38.5,165"/>
		<path id="Path_743" class="st10" d="M10.3,165C4.6,165,0,169.6,0,175.3c0,5.7,4.6,10.3,10.3,10.3s10.3-4.6,10.3-10.3c0,0,0,0,0,0
			C20.6,169.6,16,165,10.3,165C10.3,165,10.3,165,10.3,165"/>
		<path id="Path_744" class="st10" d="M123.3,137.5c-5.7,0-10.3,4.6-10.3,10.3s4.6,10.3,10.3,10.3s10.3-4.6,10.3-10.3c0,0,0,0,0,0
			C133.6,142.1,129,137.5,123.3,137.5C123.3,137.5,123.3,137.5,123.3,137.5"/>
		<path id="Path_745" class="st10" d="M95.1,137.5c-5.7,0-10.3,4.6-10.3,10.3S89.4,158,95.1,158c5.7,0,10.3-4.6,10.3-10.3
			c0,0,0,0,0,0C105.3,142.1,100.7,137.5,95.1,137.5C95.1,137.5,95.1,137.5,95.1,137.5"/>
		<path id="Path_746" class="st10" d="M66.8,137.5c-5.7,0-10.3,4.6-10.3,10.3S61.1,158,66.8,158c5.7,0,10.3-4.6,10.3-10.3
			c0,0,0,0,0,0C77.1,142.1,72.5,137.5,66.8,137.5C66.8,137.5,66.8,137.5,66.8,137.5"/>
	</g>
	<g>
		<text transform="matrix(1 0 0 1 755.787 87.2432)" class="st1 st2 st3">NGO</text>
		<text transform="matrix(1 0 0 1 685.795 87.2432)" class="st10 st4 st5">21%</text>
	</g>
	<g>
		<path id="Path_674" class="st11" d="M263.8,247.6c-5.7,0-10.3,4.6-10.3,10.3s4.6,10.3,10.3,10.3s10.3-4.6,10.3-10.3c0,0,0,0,0,0
			C274.1,252.2,269.5,247.6,263.8,247.6"/>
		<path id="Path_675" class="st11" d="M235.6,247.6c-5.7,0-10.3,4.6-10.3,10.3s4.6,10.3,10.3,10.3c5.7,0,10.3-4.6,10.3-10.3
			c0,0,0,0,0,0C245.9,252.2,241.3,247.6,235.6,247.6C235.6,247.6,235.6,247.6,235.6,247.6"/>
		<path id="Path_676" class="st11" d="M207.3,247.6c-5.7,0-10.3,4.6-10.3,10.3s4.6,10.3,10.3,10.3c5.7,0,10.3-4.6,10.3-10.3
			c0,0,0,0,0,0C217.6,252.2,213,247.6,207.3,247.6C207.3,247.6,207.3,247.6,207.3,247.6"/>
		<path id="Path_677" class="st11" d="M179.1,247.6c-5.7,0-10.3,4.6-10.3,10.3s4.6,10.3,10.3,10.3c5.7,0,10.3-4.6,10.3-10.3
			c0,0,0,0,0,0C189.3,252.2,184.7,247.6,179.1,247.6C179.1,247.6,179.1,247.6,179.1,247.6"/>
		<path id="Path_678" class="st11" d="M150.8,247.6c-5.7,0-10.3,4.6-10.3,10.3s4.6,10.3,10.3,10.3c5.7,0,10.3-4.6,10.3-10.3
			c0,0,0,0,0,0C161.1,252.2,156.5,247.6,150.8,247.6C150.8,247.6,150.8,247.6,150.8,247.6"/>
		<path id="Path_679" class="st11" d="M263.8,220.1c-5.7,0-10.3,4.6-10.3,10.3s4.6,10.3,10.3,10.3s10.3-4.6,10.3-10.3c0,0,0,0,0,0
			C274.1,224.7,269.5,220.1,263.8,220.1"/>
		<path id="Path_680" class="st11" d="M235.6,220.1c-5.7,0-10.3,4.6-10.3,10.3s4.6,10.3,10.3,10.3c5.7,0,10.3-4.6,10.3-10.3
			c0,0,0,0,0,0C245.9,224.7,241.3,220.1,235.6,220.1C235.6,220.1,235.6,220.1,235.6,220.1"/>
		<path id="Path_681" class="st11" d="M207.3,220.1c-5.7,0-10.3,4.6-10.3,10.3s4.6,10.3,10.3,10.3c5.7,0,10.3-4.6,10.3-10.3
			c0,0,0,0,0,0C217.6,224.7,213,220.1,207.3,220.1C207.3,220.1,207.3,220.1,207.3,220.1"/>
		<path id="Path_682" class="st11" d="M179.1,220.1c-5.7,0-10.3,4.6-10.3,10.3s4.6,10.3,10.3,10.3c5.7,0,10.3-4.6,10.3-10.3
			c0,0,0,0,0,0C189.3,224.7,184.7,220.1,179.1,220.1C179.1,220.1,179.1,220.1,179.1,220.1"/>
		<path id="Path_683" class="st11" d="M150.8,220.1c-5.7,0-10.3,4.6-10.3,10.3s4.6,10.3,10.3,10.3c5.7,0,10.3-4.6,10.3-10.3
			c0,0,0,0,0,0C161.1,224.7,156.5,220.1,150.8,220.1C150.8,220.1,150.8,220.1,150.8,220.1"/>
		<path id="Path_684" class="st11" d="M263.8,192.6c-5.7,0-10.3,4.6-10.3,10.3s4.6,10.3,10.3,10.3s10.3-4.6,10.3-10.3c0,0,0,0,0,0
			C274.1,197.2,269.5,192.6,263.8,192.6"/>
		<path id="Path_685" class="st11" d="M235.6,192.6c-5.7,0-10.3,4.6-10.3,10.3s4.6,10.3,10.3,10.3c5.7,0,10.3-4.6,10.3-10.3
			c0,0,0,0,0,0C245.9,197.2,241.3,192.6,235.6,192.6"/>
		<path id="Path_686" class="st11" d="M207.3,192.6c-5.7,0-10.3,4.6-10.3,10.3s4.6,10.3,10.3,10.3c5.7,0,10.3-4.6,10.3-10.3
			c0,0,0,0,0,0C217.6,197.2,213,192.6,207.3,192.6C207.3,192.6,207.3,192.6,207.3,192.6"/>
		<path id="Path_687" class="st11" d="M179.1,192.6c-5.7,0-10.3,4.6-10.3,10.3s4.6,10.3,10.3,10.3c5.7,0,10.3-4.6,10.3-10.3
			c0,0,0,0,0,0C189.3,197.2,184.7,192.6,179.1,192.6"/>
		<path id="Path_688" class="st11" d="M150.8,192.6c-5.7,0-10.3,4.6-10.3,10.3s4.6,10.3,10.3,10.3c5.7,0,10.3-4.6,10.3-10.3
			c0,0,0,0,0,0C161.1,197.2,156.5,192.6,150.8,192.6C150.8,192.6,150.8,192.6,150.8,192.6"/>
		<path id="Path_724" class="st11" d="M123.3,247.6c-5.7,0-10.3,4.6-10.3,10.3s4.6,10.3,10.3,10.3s10.3-4.6,10.3-10.3c0,0,0,0,0,0
			C133.6,252.2,129,247.6,123.3,247.6"/>
		<path id="Path_725" class="st11" d="M95.1,247.6c-5.7,0-10.3,4.6-10.3,10.3s4.6,10.3,10.3,10.3c5.7,0,10.3-4.6,10.3-10.3
			c0,0,0,0,0,0C105.3,252.2,100.7,247.6,95.1,247.6C95.1,247.6,95.1,247.6,95.1,247.6"/>
		<path id="Path_726" class="st11" d="M66.8,247.6c-5.7,0-10.3,4.6-10.3,10.3s4.6,10.3,10.3,10.3c5.7,0,10.3-4.6,10.3-10.3
			c0,0,0,0,0,0C77.1,252.2,72.5,247.6,66.8,247.6C66.8,247.6,66.8,247.6,66.8,247.6"/>
		<path id="Path_727" class="st11" d="M38.5,247.6c-5.7,0-10.3,4.6-10.3,10.3s4.6,10.3,10.3,10.3s10.3-4.6,10.3-10.3c0,0,0,0,0,0
			C48.8,252.2,44.2,247.6,38.5,247.6C38.5,247.6,38.5,247.6,38.5,247.6"/>
		<path id="Path_728" class="st11" d="M10.3,247.6c-5.7,0-10.3,4.6-10.3,10.3s4.6,10.3,10.3,10.3c5.7,0,10.3-4.6,10.3-10.3
			c0,0,0,0,0,0C20.6,252.2,16,247.6,10.3,247.6C10.3,247.6,10.3,247.6,10.3,247.6"/>
		<path id="Path_729" class="st11" d="M123.3,220.1c-5.7,0-10.3,4.6-10.3,10.3s4.6,10.3,10.3,10.3s10.3-4.6,10.3-10.3c0,0,0,0,0,0
			C133.6,224.7,129,220.1,123.3,220.1"/>
		<path id="Path_730" class="st11" d="M95.1,220.1c-5.7,0-10.3,4.6-10.3,10.3s4.6,10.3,10.3,10.3c5.7,0,10.3-4.6,10.3-10.3
			c0,0,0,0,0,0C105.3,224.7,100.7,220.1,95.1,220.1C95.1,220.1,95.1,220.1,95.1,220.1"/>
		<path id="Path_731" class="st11" d="M66.8,220.1c-5.7,0-10.3,4.6-10.3,10.3s4.6,10.3,10.3,10.3c5.7,0,10.3-4.6,10.3-10.3
			c0,0,0,0,0,0C77.1,224.7,72.5,220.1,66.8,220.1C66.8,220.1,66.8,220.1,66.8,220.1"/>
		<path id="Path_732" class="st11" d="M38.5,220.1c-5.7,0-10.3,4.6-10.3,10.3s4.6,10.3,10.3,10.3s10.3-4.6,10.3-10.3c0,0,0,0,0,0
			C48.8,224.7,44.2,220.1,38.5,220.1C38.5,220.1,38.5,220.1,38.5,220.1"/>
		<path id="Path_733" class="st11" d="M10.3,220.1c-5.7,0-10.3,4.6-10.3,10.3s4.6,10.3,10.3,10.3c5.7,0,10.3-4.6,10.3-10.3
			c0,0,0,0,0,0C20.6,224.7,16,220.1,10.3,220.1C10.3,220.1,10.3,220.1,10.3,220.1"/>
		<path id="Path_734" class="st11" d="M123.3,192.6c-5.7,0-10.3,4.6-10.3,10.3s4.6,10.3,10.3,10.3s10.3-4.6,10.3-10.3c0,0,0,0,0,0
			C133.6,197.2,129,192.6,123.3,192.6"/>
		<path id="Path_735" class="st11" d="M95.1,192.6c-5.7,0-10.3,4.6-10.3,10.3s4.6,10.3,10.3,10.3c5.7,0,10.3-4.6,10.3-10.3
			c0,0,0,0,0,0C105.3,197.2,100.7,192.6,95.1,192.6"/>
	</g>
	<g>
		<text transform="matrix(1 0 0 1 755.787 147.0977)" class="st1 st2 st3">United Nations</text>
		<text transform="matrix(1 0 0 1 685.795 147.4873)" class="st11 st4 st5">27%</text>
	</g>
</g>
</svg>
