<?xml version="1.0" encoding="utf-8"?>
<!-- Generator: Adobe Illustrator 25.4.1, SVG Export Plug-In . SVG Version: 6.00 Build 0)  -->
<svg version="1.1" id="Camada_1" xmlns="http://www.w3.org/2000/svg" xmlns:xlink="http://www.w3.org/1999/xlink" x="0px" y="0px"
	 viewBox="0 0 741 402.1" style="enable-background:new 0 0 741 402.1;" xml:space="preserve">
<style type="text/css">
	.st0{fill:#498BCA;}
	.st1{font-family:'Arial-BoldMT';}
	.st2{font-size:47.997px;}
	.st3{fill:#2E2A26;}
	.st4{font-family:'ArialMT';}
	.st5{font-size:25px;}
	.st6{fill:#2E4161;}
	.st7{fill:#8A3F98;}
	.st8{fill:#D83D26;}
</style>
<g>
	<path id="Path_832" class="st0" d="M266.7,189l-40.6,16.3h-18.7v-6.3c0-1.2-1-2.1-2.1-2.1h-8.5c-1.2,0-2.1,1-2.1,2.1v6.3l-18.8-0.1
		L135.5,189v-19.7c0-1.2,0.9-2.1,2.1-2.1c0,0,0,0,0,0h126.9c1.2,0,2.1,0.9,2.1,2.1V189z M199,201h4.2v12.7H199L199,201z
		 M266.7,245.5c0,1.2-0.9,2.1-2.1,2.1c0,0,0,0,0,0H137.6c-1.2,0-2.1-0.9-2.1-2.1c0,0,0,0,0,0v-51.9l39.9,15.9h19.3v6.3
		c0,1.2,1,2.1,2.1,2.1h8.5c1.2,0,2.1-1,2.1-2.1v-6.3l19.6-0.1l39.7-15.8L266.7,245.5z M148.2,158.7h12.7v4.2h-12.7V158.7z
		 M186.3,154.5h29.6v8.5h-29.6L186.3,154.5z M241.3,158.7H254v4.2h-12.7L241.3,158.7z M270.9,169.3c0-3.5-2.8-6.3-6.3-6.3h-6.3v-6.3
		c0-1.2-1-2.1-2.1-2.1h-16.9c-1.2,0-2.1,1-2.1,2.1v6.3h-16.9v-10.6c0-1.2-1-2.1-2.1-2.1h-33.9c-1.2,0-2.1,1-2.1,2.1v10.6h-16.9v-6.3
		c0-1.2-1-2.1-2.1-2.1h-16.9c-1.2,0-2.1,1-2.1,2.1v6.3h-6.3c-3.5,0-6.3,2.8-6.3,6.3v76.2c0,3.5,2.8,6.3,6.3,6.3h126.9
		c3.5,0,6.3-2.8,6.3-6.3V169.3z"/>
	<path id="Path_833" class="st0" d="M0,201C0,91.9,87.3,2.8,195.8,0v86.2C134.5,89.1,86.2,139.6,86.2,201
		c0,58.4,44.2,107.5,101.6,114.1l-6,86C77.8,391.2,0,306.1,0,201"/>
	<g>
		<text transform="matrix(1 0 0 1 440.047 55.3535)" class="st0 st1 st2">49%</text>
		<text transform="matrix(1 0 0 1 440.047 87.8975)" class="st3 st4 st5">Non-state sectors</text>
	</g>
	<path id="Path_836" class="st6" d="M401.6,215c-7.6,108.8-101,191.7-209.3,186.8l6-86c1,0,1.9,0,2.8,0
		c63.5,0,114.9-51.5,114.9-114.9c0-19.8-5.1-39.2-14.8-56.4L374.3,99C395.9,135.3,404.6,172.3,401.6,215"/>
	<g>
		<text transform="matrix(1 0 0 1 440.047 147.8936)" class="st6 st1 st2">35%</text>
		<text transform="matrix(1 0 0 1 440.047 180.4434)" class="st3 st4 st5">Other</text>
	</g>
	<path id="Path_835" class="st7" d="M249,96.5l32.3-79.9c37.2,16,65.2,39.5,87.5,73.4l-73.1,45.7C283.8,118.7,267.7,105.2,249,96.5"
		/>
	<g>
		<text transform="matrix(1 0 0 1 440.047 240.4395)" class="st7 st1 st2">10%</text>
		<text transform="matrix(1 0 0 1 440.047 272.9902)" class="st3 st4 st5">Governments</text>
	</g>
	<path id="Path_834" class="st8" d="M206.3,86.2V0c22.3,0.4,44.3,4.7,65.1,12.7l-32.3,79.9C228.6,88.8,217.5,86.7,206.3,86.2"/>
	<g>
		<text transform="matrix(1 0 0 1 440.047 332.9854)" class="st8 st1 st2">6%</text>
		<text transform="matrix(1 0 0 1 440.047 365.5361)" class="st3 st4 st5">International organizations</text>
	</g>
</g>
</svg>
