<?xml version="1.0" encoding="utf-8"?>
<!-- Generator: Adobe Illustrator 25.4.1, SVG Export Plug-In . SVG Version: 6.00 Build 0)  -->
<svg version="1.1" id="Camada_1" xmlns="http://www.w3.org/2000/svg" xmlns:xlink="http://www.w3.org/1999/xlink" x="0px" y="0px"
	 viewBox="0 0 517.8 467.9" style="enable-background:new 0 0 517.8 467.9;" xml:space="preserve">
<style type="text/css">
	.st0{fill:none;stroke:#939598;stroke-width:0.655;}
	.st1{fill:#498BCA;}
	.st2{fill:none;stroke:#498BCA;stroke-width:2.619;stroke-miterlimit:10;}
	.st3{fill:#2E2A26;}
	.st4{font-family:'ArialMT';}
	.st5{font-size:20.949px;}
	.st6{font-family:'Arial-BoldMT';}
	.st7{font-size:41.898px;}
	.st8{fill:#2E4161;}
	.st9{fill:none;stroke:#2E4161;stroke-width:2.619;stroke-miterlimit:10;}
	.st10{fill:#76A1D5;}
</style>
<g>
	<line id="Line_9" class="st0" x1="0" y1="368.8" x2="507.9" y2="368.8"/>
	<rect id="Rectangle_22" x="64.8" y="178.4" class="st1" width="74.1" height="189.1"/>
	<g>
		<g>
			<path class="st2" d="M101.8,45.2C101.8,45.2,101.8,45.2,101.8,45.2c11,0,19.8-8.9,19.8-19.8c0-11-8.9-19.8-19.8-19.8
				S82,14.4,82,25.4C82,36.4,90.9,45.2,101.8,45.2z M134.9,124.4L134.9,124.4c3.8-0.5,6.5-3.9,6-7.7c0,0,0,0,0,0
				c0-0.1,0-0.3-0.1-0.4l-12.5-53.6c-1.6-6.5-6.9-11.3-13.5-12.3c-1.2-0.2-2.4,0.2-3.3,1l-5.3,4.6c-2.5,2.2-6.3,2.2-8.8,0L92,51.4
				c-0.9-0.8-2.1-1.1-3.3-1c-6.6,1-11.9,5.9-13.4,12.3l-12.5,53.7c-0.7,3.7,1.8,7.3,5.6,8c0,0,0,0,0,0c0.1,0,0.3,0,0.4,0.1
				c0.9,0.1,1.8,0,2.7-0.2l-6,24.9c-0.5,2.4,1,4.7,3.4,5.2c0.3,0.1,0.6,0.1,0.9,0.1h17.7l3.5,38.8c0.4,3.3,3.2,5.8,6.5,5.8h8.8
				c3.3,0,6.1-2.5,6.5-5.8l3.5-38.8h17.7c2.4,0,4.4-2,4.4-4.4c0-0.3,0-0.6-0.1-0.9l-6-24.9C133.1,124.4,134,124.5,134.9,124.4z"/>
		</g>
	</g>
	<g>
		<text transform="matrix(1 0 0 1 66.803 401.269)" class="st3 st4 st5">Female</text>
		<text transform="matrix(1 0 0 1 63.853 448.7261)" class="st1 st6 st7">51%</text>
	</g>
	<rect id="Rectangle_24" x="219.2" y="205.2" class="st8" width="74.1" height="162.3"/>
	<g>
		<g>
			<path class="st9" d="M256.3,65.7C256.3,65.7,256.3,65.7,256.3,65.7c11,0,19.8-8.9,19.8-19.8c0-11-8.9-19.8-19.8-19.8
				c-11,0-19.8,8.9-19.8,19.8c0,0,0,0,0,0C236.4,56.8,245.3,65.7,256.3,65.7z M277,71c-0.6-0.1-1.3-0.1-1.9-0.1h-6.9
				c-0.8,0.1-1.6,0.4-2.2,1l-5.3,4.6c-2.5,2.2-6.3,2.2-8.8,0l-5.3-4.5c-0.6-0.5-1.4-0.9-2.2-1h-6.9c-9.3,0-16.8,7.5-16.8,16.8
				c0,0.6,0,1.3,0.1,1.9l0,0l4.9,36.8c0.6,5.4,4.2,9.9,9.3,11.8l8.2,75.5c0.4,3.3,3.2,5.8,6.5,5.8h13c3.3,0,6.1-2.5,6.5-5.8
				l8.2-75.5c5.2-1.8,9-6.4,9.6-11.9l4.9-36.8C292.9,80.4,286.3,72,277,71z"/>
		</g>
	</g>
	<g>
		<text transform="matrix(1 0 0 1 231.837 401.269)" class="st3 st4 st5">Male</text>
		<text transform="matrix(1 0 0 1 215.105 448.7261)" class="st8 st6 st7">44%</text>
	</g>
	<rect id="Rectangle_21" x="363.9" y="347.3" class="st10" width="71.9" height="20.2"/>
	<g id="teste">
		<text transform="matrix(1 0 0 1 369.085 401.269)" class="st3 st4 st5">Others</text>
		<text transform="matrix(1 0 0 1 370.796 448.7261)" class="st10 st6 st7">5%</text>
	</g>
</g>
</svg>
