<?xml version="1.0" encoding="utf-8"?>
<!-- Generator: Adobe Illustrator 25.4.1, SVG Export Plug-In . SVG Version: 6.00 Build 0)  -->
<svg version="1.1" id="Camada_1" xmlns="http://www.w3.org/2000/svg" xmlns:xlink="http://www.w3.org/1999/xlink" x="0px" y="0px"
	 viewBox="0 0 827.5 433.3" style="enable-background:new 0 0 827.5 433.3;" xml:space="preserve">
<style type="text/css">
	.st0{fill:#2E4161;}
	.st1{font-family:'Arial-BoldMT';}
	.st2{font-size:88.84px;}
	.st3{font-family:'ArialMT';}
	.st4{font-size:55.525px;}
	.st5{letter-spacing:1;}
	.st6{font-size:50.273px;}
	.st7{fill:none;stroke:#7F7874;stroke-width:0.785;}
	.st8{fill:#2E2A26;}
	.st9{font-size:25px;}
	.st10{fill:none;stroke:#2E4161;stroke-width:3.176;stroke-linecap:round;stroke-linejoin:round;}
	.st11{fill:#498BCA;}
	.st12{fill:none;stroke:#498BCA;stroke-width:3.176;stroke-linecap:round;stroke-linejoin:round;}
	.st13{fill:#76A1D5;}
	.st14{fill:none;stroke:#76A1D5;stroke-width:3.176;stroke-linecap:round;stroke-linejoin:round;}
</style>
<g>
	<g>
		<text transform="matrix(1 0 0 1 0 362.6533)" class="st0 st1 st2">896</text>
		<text transform="matrix(1 0 0 1 0 421.2534)" class="st0 st3 st4 st5">Events</text>
	</g>
	<g>
		<rect id="Rectangle_32" x="216.2" y="342.8" class="st0" width="115.2" height="79.3"/>
	</g>
	<g>
		<text transform="matrix(1 0 0 1 229.074 160.8652)" class="st0 st1 st6">20%</text>
		<line id="Line_10" class="st7" x1="274.3" y1="343.9" x2="274.3" y2="177.4"/>
	</g>
	<g>
		<text transform="matrix(1 0 0 1 201.037 93.1191)" class="st8 st3 st9">Face-to-Face</text>
		<path id="Path_644" class="st10" d="M323.7,57.4V35.7c4-3.6,6.3-8.7,6.3-14.1c0-11.1-9.7-20-21.7-20s-21.7,9-21.7,20
			c0,0.3,0,0.6,0,0.9l-3,4.8l-4,6.4h5v7.9c0.1,3.1,2.7,5.5,5.9,5.4h9.3v10.3 M226.1,57.4V35.7c-4-3.6-6.3-8.7-6.3-14.1
			c0-11.1,9.7-20,21.7-20s21.7,9,21.7,20c0,0.3,0,0.6,0,0.9l3,4.8l4,6.4h-5v7.9c-0.1,3.1-2.7,5.5-5.9,5.4h-9.3v10.3"/>
	</g>
	<g>
		<rect id="Rectangle_31" x="344.1" y="342.8" class="st11" width="449.2" height="79.3"/>
	</g>
	<g>
		<text transform="matrix(1 0 0 1 421.758 231.7251)" class="st11 st1 st6">78%</text>
		<path id="Path_648" class="st7" d="M579,343.9V217.3h-41.3"/>
	</g>
	<g>
		<path id="Path_645" class="st12" d="M429.2,82.2V84c0,2.9,2.4,5.3,5.3,5.3c0,0,0,0,0,0h74.1c2.9,0,5.3-2.4,5.3-5.3c0,0,0,0,0,0
			v-1.8H429.2z M508.2,10.3c-7.6-7.6-19.9-7.6-27.4,0c-6.5,6.5-7.6,16.7-2.5,24.4l-3.7,9.3l9.3-3.7c9,5.9,21,3.4,26.9-5.6
			C515.8,27,514.7,16.8,508.2,10.3L508.2,10.3z M508.6,46.4v35.8 M491,82.2v-9.1c0-2.9-1.7-5.5-4.4-6.6l-7.6-3.2
			c-1.3-0.6-2.2-1.8-2.2-3.3V60c2.2-2.3,2.6-6.3,2.6-10.4 M468.3,40.5c-2.9,1.3-4.7,4.1-4.7,7.2c0,4.7,0.1,9.6,2.6,12.3v0
			c0,1.4-0.8,2.7-2.2,3.3l-7.6,3.2c-2.6,1.1-4.4,3.7-4.4,6.6v9.1 M434.5,82.2V36.3c0-2.9,2.4-5.3,5.3-5.3H469"/>
		<text transform="matrix(1 0 0 1 411.794 126.5742)" class="st8 st3 st9">e-Learning</text>
		<text transform="matrix(1 0 0 1 418.74 156.5742)" class="st8 st3 st9">and other</text>
	</g>
	<g>
		<rect id="Rectangle_30" x="806.1" y="342.8" class="st13" width="11.5" height="79.3"/>
	</g>
	<g>
		<text transform="matrix(1 0 0 1 710.6349 296.3442)" class="st13 st1 st6">2%</text>
		<path id="Path_649" class="st7" d="M812.3,343.9v-59.8h-16.9"/>
	</g>
	<g>
		<path id="Path_646" class="st14" d="M595,179.4v1.8c0,2.9,2.4,5.3,5.3,5.3c0,0,0,0,0,0h74.1c2.9,0,5.3-2.4,5.3-5.3c0,0,0,0,0,0
			v-1.8H595z M673.9,107.4c-7.6-7.6-19.9-7.6-27.4,0c-6.5,6.5-7.6,16.7-2.5,24.4l-3.7,9.3l9.3-3.7c9,5.9,21,3.4,26.9-5.6
			C681.5,124.1,680.5,113.9,673.9,107.4L673.9,107.4z M674.3,143.5v35.8 M656.7,179.4v-9.1c0-2.9-1.7-5.5-4.4-6.6l-7.6-3.2
			c-1.3-0.6-2.2-1.8-2.2-3.3v-0.1c2.2-2.3,2.6-6.3,2.6-10.4 M634.1,137.7c-2.9,1.3-4.7,4.1-4.7,7.2c0,4.7,0.1,9.6,2.6,12.3v0
			c0,1.4-0.8,2.7-2.2,3.3l-7.6,3.2c-2.6,1.1-4.4,3.7-4.4,6.6v9.1 M600.3,179.4v-45.9c0-2.9,2.4-5.3,5.3-5.3h29.2"/>
		<path id="Path_647" class="st14" d="M819.6,180.7v-21.6c4-3.6,6.3-8.7,6.3-14.1c0-11.1-9.7-20-21.7-20s-21.7,9-21.7,20
			c0,0.3,0,0.6,0,0.9l-3,4.8l-4,6.4h5.1v7.9c0.1,3.1,2.7,5.5,5.9,5.4h9.3v10.3 M722,180.7v-21.6c-4-3.6-6.3-8.7-6.3-14.1
			c0-11.1,9.7-20,21.7-20s21.7,9,21.7,20c0,0.3,0,0.6,0,0.9l3,4.8l4,6.4h-5v7.9c-0.1,3.1-2.7,5.5-5.9,5.4h-9.3v10.3"/>
		<text transform="matrix(1 0 0 1 614.593 227.1904)" class="st8 st3 st9">Blended learning</text>
		<rect id="Rectangle_33" x="696.3" y="142.5" class="st13" width="3.5" height="42.9"/>
	</g>
</g>
</svg>
