<?xml version="1.0" encoding="utf-8"?>
<!-- Generator: Adobe Illustrator 25.4.1, SVG Export Plug-In . SVG Version: 6.00 Build 0)  -->
<svg version="1.1" id="Camada_1" xmlns="http://www.w3.org/2000/svg" xmlns:xlink="http://www.w3.org/1999/xlink" x="0px" y="0px"
	 viewBox="0 0 860.7 588.8" style="enable-background:new 0 0 860.7 588.8;" xml:space="preserve">
<style type="text/css">
	.st0{fill:none;}
	.st1{fill:none;stroke:#7F7874;stroke-width:0.372;}
	.st2{fill:none;stroke:#7F7874;stroke-width:0.503;stroke-linecap:round;stroke-dasharray:2.011,2.011;}
	.st3{fill:#2E2A26;}
	.st4{font-family:'ArialMT';}
	.st5{font-size:16.101px;}
	.st6{fill:none;stroke:#2E4161;stroke-width:6;stroke-linecap:round;stroke-linejoin:round;}
	.st7{fill:#2E4161;}
	.st8{font-family:'Arial-BoldMT';}
	.st9{font-size:20.126px;}
	.st10{fill:none;stroke:#498BCA;stroke-width:6;stroke-linecap:round;stroke-linejoin:round;}
	.st11{fill:#498BCA;}
	.st12{font-size:20.015px;}
	.st13{font-size:32.201px;}
</style>
<g>
	<g>
		<rect class="st0" width="858.8" height="588.8"/>
		<line id="Line_1" class="st1" x1="0" y1="28.7" x2="855" y2="28.7"/>
		<line id="Line_2" class="st1" x1="0" y1="327.7" x2="855" y2="327.7"/>
		<line id="Line_3" class="st1" x1="0" y1="427.5" x2="855" y2="427.5"/>
		<line id="Line_4" class="st1" x1="0" y1="228" x2="855" y2="228"/>
		<line id="Line_5" class="st1" x1="0" y1="128.3" x2="855" y2="128.3"/>
		<line id="Line_6" class="st2" x1="21.2" y1="449" x2="21.2" y2="20.8"/>
		<line id="Line_7" class="st2" x1="391" y1="449" x2="391" y2="20.8"/>
		<line id="Line_8" class="st2" x1="760.8" y1="449" x2="760.8" y2="20.8"/>
		<text transform="matrix(1 0 0 1 4.931 480.415)" class="st3 st4 st5">2018</text>
		<text transform="matrix(1 0 0 1 374.522 480.415)" class="st3 st4 st5">2019</text>
		<rect class="st0" width="858.8" height="588.8"/>
		<rect class="st0" width="858.8" height="588.8"/>
		<rect class="st0" width="858.8" height="588.8"/>
		<text transform="matrix(1 0 0 1 742.7831 480.415)" class="st3 st4 st5">2020</text>
		<rect class="st0" width="858.8" height="588.8"/>
		<rect class="st0" width="858.8" height="588.8"/>
	</g>
	<g>
		<path id="Path_28" class="st6" d="M762.2,204.5c0,0-283.5,119.2-371.4,136.3c-91.8,17.9-371,40.5-371,40.5"/>
		<path id="Path_32" class="st7" d="M21.7,386.8c3.1,0,5.7-2.6,5.7-5.7c0-3.1-2.6-5.7-5.7-5.7c-3.1,0-5.7,2.6-5.7,5.7
			C16,384.2,18.5,386.8,21.7,386.8C21.7,386.8,21.7,386.8,21.7,386.8"/>
		<path id="Path_33" class="st7" d="M391.4,347.1c3.1,0,5.7-2.6,5.7-5.7c0-3.1-2.6-5.7-5.7-5.7c-3.1,0-5.7,2.6-5.7,5.7
			C385.7,344.6,388.2,347.1,391.4,347.1C391.4,347.1,391.4,347.1,391.4,347.1"/>
		<path id="Path_34" class="st7" d="M762.2,210.8c3.1,0,5.7-2.6,5.7-5.7s-2.6-5.7-5.7-5.7c-3.1,0-5.7,2.5-5.7,5.7
			C756.5,208.2,759,210.8,762.2,210.8"/>
	</g>
	<text transform="matrix(1 0 0 1 53.12 402.5869)" class="st3 st8 st9">24,000</text>
	<text transform="matrix(1 0 0 1 421.664 358.0898)" class="st3 st8 st9">41,043</text>
	<text transform="matrix(1 0 0 1 785.0115 209.189)" class="st3 st8 st9">112,529</text>
	<g>
		<path id="Path_27" class="st10" d="M760.8,14.3c0,0-240.9,176.4-369.1,228.5C287.8,285,19.8,307.2,19.8,307.2"/>
		<path id="Path_29" class="st11" d="M760.8,20.3c3.1,0,5.7-2.6,5.7-5.7c0-3.1-2.6-5.7-5.7-5.7c-3.1,0-5.7,2.6-5.7,5.7
			C755,17.7,757.6,20.2,760.8,20.3C760.7,20.3,760.8,20.3,760.8,20.3"/>
		<path id="Path_30" class="st11" d="M391.4,248.7c3.1,0,5.7-2.6,5.7-5.7c0-3.1-2.6-5.7-5.7-5.7c-3.1,0-5.7,2.6-5.7,5.7
			C385.7,246.2,388.2,248.7,391.4,248.7C391.4,248.7,391.4,248.7,391.4,248.7"/>
		<path id="Path_31" class="st11" d="M21.7,312.6c3.1,0,5.7-2.6,5.7-5.7c0-3.1-2.6-5.7-5.7-5.7c-3.1,0-5.7,2.6-5.7,5.7
			C16,310.1,18.5,312.6,21.7,312.6C21.7,312.6,21.7,312.6,21.7,312.6"/>
	</g>
	<text transform="matrix(1 0 0 1 53.12 328.1389)" class="st3 st8 st9">60,901</text>
	<text transform="matrix(1 0 0 1 421.664 254.261)" class="st3 st8 st9">92,378</text>
	<text transform="matrix(1 0 0 1 786.045 14.6509)" class="st3 st8 st9">209,881</text>
	<g>
		<text transform="matrix(1 0 0 1 41.264 552.6418)" class="st3 st4 st5">Event with</text>
		<text transform="matrix(1 0 0 1 41.264 571.9628)" class="st3 st4 st5">learning outcome</text>
		<path id="Path_25" class="st11" d="M22.2,555.7c4.7,0,8.6-3.8,8.6-8.6c0-4.7-3.8-8.6-8.6-8.6s-8.6,3.8-8.6,8.6l0,0
			C13.7,551.9,17.5,555.7,22.2,555.7"/>
	</g>
	<g>
		<text transform="matrix(1 0 0 1 241.605 552.9219)" class="st3 st4 st5">Other knowledge-sharing</text>
		<text transform="matrix(1 0 0 1 241.605 572.2429)" class="st3 st4 st5">and training-related</text>
		<path id="Path_26" class="st7" d="M223.1,556c4.7,0,8.6-3.8,8.6-8.6c0-4.7-3.8-8.6-8.6-8.6s-8.6,3.8-8.6,8.6l0,0
			C214.6,552.1,218.4,556,223.1,556"/>
	</g>
	<text transform="matrix(1 0 0 1 605.7261 552.3569)" class="st3 st8 st12">Total beneficiaries in 2020:</text>
	<text transform="matrix(1 0 0 1 743.7001 588.782)" class="st3 st8 st13">322,410</text>
</g>
</svg>
