<?xml version="1.0" encoding="utf-8"?>
<!-- Generator: Adobe Illustrator 25.4.1, SVG Export Plug-In . SVG Version: 6.00 Build 0)  -->
<svg version="1.1" id="Camada_1" xmlns="http://www.w3.org/2000/svg" xmlns:xlink="http://www.w3.org/1999/xlink" x="0px" y="0px"
	 viewBox="0 0 1205.9 359.7" style="enable-background:new 0 0 1205.9 359.7;" xml:space="preserve">
<style type="text/css">
	.st0{fill:#F29420;}
	.st1{fill:#2E2A26;}
	.st2{font-family:'Arial-BoldMT';}
	.st3{font-size:20.117px;}
	.st4{font-family:'ArialMT';}
	.st5{font-size:40.234px;}
	.st6{fill:#2E4161;}
	.st7{letter-spacing:-1;}
	.st8{fill:#50C1EF;}
	.st9{fill:#7172B3;}
	.st10{fill:#26A753;}
</style>
<g>
	<path id="Path_643" class="st0" d="M424.7,0c-7.6,0-13.8,6.2-13.8,13.8c0,7.6,6.2,13.8,13.8,13.8c7.6,0,13.8-6.2,13.8-13.8
		c0,0,0,0,0,0C438.6,6.2,432.4,0,424.7,0"/>
	<g>
		<text transform="matrix(1 0 0 1 934.119 22.7036)" class="st1 st2 st3">S04</text>
		<text transform="matrix(1 0 0 1 969.9081 22.7036)" class="st1 st4 st3"> Inclusive and sustainable </text>
		<text transform="matrix(1 0 0 1 934.119 47.8496)" class="st1 st4 st3">economic growth</text>
		<text transform="matrix(1 0 0 1 856.5601 41.627)" class="st0 st2 st5">1%</text>
	</g>
	<g>
		<path id="Path_641" class="st6" d="M500.7,0c-7.6,0-13.8,6.2-13.8,13.8c0,7.6,6.2,13.8,13.8,13.8c7.6,0,13.8-6.2,13.8-13.8
			c0,0,0,0,0,0C514.5,6.2,508.4,0,500.7,0"/>
		<path id="Path_642" class="st6" d="M462.7,0c-7.6,0-13.8,6.2-13.8,13.8c0,7.6,6.2,13.8,13.8,13.8c7.6,0,13.8-6.2,13.8-13.8
			c0,0,0,0,0,0C476.6,6.2,470.4,0,462.7,0"/>
	</g>
	<g>
		<text transform="matrix(1 0 0 1 856.5601 108.8579)" class="st6 st2 st5">2%</text>
		<text transform="matrix(1 0 0 1 934.119 88.167)" class="st1 st2 st3">S05</text>
		<text transform="matrix(1 0 0 1 969.9081 88.167)" class="st1 st4 st3"> Indivisible and integrated </text>
		<text transform="matrix(1 0 0 1 934.119 113.314)" class="st1 st4 st3">nature of the 2030</text>
		<text transform="matrix(1 0 0 1 1097.4222 113.314)" class="st1 st4 st3 st7"> </text>
		<text transform="matrix(1 0 0 1 1101.925 113.314)" class="st1 st4 st3">Agenda</text>
	</g>
	<g>
		<path id="Path_589" class="st8" d="M765.7,0c-7.6,0-13.8,6.2-13.8,13.8c0,7.6,6.2,13.8,13.8,13.8c7.6,0,13.8-6.2,13.8-13.8
			c0,0,0,0,0,0C779.5,6.2,773.3,0,765.7,0"/>
		<path id="Path_590" class="st8" d="M727.7,0c-7.6,0-13.8,6.2-13.8,13.8c0,7.6,6.2,13.8,13.8,13.8c7.6,0,13.8-6.2,13.8-13.8
			c0,0,0,0,0,0C741.5,6.2,735.3,0,727.7,0"/>
		<path id="Path_591" class="st8" d="M689.7,0c-7.6,0-13.8,6.2-13.8,13.8c0,7.6,6.2,13.8,13.8,13.8c7.6,0,13.8-6.2,13.8-13.8
			c0,0,0,0,0,0C703.5,6.2,697.3,0,689.7,0"/>
		<path id="Path_592" class="st8" d="M651.7,0c-7.6,0-13.8,6.2-13.8,13.8c0,7.6,6.2,13.8,13.8,13.8c7.6,0,13.8-6.2,13.8-13.8
			c0,0,0,0,0,0C665.5,6.2,659.3,0,651.7,0"/>
		<path id="Path_593" class="st8" d="M613.7,0c-7.6,0-13.8,6.2-13.8,13.8s6.2,13.8,13.8,13.8c7.6,0,13.8-6.2,13.8-13.8c0,0,0,0,0,0
			C627.5,6.2,621.3,0,613.7,0"/>
		<path id="Path_637" class="st8" d="M462.7,35.9c-7.6,0-13.8,6.2-13.8,13.8c0,7.6,6.2,13.8,13.8,13.8c7.6,0,13.8-6.2,13.8-13.8
			c0,0,0,0,0,0C476.6,42.1,470.4,35.9,462.7,35.9"/>
		<path id="Path_638" class="st8" d="M424.7,35.9c-7.6,0-13.8,6.2-13.8,13.8c0,7.6,6.2,13.8,13.8,13.8c7.6,0,13.8-6.2,13.8-13.8l0,0
			C438.6,42.1,432.4,35.9,424.7,35.9"/>
		<path id="Path_639" class="st8" d="M576.7,0c-7.6,0-13.8,6.2-13.8,13.8c0,7.6,6.2,13.8,13.8,13.8c7.6,0,13.8-6.2,13.8-13.8
			c0,0,0,0,0,0C590.5,6.2,584.3,0,576.7,0"/>
		<path id="Path_640" class="st8" d="M538.7,0c-7.6,0-13.8,6.2-13.8,13.8c0,7.6,6.2,13.8,13.8,13.8c7.6,0,13.8-6.2,13.8-13.8
			c0,0,0,0,0,0C552.5,6.2,546.4,0,538.7,0"/>
	</g>
	<g>
		<text transform="matrix(1 0 0 1 12.286 212.9839)" class="st8 st2 st5">9%</text>
		<text transform="matrix(1 0 0 1 99.944 194.1426)" class="st1 st2 st3">S01</text>
		<text transform="matrix(1 0 0 1 135.732 194.1426)" class="st1 st4 st3"> Peace and just and </text>
		<text transform="matrix(1 0 0 1 99.944 219.2886)" class="st1 st4 st3">inclusive societies</text>
	</g>
	<g>
		<path id="Path_571" class="st9" d="M689.7,147c-7.6,0-13.8,6.2-13.8,13.8c0,7.6,6.2,13.8,13.8,13.8c7.6,0,13.8-6.2,13.8-13.8
			c0,0,0,0,0,0C703.5,153.2,697.3,147,689.7,147"/>
		<path id="Path_572" class="st9" d="M651.7,147c-7.6,0-13.8,6.2-13.8,13.8c0,7.6,6.2,13.8,13.8,13.8c7.6,0,13.8-6.2,13.8-13.8
			c0,0,0,0,0,0C665.5,153.2,659.3,147,651.7,147"/>
		<path id="Path_573" class="st9" d="M613.7,147c-7.6,0-13.8,6.2-13.8,13.8s6.2,13.8,13.8,13.8c7.6,0,13.8-6.2,13.8-13.8
			c0,0,0,0,0,0C627.5,153.2,621.3,147,613.7,147"/>
		<path id="Path_574" class="st9" d="M765.7,110c-7.6,0-13.8,6.2-13.8,13.8c0,7.6,6.2,13.8,13.8,13.8c7.6,0,13.8-6.2,13.8-13.8
			c0,0,0,0,0,0C779.5,116.2,773.3,110,765.7,110"/>
		<path id="Path_575" class="st9" d="M727.7,110c-7.6,0-13.8,6.2-13.8,13.8c0,7.6,6.2,13.8,13.8,13.8c7.6,0,13.8-6.2,13.8-13.8
			c0,0,0,0,0,0C741.5,116.2,735.3,110,727.7,110"/>
		<path id="Path_576" class="st9" d="M689.7,110c-7.6,0-13.8,6.2-13.8,13.8c0,7.6,6.2,13.8,13.8,13.8c7.6,0,13.8-6.2,13.8-13.8
			c0,0,0,0,0,0C703.5,116.2,697.3,110,689.7,110"/>
		<path id="Path_577" class="st9" d="M651.7,110c-7.6,0-13.8,6.2-13.8,13.8c0,7.6,6.2,13.8,13.8,13.8c7.6,0,13.8-6.2,13.8-13.8
			c0,0,0,0,0,0C665.5,116.2,659.3,110,651.7,110"/>
		<path id="Path_578" class="st9" d="M613.7,110c-7.6,0-13.8,6.2-13.8,13.8s6.2,13.8,13.8,13.8c7.6,0,13.8-6.2,13.8-13.8
			c0,0,0,0,0,0C627.5,116.2,621.3,110,613.7,110"/>
		<path id="Path_579" class="st9" d="M765.7,72.9c-7.6,0-13.8,6.2-13.8,13.8c0,7.6,6.2,13.8,13.8,13.8c7.6,0,13.8-6.2,13.8-13.8l0,0
			C779.5,79.1,773.3,72.9,765.7,72.9"/>
		<path id="Path_580" class="st9" d="M727.7,72.9c-7.6,0-13.8,6.2-13.8,13.8c0,7.6,6.2,13.8,13.8,13.8c7.6,0,13.8-6.2,13.8-13.8l0,0
			C741.5,79.1,735.3,72.9,727.7,72.9"/>
		<path id="Path_581" class="st9" d="M689.7,72.9c-7.6,0-13.8,6.2-13.8,13.8c0,7.6,6.2,13.8,13.8,13.8c7.6,0,13.8-6.2,13.8-13.8l0,0
			C703.5,79.1,697.3,72.9,689.7,72.9"/>
		<path id="Path_582" class="st9" d="M651.7,72.9c-7.6,0-13.8,6.2-13.8,13.8c0,7.6,6.2,13.8,13.8,13.8s13.8-6.2,13.8-13.8l0,0
			C665.5,79.1,659.3,72.9,651.7,72.9"/>
		<path id="Path_583" class="st9" d="M613.7,72.9c-7.6,0-13.8,6.2-13.8,13.8c0,7.6,6.2,13.8,13.8,13.8s13.8-6.2,13.8-13.8l0,0
			C627.5,79.1,621.3,72.9,613.7,72.9"/>
		<path id="Path_584" class="st9" d="M765.7,35.9c-7.6,0-13.8,6.2-13.8,13.8c0,7.6,6.2,13.8,13.8,13.8c7.6,0,13.8-6.2,13.8-13.8
			c0,0,0,0,0,0C779.5,42.1,773.3,35.9,765.7,35.9"/>
		<path id="Path_585" class="st9" d="M727.7,35.9c-7.6,0-13.8,6.2-13.8,13.8c0,7.6,6.2,13.8,13.8,13.8c7.6,0,13.8-6.2,13.8-13.8
			c0,0,0,0,0,0C741.5,42.1,735.3,35.9,727.7,35.9"/>
		<path id="Path_586" class="st9" d="M689.7,35.9c-7.6,0-13.8,6.2-13.8,13.8c0,7.6,6.2,13.8,13.8,13.8c7.6,0,13.8-6.2,13.8-13.8
			c0,0,0,0,0,0C703.5,42.1,697.3,35.9,689.7,35.9"/>
		<path id="Path_587" class="st9" d="M651.7,35.9c-7.6,0-13.8,6.2-13.8,13.8c0,7.6,6.2,13.8,13.8,13.8c7.6,0,13.8-6.2,13.8-13.8
			c0,0,0,0,0,0C665.5,42.1,659.3,35.9,651.7,35.9"/>
		<path id="Path_588" class="st9" d="M613.7,35.9c-7.6,0-13.8,6.2-13.8,13.8s6.2,13.8,13.8,13.8c7.6,0,13.8-6.2,13.8-13.8
			c0,0,0,0,0,0C627.5,42.1,621.3,35.9,613.7,35.9"/>
		<path id="Path_619" class="st9" d="M576.7,147c-7.6,0-13.8,6.2-13.8,13.8c0,7.6,6.2,13.8,13.8,13.8c7.6,0,13.8-6.2,13.8-13.8
			c0,0,0,0,0,0C590.5,153.2,584.3,147,576.7,147"/>
		<path id="Path_620" class="st9" d="M538.7,147c-7.6,0-13.8,6.2-13.8,13.8c0,7.6,6.2,13.8,13.8,13.8c7.6,0,13.8-6.2,13.8-13.8
			c0,0,0,0,0,0C552.5,153.2,546.4,147,538.7,147"/>
		<path id="Path_621" class="st9" d="M500.7,147c-7.6,0-13.8,6.2-13.8,13.8c0,7.6,6.2,13.8,13.8,13.8c7.6,0,13.8-6.2,13.8-13.8
			c0,0,0,0,0,0C514.5,153.2,508.4,147,500.7,147"/>
		<path id="Path_622" class="st9" d="M462.7,147c-7.6,0-13.8,6.2-13.8,13.8c0,7.6,6.2,13.8,13.8,13.8c7.6,0,13.8-6.2,13.8-13.8
			c0,0,0,0,0,0C476.6,153.2,470.4,147,462.7,147"/>
		<path id="Path_623" class="st9" d="M424.7,147c-7.6,0-13.8,6.2-13.8,13.8c0,7.6,6.2,13.8,13.8,13.8c7.6,0,13.8-6.2,13.8-13.8
			c0,0,0,0,0,0C438.6,153.2,432.4,147,424.7,147"/>
		<path id="Path_624" class="st9" d="M576.7,110c-7.6,0-13.8,6.2-13.8,13.8c0,7.6,6.2,13.8,13.8,13.8c7.6,0,13.8-6.2,13.8-13.8
			c0,0,0,0,0,0C590.5,116.2,584.3,110,576.7,110"/>
		<path id="Path_625" class="st9" d="M538.7,110c-7.6,0-13.8,6.2-13.8,13.8c0,7.6,6.2,13.8,13.8,13.8c7.6,0,13.8-6.2,13.8-13.8
			c0,0,0,0,0,0C552.5,116.2,546.4,110,538.7,110"/>
		<path id="Path_626" class="st9" d="M500.7,110c-7.6,0-13.8,6.2-13.8,13.8c0,7.6,6.2,13.8,13.8,13.8c7.6,0,13.8-6.2,13.8-13.8
			c0,0,0,0,0,0C514.5,116.2,508.4,110,500.7,110"/>
		<path id="Path_627" class="st9" d="M462.7,110c-7.6,0-13.8,6.2-13.8,13.8c0,7.6,6.2,13.8,13.8,13.8c7.6,0,13.8-6.2,13.8-13.8
			c0,0,0,0,0,0C476.6,116.2,470.4,110,462.7,110"/>
		<path id="Path_628" class="st9" d="M424.7,110c-7.6,0-13.8,6.2-13.8,13.8c0,7.6,6.2,13.8,13.8,13.8c7.6,0,13.8-6.2,13.8-13.8
			c0,0,0,0,0,0C438.6,116.2,432.4,110,424.7,110"/>
		<path id="Path_629" class="st9" d="M576.7,72.9c-7.6,0-13.8,6.2-13.8,13.8s6.2,13.8,13.8,13.8c7.6,0,13.8-6.2,13.8-13.8
			C590.5,79.1,584.4,72.9,576.7,72.9"/>
		<path id="Path_630" class="st9" d="M538.7,72.9c-7.6,0-13.8,6.2-13.8,13.8c0,7.6,6.2,13.8,13.8,13.8c7.6,0,13.8-6.2,13.8-13.8
			c0,0,0,0,0,0C552.5,79.1,546.4,72.9,538.7,72.9C538.7,72.9,538.7,72.9,538.7,72.9"/>
		<path id="Path_631" class="st9" d="M500.7,72.9c-7.6,0-13.8,6.2-13.8,13.8s6.2,13.8,13.8,13.8s13.8-6.2,13.8-13.8l0,0
			C514.5,79.1,508.4,72.9,500.7,72.9"/>
		<path id="Path_632" class="st9" d="M462.7,72.9c-7.6,0-13.8,6.2-13.8,13.8s6.2,13.8,13.8,13.8s13.8-6.2,13.8-13.8l0,0
			C476.6,79.1,470.4,72.9,462.7,72.9"/>
		<path id="Path_633" class="st9" d="M424.7,72.9c-7.6,0-13.8,6.2-13.8,13.8c0,7.6,6.2,13.8,13.8,13.8c7.6,0,13.8-6.2,13.8-13.8
			C438.6,79.1,432.4,72.9,424.7,72.9C424.7,72.9,424.7,72.9,424.7,72.9"/>
		<path id="Path_634" class="st9" d="M576.7,35.9c-7.6,0-13.8,6.2-13.8,13.8c0,7.6,6.2,13.8,13.8,13.8c7.6,0,13.8-6.2,13.8-13.8
			c0,0,0,0,0,0C590.5,42.1,584.3,35.9,576.7,35.9"/>
		<path id="Path_635" class="st9" d="M538.7,35.9c-7.6,0-13.8,6.2-13.8,13.8c0,7.6,6.2,13.8,13.8,13.8c7.6,0,13.8-6.2,13.8-13.8l0,0
			C552.5,42.1,546.4,35.9,538.7,35.9"/>
		<path id="Path_636" class="st9" d="M500.7,35.9c-7.6,0-13.8,6.2-13.8,13.8c0,7.6,6.2,13.8,13.8,13.8c7.6,0,13.8-6.2,13.8-13.8
			c0,0,0,0,0,0C514.5,42.1,508.4,35.9,500.7,35.9"/>
	</g>
	<g>
		<text transform="matrix(1 0 0 1 99.937 263.1729)" class="st1 st2 st3">S02</text>
		<text transform="matrix(1 0 0 1 135.724 263.1729)" class="st1 st4 st3"> People and </text>
		<text transform="matrix(1 0 0 1 99.937 288.3198)" class="st1 st4 st3">social inclusion</text>
		<text transform="matrix(1 0 0 1 1.007080e-03 281.9849)" class="st9 st2 st5">36%</text>
	</g>
	<g>
		<path id="Path_544" class="st10" d="M765.7,332.1c-7.6,0-13.8,6.2-13.8,13.8s6.2,13.8,13.8,13.8c7.6,0,13.8-6.2,13.8-13.8
			C779.5,338.3,773.3,332.1,765.7,332.1"/>
		<path id="Path_545" class="st10" d="M727.7,332.1c-7.6,0-13.8,6.2-13.8,13.8s6.2,13.8,13.8,13.8c7.6,0,13.8-6.2,13.8-13.8
			C741.5,338.3,735.3,332.1,727.7,332.1"/>
		<path id="Path_546" class="st10" d="M689.7,332.1c-7.6,0-13.8,6.2-13.8,13.8s6.2,13.8,13.8,13.8c7.6,0,13.8-6.2,13.8-13.8
			C703.5,338.3,697.3,332.1,689.7,332.1"/>
		<path id="Path_547" class="st10" d="M651.7,332.1c-7.6,0-13.8,6.2-13.8,13.8s6.2,13.8,13.8,13.8c7.6,0,13.8-6.2,13.8-13.8
			C665.5,338.3,659.3,332.1,651.7,332.1"/>
		<path id="Path_548" class="st10" d="M613.7,332.1c-7.6,0-13.8,6.2-13.8,13.8s6.2,13.8,13.8,13.8c7.6,0,13.8-6.2,13.8-13.8
			C627.5,338.3,621.3,332.1,613.7,332.1"/>
		<path id="Path_549" class="st10" d="M765.7,295.1c-7.6,0-13.8,6.2-13.8,13.8c0,7.6,6.2,13.8,13.8,13.8c7.6,0,13.8-6.2,13.8-13.8
			c0,0,0,0,0,0C779.5,301.3,773.3,295.1,765.7,295.1"/>
		<path id="Path_550" class="st10" d="M727.7,295.1c-7.6,0-13.8,6.2-13.8,13.8c0,7.6,6.2,13.8,13.8,13.8c7.6,0,13.8-6.2,13.8-13.8
			c0,0,0,0,0,0C741.5,301.3,735.3,295.1,727.7,295.1"/>
		<path id="Path_551" class="st10" d="M689.7,295.1c-7.6,0-13.8,6.2-13.8,13.8c0,7.6,6.2,13.8,13.8,13.8c7.6,0,13.8-6.2,13.8-13.8
			c0,0,0,0,0,0C703.5,301.3,697.3,295.1,689.7,295.1"/>
		<path id="Path_552" class="st10" d="M651.7,295.1c-7.6,0-13.8,6.2-13.8,13.8c0,7.6,6.2,13.8,13.8,13.8s13.8-6.2,13.8-13.8
			c0,0,0,0,0,0C665.5,301.3,659.3,295.1,651.7,295.1"/>
		<path id="Path_553" class="st10" d="M613.7,295.1c-7.6,0-13.8,6.2-13.8,13.8c0,7.6,6.2,13.8,13.8,13.8s13.8-6.2,13.8-13.8
			c0,0,0,0,0,0C627.5,301.3,621.3,295.1,613.7,295.1"/>
		<path id="Path_554" class="st10" d="M765.7,258.1c-7.6,0-13.8,6.2-13.8,13.8c0,7.6,6.2,13.8,13.8,13.8c7.6,0,13.8-6.2,13.8-13.8
			c0,0,0,0,0,0C779.5,264.3,773.3,258.1,765.7,258.1"/>
		<path id="Path_555" class="st10" d="M727.7,258.1c-7.6,0-13.8,6.2-13.8,13.8c0,7.6,6.2,13.8,13.8,13.8c7.6,0,13.8-6.2,13.8-13.8
			c0,0,0,0,0,0C741.5,264.3,735.3,258.1,727.7,258.1"/>
		<path id="Path_556" class="st10" d="M689.7,258.1c-7.6,0-13.8,6.2-13.8,13.8c0,7.6,6.2,13.8,13.8,13.8c7.6,0,13.8-6.2,13.8-13.8
			c0,0,0,0,0,0C703.5,264.3,697.3,258.1,689.7,258.1"/>
		<path id="Path_557" class="st10" d="M651.7,258.1c-7.6,0-13.8,6.2-13.8,13.8c0,7.6,6.2,13.8,13.8,13.8c7.6,0,13.8-6.2,13.8-13.8
			c0,0,0,0,0,0C665.5,264.3,659.3,258.1,651.7,258.1"/>
		<path id="Path_558" class="st10" d="M613.7,258.1c-7.6,0-13.8,6.2-13.8,13.8s6.2,13.8,13.8,13.8c7.6,0,13.8-6.2,13.8-13.8
			c0,0,0,0,0,0C627.5,264.3,621.3,258.1,613.7,258.1"/>
		<path id="Path_559" class="st10" d="M765.7,221c-7.6,0-13.8,6.2-13.8,13.8c0,7.6,6.2,13.8,13.8,13.8c7.6,0,13.8-6.2,13.8-13.8
			C779.5,227.2,773.3,221,765.7,221"/>
		<path id="Path_560" class="st10" d="M727.7,221c-7.6,0-13.8,6.2-13.8,13.8c0,7.6,6.2,13.8,13.8,13.8c7.6,0,13.8-6.2,13.8-13.8
			C741.5,227.2,735.3,221,727.7,221"/>
		<path id="Path_561" class="st10" d="M689.7,221c-7.6,0-13.8,6.2-13.8,13.8c0,7.6,6.2,13.8,13.8,13.8c7.6,0,13.8-6.2,13.8-13.8
			C703.5,227.2,697.3,221,689.7,221"/>
		<path id="Path_562" class="st10" d="M651.7,221c-7.6,0-13.8,6.2-13.8,13.8c0,7.6,6.2,13.8,13.8,13.8c7.6,0,13.8-6.2,13.8-13.8
			C665.5,227.2,659.3,221,651.7,221"/>
		<path id="Path_563" class="st10" d="M613.7,221c-7.6,0-13.8,6.2-13.8,13.8s6.2,13.8,13.8,13.8c7.6,0,13.8-6.2,13.8-13.8
			C627.5,227.2,621.3,221,613.7,221"/>
		<path id="Path_564" class="st10" d="M765.7,184c-7.6,0-13.8,6.2-13.8,13.8c0,7.6,6.2,13.8,13.8,13.8c7.6,0,13.8-6.2,13.8-13.8
			c0,0,0,0,0,0C779.5,190.2,773.3,184,765.7,184"/>
		<path id="Path_565" class="st10" d="M727.7,184c-7.6,0-13.8,6.2-13.8,13.8c0,7.6,6.2,13.8,13.8,13.8c7.6,0,13.8-6.2,13.8-13.8
			c0,0,0,0,0,0C741.5,190.2,735.3,184,727.7,184C727.7,184,727.7,184,727.7,184"/>
		<path id="Path_566" class="st10" d="M689.7,184c-7.6,0-13.8,6.2-13.8,13.8c0,7.6,6.2,13.8,13.8,13.8c7.6,0,13.8-6.2,13.8-13.8
			c0,0,0,0,0,0C703.5,190.2,697.3,184,689.7,184"/>
		<path id="Path_567" class="st10" d="M651.7,184c-7.6,0-13.8,6.2-13.8,13.8c0,7.6,6.2,13.8,13.8,13.8s13.8-6.2,13.8-13.8
			c0,0,0,0,0,0C665.5,190.2,659.3,184,651.7,184C651.7,184,651.7,184,651.7,184"/>
		<path id="Path_568" class="st10" d="M613.7,184c-7.6,0-13.8,6.2-13.8,13.8c0,7.6,6.2,13.8,13.8,13.8s13.8-6.2,13.8-13.8
			c0,0,0,0,0,0C627.5,190.2,621.3,184,613.7,184"/>
		<path id="Path_569" class="st10" d="M765.7,147c-7.6,0-13.8,6.2-13.8,13.8c0,7.6,6.2,13.8,13.8,13.8c7.6,0,13.8-6.2,13.8-13.8
			c0,0,0,0,0,0C779.5,153.2,773.3,147,765.7,147"/>
		<path id="Path_570" class="st10" d="M727.7,147c-7.6,0-13.8,6.2-13.8,13.8c0,7.6,6.2,13.8,13.8,13.8c7.6,0,13.8-6.2,13.8-13.8
			c0,0,0,0,0,0C741.5,153.2,735.3,147,727.7,147"/>
		<path id="Path_594" class="st10" d="M576.7,332.1c-7.6,0-13.8,6.2-13.8,13.8s6.2,13.8,13.8,13.8c7.6,0,13.8-6.2,13.8-13.8
			C590.5,338.3,584.3,332.1,576.7,332.1"/>
		<path id="Path_595" class="st10" d="M538.7,332.1c-7.6,0-13.8,6.2-13.8,13.8c0,7.6,6.2,13.8,13.8,13.8c7.6,0,13.8-6.2,13.8-13.8
			C552.5,338.3,546.4,332.1,538.7,332.1"/>
		<path id="Path_596" class="st10" d="M500.7,332.1c-7.6,0-13.8,6.2-13.8,13.8s6.2,13.8,13.8,13.8c7.6,0,13.8-6.2,13.8-13.8
			C514.5,338.3,508.4,332.1,500.7,332.1"/>
		<path id="Path_597" class="st10" d="M462.7,332.1c-7.6,0-13.8,6.2-13.8,13.8s6.2,13.8,13.8,13.8c7.6,0,13.8-6.2,13.8-13.8
			C476.6,338.3,470.4,332.1,462.7,332.1"/>
		<path id="Path_598" class="st10" d="M424.7,332.1c-7.6,0-13.8,6.2-13.8,13.8s6.2,13.8,13.8,13.8c7.6,0,13.8-6.2,13.8-13.8
			C438.6,338.3,432.4,332.1,424.7,332.1"/>
		<path id="Path_599" class="st10" d="M576.7,295.1c-7.6,0-13.8,6.2-13.8,13.8c0,7.6,6.2,13.8,13.8,13.8s13.8-6.2,13.8-13.8
			c0,0,0,0,0,0C590.5,301.3,584.3,295.1,576.7,295.1"/>
		<path id="Path_600" class="st10" d="M538.7,295.1c-7.6,0-13.8,6.2-13.8,13.8s6.2,13.8,13.8,13.8s13.8-6.2,13.8-13.8c0,0,0,0,0,0
			C552.5,301.3,546.4,295.1,538.7,295.1"/>
		<path id="Path_601" class="st10" d="M500.7,295.1c-7.6,0-13.8,6.2-13.8,13.8s6.2,13.8,13.8,13.8s13.8-6.2,13.8-13.8c0,0,0,0,0,0
			C514.5,301.3,508.4,295.1,500.7,295.1"/>
		<path id="Path_602" class="st10" d="M462.7,295.1c-7.6,0-13.8,6.2-13.8,13.8s6.2,13.8,13.8,13.8s13.8-6.2,13.8-13.8c0,0,0,0,0,0
			C476.6,301.3,470.4,295.1,462.7,295.1"/>
		<path id="Path_603" class="st10" d="M424.7,295.1c-7.6,0-13.8,6.2-13.8,13.8c0,7.6,6.2,13.8,13.8,13.8s13.8-6.2,13.8-13.8
			c0,0,0,0,0,0C438.6,301.3,432.4,295.1,424.7,295.1"/>
		<path id="Path_604" class="st10" d="M576.7,258.1c-7.6,0-13.8,6.2-13.8,13.8c0,7.6,6.2,13.8,13.8,13.8c7.6,0,13.8-6.2,13.8-13.8
			c0,0,0,0,0,0C590.5,264.3,584.3,258.1,576.7,258.1"/>
		<path id="Path_605" class="st10" d="M538.7,258.1c-7.6,0-13.8,6.2-13.8,13.8c0,7.6,6.2,13.8,13.8,13.8c7.6,0,13.8-6.2,13.8-13.8
			l0,0C552.5,264.2,546.4,258.1,538.7,258.1"/>
		<path id="Path_606" class="st10" d="M500.7,258.1c-7.6,0-13.8,6.2-13.8,13.8c0,7.6,6.2,13.8,13.8,13.8c7.6,0,13.8-6.2,13.8-13.8
			c0,0,0,0,0,0C514.5,264.3,508.4,258.1,500.7,258.1"/>
		<path id="Path_607" class="st10" d="M462.7,258.1c-7.6,0-13.8,6.2-13.8,13.8c0,7.6,6.2,13.8,13.8,13.8c7.6,0,13.8-6.2,13.8-13.8
			c0,0,0,0,0,0C476.6,264.3,470.4,258.1,462.7,258.1"/>
		<path id="Path_608" class="st10" d="M424.7,258.1c-7.6,0-13.8,6.2-13.8,13.8c0,7.6,6.2,13.8,13.8,13.8c7.6,0,13.8-6.2,13.8-13.8
			l0,0C438.6,264.2,432.4,258.1,424.7,258.1"/>
		<path id="Path_609" class="st10" d="M576.7,221c-7.6,0-13.8,6.2-13.8,13.8c0,7.6,6.2,13.8,13.8,13.8c7.6,0,13.8-6.2,13.8-13.8
			C590.5,227.2,584.4,221,576.7,221"/>
		<path id="Path_610" class="st10" d="M538.7,221c-7.6,0-13.8,6.2-13.8,13.8s6.2,13.8,13.8,13.8c7.6,0,13.8-6.2,13.8-13.8
			C552.5,227.2,546.4,221,538.7,221"/>
		<path id="Path_611" class="st10" d="M500.7,221c-7.6,0-13.8,6.2-13.8,13.8c0,7.6,6.2,13.8,13.8,13.8c7.6,0,13.8-6.2,13.8-13.8
			C514.5,227.2,508.4,221,500.7,221"/>
		<path id="Path_612" class="st10" d="M462.7,221c-7.6,0-13.8,6.2-13.8,13.8c0,7.6,6.2,13.8,13.8,13.8c7.6,0,13.8-6.2,13.8-13.8
			C476.5,227.2,470.4,221,462.7,221"/>
		<path id="Path_613" class="st10" d="M424.7,221c-7.6,0-13.8,6.2-13.8,13.8c0,7.6,6.2,13.8,13.8,13.8c7.6,0,13.8-6.2,13.8-13.8
			C438.6,227.2,432.4,221,424.7,221"/>
		<path id="Path_614" class="st10" d="M576.7,184c-7.6,0-13.8,6.2-13.8,13.8s6.2,13.8,13.8,13.8c7.6,0,13.8-6.2,13.8-13.8
			C590.5,190.2,584.4,184,576.7,184C576.7,184,576.7,184,576.7,184"/>
		<path id="Path_615" class="st10" d="M538.7,184c-7.6,0-13.8,6.2-13.8,13.8c0,7.6,6.2,13.8,13.8,13.8c7.6,0,13.8-6.2,13.8-13.8
			c0,0,0,0,0,0C552.5,190.2,546.4,184,538.7,184C538.7,184,538.7,184,538.7,184"/>
		<path id="Path_616" class="st10" d="M500.7,184c-7.6,0-13.8,6.2-13.8,13.8s6.2,13.8,13.8,13.8s13.8-6.2,13.8-13.8c0,0,0,0,0,0
			C514.5,190.2,508.4,184,500.7,184"/>
		<path id="Path_617" class="st10" d="M462.7,184c-7.6,0-13.8,6.2-13.8,13.8s6.2,13.8,13.8,13.8s13.8-6.2,13.8-13.8c0,0,0,0,0,0
			C476.6,190.2,470.4,184,462.7,184C462.7,184,462.7,184,462.7,184"/>
		<path id="Path_618" class="st10" d="M424.7,184c-7.6,0-13.8,6.2-13.8,13.8c0,7.6,6.2,13.8,13.8,13.8s13.8-6.2,13.8-13.8
			c0,0,0,0,0,0C438.6,190.2,432.4,184,424.7,184C424.7,184,424.7,184,424.7,184"/>
	</g>
	<g>
		<text transform="matrix(1 0 0 1 99.944 330.6357)" class="st1 st2 st3">S03</text>
		<text transform="matrix(1 0 0 1 135.732 330.6357)" class="st1 st4 st3"> Planet, environmental </text>
		<text transform="matrix(1 0 0 1 99.937 355.7847)" class="st1 st4 st3">protection and restoration</text>
		<text transform="matrix(1 0 0 1 1.007080e-03 350.9858)" class="st10 st2 st5">52%</text>
	</g>
</g>
</svg>
