<svg xmlns="http://www.w3.org/2000/svg" width="517.77" height="467.94" viewBox="0 0 517.77 467.94">
  <g>
    <line y1="368.8" x2="507.86" y2="368.8" style="fill: none;stroke: #939598;stroke-width: 0.6549999713897705px"/>
    <rect x="64.8" y="178.39" width="74.09" height="189.11" style="fill: #498bca" class="scaleY ToUp"/>
    <path d="M101.85,45.25h0A19.85,19.85,0,1,0,82,25.41,19.84,19.84,0,0,0,101.85,45.25Zm33.05,79.1h0a6.9,6.9,0,0,0,6-7.67h0c0-.14,0-.27-.05-.4L128.36,62.64a16.19,16.19,0,0,0-13.5-12.26,4.22,4.22,0,0,0-3.32,1L106.2,55.9a6.79,6.79,0,0,1-8.82,0L92,51.35a4.2,4.2,0,0,0-3.28-1A16.17,16.17,0,0,0,75.34,62.72L62.83,116.37a6.9,6.9,0,0,0,5.56,8h0l.4.05a6.39,6.39,0,0,0,2.68-.21l-6,24.91a4.43,4.43,0,0,0,3.38,5.25,4.14,4.14,0,0,0,.93.1H87.49L91,193.29a6.54,6.54,0,0,0,6.49,5.8h8.79a6.54,6.54,0,0,0,6.49-5.8l3.47-38.81h17.69a4.4,4.4,0,0,0,4.4-4.41,4.22,4.22,0,0,0-.09-.94l-6-24.91A6.28,6.28,0,0,0,134.9,124.35Z" style="fill: none;stroke: #498bca;stroke-miterlimit: 10;stroke-width: 2.61899995803833px"/>
    <g>
      <text transform="translate(66.8 401.27)" style="isolation: isolate;font-size: 20.948999404907227px;fill: #2e2a26;font-family: ArialMT, Arial">Female</text>
      <text transform="translate(63.85 448.73)" style="isolation: isolate;font-size: 41.89799880981445px;fill: #498bca;font-family: Arial-BoldMT, Arial;font-weight: 700">51%</text>
    </g>
    <rect x="219.22" y="205.17" width="74.09" height="162.33" style="fill: #2e4161" class="scaleY ToUp"/>
    <path d="M256.26,65.66h0a19.84,19.84,0,1,0-19.84-19.84h0A19.84,19.84,0,0,0,256.26,65.66ZM277,71c-.63-.07-1.26-.1-1.9-.11h-6.91a4.21,4.21,0,0,0-2.24,1l-5.35,4.55a6.78,6.78,0,0,1-8.81,0l-5.3-4.45a4.13,4.13,0,0,0-2.23-1h-6.91a16.81,16.81,0,0,0-16.81,16.82,17.33,17.33,0,0,0,.11,1.91h0l4.88,36.8a14.31,14.31,0,0,0,9.29,11.8l8.25,75.5a6.53,6.53,0,0,0,6.49,5.79h13a6.52,6.52,0,0,0,6.47-5.79l8.22-75.5A14.31,14.31,0,0,0,287,126.38l4.88-36.8A16.81,16.81,0,0,0,277,71Z" style="fill: none;stroke: #2e4161;stroke-miterlimit: 10;stroke-width: 2.61899995803833px"/>
    <g>
      <text transform="translate(231.84 401.27)" style="isolation: isolate;font-size: 20.948999404907227px;fill: #2e2a26;font-family: ArialMT, Arial">Male</text>
      <text transform="translate(215.1 448.73)" style="isolation: isolate;font-size: 41.89799880981445px;fill: #2e4161;font-family: Arial-BoldMT, Arial;font-weight: 700">44%</text>
    </g>
    <rect x="363.91" y="347.32" width="71.89" height="20.18" style="fill: #76a1d5" class="scaleY ToUp"/>
    <g>
      <text transform="translate(369.08 401.27)" style="isolation: isolate;font-size: 20.948999404907227px;fill: #2e2a26;font-family: ArialMT, Arial">Others</text>
      <text transform="translate(370.8 448.73)" style="isolation: isolate;font-size: 41.89799880981445px;fill: #76a1d5;font-family: Arial-BoldMT, Arial;font-weight: 700">5%</text>
    </g>
  </g>
</svg>
