<svg id="a90137d0-2ed2-49cb-a987-b27e4cb31630" data-name="e72fe7aa-86c1-42b0-9dfb-6005563cfee0" xmlns="http://www.w3.org/2000/svg" width="794.96" height="366.14" viewBox="0 0 794.96 366.14">
  <g>
    <path id="a7c66cc0-54ec-4cbb-a454-a55b558c4ac8" data-name="aec237ee-1f97-4a2b-8564-348372b5e23d" d="M13.83,0A13.82,13.82,0,1,0,27.64,13.83h0A13.81,13.81,0,0,0,13.84,0h0" style="fill: #f29420"/>
    <g>
      <text transform="translate(523.21 22.7)" style="isolation: isolate;font-size: 20.117000579833984px;fill: #2e2a26;font-family: Arial-BoldMT, Arial;font-weight: 700">S04</text>
      <g style="isolation: isolate">
        <text transform="translate(559 22.7)" style="isolation: isolate;font-size: 20.117000579833984px;fill: #2e2a26;font-family: ArialMT, Arial"><tspan xml:space="preserve"> Inclusive and sustainable </tspan></text>
      </g>
      <text transform="translate(523.21 47.85)" style="isolation: isolate;font-size: 20.117000579833984px;fill: #2e2a26;font-family: ArialMT, Arial">economic growth</text>
      <text transform="translate(445.65 41.63)" style="isolation: isolate;font-size: 40.23400115966797px;fill: #f29420;font-family: Arial-BoldMT, Arial;font-weight: 700">1%</text>
    </g>
    <g>
      <path id="ac45d9d6-cb96-42e1-970b-50afae59cbbe" data-name="b1f860c3-3a7e-4aa2-a539-0c7c22c809bc" d="M89.82,0a13.82,13.82,0,1,0,13.81,13.83h0A13.81,13.81,0,0,0,89.83,0h0" style="fill: #2e4161"/>
      <path id="f96aafa1-af43-4ea1-82b3-a3c582de98c7" data-name="a0b1ccf3-6c0c-471e-bbf5-14ca0ca18cfa" d="M51.83,0A13.82,13.82,0,1,0,65.64,13.83h0A13.81,13.81,0,0,0,51.84,0h0" style="fill: #2e4161"/>
    </g>
    <g>
      <text transform="translate(445.65 119.67)" style="isolation: isolate;font-size: 40.23400115966797px;fill: #2e4161;font-family: Arial-BoldMT, Arial;font-weight: 700">2%</text>
      <text transform="translate(523.21 98.98)" style="isolation: isolate;font-size: 20.117000579833984px;fill: #2e2a26;font-family: Arial-BoldMT, Arial;font-weight: 700">S05</text>
      <g style="isolation: isolate">
        <text transform="translate(559 98.98)" style="isolation: isolate;font-size: 20.117000579833984px;fill: #2e2a26;font-family: ArialMT, Arial"><tspan xml:space="preserve"> Indivisible and integrated </tspan></text>
      </g>
      <text transform="translate(523.21 124.12)" style="isolation: isolate;font-size: 20.117000579833984px;fill: #2e2a26;font-family: ArialMT, Arial">nature of the 2030</text>
      <text transform="translate(691.02 124.12)" style="isolation: isolate;font-size: 20.117000579833984px;fill: #2e2a26;font-family: ArialMT, Arial">Agenda</text>
    </g>
    <g>
      <path id="a1f1e0e6-767c-4de5-a3b3-d4831e5e7eec" data-name="bb3f4c2c-29b9-4063-b4bd-d6ec3b904bd7" d="M354.74,0a13.82,13.82,0,1,0,13.82,13.82h0A13.82,13.82,0,0,0,354.74,0h0" style="fill: #50c1ef"/>
      <path id="bc2a2792-dd76-4785-ab1b-bbfa9cb515af" data-name="b02b52f6-e9ab-41c7-843a-3d2f34c78720" d="M316.75,0a13.82,13.82,0,1,0,13.82,13.82h0A13.82,13.82,0,0,0,316.75,0h0" style="fill: #50c1ef"/>
      <path id="b7df36f3-6358-43bd-8eab-014e8e59743a" data-name="be269cf2-3e2d-425d-bbfd-26e0d7ca118b" d="M278.76,0a13.82,13.82,0,1,0,13.81,13.83h0A13.81,13.81,0,0,0,278.77,0h0" style="fill: #50c1ef"/>
      <path id="b18d4e07-d51f-425d-a121-c790020dcb19" data-name="b9a3b050-88c7-4643-93ea-8cedadaf56fe" d="M240.76,0a13.82,13.82,0,1,0,13.82,13.82h0A13.82,13.82,0,0,0,240.76,0h0" style="fill: #50c1ef"/>
      <path id="f8013e35-6847-421e-8f7e-52f5d46a9ebc" data-name="a21a9f12-0a0a-43ee-b20b-47e4f3ed1b90" d="M202.77,0a13.82,13.82,0,1,0,13.81,13.83h0A13.81,13.81,0,0,0,202.78,0h0" style="fill: #50c1ef"/>
      <path id="ed423e55-9971-47f5-aee9-bb32b733967b" data-name="b29f017e-e818-4c57-894a-1b819c58a04f" d="M51.83,35.92A13.82,13.82,0,1,0,65.64,49.75h0a13.81,13.81,0,0,0-13.8-13.82h0" style="fill: #50c1ef"/>
      <path id="f2e40e27-6bbc-419c-b7fe-a06c926c7900" data-name="ea3f514e-e5c6-46fe-8584-113bdb4ba18f" d="M13.83,35.92A13.82,13.82,0,1,0,27.64,49.75h0a13.81,13.81,0,0,0-13.8-13.82h0" style="fill: #50c1ef"/>
      <path id="e26c31dc-fda6-4206-aac1-4c277f11afb3" data-name="a3800bc6-406f-4776-9101-1271fb2ec32f" d="M165.81,0a13.82,13.82,0,1,0,13.81,13.83h0A13.81,13.81,0,0,0,165.82,0h0" style="fill: #50c1ef"/>
      <path id="b92975e7-cf2c-4405-9762-ec9d0bb60138" data-name="a7c7e4ee-91bd-45f8-8af6-68542b53b6eb" d="M127.81,0a13.82,13.82,0,1,0,13.82,13.82h0A13.82,13.82,0,0,0,127.81,0h0" style="fill: #50c1ef"/>
    </g>
    <g>
      <text transform="translate(438.49 195.91)" style="isolation: isolate;font-size: 40.23400115966797px;fill: #50c1ef;font-family: Arial-BoldMT, Arial;font-weight: 700">9%</text>
      <text transform="translate(526.14 177.07)" style="isolation: isolate;font-size: 20.117000579833984px;fill: #2e2a26;font-family: Arial-BoldMT, Arial;font-weight: 700">S01</text>
      <g style="isolation: isolate">
        <text transform="translate(561.93 177.07)" style="isolation: isolate;font-size: 20.117000579833984px;fill: #2e2a26;font-family: ArialMT, Arial"><tspan xml:space="preserve"> Peace and just and </tspan></text>
      </g>
      <text transform="translate(526.14 202.22)" style="isolation: isolate;font-size: 20.117000579833984px;fill: #2e2a26;font-family: ArialMT, Arial">inclusive societies</text>
    </g>
    <g>
      <path id="baa189e9-3ec4-4642-8519-d8d9d46a4718" data-name="f02ee7d8-4ab0-42a7-83a4-7e729a692eab" d="M278.76,147a13.82,13.82,0,1,0,13.81,13.83h0A13.81,13.81,0,0,0,278.77,147h0" style="fill: #7172b3"/>
      <path id="e111784d-d42d-4248-a2d6-5c6345d857f1" data-name="ac4f1014-1664-4db3-95f3-7b815ac65a29" d="M240.76,147a13.82,13.82,0,1,0,13.82,13.82h0A13.82,13.82,0,0,0,240.76,147h0" style="fill: #7172b3"/>
      <path id="a0705bb9-ce08-45eb-9e1d-d58919803ee8" data-name="b2d43851-edb6-4572-aacd-8b60d29daa68" d="M202.77,147a13.82,13.82,0,1,0,13.81,13.83h0A13.81,13.81,0,0,0,202.78,147h0" style="fill: #7172b3"/>
      <path id="a12e99b3-8471-44d0-8210-42587030d397" data-name="b5332622-1b2d-4e7e-8daf-ffb6591582b9" d="M354.74,110a13.82,13.82,0,1,0,13.82,13.82h0A13.82,13.82,0,0,0,354.74,110h0" style="fill: #7172b3"/>
      <path id="ba915437-3ca4-4d55-a0f3-64c504a8c000" data-name="b8dd54ab-7b84-42f4-93ca-9278808fa2a2" d="M316.75,110a13.82,13.82,0,1,0,13.82,13.82h0A13.82,13.82,0,0,0,316.75,110h0" style="fill: #7172b3"/>
      <path id="b2d20fbb-aaf8-4e5d-a8a0-368eebbc453d" data-name="f1d253aa-3164-4255-adc7-432a575938a6" d="M278.76,110a13.82,13.82,0,1,0,13.81,13.83h0A13.81,13.81,0,0,0,278.77,110h0" style="fill: #7172b3"/>
      <path id="bed19444-e800-4090-b368-26ae334a206c" data-name="b17f32db-5f29-48a1-8f1e-8a1377891939" d="M240.76,110a13.82,13.82,0,1,0,13.82,13.82h0A13.82,13.82,0,0,0,240.76,110h0" style="fill: #7172b3"/>
      <path id="f119a8ed-c8e7-48ba-8aef-b801e6353f46" data-name="b932406e-cfab-481f-860f-83e28b3c9848" d="M202.77,110a13.82,13.82,0,1,0,13.81,13.83h0A13.81,13.81,0,0,0,202.78,110h0" style="fill: #7172b3"/>
      <path id="f994bdc4-b486-47d2-8543-9fa7d6b4c681" data-name="ba760ca8-3452-4d52-b7b1-5f3e472b71a3" d="M354.74,73a13.82,13.82,0,1,0,13.82,13.82h0A13.81,13.81,0,0,0,354.75,73h0" style="fill: #7172b3"/>
      <path id="bd9710c1-e146-4cac-8cf1-41e9775762b0" data-name="bb1aa899-1b89-4682-ba91-fa6e9c1818c8" d="M316.75,73a13.82,13.82,0,1,0,13.82,13.82h0A13.81,13.81,0,0,0,316.76,73h0" style="fill: #7172b3"/>
      <path id="b5ede15d-18cb-4bfb-a6ae-32f6f4081c56" data-name="a770dc53-bde9-4c84-ac5a-fe3507882763" d="M278.76,73a13.82,13.82,0,1,0,13.81,13.83v0h0A13.81,13.81,0,0,0,278.76,73" style="fill: #7172b3"/>
      <path id="af639274-c548-4d3b-8537-a67bfc12a890" data-name="b3725ef1-a813-47a8-9992-b7211e1c6c0e" d="M240.76,73a13.82,13.82,0,1,0,13.82,13.82h0A13.81,13.81,0,0,0,240.77,73h0" style="fill: #7172b3"/>
      <path id="b52a6a85-503c-45c7-ae2d-94d9b1230359" data-name="baa8a842-cdcb-4825-88fe-bf8e316dfe85" d="M202.77,73a13.82,13.82,0,1,0,13.81,13.83v0h0A13.81,13.81,0,0,0,202.77,73" style="fill: #7172b3"/>
      <path id="bd73f7bf-1811-4211-9f4a-9012156ea8f1" data-name="f159d99b-c4b0-4667-ac46-90e5bdde6016" d="M354.74,35.92a13.82,13.82,0,1,0,13.82,13.82h0a13.82,13.82,0,0,0-13.82-13.82h0" style="fill: #7172b3"/>
      <path id="a20e7ba4-3244-43b5-b8c3-55e4464ec9cf" data-name="b125a768-941b-4964-af4a-4e1d9fda778c" d="M316.75,35.92a13.82,13.82,0,1,0,13.82,13.82h0a13.82,13.82,0,0,0-13.82-13.82h0" style="fill: #7172b3"/>
      <path id="e3237785-d3fe-476c-9181-398139449080" data-name="b22630ca-6487-4f60-9c54-02cf3a324c81" d="M278.76,35.92a13.82,13.82,0,1,0,13.81,13.83h0a13.81,13.81,0,0,0-13.8-13.82h0" style="fill: #7172b3"/>
      <path id="b9732bae-520e-45fa-8c53-2c32d9aa8184" data-name="a0266651-ce77-4298-af09-0dba0699a28c" d="M240.76,35.92a13.82,13.82,0,1,0,13.82,13.82h0a13.82,13.82,0,0,0-13.82-13.82h0" style="fill: #7172b3"/>
      <path id="b8c565d1-3b0d-44ea-97ca-d264aefd57d8" data-name="ba02e47a-9866-43ac-bf15-136f15819d01" d="M202.77,35.92a13.82,13.82,0,1,0,13.81,13.83h0a13.81,13.81,0,0,0-13.8-13.82h0" style="fill: #7172b3"/>
      <path id="baf034f0-1c3c-4a93-b9e5-b0e1f710e3cf" data-name="fc0f4156-4edd-459b-8ae0-abf48ccdc731" d="M165.81,147a13.82,13.82,0,1,0,13.81,13.83h0A13.81,13.81,0,0,0,165.82,147h0" style="fill: #7172b3"/>
      <path id="e5a3a620-4664-4cdb-84d6-b32be69824a1" data-name="bb0faa8a-6d18-4881-9fd1-0a60edae044f" d="M127.81,147a13.82,13.82,0,1,0,13.82,13.82h0A13.82,13.82,0,0,0,127.81,147h0" style="fill: #7172b3"/>
      <path id="acb628fa-b78f-49f6-afbc-262f30c4ec09" data-name="a2d0661b-6322-4b35-9237-fff6c31cc505" d="M89.82,147a13.82,13.82,0,1,0,13.81,13.83h0A13.81,13.81,0,0,0,89.83,147h0" style="fill: #7172b3"/>
      <path id="af86aafd-5101-48cc-a7d7-10d8f72bcf1e" data-name="ec2ef84b-96c7-4832-812c-25651acbe81d" d="M51.83,147a13.82,13.82,0,1,0,13.81,13.83h0A13.81,13.81,0,0,0,51.84,147h0" style="fill: #7172b3"/>
      <path id="aab789fb-27d3-43de-bb35-10b6850b672f" data-name="b73237e7-4d7c-421d-a15a-2b6ee818648a" d="M13.83,147a13.82,13.82,0,1,0,13.81,13.83h0A13.81,13.81,0,0,0,13.84,147h0" style="fill: #7172b3"/>
      <path id="b4966793-f1da-4afa-bf5c-e22f80ed1624" data-name="b22bc1d1-b136-428c-8b43-01a402d1c67f" d="M165.81,110a13.82,13.82,0,1,0,13.81,13.83h0A13.81,13.81,0,0,0,165.82,110h0" style="fill: #7172b3"/>
      <path id="f1f66f30-0bcb-4ee1-8028-c655b59f89ce" data-name="b0d03e70-4231-4adc-a526-d8fdc83e1874" d="M127.81,110a13.82,13.82,0,1,0,13.82,13.82h0A13.81,13.81,0,0,0,127.83,110h0" style="fill: #7172b3"/>
      <path id="a5126d22-33ce-45bc-ade0-6791cb667af2" data-name="a1c52490-9d33-4de5-ba96-0f7c423f968a" d="M89.82,110a13.82,13.82,0,1,0,13.81,13.83h0A13.81,13.81,0,0,0,89.83,110h0" style="fill: #7172b3"/>
      <path id="ef21e8df-6780-45fe-88bc-eab058e6275b" data-name="a1ff1928-29ab-425f-9605-14dc377bb368" d="M51.83,110a13.82,13.82,0,1,0,13.81,13.83h0A13.81,13.81,0,0,0,51.84,110h0" style="fill: #7172b3"/>
      <path id="f16233a2-a235-40e9-bbf8-676b1b943b89" data-name="bfa67d74-587e-45a7-8539-be77e8f36f3f" d="M13.83,110a13.82,13.82,0,1,0,13.81,13.83h0A13.81,13.81,0,0,0,13.84,110h0" style="fill: #7172b3"/>
      <path id="b633213d-6082-409f-95cf-314377fade29" data-name="fa0670cd-75cc-48b8-9dfb-3f146060610f" d="M165.81,73a13.82,13.82,0,1,0,13.82,13.82h0A13.81,13.81,0,0,0,165.82,73h0" style="fill: #7172b3"/>
      <path id="b0acfa6e-345a-4f27-8730-df5eb7d2ccb9" data-name="e8f4efbb-a2f0-4ec6-9733-afa421e172a3" d="M127.81,73a13.82,13.82,0,1,0,13.82,13.82h0A13.81,13.81,0,0,0,127.83,73h0" style="fill: #7172b3"/>
      <path id="fb324f50-f95c-4082-b87a-5800f3ad2f0e" data-name="aa07bbdc-1bf6-4cb1-856b-64a5efddba9c" d="M89.82,73a13.82,13.82,0,1,0,13.81,13.83v0h0A13.81,13.81,0,0,0,89.82,73h0" style="fill: #7172b3"/>
      <path id="e03a2bdd-16f0-47cd-91d2-58b6618aed9f" data-name="a568a0fa-7ba4-4ded-8461-03078a5fc10e" d="M51.83,73A13.82,13.82,0,1,0,65.64,86.83v0h0A13.81,13.81,0,0,0,51.83,73" style="fill: #7172b3"/>
      <path id="a8f55090-863e-49a0-8d97-db40da6632ac" data-name="b29e97a0-eaf0-4c66-a445-659d9e9ae664" d="M13.83,73A13.82,13.82,0,1,0,27.64,86.83v0A13.81,13.81,0,0,0,13.83,73h0" style="fill: #7172b3"/>
      <path id="f3180ac2-4f5c-4efb-a90f-038cf07a79aa" data-name="b1878e6e-fe72-4b90-ad20-6fe44480110e" d="M165.81,35.92a13.82,13.82,0,1,0,13.81,13.83h0a13.81,13.81,0,0,0-13.8-13.82h0" style="fill: #7172b3"/>
      <path id="e53911b1-575b-45da-999e-942f947fb3f6" data-name="e391890b-bf61-46d4-a7c4-3cd4c22469c1" d="M127.81,35.92a13.82,13.82,0,1,0,13.82,13.82h0a13.82,13.82,0,0,0-13.82-13.82h0" style="fill: #7172b3"/>
      <path id="f9d62841-1ae3-4221-abc6-7afeff504eaa" data-name="aa634c20-0fc0-401c-8959-abc3ab987659" d="M89.82,35.92a13.82,13.82,0,1,0,13.81,13.83h0a13.81,13.81,0,0,0-13.8-13.82h0" style="fill: #7172b3"/>
    </g>
    <g>
      <text transform="translate(524.38 254.25)" style="isolation: isolate;font-size: 20.117000579833984px;fill: #2e2a26;font-family: Arial-BoldMT, Arial;font-weight: 700">S02</text>
      <g style="isolation: isolate">
        <text transform="translate(560.16 254.25)" style="isolation: isolate;font-size: 20.117000579833984px;fill: #2e2a26;font-family: ArialMT, Arial"><tspan xml:space="preserve"> People and </tspan></text>
      </g>
      <text transform="translate(524.38 279.4)" style="isolation: isolate;font-size: 20.117000579833984px;fill: #2e2a26;font-family: ArialMT, Arial">social inclusion</text>
      <text transform="translate(424.44 273.06)" style="isolation: isolate;font-size: 40.23400115966797px;fill: #7172b3;font-family: Arial-BoldMT, Arial;font-weight: 700">36%</text>
    </g>
    <g>
      <path id="b1fd2767-dbe1-474f-b033-b04c54059887" data-name="ba434957-37b6-4fe7-b642-63f69ceabd22" d="M354.74,332.11a13.82,13.82,0,1,0,13.82,13.82,13.82,13.82,0,0,0-13.82-13.82h0" style="fill: #26a753"/>
      <path id="bf3c3e52-ff63-429e-ae2d-1789cfd657c0" data-name="a383d89d-07f8-430a-9b62-b76009a051aa" d="M316.75,332.11a13.82,13.82,0,1,0,13.82,13.82,13.82,13.82,0,0,0-13.82-13.82h0" style="fill: #26a753"/>
      <path id="fb6aeadd-4b2b-4628-bb8d-01d60eae4422" data-name="e1f1581d-f0d6-4a07-b470-01acc07777cb" d="M278.76,332.11a13.82,13.82,0,1,0,13.81,13.83h0a13.81,13.81,0,0,0-13.8-13.82h0" style="fill: #26a753"/>
      <path id="ee374401-b768-4b2d-a19c-ada0cbf8811c" data-name="a89a5faa-2d28-45fe-bfdf-388255bc0643" d="M240.76,332.11a13.82,13.82,0,1,0,13.82,13.82,13.82,13.82,0,0,0-13.82-13.82h0" style="fill: #26a753"/>
      <path id="f6668b40-d26c-4fb2-995f-027cff6b0bdc" data-name="b3207020-cd7a-42bd-86f1-462dd26a0cfa" d="M202.77,332.11a13.82,13.82,0,1,0,13.81,13.83h0a13.81,13.81,0,0,0-13.8-13.82h0" style="fill: #26a753"/>
      <path id="ae37c673-2f00-4474-9e09-b1164f9d7ecf" data-name="aef7b2c2-99bd-4f92-9571-0c9551dcc2ac" d="M354.74,295.09a13.82,13.82,0,1,0,13.82,13.82h0a13.81,13.81,0,0,0-13.81-13.81h0" style="fill: #26a753"/>
      <path id="a69a1371-6552-480d-afd9-3ed584145442" data-name="a7050394-ab4d-44f4-880b-9594065eb3fc" d="M316.75,295.09a13.82,13.82,0,1,0,13.82,13.82h0a13.81,13.81,0,0,0-13.81-13.81h0" style="fill: #26a753"/>
      <path id="f503eac8-eb10-4f46-b5e3-31cf4dff5a0e" data-name="bae57ace-806e-440f-a794-e94b5512f9fb" d="M278.76,295.09a13.82,13.82,0,1,0,13.81,13.83v0h0a13.81,13.81,0,0,0-13.81-13.81" style="fill: #26a753"/>
      <path id="a2be18a0-34ee-44e0-b152-a376a806da54" data-name="bec15e22-251a-48bd-937a-5d3da1b0cbc1" d="M240.76,295.09a13.82,13.82,0,1,0,13.82,13.82h0a13.81,13.81,0,0,0-13.81-13.81h0" style="fill: #26a753"/>
      <path id="b0f70fe9-5190-4d14-acf4-81d321e704eb" data-name="e81c8d81-4478-466c-8127-97a0cedeb858" d="M202.77,295.09a13.82,13.82,0,1,0,13.81,13.83v0h0a13.81,13.81,0,0,0-13.81-13.81" style="fill: #26a753"/>
      <path id="f069c95e-690a-420e-a78f-8478365d6a7f" data-name="ac0b3852-474f-4beb-8e96-e8448b0f8cfe" d="M354.74,258.06a13.82,13.82,0,1,0,13.82,13.82h0a13.82,13.82,0,0,0-13.82-13.82h0" style="fill: #26a753"/>
      <path id="e6a44cbd-4449-46b7-bd04-1fa79aa74a7d" data-name="b71dc4a6-6157-47a3-a319-489208ab33ac" d="M316.75,258.06a13.82,13.82,0,1,0,13.82,13.82h0a13.82,13.82,0,0,0-13.82-13.82h0" style="fill: #26a753"/>
      <path id="b96b4667-1cbc-4ae6-b94e-30dc21484835" data-name="be0995af-8910-4a13-83aa-278f171627fa" d="M278.76,258.06a13.82,13.82,0,1,0,13.81,13.83h0a13.81,13.81,0,0,0-13.8-13.82h0" style="fill: #26a753"/>
      <path id="f82729fb-4f3a-4eda-bce3-70d9097fc0a3" data-name="ae85d3f2-f0e4-41c2-b5fb-8f858fab3534" d="M240.76,258.06a13.82,13.82,0,1,0,13.82,13.82h0a13.82,13.82,0,0,0-13.82-13.82h0" style="fill: #26a753"/>
      <path id="efb1f7ef-09ba-47fb-af2e-3cae2b6ed3ea" data-name="b2f7637d-5458-434b-8aa4-4966b41f47a3" d="M202.77,258.06a13.82,13.82,0,1,0,13.81,13.83h0a13.81,13.81,0,0,0-13.8-13.82h0" style="fill: #26a753"/>
      <path id="eebcc402-69a3-408f-be63-a1898156b057" data-name="b3870724-1caa-4668-b2c7-27d344d046b6" d="M354.74,221a13.82,13.82,0,1,0,13.82,13.82A13.82,13.82,0,0,0,354.74,221h0" style="fill: #26a753"/>
      <path id="be3a712a-c60a-4d16-967c-e3ecb65da00e" data-name="b00e1003-3352-40ad-970d-6a091b409f86" d="M316.75,221a13.82,13.82,0,1,0,13.82,13.82A13.82,13.82,0,0,0,316.75,221h0" style="fill: #26a753"/>
      <path id="e9e5c580-e071-4a4f-b01c-63427163b44d" data-name="add32958-0236-4b09-92b1-ea23a1dad708" d="M278.76,221a13.82,13.82,0,1,0,13.81,13.83h0A13.81,13.81,0,0,0,278.77,221h0" style="fill: #26a753"/>
      <path id="e2b41320-2d51-4761-9629-7bd2dc7160b9" data-name="e7f73660-54ee-4481-ad67-c32518d93684" d="M240.76,221a13.82,13.82,0,1,0,13.82,13.82A13.82,13.82,0,0,0,240.76,221h0" style="fill: #26a753"/>
      <path id="bfdb4e24-8141-40a8-957b-f75ba9916849" data-name="a3fbfda9-3611-45b3-8627-100780fe2bb4" d="M202.77,221a13.82,13.82,0,1,0,13.81,13.83h0A13.81,13.81,0,0,0,202.78,221h0" style="fill: #26a753"/>
      <path id="f2f70717-8982-44a7-9ab5-e2b7c6db89e5" data-name="babe90b8-f6ee-424e-ada6-75862e6ee0f9" d="M354.74,184a13.82,13.82,0,1,0,13.82,13.82h0A13.81,13.81,0,0,0,354.75,184h0" style="fill: #26a753"/>
      <path id="fb15bb48-5fb0-450b-8bcb-6856d43ce689" data-name="f5481aca-2258-4489-8ded-58cc115b3ab0" d="M316.75,184a13.82,13.82,0,1,0,13.82,13.82h0A13.81,13.81,0,0,0,316.76,184h0" style="fill: #26a753"/>
      <path id="e170c930-1dfe-4e2f-a76f-a0f886bb67f4" data-name="bb03f324-851c-40e4-aef2-6a47441c03d2" d="M278.76,184a13.82,13.82,0,1,0,13.81,13.83v0h0A13.81,13.81,0,0,0,278.76,184" style="fill: #26a753"/>
      <path id="adb4c1dd-c793-4e69-bb86-32337075d8cb" data-name="ef359008-b10b-474c-aa26-cc878301d24e" d="M240.76,184a13.82,13.82,0,1,0,13.82,13.82h0A13.81,13.81,0,0,0,240.77,184h0" style="fill: #26a753"/>
      <path id="bf949127-23c8-4e23-9eb0-40fc11032697" data-name="fe4d7a8b-ef87-4e55-b513-e54cddc2ed02" d="M202.77,184a13.82,13.82,0,1,0,13.81,13.83v0h0A13.81,13.81,0,0,0,202.77,184" style="fill: #26a753"/>
      <path id="ed17d795-df2c-42cb-adde-eb5956c8639f" data-name="b195e3d2-79c9-4cdc-999e-4ce0c1982615" d="M354.74,147a13.82,13.82,0,1,0,13.82,13.82h0A13.82,13.82,0,0,0,354.74,147h0" style="fill: #26a753"/>
      <path id="f9607749-afa8-4a6f-826d-2ccb95258619" data-name="a8b275ad-92a2-4bcd-a8a4-f49f1e3365eb" d="M316.75,147a13.82,13.82,0,1,0,13.82,13.82h0A13.82,13.82,0,0,0,316.75,147h0" style="fill: #26a753"/>
      <path id="b0c2075e-70aa-4fb2-8ce9-46dd41a66726" data-name="aeca9a27-c1f5-44f3-b508-d5d8c80d5e8c" d="M165.81,332.11a13.82,13.82,0,1,0,13.81,13.83h0a13.81,13.81,0,0,0-13.8-13.82h0" style="fill: #26a753"/>
      <path id="f3e68ee8-2fbd-4152-85b3-c6c4477e1693" data-name="b4321757-16bb-483e-aecb-8cfc59135630" d="M127.81,332.11a13.82,13.82,0,1,0,13.82,13.82,13.82,13.82,0,0,0-13.82-13.82h0" style="fill: #26a753"/>
      <path id="e34db019-bd15-4328-abb8-2e28c9cbc084" data-name="e6d45925-cda2-4a07-9a07-b71f1ef85d9b" d="M89.82,332.11a13.82,13.82,0,1,0,13.81,13.83h0a13.81,13.81,0,0,0-13.8-13.82h0" style="fill: #26a753"/>
      <path id="f73f58fb-22e9-4dae-a324-f3b174e9388e" data-name="a369d314-9f0b-4d71-b051-1ada828853d0" d="M51.83,332.11a13.82,13.82,0,1,0,13.81,13.83h0a13.81,13.81,0,0,0-13.8-13.82h0" style="fill: #26a753"/>
      <path id="b2cf676c-760a-42a8-a73d-a05531f64ef6" data-name="b0da6d79-5650-45f9-9c96-7b92f8d48b0b" d="M13.83,332.11a13.82,13.82,0,1,0,13.81,13.83h0a13.82,13.82,0,0,0-13.81-13.82" style="fill: #26a753"/>
      <path id="e99dea81-d4ac-4207-9e50-d97cfeb144e2" data-name="b52bc948-02a6-4a38-99ec-29ffce6992a2" d="M165.81,295.09a13.82,13.82,0,1,0,13.81,13.83v0h0a13.81,13.81,0,0,0-13.81-13.81" style="fill: #26a753"/>
      <path id="a951e270-8ae7-41f0-83b5-8ca4f57f4365" data-name="b86bd0b8-6baf-4be3-9511-84a5299c75ed" d="M127.81,295.09a13.82,13.82,0,1,0,13.82,13.82h0a13.81,13.81,0,0,0-13.81-13.81h0" style="fill: #26a753"/>
      <path id="ffcf27a7-d815-4f0e-9b05-5e684882321d" data-name="e4441e75-594b-4c41-8e74-832736a20f22" d="M89.82,295.09a13.82,13.82,0,1,0,13.81,13.83v0h0a13.81,13.81,0,0,0-13.81-13.81" style="fill: #26a753"/>
      <path id="a4190e31-365b-4242-a89e-4ee3725e0726" data-name="a31c5bbe-9f74-4f35-90d3-ba0c23dd7920" d="M51.83,295.09a13.82,13.82,0,1,0,13.81,13.83v0h0a13.81,13.81,0,0,0-13.81-13.81" style="fill: #26a753"/>
      <path id="bd8cf100-3157-4142-bc3c-d369f7f2253f" data-name="ed902c62-b436-4ab3-a892-10ad912152a1" d="M13.83,295.09a13.82,13.82,0,1,0,13.81,13.83v0h0a13.81,13.81,0,0,0-13.81-13.81" style="fill: #26a753"/>
      <path id="e704796b-2a03-413b-920a-2b72176dbb99" data-name="e89c526f-1e2a-4a85-b77d-09a2e1b17f14" d="M165.81,258.06a13.82,13.82,0,1,0,13.81,13.83h0a13.81,13.81,0,0,0-13.8-13.82h0" style="fill: #26a753"/>
      <path id="afc70b70-5fa9-4a4a-9ee1-1ed61f2edafc" data-name="a015b49f-36a2-4f79-903c-5a93be941b7e" d="M127.81,258.06a13.82,13.82,0,1,0,13.82,13.82h0a13.82,13.82,0,0,0-13.82-13.82h0" style="fill: #26a753"/>
      <path id="b0864fb8-0817-4108-bbef-d9838ad5e40c" data-name="eb666b8f-ca37-46fc-bdcc-4be6a1902669" d="M89.82,258.06a13.82,13.82,0,1,0,13.81,13.83h0a13.81,13.81,0,0,0-13.8-13.82h0" style="fill: #26a753"/>
      <path id="abbd3209-3795-4d5d-b294-eadfb89a5f61" data-name="fd9a8928-16bd-4588-bdb3-84dd2a67b481" d="M51.83,258.06a13.82,13.82,0,1,0,13.81,13.83h0a13.81,13.81,0,0,0-13.8-13.82h0" style="fill: #26a753"/>
      <path id="e0d27954-4789-48a7-955d-ae8a164b17b3" data-name="f9b1575c-a945-44f6-9a08-e5de2f973b4c" d="M13.83,258.06a13.82,13.82,0,1,0,13.81,13.83h0a13.81,13.81,0,0,0-13.8-13.82h0" style="fill: #26a753"/>
      <path id="b4e17aaa-a4ae-42af-a3cc-2ba4d40abd3e" data-name="e42d71a2-aa0c-4357-a9df-814ed28315f6" d="M165.81,221a13.82,13.82,0,1,0,13.82,13.82A13.82,13.82,0,0,0,165.81,221h0" style="fill: #26a753"/>
      <path id="b149db66-9105-4628-84ea-331dbf5013be" data-name="e9dbd6af-7cbc-4edb-92cb-a1023ff50f38" d="M127.81,221a13.82,13.82,0,1,0,13.82,13.82A13.82,13.82,0,0,0,127.81,221h0" style="fill: #26a753"/>
      <path id="b914be7e-c816-4f7c-a933-fa36f1987258" data-name="ed6c6ddb-9386-4871-8c88-1b9c00c50e17" d="M89.82,221a13.82,13.82,0,1,0,13.81,13.83h0A13.81,13.81,0,0,0,89.83,221h0" style="fill: #26a753"/>
      <path id="bd12e05d-8b21-46dd-badc-5707a87e0ac1" data-name="f397e481-eb5e-4248-bc50-1197decbe2db" d="M51.83,221a13.82,13.82,0,1,0,13.81,13.83h0A13.81,13.81,0,0,0,51.84,221h0" style="fill: #26a753"/>
      <path id="acebc72b-73f2-4664-a199-e61f8cebb77d" data-name="eee3b05f-e21b-427d-be10-b283c31d47d0" d="M13.83,221a13.82,13.82,0,1,0,13.82,13.82A13.82,13.82,0,0,0,13.83,221h0" style="fill: #26a753"/>
      <path id="b0226a9e-39c6-42fa-87cf-6a9bf3a8b246" data-name="ac3c2d63-513d-4b99-95ae-83ebb8990a4e" d="M165.81,184a13.82,13.82,0,1,0,13.82,13.82h0A13.82,13.82,0,0,0,165.81,184h0" style="fill: #26a753"/>
      <path id="a8340402-db71-4367-bb13-e4cfb59daa3f" data-name="e8a0e5e3-7324-4dfb-b1c5-8a4c1649aa58" d="M127.81,184a13.82,13.82,0,1,0,13.82,13.82h0A13.81,13.81,0,0,0,127.83,184h0" style="fill: #26a753"/>
      <path id="a0731b5f-0de6-4c41-aa57-6ca1041b2efa" data-name="f71ccfe0-5420-4e58-b3c1-dcb2c10848dc" d="M89.82,184a13.82,13.82,0,1,0,13.81,13.83v0h0A13.81,13.81,0,0,0,89.82,184h0" style="fill: #26a753"/>
      <path id="aa04bc36-36f0-4c2f-bdea-605148a659dc" data-name="a4cf3a9b-7b7f-4132-acb2-d6ee139662e6" d="M51.83,184a13.82,13.82,0,1,0,13.81,13.83v0h0A13.81,13.81,0,0,0,51.83,184h0" style="fill: #26a753"/>
      <path id="b47aaee7-3494-4099-9c05-c8c4de37f9f4" data-name="ba1c7b0c-c973-4601-aec1-c158e5d408a8" d="M13.83,184a13.82,13.82,0,1,0,13.81,13.83v0h0A13.81,13.81,0,0,0,13.83,184h0" style="fill: #26a753"/>
    </g>
    <g>
      <text transform="translate(522.61 330.64)" style="isolation: isolate;font-size: 20.117000579833984px;fill: #2e2a26;font-family: Arial-BoldMT, Arial;font-weight: 700">S03</text>
      <g style="isolation: isolate">
        <text transform="translate(558.4 330.64)" style="isolation: isolate;font-size: 20.117000579833984px;fill: #2e2a26;font-family: ArialMT, Arial"><tspan xml:space="preserve"> Planet, environmental </tspan></text>
      </g>
      <text transform="translate(522.61 355.78)" style="isolation: isolate;font-size: 20.117000579833984px;fill: #2e2a26;font-family: ArialMT, Arial">protection and restoration</text>
      <text transform="translate(422.67 350.99)" style="isolation: isolate;font-size: 40.23400115966797px;fill: #26a753;font-family: Arial-BoldMT, Arial;font-weight: 700">52%</text>
    </g>
  </g>
</svg>
