<svg id="e72fe7aa-86c1-42b0-9dfb-6005563cfee0" data-name="Camada 1" xmlns="http://www.w3.org/2000/svg" width="1205.91" height="359.74" viewBox="0 0 1205.91 359.74">
  <g>
    <path id="aec237ee-1f97-4a2b-8564-348372b5e23d" data-name="Path 643" d="M424.74,0a13.82,13.82,0,1,0,13.81,13.82h0A13.81,13.81,0,0,0,424.74,0" style="fill: #f29420"/>
    <g>
      <text transform="translate(934.12 22.7)" style="isolation: isolate;font-size: 20.117000579833984px;fill: #2e2a26;font-family: Arial-BoldMT, Arial;font-weight: 700">S04</text>
      <text transform="translate(969.91 22.7)" style="isolation: isolate;font-size: 20.117000579833984px;fill: #2e2a26;font-family: ArialMT, Arial"><tspan xml:space="preserve"> Inclusive and sustainable </tspan></text>
      <text transform="translate(934.12 47.85)" style="isolation: isolate;font-size: 20.117000579833984px;fill: #2e2a26;font-family: ArialMT, Arial">economic growth</text>
      <text transform="translate(856.56 41.63)" style="isolation: isolate;font-size: 40.23400115966797px;fill: #f29420;font-family: Arial-BoldMT, Arial;font-weight: 700">1%</text>
    </g>
    <g>
      <path id="b1f860c3-3a7e-4aa2-a539-0c7c22c809bc" data-name="Path 641" d="M500.73,0a13.82,13.82,0,1,0,13.81,13.82h0A13.81,13.81,0,0,0,500.73,0" style="fill: #2e4161"/>
      <path id="a0b1ccf3-6c0c-471e-bbf5-14ca0ca18cfa" data-name="Path 642" d="M462.74,0a13.82,13.82,0,1,0,13.81,13.82h0A13.81,13.81,0,0,0,462.74,0" style="fill: #2e4161"/>
    </g>
    <g>
      <text transform="translate(856.56 108.86)" style="isolation: isolate;font-size: 40.23400115966797px;fill: #2e4161;font-family: Arial-BoldMT, Arial;font-weight: 700">2%</text>
      <text transform="translate(934.12 88.17)" style="isolation: isolate;font-size: 20.117000579833984px;fill: #2e2a26;font-family: Arial-BoldMT, Arial;font-weight: 700">S05</text>
      <text transform="translate(969.91 88.17)" style="isolation: isolate;font-size: 20.117000579833984px;fill: #2e2a26;font-family: ArialMT, Arial"><tspan xml:space="preserve"> Indivisible and integrated </tspan></text>
      <text transform="translate(934.12 113.31)" style="isolation: isolate;font-size: 20.117000579833984px;fill: #2e2a26;font-family: ArialMT, Arial">nature of the 2030</text>
      <text transform="translate(1097.42 113.31)" style="isolation: isolate;font-size: 20.117000579833984px;fill: #2e2a26;font-family: ArialMT, Arial;letter-spacing: -0.05400535616323802em"> </text>
      <text transform="translate(1101.93 113.31)" style="isolation: isolate;font-size: 20.117000579833984px;fill: #2e2a26;font-family: ArialMT, Arial">Agenda</text>
    </g>
    <g>
      <path id="bb3f4c2c-29b9-4063-b4bd-d6ec3b904bd7" data-name="Path 589" d="M765.65,0a13.82,13.82,0,1,0,13.82,13.82h0A13.82,13.82,0,0,0,765.65,0" style="fill: #50c1ef"/>
      <path id="b02b52f6-e9ab-41c7-843a-3d2f34c78720" data-name="Path 590" d="M727.66,0a13.82,13.82,0,1,0,13.82,13.82h0A13.82,13.82,0,0,0,727.66,0" style="fill: #50c1ef"/>
      <path id="be269cf2-3e2d-425d-bbfd-26e0d7ca118b" data-name="Path 591" d="M689.67,0a13.82,13.82,0,1,0,13.81,13.82h0A13.81,13.81,0,0,0,689.67,0" style="fill: #50c1ef"/>
      <path id="b9a3b050-88c7-4643-93ea-8cedadaf56fe" data-name="Path 592" d="M651.67,0a13.82,13.82,0,1,0,13.82,13.82h0A13.82,13.82,0,0,0,651.67,0" style="fill: #50c1ef"/>
      <path id="a21a9f12-0a0a-43ee-b20b-47e4f3ed1b90" data-name="Path 593" d="M613.68,0a13.82,13.82,0,1,0,13.81,13.82h0A13.81,13.81,0,0,0,613.68,0" style="fill: #50c1ef"/>
      <path id="b29f017e-e818-4c57-894a-1b819c58a04f" data-name="Path 637" d="M462.74,35.92a13.82,13.82,0,1,0,13.81,13.82h0a13.81,13.81,0,0,0-13.81-13.82" style="fill: #50c1ef"/>
      <path id="ea3f514e-e5c6-46fe-8584-113bdb4ba18f" data-name="Path 638" d="M424.74,35.92a13.82,13.82,0,1,0,13.81,13.82h0a13.81,13.81,0,0,0-13.81-13.82" style="fill: #50c1ef"/>
      <path id="a3800bc6-406f-4776-9101-1271fb2ec32f" data-name="Path 639" d="M576.72,0a13.82,13.82,0,1,0,13.81,13.82h0A13.81,13.81,0,0,0,576.72,0" style="fill: #50c1ef"/>
      <path id="a7c7e4ee-91bd-45f8-8af6-68542b53b6eb" data-name="Path 640" d="M538.72,0a13.82,13.82,0,1,0,13.82,13.82h0A13.82,13.82,0,0,0,538.72,0" style="fill: #50c1ef"/>
    </g>
    <g>
      <text transform="translate(12.29 212.98)" style="isolation: isolate;font-size: 40.23400115966797px;fill: #50c1ef;font-family: Arial-BoldMT, Arial;font-weight: 700">9%</text>
      <text transform="translate(99.94 194.14)" style="isolation: isolate;font-size: 20.117000579833984px;fill: #2e2a26;font-family: Arial-BoldMT, Arial;font-weight: 700">S01</text>
      <text transform="translate(135.73 194.14)" style="isolation: isolate;font-size: 20.117000579833984px;fill: #2e2a26;font-family: ArialMT, Arial"><tspan xml:space="preserve"> Peace and just and </tspan></text>
      <text transform="translate(99.94 219.29)" style="isolation: isolate;font-size: 20.117000579833984px;fill: #2e2a26;font-family: ArialMT, Arial">inclusive societies</text>
    </g>
    <g>
      <path id="f02ee7d8-4ab0-42a7-83a4-7e729a692eab" data-name="Path 571" d="M689.67,147a13.82,13.82,0,1,0,13.81,13.82h0A13.81,13.81,0,0,0,689.67,147" style="fill: #7172b3"/>
      <path id="ac4f1014-1664-4db3-95f3-7b815ac65a29" data-name="Path 572" d="M651.67,147a13.82,13.82,0,1,0,13.82,13.82h0A13.82,13.82,0,0,0,651.67,147" style="fill: #7172b3"/>
      <path id="b2d43851-edb6-4572-aacd-8b60d29daa68" data-name="Path 573" d="M613.68,147a13.82,13.82,0,1,0,13.81,13.82h0A13.81,13.81,0,0,0,613.68,147" style="fill: #7172b3"/>
      <path id="b5332622-1b2d-4e7e-8daf-ffb6591582b9" data-name="Path 574" d="M765.65,110a13.82,13.82,0,1,0,13.82,13.82h0A13.82,13.82,0,0,0,765.65,110" style="fill: #7172b3"/>
      <path id="b8dd54ab-7b84-42f4-93ca-9278808fa2a2" data-name="Path 575" d="M727.66,110a13.82,13.82,0,1,0,13.82,13.82h0A13.82,13.82,0,0,0,727.66,110" style="fill: #7172b3"/>
      <path id="f1d253aa-3164-4255-adc7-432a575938a6" data-name="Path 576" d="M689.67,110a13.82,13.82,0,1,0,13.81,13.82h0A13.81,13.81,0,0,0,689.67,110" style="fill: #7172b3"/>
      <path id="b17f32db-5f29-48a1-8f1e-8a1377891939" data-name="Path 577" d="M651.67,110a13.82,13.82,0,1,0,13.82,13.82h0A13.82,13.82,0,0,0,651.67,110" style="fill: #7172b3"/>
      <path id="b932406e-cfab-481f-860f-83e28b3c9848" data-name="Path 578" d="M613.68,110a13.82,13.82,0,1,0,13.81,13.82h0A13.81,13.81,0,0,0,613.68,110" style="fill: #7172b3"/>
      <path id="ba760ca8-3452-4d52-b7b1-5f3e472b71a3" data-name="Path 579" d="M765.65,73a13.82,13.82,0,1,0,13.82,13.81h0A13.81,13.81,0,0,0,765.65,73" style="fill: #7172b3"/>
      <path id="bb1aa899-1b89-4682-ba91-fa6e9c1818c8" data-name="Path 580" d="M727.66,73a13.82,13.82,0,1,0,13.82,13.81h0A13.81,13.81,0,0,0,727.66,73" style="fill: #7172b3"/>
      <path id="a770dc53-bde9-4c84-ac5a-fe3507882763" data-name="Path 581" d="M689.67,73a13.82,13.82,0,1,0,13.81,13.81h0A13.81,13.81,0,0,0,689.67,73" style="fill: #7172b3"/>
      <path id="b3725ef1-a813-47a8-9992-b7211e1c6c0e" data-name="Path 582" d="M651.67,73a13.82,13.82,0,1,0,13.82,13.81h0A13.81,13.81,0,0,0,651.67,73" style="fill: #7172b3"/>
      <path id="baa8a842-cdcb-4825-88fe-bf8e316dfe85" data-name="Path 583" d="M613.68,73a13.82,13.82,0,1,0,13.81,13.81h0A13.81,13.81,0,0,0,613.68,73" style="fill: #7172b3"/>
      <path id="f159d99b-c4b0-4667-ac46-90e5bdde6016" data-name="Path 584" d="M765.65,35.92a13.82,13.82,0,1,0,13.82,13.82h0a13.82,13.82,0,0,0-13.82-13.82" style="fill: #7172b3"/>
      <path id="b125a768-941b-4964-af4a-4e1d9fda778c" data-name="Path 585" d="M727.66,35.92a13.82,13.82,0,1,0,13.82,13.82h0a13.82,13.82,0,0,0-13.82-13.82" style="fill: #7172b3"/>
      <path id="b22630ca-6487-4f60-9c54-02cf3a324c81" data-name="Path 586" d="M689.67,35.92a13.82,13.82,0,1,0,13.81,13.82h0a13.81,13.81,0,0,0-13.81-13.82" style="fill: #7172b3"/>
      <path id="a0266651-ce77-4298-af09-0dba0699a28c" data-name="Path 587" d="M651.67,35.92a13.82,13.82,0,1,0,13.82,13.82h0a13.82,13.82,0,0,0-13.82-13.82" style="fill: #7172b3"/>
      <path id="ba02e47a-9866-43ac-bf15-136f15819d01" data-name="Path 588" d="M613.68,35.92a13.82,13.82,0,1,0,13.81,13.82h0a13.81,13.81,0,0,0-13.81-13.82" style="fill: #7172b3"/>
      <path id="fc0f4156-4edd-459b-8ae0-abf48ccdc731" data-name="Path 619" d="M576.72,147a13.82,13.82,0,1,0,13.81,13.82h0A13.81,13.81,0,0,0,576.72,147" style="fill: #7172b3"/>
      <path id="bb0faa8a-6d18-4881-9fd1-0a60edae044f" data-name="Path 620" d="M538.72,147a13.82,13.82,0,1,0,13.82,13.82h0A13.82,13.82,0,0,0,538.72,147" style="fill: #7172b3"/>
      <path id="a2d0661b-6322-4b35-9237-fff6c31cc505" data-name="Path 621" d="M500.73,147a13.82,13.82,0,1,0,13.81,13.82h0A13.81,13.81,0,0,0,500.73,147" style="fill: #7172b3"/>
      <path id="ec2ef84b-96c7-4832-812c-25651acbe81d" data-name="Path 622" d="M462.74,147a13.82,13.82,0,1,0,13.81,13.82h0A13.81,13.81,0,0,0,462.74,147" style="fill: #7172b3"/>
      <path id="b73237e7-4d7c-421d-a15a-2b6ee818648a" data-name="Path 623" d="M424.74,147a13.82,13.82,0,1,0,13.81,13.82h0A13.81,13.81,0,0,0,424.74,147" style="fill: #7172b3"/>
      <path id="b22bc1d1-b136-428c-8b43-01a402d1c67f" data-name="Path 624" d="M576.72,110a13.82,13.82,0,1,0,13.81,13.82h0A13.81,13.81,0,0,0,576.72,110" style="fill: #7172b3"/>
      <path id="b0d03e70-4231-4adc-a526-d8fdc83e1874" data-name="Path 625" d="M538.72,110a13.82,13.82,0,1,0,13.82,13.82h0A13.81,13.81,0,0,0,538.72,110" style="fill: #7172b3"/>
      <path id="a1c52490-9d33-4de5-ba96-0f7c423f968a" data-name="Path 626" d="M500.73,110a13.82,13.82,0,1,0,13.81,13.82h0A13.81,13.81,0,0,0,500.73,110" style="fill: #7172b3"/>
      <path id="a1ff1928-29ab-425f-9605-14dc377bb368" data-name="Path 627" d="M462.74,110a13.82,13.82,0,1,0,13.81,13.82h0A13.81,13.81,0,0,0,462.74,110" style="fill: #7172b3"/>
      <path id="bfa67d74-587e-45a7-8539-be77e8f36f3f" data-name="Path 628" d="M424.74,110a13.82,13.82,0,1,0,13.81,13.82h0A13.81,13.81,0,0,0,424.74,110" style="fill: #7172b3"/>
      <path id="fa0670cd-75cc-48b8-9dfb-3f146060610f" data-name="Path 629" d="M576.72,73a13.82,13.82,0,1,0,13.82,13.81A13.81,13.81,0,0,0,576.72,73" style="fill: #7172b3"/>
      <path id="e8f4efbb-a2f0-4ec6-9733-afa421e172a3" data-name="Path 630" d="M538.72,73a13.82,13.82,0,1,0,13.82,13.82h0A13.81,13.81,0,0,0,538.72,73h0" style="fill: #7172b3"/>
      <path id="aa07bbdc-1bf6-4cb1-856b-64a5efddba9c" data-name="Path 631" d="M500.73,73a13.82,13.82,0,1,0,13.81,13.81h0A13.81,13.81,0,0,0,500.73,73" style="fill: #7172b3"/>
      <path id="a568a0fa-7ba4-4ded-8461-03078a5fc10e" data-name="Path 632" d="M462.74,73a13.82,13.82,0,1,0,13.81,13.81h0A13.81,13.81,0,0,0,462.74,73" style="fill: #7172b3"/>
      <path id="b29e97a0-eaf0-4c66-a445-659d9e9ae664" data-name="Path 633" d="M424.74,73a13.82,13.82,0,1,0,13.81,13.81A13.81,13.81,0,0,0,424.74,73h0" style="fill: #7172b3"/>
      <path id="b1878e6e-fe72-4b90-ad20-6fe44480110e" data-name="Path 634" d="M576.72,35.92a13.82,13.82,0,1,0,13.81,13.82h0a13.81,13.81,0,0,0-13.81-13.82" style="fill: #7172b3"/>
      <path id="e391890b-bf61-46d4-a7c4-3cd4c22469c1" data-name="Path 635" d="M538.72,35.92a13.82,13.82,0,1,0,13.82,13.82h0a13.82,13.82,0,0,0-13.82-13.82" style="fill: #7172b3"/>
      <path id="aa634c20-0fc0-401c-8959-abc3ab987659" data-name="Path 636" d="M500.73,35.92a13.82,13.82,0,1,0,13.81,13.82h0a13.81,13.81,0,0,0-13.81-13.82" style="fill: #7172b3"/>
    </g>
    <g>
      <text transform="translate(99.94 263.17)" style="isolation: isolate;font-size: 20.117000579833984px;fill: #2e2a26;font-family: Arial-BoldMT, Arial;font-weight: 700">S02</text>
      <text transform="translate(135.72 263.17)" style="isolation: isolate;font-size: 20.117000579833984px;fill: #2e2a26;font-family: ArialMT, Arial"><tspan xml:space="preserve"> People and </tspan></text>
      <text transform="translate(99.94 288.32)" style="isolation: isolate;font-size: 20.117000579833984px;fill: #2e2a26;font-family: ArialMT, Arial">social inclusion</text>
      <text transform="translate(0 281.98)" style="isolation: isolate;font-size: 40.23400115966797px;fill: #7172b3;font-family: Arial-BoldMT, Arial;font-weight: 700">36%</text>
    </g>
    <g>
      <path id="ba434957-37b6-4fe7-b642-63f69ceabd22" data-name="Path 544" d="M765.65,332.11a13.82,13.82,0,1,0,13.82,13.82,13.81,13.81,0,0,0-13.82-13.82" style="fill: #26a753"/>
      <path id="a383d89d-07f8-430a-9b62-b76009a051aa" data-name="Path 545" d="M727.66,332.11a13.82,13.82,0,1,0,13.82,13.82,13.81,13.81,0,0,0-13.82-13.82" style="fill: #26a753"/>
      <path id="e1f1581d-f0d6-4a07-b470-01acc07777cb" data-name="Path 546" d="M689.67,332.11a13.82,13.82,0,1,0,13.81,13.82,13.81,13.81,0,0,0-13.81-13.82" style="fill: #26a753"/>
      <path id="a89a5faa-2d28-45fe-bfdf-388255bc0643" data-name="Path 547" d="M651.67,332.11a13.82,13.82,0,1,0,13.82,13.82,13.81,13.81,0,0,0-13.82-13.82" style="fill: #26a753"/>
      <path id="b3207020-cd7a-42bd-86f1-462dd26a0cfa" data-name="Path 548" d="M613.68,332.11a13.82,13.82,0,1,0,13.81,13.82,13.81,13.81,0,0,0-13.81-13.82" style="fill: #26a753"/>
      <path id="aef7b2c2-99bd-4f92-9571-0c9551dcc2ac" data-name="Path 549" d="M765.65,295.09a13.82,13.82,0,1,0,13.82,13.81h0a13.81,13.81,0,0,0-13.82-13.81" style="fill: #26a753"/>
      <path id="a7050394-ab4d-44f4-880b-9594065eb3fc" data-name="Path 550" d="M727.66,295.09a13.82,13.82,0,1,0,13.82,13.81h0a13.81,13.81,0,0,0-13.82-13.81" style="fill: #26a753"/>
      <path id="bae57ace-806e-440f-a794-e94b5512f9fb" data-name="Path 551" d="M689.67,295.09a13.82,13.82,0,1,0,13.81,13.81h0a13.81,13.81,0,0,0-13.81-13.81" style="fill: #26a753"/>
      <path id="bec15e22-251a-48bd-937a-5d3da1b0cbc1" data-name="Path 552" d="M651.67,295.09a13.82,13.82,0,1,0,13.82,13.81h0a13.81,13.81,0,0,0-13.82-13.81" style="fill: #26a753"/>
      <path id="e81c8d81-4478-466c-8127-97a0cedeb858" data-name="Path 553" d="M613.68,295.09a13.82,13.82,0,1,0,13.81,13.81h0a13.81,13.81,0,0,0-13.81-13.81" style="fill: #26a753"/>
      <path id="ac0b3852-474f-4beb-8e96-e8448b0f8cfe" data-name="Path 554" d="M765.65,258.06a13.82,13.82,0,1,0,13.82,13.82h0a13.82,13.82,0,0,0-13.82-13.82" style="fill: #26a753"/>
      <path id="b71dc4a6-6157-47a3-a319-489208ab33ac" data-name="Path 555" d="M727.66,258.06a13.82,13.82,0,1,0,13.82,13.82h0a13.82,13.82,0,0,0-13.82-13.82" style="fill: #26a753"/>
      <path id="be0995af-8910-4a13-83aa-278f171627fa" data-name="Path 556" d="M689.67,258.06a13.82,13.82,0,1,0,13.81,13.82h0a13.81,13.81,0,0,0-13.81-13.82" style="fill: #26a753"/>
      <path id="ae85d3f2-f0e4-41c2-b5fb-8f858fab3534" data-name="Path 557" d="M651.67,258.06a13.82,13.82,0,1,0,13.82,13.82h0a13.82,13.82,0,0,0-13.82-13.82" style="fill: #26a753"/>
      <path id="b2f7637d-5458-434b-8aa4-4966b41f47a3" data-name="Path 558" d="M613.68,258.06a13.82,13.82,0,1,0,13.81,13.82h0a13.81,13.81,0,0,0-13.81-13.82" style="fill: #26a753"/>
      <path id="b3870724-1caa-4668-b2c7-27d344d046b6" data-name="Path 559" d="M765.65,221a13.82,13.82,0,1,0,13.82,13.82A13.81,13.81,0,0,0,765.65,221" style="fill: #26a753"/>
      <path id="b00e1003-3352-40ad-970d-6a091b409f86" data-name="Path 560" d="M727.66,221a13.82,13.82,0,1,0,13.82,13.82A13.81,13.81,0,0,0,727.66,221" style="fill: #26a753"/>
      <path id="add32958-0236-4b09-92b1-ea23a1dad708" data-name="Path 561" d="M689.67,221a13.82,13.82,0,1,0,13.81,13.82A13.81,13.81,0,0,0,689.67,221" style="fill: #26a753"/>
      <path id="e7f73660-54ee-4481-ad67-c32518d93684" data-name="Path 562" d="M651.67,221a13.82,13.82,0,1,0,13.82,13.82A13.81,13.81,0,0,0,651.67,221" style="fill: #26a753"/>
      <path id="a3fbfda9-3611-45b3-8627-100780fe2bb4" data-name="Path 563" d="M613.68,221a13.82,13.82,0,1,0,13.81,13.82A13.81,13.81,0,0,0,613.68,221" style="fill: #26a753"/>
      <path id="babe90b8-f6ee-424e-ada6-75862e6ee0f9" data-name="Path 564" d="M765.65,184a13.82,13.82,0,1,0,13.82,13.81h0A13.81,13.81,0,0,0,765.65,184" style="fill: #26a753"/>
      <path id="f5481aca-2258-4489-8ded-58cc115b3ab0" data-name="Path 565" d="M727.66,184a13.82,13.82,0,1,0,13.82,13.81h0A13.81,13.81,0,0,0,727.66,184h0" style="fill: #26a753"/>
      <path id="bb03f324-851c-40e4-aef2-6a47441c03d2" data-name="Path 566" d="M689.67,184a13.82,13.82,0,1,0,13.81,13.81h0A13.81,13.81,0,0,0,689.67,184" style="fill: #26a753"/>
      <path id="ef359008-b10b-474c-aa26-cc878301d24e" data-name="Path 567" d="M651.67,184a13.82,13.82,0,1,0,13.82,13.81h0A13.81,13.81,0,0,0,651.67,184h0" style="fill: #26a753"/>
      <path id="fe4d7a8b-ef87-4e55-b513-e54cddc2ed02" data-name="Path 568" d="M613.68,184a13.82,13.82,0,1,0,13.81,13.81h0A13.81,13.81,0,0,0,613.68,184" style="fill: #26a753"/>
      <path id="b195e3d2-79c9-4cdc-999e-4ce0c1982615" data-name="Path 569" d="M765.65,147a13.82,13.82,0,1,0,13.82,13.82h0A13.82,13.82,0,0,0,765.65,147" style="fill: #26a753"/>
      <path id="a8b275ad-92a2-4bcd-a8a4-f49f1e3365eb" data-name="Path 570" d="M727.66,147a13.82,13.82,0,1,0,13.82,13.82h0A13.82,13.82,0,0,0,727.66,147" style="fill: #26a753"/>
      <path id="aeca9a27-c1f5-44f3-b508-d5d8c80d5e8c" data-name="Path 594" d="M576.72,332.11a13.82,13.82,0,1,0,13.81,13.82,13.81,13.81,0,0,0-13.81-13.82" style="fill: #26a753"/>
      <path id="b4321757-16bb-483e-aecb-8cfc59135630" data-name="Path 595" d="M538.72,332.11a13.82,13.82,0,1,0,13.82,13.82,13.81,13.81,0,0,0-13.82-13.82" style="fill: #26a753"/>
      <path id="e6d45925-cda2-4a07-9a07-b71f1ef85d9b" data-name="Path 596" d="M500.73,332.11a13.82,13.82,0,1,0,13.81,13.82,13.81,13.81,0,0,0-13.81-13.82" style="fill: #26a753"/>
      <path id="a369d314-9f0b-4d71-b051-1ada828853d0" data-name="Path 597" d="M462.74,332.11a13.82,13.82,0,1,0,13.81,13.82,13.81,13.81,0,0,0-13.81-13.82" style="fill: #26a753"/>
      <path id="b0da6d79-5650-45f9-9c96-7b92f8d48b0b" data-name="Path 598" d="M424.74,332.11a13.82,13.82,0,1,0,13.81,13.82,13.82,13.82,0,0,0-13.81-13.82" style="fill: #26a753"/>
      <path id="b52bc948-02a6-4a38-99ec-29ffce6992a2" data-name="Path 599" d="M576.72,295.09a13.82,13.82,0,1,0,13.81,13.81h0a13.81,13.81,0,0,0-13.81-13.81" style="fill: #26a753"/>
      <path id="b86bd0b8-6baf-4be3-9511-84a5299c75ed" data-name="Path 600" d="M538.72,295.09a13.82,13.82,0,1,0,13.82,13.81h0a13.81,13.81,0,0,0-13.82-13.81" style="fill: #26a753"/>
      <path id="e4441e75-594b-4c41-8e74-832736a20f22" data-name="Path 601" d="M500.73,295.09a13.82,13.82,0,1,0,13.81,13.81h0a13.81,13.81,0,0,0-13.81-13.81" style="fill: #26a753"/>
      <path id="a31c5bbe-9f74-4f35-90d3-ba0c23dd7920" data-name="Path 602" d="M462.74,295.09a13.82,13.82,0,1,0,13.81,13.81h0a13.81,13.81,0,0,0-13.81-13.81" style="fill: #26a753"/>
      <path id="ed902c62-b436-4ab3-a892-10ad912152a1" data-name="Path 603" d="M424.74,295.09a13.82,13.82,0,1,0,13.81,13.81h0a13.81,13.81,0,0,0-13.81-13.81" style="fill: #26a753"/>
      <path id="e89c526f-1e2a-4a85-b77d-09a2e1b17f14" data-name="Path 604" d="M576.72,258.06a13.82,13.82,0,1,0,13.81,13.82h0a13.81,13.81,0,0,0-13.81-13.82" style="fill: #26a753"/>
      <path id="a015b49f-36a2-4f79-903c-5a93be941b7e" data-name="Path 605" d="M538.72,258.06a13.82,13.82,0,1,0,13.82,13.82h0a13.82,13.82,0,0,0-13.82-13.82" style="fill: #26a753"/>
      <path id="eb666b8f-ca37-46fc-bdcc-4be6a1902669" data-name="Path 606" d="M500.73,258.06a13.82,13.82,0,1,0,13.81,13.82h0a13.81,13.81,0,0,0-13.81-13.82" style="fill: #26a753"/>
      <path id="fd9a8928-16bd-4588-bdb3-84dd2a67b481" data-name="Path 607" d="M462.74,258.06a13.82,13.82,0,1,0,13.81,13.82h0a13.81,13.81,0,0,0-13.81-13.82" style="fill: #26a753"/>
      <path id="f9b1575c-a945-44f6-9a08-e5de2f973b4c" data-name="Path 608" d="M424.74,258.06a13.82,13.82,0,1,0,13.81,13.82h0a13.81,13.81,0,0,0-13.81-13.82" style="fill: #26a753"/>
      <path id="e42d71a2-aa0c-4357-a9df-814ed28315f6" data-name="Path 609" d="M576.72,221a13.82,13.82,0,1,0,13.82,13.82A13.82,13.82,0,0,0,576.72,221" style="fill: #26a753"/>
      <path id="e9dbd6af-7cbc-4edb-92cb-a1023ff50f38" data-name="Path 610" d="M538.72,221a13.82,13.82,0,1,0,13.82,13.82A13.81,13.81,0,0,0,538.72,221" style="fill: #26a753"/>
      <path id="ed6c6ddb-9386-4871-8c88-1b9c00c50e17" data-name="Path 611" d="M500.73,221a13.82,13.82,0,1,0,13.81,13.82A13.81,13.81,0,0,0,500.73,221" style="fill: #26a753"/>
      <path id="f397e481-eb5e-4248-bc50-1197decbe2db" data-name="Path 612" d="M462.74,221a13.82,13.82,0,1,0,13.81,13.82A13.81,13.81,0,0,0,462.74,221" style="fill: #26a753"/>
      <path id="eee3b05f-e21b-427d-be10-b283c31d47d0" data-name="Path 613" d="M424.74,221a13.82,13.82,0,1,0,13.82,13.82A13.82,13.82,0,0,0,424.74,221" style="fill: #26a753"/>
      <path id="ac3c2d63-513d-4b99-95ae-83ebb8990a4e" data-name="Path 614" d="M576.72,184a13.82,13.82,0,1,0,13.82,13.81A13.82,13.82,0,0,0,576.72,184h0" style="fill: #26a753"/>
      <path id="e8a0e5e3-7324-4dfb-b1c5-8a4c1649aa58" data-name="Path 615" d="M538.72,184a13.82,13.82,0,1,0,13.82,13.82h0A13.81,13.81,0,0,0,538.72,184h0" style="fill: #26a753"/>
      <path id="f71ccfe0-5420-4e58-b3c1-dcb2c10848dc" data-name="Path 616" d="M500.73,184a13.82,13.82,0,1,0,13.81,13.81h0A13.81,13.81,0,0,0,500.73,184" style="fill: #26a753"/>
      <path id="a4cf3a9b-7b7f-4132-acb2-d6ee139662e6" data-name="Path 617" d="M462.74,184a13.82,13.82,0,1,0,13.81,13.81h0A13.81,13.81,0,0,0,462.74,184h0" style="fill: #26a753"/>
      <path id="ba1c7b0c-c973-4601-aec1-c158e5d408a8" data-name="Path 618" d="M424.74,184a13.82,13.82,0,1,0,13.81,13.81h0A13.81,13.81,0,0,0,424.74,184h0" style="fill: #26a753"/>
    </g>
    <g>
      <text transform="translate(99.94 330.64)" style="isolation: isolate;font-size: 20.117000579833984px;fill: #2e2a26;font-family: Arial-BoldMT, Arial;font-weight: 700">S03</text>
      <text transform="translate(135.73 330.64)" style="isolation: isolate;font-size: 20.117000579833984px;fill: #2e2a26;font-family: ArialMT, Arial"><tspan xml:space="preserve"> Planet, environmental </tspan></text>
      <text transform="translate(99.94 355.78)" style="isolation: isolate;font-size: 20.117000579833984px;fill: #2e2a26;font-family: ArialMT, Arial">protection and restoration</text>
      <text transform="translate(0 350.99)" style="isolation: isolate;font-size: 40.23400115966797px;fill: #26a753;font-family: Arial-BoldMT, Arial;font-weight: 700">52%</text>
    </g>
  </g>
</svg>
