<svg id="e6c18be8-0ad8-4fc0-aefd-b08bdce49867" data-name="Camada 1" xmlns="http://www.w3.org/2000/svg" xmlns:xlink="http://www.w3.org/1999/xlink" width="1714" height="790" viewBox="0 0 1714 790">
<g>
  <g><image id="e0004f5a-64da-4c88-9b26-66eea97e9b92" data-name="mapa-africa" width="358" height="428" transform="translate(648 241)" xlink:href="assets/images/mapa-africa.png" style="isolation: isolate"/></g>
  <g><image id="a1d95e33-e53d-46ac-9b0a-2aa3335a4290" data-name="mapa-oriente medio" width="149" height="162" transform="translate(911 226)" xlink:href="assets/images/mapa-oriente_medio.png" style="isolation: isolate"/></g>
  <g><image id="ecd12284-fde6-4316-8e00-89728ca1efa4" data-name="mapa-asia oceania" width="758" height="606" transform="translate(956 136)" xlink:href="assets/images/mapa-asia_oceania.png" style="isolation: isolate"/></g>
  <g><image id="ee017518-68f0-40bc-b7cb-2bbde06e1ad9" data-name="mapa-europa" width="847" height="250" transform="translate(652 8)" xlink:href="assets/images/mapa-europa.png" style="isolation: isolate"/></g>
  <g><image id="ade3b896-11a9-48dd-8967-f0461a3b1cc1" data-name="mapa-america sul" width="400" height="522" transform="translate(157 268)" xlink:href="assets/images/mapa-america_sul.png" style="isolation: isolate"/></g>
  <g><image id="f7fd1d61-7ecc-4fb7-8cd2-a0aa3ae182c2" data-name="mapa-america norte" width="722" height="314" xlink:href="assets/images/mapa-america_norte.png" style="isolation: isolate"/></g>
  <g>
    <path id="b8500782-4e0c-4fde-b08d-465da5225f30" data-name="Path 540" d="M869.72,370.74h0a37.38,37.38,0,0,0,4.86-18.48c0-21.13-17.45-38.26-39-38.26s-39,17.13-39,38.26a37.28,37.28,0,0,0,4.33,17.52h0l0,0a85.63,85.63,0,0,0,5,8.72l29.67,44.62,28.89-44c.77-1.06,4.32-6.92,5-8.06Z" style="fill: #fff;fill-rule: evenodd"/>
    <text transform="translate(804.41 364.37)" style="isolation: isolate;font-size: 30.81800079345703px;fill: #323d5e;font-family: Arial-BoldMT, Arial;font-weight: 700">16%</text>
  </g>
  <g>
    <path id="be8dfbe1-6805-41b9-ad96-c3b8fe5defc9" data-name="Path 539" d="M996.43,228.17h0a37.55,37.55,0,0,0,4.86-18.49c0-21.13-17.46-38.25-39-38.25s-39,17.12-39,38.25a37.43,37.43,0,0,0,4.33,17.53h0l0,0a83.73,83.73,0,0,0,5,8.71l29.67,44.62,28.89-44c.76-1.07,4.32-6.92,5-8.06Z" style="fill: #fff;fill-rule: evenodd"/>
    <text transform="translate(940.3 221.84)" style="isolation: isolate;font-size: 30.81800079345703px;fill: #ef9200;font-family: Arial-BoldMT, Arial;font-weight: 700">2%</text>
  </g>
  <g>
    <path id="ecd5cbac-9e65-4563-9598-53917b36c0b2" data-name="Path 538" d="M1209,237.22h0a37.41,37.41,0,0,0,4.86-18.48c0-21.13-17.45-38.26-39-38.26s-39,17.13-39,38.26a37.38,37.38,0,0,0,4.32,17.52h0l0,0a85.48,85.48,0,0,0,5,8.71l29.67,44.63,28.89-44c.77-1.06,4.32-6.92,5-8.06Z" style="fill: #fff;fill-rule: evenodd"/>
    <text transform="translate(1143.45 231.02)" style="isolation: isolate;font-size: 30.81800079345703px;fill: #004878;font-family: Arial-BoldMT, Arial;font-weight: 700">18%</text>
  </g>
  <g>
    <path id="fbca9bd0-1743-4e8f-a2c1-a69711acdfb7" data-name="Path 541" d="M1183.18,87.1h0A37.55,37.55,0,0,0,1188,68.61c0-21.13-17.46-38.26-39-38.26s-39,17.13-39,38.26a37.43,37.43,0,0,0,4.33,17.53h0l0,0a81.89,81.89,0,0,0,5,8.71l29.67,44.62,28.89-44c.77-1.07,4.32-6.93,5-8.07Z" style="fill: #fff;fill-rule: evenodd"/>
    <text transform="translate(1116.46 80.92)" style="isolation: isolate;font-size: 30.81800079345703px;fill: #219d44;font-family: Arial-BoldMT, Arial;font-weight: 700">13%</text>
  </g>
  <g>
    <path id="accf7958-7e4f-4de7-87de-24aad998a89d" data-name="Path 542" d="M466.18,545.55h0A37.55,37.55,0,0,0,471,527.06c0-21.13-17.45-38.26-39-38.26s-39,17.13-39,38.26a37.31,37.31,0,0,0,4.33,17.53h0l0,0a83.65,83.65,0,0,0,5,8.71L432.1,598l28.89-44c.77-1.07,4.32-6.93,5-8.06Z" style="fill: #fff;fill-rule: evenodd"/>
    <text transform="translate(401.04 539.27)" style="isolation: isolate;font-size: 30.81800079345703px;fill: #7172b3;font-family: Arial-BoldMT, Arial;font-weight: 700">47%</text>
  </g>
  <g>
    <path id="b95d1632-cb4d-4ae8-9c8d-30b931d7bae4" data-name="Path 543" d="M303.31,170.81h0a37.45,37.45,0,0,0,4.86-18.49c0-21.13-17.45-38.26-39-38.26s-39,17.13-39,38.26a37.31,37.31,0,0,0,4.33,17.53h0l0,0a85.48,85.48,0,0,0,5,8.71l29.67,44.62,28.89-44c.77-1.06,4.32-6.92,5-8.06Z" style="fill: #fff;fill-rule: evenodd"/>
    <text transform="translate(247.08 161.97)" style="isolation: isolate;font-size: 30.81800079345703px;fill: #4298d4;font-family: Arial-BoldMT, Arial;font-weight: 700">4%</text>
  </g>
  </g>
</svg>
