<svg id="b0acf2d7-639c-434b-9fd2-a851e6e345c9" data-name="Camada 1" xmlns="http://www.w3.org/2000/svg" width="919.79" height="268.18" viewBox="0 0 919.79 268.18">
  <g>
    <g>
      <path id="bd87e196-a084-4442-bb8f-5b0ba3e413af" data-name="Path 770" d="M95.06.61a10.28,10.28,0,1,0,10.27,10.27h0A10.27,10.27,0,0,0,95.06.61h0" style="fill: #7f4593"/>
      <path id="babd9641-bd8c-4040-954d-7eb43d840d98" data-name="Path 771" d="M66.8.61A10.28,10.28,0,1,0,77.07,10.88h0A10.27,10.27,0,0,0,66.8.61h0" style="fill: #7f4593"/>
      <path id="b948d637-be44-41cc-b027-d2f4a2b76d1a" data-name="Path 772" d="M38.54.61A10.28,10.28,0,1,0,48.81,10.88h0A10.27,10.27,0,0,0,38.54.61h0" style="fill: #7f4593"/>
      <path id="efe00dda-f580-45b8-9ecf-f8fbc4aa234d" data-name="Path 773" d="M10.27.61A10.28,10.28,0,1,0,20.55,10.88h0A10.27,10.27,0,0,0,10.28.61h0" style="fill: #7f4593"/>
    </g>
    <g>
      <text transform="translate(391.44 27)" style="isolation: isolate;font-size: 25px;fill: #2d2a26;font-family: ArialMT, Arial">Foundation</text>
      <text transform="translate(335.79 27)" style="isolation: isolate;font-size: 30px;fill: #7f4593;font-family: Arial-BoldMT, Arial;font-weight: 700">4%</text>
    </g>
    <g>
      <path id="fd15e2c2-9e91-4620-a521-5fb5ea27d5c7" data-name="Path 719" d="M263.85.61a10.28,10.28,0,1,0,10.27,10.28h0A10.26,10.26,0,0,0,263.85.61h0" style="fill: #56a35c"/>
      <path id="abdfa41f-47fe-4e7d-ab80-0ae5e8c10a91" data-name="Path 720" d="M235.59.61a10.28,10.28,0,1,0,10.27,10.27h0A10.26,10.26,0,0,0,235.59.61h0" style="fill: #56a35c"/>
      <path id="fc7017da-710c-4e16-a72e-3576a2d687bf" data-name="Path 721" d="M207.33.61A10.28,10.28,0,1,0,217.6,10.88h0A10.27,10.27,0,0,0,207.33.61h0" style="fill: #56a35c"/>
      <path id="b8ffc7fa-e638-4eed-80c4-b2ea2ec3e359" data-name="Path 722" d="M179.07.61a10.28,10.28,0,1,0,10.27,10.27h0A10.27,10.27,0,0,0,179.07.61h0" style="fill: #56a35c"/>
      <path id="a47e126e-2f6b-4e6b-86d5-5413a1962fb2" data-name="Path 723" d="M150.81.61a10.28,10.28,0,1,0,10.27,10.27h0A10.27,10.27,0,0,0,150.81.61h0" style="fill: #56a35c"/>
      <path id="bb62af3a-7a70-4941-afd7-4e543de729b7" data-name="Path 769" d="M123.32.61a10.28,10.28,0,1,0,10.27,10.28h0A10.27,10.27,0,0,0,123.32.61h0" style="fill: #56a35c"/>
    </g>
    <g>
      <text transform="translate(391.44 87.24)" style="isolation: isolate;font-size: 25px;fill: #2d2a26;font-family: ArialMT, Arial">Private Sector</text>
      <text transform="translate(335.79 86.75)" style="isolation: isolate;font-size: 30px;fill: #56a35c;font-family: Arial-BoldMT, Arial;font-weight: 700">6%</text>
    </g>
    <g>
      <path id="fb5e1dda-7e52-44b6-96ba-93dfc5ff7c07" data-name="Path 764" d="M123.32,27.33A10.28,10.28,0,1,0,133.59,37.6h0a10.27,10.27,0,0,0-10.27-10.27" style="fill: #e2973f"/>
      <path id="e70b4835-acf8-4106-a0f7-c96d30f0ab96" data-name="Path 765" d="M95.06,27.33A10.28,10.28,0,1,0,105.33,37.6h0A10.27,10.27,0,0,0,95.06,27.33h0" style="fill: #e2973f"/>
      <path id="ef82621f-caa9-4541-a781-4cf007b03a8e" data-name="Path 766" d="M66.8,27.33A10.28,10.28,0,1,0,77.07,37.6h0A10.27,10.27,0,0,0,66.8,27.33h0" style="fill: #e2973f"/>
      <path id="fefec90a-30be-4f69-bc99-867deeae76e4" data-name="Path 767" d="M38.54,27.33A10.28,10.28,0,1,0,48.81,37.6h0A10.27,10.27,0,0,0,38.54,27.33h0" style="fill: #e2973f"/>
      <path id="afee29a1-8c1d-40cb-bec9-8e01aec29419" data-name="Path 768" d="M10.27,27.33A10.28,10.28,0,1,0,20.55,37.6h0A10.27,10.27,0,0,0,10.28,27.33h0" style="fill: #e2973f"/>
    </g>
    <g>
      <text transform="translate(390.16 137.27)" style="isolation: isolate;font-size: 25px;fill: #2d2a26;font-family: ArialMT, Arial">International </text>
      <text transform="translate(390.16 167.27)" style="isolation: isolate;font-size: 25px;fill: #2d2a26;font-family: ArialMT, Arial"><tspan xml:space="preserve">Organization (non UN)  </tspan></text>
      <text transform="translate(335.79 147.1)" style="isolation: isolate;font-size: 30px;fill: #e2973f;font-family: Arial-BoldMT, Arial;font-weight: 700">5%</text>
    </g>
    <g>
      <path id="b81dcf3e-8f47-468b-9ddd-21fe20c67607" data-name="Path 709" d="M263.85,54.86a10.28,10.28,0,1,0,10.27,10.28h0a10.27,10.27,0,0,0-10.27-10.28h0" style="fill: #5b89c4"/>
      <path id="e5575a6d-b203-4612-9a45-36d540254f5b" data-name="Path 710" d="M235.59,54.86a10.28,10.28,0,1,0,10.27,10.28h0a10.27,10.27,0,0,0-10.27-10.28h0" style="fill: #5b89c4"/>
      <path id="f8e6d57e-0340-427e-bc91-37457ea528dc" data-name="Path 711" d="M207.33,54.86A10.28,10.28,0,1,0,217.6,65.14h0a10.27,10.27,0,0,0-10.27-10.28h0" style="fill: #5b89c4"/>
      <path id="a5690b06-e763-45c8-bba5-e17435abbb89" data-name="Path 712" d="M179.07,54.86a10.28,10.28,0,1,0,10.27,10.28h0a10.28,10.28,0,0,0-10.27-10.28h0" style="fill: #5b89c4"/>
      <path id="aee30269-15ce-4dca-9399-992144778fd2" data-name="Path 713" d="M150.81,54.86a10.28,10.28,0,1,0,10.27,10.28h0a10.28,10.28,0,0,0-10.27-10.28h0" style="fill: #5b89c4"/>
      <path id="ac798e52-fdce-404f-aa95-bf3dad12a34f" data-name="Path 714" d="M263.85,27.33A10.28,10.28,0,1,0,274.12,37.6h0a10.26,10.26,0,0,0-10.27-10.27" style="fill: #5b89c4"/>
      <path id="ba891a7f-98f2-49a9-a35b-e8c4b3b36f70" data-name="Path 715" d="M235.59,27.33A10.28,10.28,0,1,0,245.86,37.6h0a10.27,10.27,0,0,0-10.27-10.27h0" style="fill: #5b89c4"/>
      <path id="e3704aed-f11f-4985-a63d-0d418b8f6d2e" data-name="Path 716" d="M207.33,27.33A10.28,10.28,0,1,0,217.6,37.6h0a10.27,10.27,0,0,0-10.27-10.27h0" style="fill: #5b89c4"/>
      <path id="b971317d-3911-414d-a548-4337e61787b0" data-name="Path 717" d="M179.07,27.33A10.28,10.28,0,1,0,189.34,37.6h0a10.27,10.27,0,0,0-10.27-10.27h0" style="fill: #5b89c4"/>
      <path id="bd41e393-3c29-4831-b5ad-3ef5ae978d72" data-name="Path 718" d="M150.81,27.33A10.28,10.28,0,1,0,161.08,37.6h0a10.27,10.27,0,0,0-10.27-10.27h0" style="fill: #5b89c4"/>
      <path id="f7cd567e-68ac-41fe-ad5e-00767ca41789" data-name="Path 757" d="M38.54,82.4A10.28,10.28,0,1,0,48.81,92.68h0A10.27,10.27,0,0,0,38.54,82.4h0" style="fill: #5b89c4"/>
      <path id="b7901680-596a-4cc6-abde-b090f4036b62" data-name="Path 758" d="M10.27,82.4A10.28,10.28,0,1,0,20.55,92.68h0A10.27,10.27,0,0,0,10.28,82.4h0" style="fill: #5b89c4"/>
      <path id="bca2a523-c6b6-414a-867b-1627f5312a52" data-name="Path 759" d="M123.32,54.86a10.28,10.28,0,1,0,10.27,10.28h0a10.29,10.29,0,0,0-10.27-10.28h0" style="fill: #5b89c4"/>
      <path id="a1fbec99-6353-4a31-b2fa-658707168bd9" data-name="Path 760" d="M95.06,54.86a10.28,10.28,0,1,0,10.27,10.28h0A10.29,10.29,0,0,0,95.06,54.86h0" style="fill: #5b89c4"/>
      <path id="b489cc30-9c78-4dd3-826c-0d86f3264106" data-name="Path 761" d="M66.8,54.86A10.28,10.28,0,1,0,77.07,65.14h0A10.29,10.29,0,0,0,66.8,54.86h0" style="fill: #5b89c4"/>
      <path id="bc866e5d-1f65-4dab-9e4c-17cb9f240bfd" data-name="Path 762" d="M38.54,54.86A10.28,10.28,0,1,0,48.81,65.14h0A10.29,10.29,0,0,0,38.54,54.86h0" style="fill: #5b89c4"/>
      <path id="a4043e4b-5945-4dde-887a-38c5c8b9cb23" data-name="Path 763" d="M10.27,54.86A10.28,10.28,0,1,0,20.55,65.14h0A10.29,10.29,0,0,0,10.28,54.86h0" style="fill: #5b89c4"/>
    </g>
    <g>
      <text transform="translate(390.16 211.34)" style="isolation: isolate;font-size: 25px;fill: #2d2a26;font-family: ArialMT, Arial">Government</text>
      <text transform="translate(319.09 211.34)" style="isolation: isolate;font-size: 30px;fill: #5b89c4;font-family: Arial-BoldMT, Arial;font-weight: 700">17%</text>
    </g>
    <g>
      <path id="b17879cc-453f-4a31-9c15-fe6e9435960f" data-name="Path 699" d="M263.85,109.94a10.28,10.28,0,1,0,10.27,10.28h0a10.26,10.26,0,0,0-10.27-10.27h0" style="fill: #72bee9"/>
      <path id="b92017bf-fa61-4c56-a899-f8d75132e95a" data-name="Path 700" d="M235.59,109.94a10.28,10.28,0,1,0,10.27,10.28h0a10.26,10.26,0,0,0-10.27-10.27h0" style="fill: #72bee9"/>
      <path id="b308dbfd-6499-4a47-93e6-9771cbf95e1b" data-name="Path 701" d="M207.33,109.94a10.28,10.28,0,1,0,10.27,10.28h0a10.27,10.27,0,0,0-10.27-10.27h0" style="fill: #72bee9"/>
      <path id="ae248303-1e32-45af-a565-5a9591874feb" data-name="Path 702" d="M179.07,109.94a10.28,10.28,0,1,0,10.27,10.28h0a10.27,10.27,0,0,0-10.27-10.27h0" style="fill: #72bee9"/>
      <path id="b21976fc-78d9-44d4-9ca0-6160b99933d4" data-name="Path 703" d="M150.81,109.94a10.28,10.28,0,1,0,10.27,10.28h0a10.27,10.27,0,0,0-10.27-10.27h0" style="fill: #72bee9"/>
      <path id="a86f753b-7fb0-44a6-95d1-fea7dcf2a9f2" data-name="Path 704" d="M263.85,82.4a10.28,10.28,0,1,0,10.27,10.28h0A10.26,10.26,0,0,0,263.85,82.4h0" style="fill: #72bee9"/>
      <path id="b869a5b5-9f8a-4cb2-8ac4-32c0e7ea33f7" data-name="Path 705" d="M235.59,82.4a10.28,10.28,0,1,0,10.27,10.28h0A10.26,10.26,0,0,0,235.59,82.4h0" style="fill: #72bee9"/>
      <path id="fbdc7bf4-a8b7-4440-9d3a-993372327ebe" data-name="Path 706" d="M207.33,82.4A10.28,10.28,0,1,0,217.6,92.68h0A10.27,10.27,0,0,0,207.33,82.4h0" style="fill: #72bee9"/>
      <path id="ff6e3574-3864-48ff-a632-4500c88e547a" data-name="Path 707" d="M179.07,82.4a10.28,10.28,0,1,0,10.27,10.28h0A10.27,10.27,0,0,0,179.07,82.4h0" style="fill: #72bee9"/>
      <path id="ab375ffe-b7a8-464d-bd09-a2eec88ae83d" data-name="Path 708" d="M150.81,82.4a10.28,10.28,0,1,0,10.27,10.28h0A10.27,10.27,0,0,0,150.81,82.4h0" style="fill: #72bee9"/>
      <path id="e9577b31-5c11-4891-9b36-dc0df1618d26" data-name="Path 747" d="M38.54,137.48a10.28,10.28,0,1,0,10.27,10.27h0a10.27,10.27,0,0,0-10.27-10.27h0" style="fill: #72bee9"/>
      <path id="ffc19ac1-278a-4a0c-bfac-75218069aafb" data-name="Path 748" d="M10.27,137.48a10.28,10.28,0,1,0,10.28,10.28h0a10.27,10.27,0,0,0-10.27-10.27h0" style="fill: #72bee9"/>
      <path id="aee02938-0f28-4581-931f-0ed633193051" data-name="Path 749" d="M123.32,109.94a10.28,10.28,0,1,0,10.27,10.28h0a10.27,10.27,0,0,0-10.27-10.27h0" style="fill: #72bee9"/>
      <path id="e2206cf7-2ee8-4292-8349-0e1f36c8cc3b" data-name="Path 750" d="M95.06,109.94a10.28,10.28,0,1,0,10.27,10.28h0a10.27,10.27,0,0,0-10.27-10.27h0" style="fill: #72bee9"/>
      <path id="abe095c2-56d1-4d69-9980-600573331988" data-name="Path 751" d="M66.8,109.94a10.28,10.28,0,1,0,10.27,10.28h0A10.27,10.27,0,0,0,66.8,109.94h0" style="fill: #72bee9"/>
      <path id="e174644f-2fd8-4644-86ba-a28c6b06a4df" data-name="Path 752" d="M38.54,109.94a10.28,10.28,0,1,0,10.27,10.28h0a10.27,10.27,0,0,0-10.27-10.27h0" style="fill: #72bee9"/>
      <path id="a1758b77-f315-444d-a877-75a7a1afd63a" data-name="Path 753" d="M10.27,109.94a10.28,10.28,0,1,0,10.28,10.28h0a10.27,10.27,0,0,0-10.27-10.27h0" style="fill: #72bee9"/>
      <path id="a848273a-656e-4901-88da-2d65645693cd" data-name="Path 754" d="M123.32,82.4a10.28,10.28,0,1,0,10.27,10.28h0A10.27,10.27,0,0,0,123.32,82.4h0" style="fill: #72bee9"/>
      <path id="f67509e3-0e69-45ff-893f-3430e1167506" data-name="Path 755" d="M95.06,82.4a10.28,10.28,0,1,0,10.27,10.28h0A10.27,10.27,0,0,0,95.06,82.4h0" style="fill: #72bee9"/>
      <path id="bd5e40d0-93c2-4b8a-9a04-765a363a7a91" data-name="Path 756" d="M66.8,82.4A10.28,10.28,0,1,0,77.07,92.68h0A10.27,10.27,0,0,0,66.8,82.4h0" style="fill: #72bee9"/>
    </g>
    <g>
      <text transform="translate(755.79 27)" style="isolation: isolate;font-size: 25px;fill: #2d2a26;font-family: ArialMT, Arial">Academia</text>
      <text transform="translate(685.8 27)" style="isolation: isolate;font-size: 30px;fill: #72bee9;font-family: Arial-BoldMT, Arial;font-weight: 700">20%</text>
    </g>
    <g>
      <path id="aa272981-867d-452e-80ba-ef8cb66d2685" data-name="Path 689" d="M263.85,165a10.28,10.28,0,1,0,10.27,10.27h0A10.26,10.26,0,0,0,263.85,165h0" style="fill: #7173ad"/>
      <path id="a1673cdf-882f-4bf7-bc0b-f092d873d92a" data-name="Path 690" d="M235.59,165a10.28,10.28,0,1,0,10.27,10.27h0A10.26,10.26,0,0,0,235.59,165h0" style="fill: #7173ad"/>
      <path id="ee916b09-10d8-45d5-8fa0-11246fe65b84" data-name="Path 691" d="M207.33,165a10.28,10.28,0,1,0,10.27,10.27h0A10.27,10.27,0,0,0,207.33,165h0" style="fill: #7173ad"/>
      <path id="b3264f85-f01b-4b37-82f5-43ec4b14e1b0" data-name="Path 692" d="M179.07,165a10.28,10.28,0,1,0,10.27,10.27h0A10.27,10.27,0,0,0,179.07,165h0" style="fill: #7173ad"/>
      <path id="a26ed35b-9a1f-4e4d-9278-6b474425c593" data-name="Path 693" d="M150.81,165a10.28,10.28,0,1,0,10.27,10.27h0A10.27,10.27,0,0,0,150.81,165h0" style="fill: #7173ad"/>
      <path id="ad8ad3bb-d892-457e-8175-d9ccd846d9d5" data-name="Path 694" d="M263.85,137.48a10.28,10.28,0,1,0,10.27,10.28h0a10.26,10.26,0,0,0-10.27-10.27h0" style="fill: #7173ad"/>
      <path id="b1aab22e-9995-4744-aabc-af651214bfd9" data-name="Path 695" d="M235.59,137.48a10.28,10.28,0,1,0,10.27,10.28h0a10.26,10.26,0,0,0-10.27-10.27h0" style="fill: #7173ad"/>
      <path id="bce05803-4343-480a-9b07-6ef398c6dcf0" data-name="Path 696" d="M207.33,137.48a10.28,10.28,0,1,0,10.27,10.28h0a10.27,10.27,0,0,0-10.27-10.27h0" style="fill: #7173ad"/>
      <path id="ef21f5f8-3e8d-48e5-962d-3bcc0f1876df" data-name="Path 697" d="M179.07,137.48a10.28,10.28,0,1,0,10.27,10.28h0a10.27,10.27,0,0,0-10.27-10.27h0" style="fill: #7173ad"/>
      <path id="e6a68852-8fb5-48ee-8386-53319a80c981" data-name="Path 698" d="M150.81,137.48a10.28,10.28,0,1,0,10.27,10.28h0a10.27,10.27,0,0,0-10.27-10.27h0" style="fill: #7173ad"/>
      <path id="fd3c726e-776a-4fd7-8192-07af30b18639" data-name="Path 736" d="M66.8,192.55a10.28,10.28,0,1,0,10.27,10.28h0A10.27,10.27,0,0,0,66.8,192.55h0" style="fill: #7173ad"/>
      <path id="a2d6b7ca-c01b-4790-936e-f0ed02a6a74b" data-name="Path 737" d="M38.54,192.55a10.28,10.28,0,1,0,10.27,10.28h0a10.27,10.27,0,0,0-10.27-10.28" style="fill: #7173ad"/>
      <path id="b1838431-61f9-4a6c-bf11-713c24e782f7" data-name="Path 738" d="M10.27,192.55a10.28,10.28,0,1,0,10.28,10.28h0a10.27,10.27,0,0,0-10.27-10.28h0" style="fill: #7173ad"/>
      <path id="f0d4ef01-b148-49b3-a5e2-2e4d32088b0d" data-name="Path 739" d="M123.32,165a10.28,10.28,0,1,0,10.27,10.27h0A10.27,10.27,0,0,0,123.32,165h0" style="fill: #7173ad"/>
      <path id="b05529f2-c640-4871-a670-2930611d43b7" data-name="Path 740" d="M95.06,165a10.28,10.28,0,1,0,10.27,10.27h0A10.27,10.27,0,0,0,95.06,165h0" style="fill: #7173ad"/>
      <path id="e3ac5e14-8b6e-4e5d-b205-ee09b361fd48" data-name="Path 741" d="M66.8,165a10.28,10.28,0,1,0,10.27,10.27h0A10.27,10.27,0,0,0,66.8,165h0" style="fill: #7173ad"/>
      <path id="aa8e733c-1398-4d30-8997-6c6b6cfecbde" data-name="Path 742" d="M38.54,165a10.28,10.28,0,1,0,10.27,10.27h0A10.27,10.27,0,0,0,38.54,165h0" style="fill: #7173ad"/>
      <path id="a94ac6a5-043f-4aa3-a4e3-ea0803e1c169" data-name="Path 743" d="M10.27,165a10.28,10.28,0,1,0,10.28,10.27h0A10.27,10.27,0,0,0,10.28,165h0" style="fill: #7173ad"/>
      <path id="b05571f3-f6aa-4546-a054-09df783134ad" data-name="Path 744" d="M123.32,137.48a10.28,10.28,0,1,0,10.27,10.28h0a10.27,10.27,0,0,0-10.27-10.27h0" style="fill: #7173ad"/>
      <path id="ab3f0cce-73ff-4479-b622-8f7bdf851c9f" data-name="Path 745" d="M95.06,137.48a10.28,10.28,0,1,0,10.27,10.28h0a10.27,10.27,0,0,0-10.27-10.27h0" style="fill: #7173ad"/>
      <path id="a76dfe82-b89a-4762-902f-c99bab3eb5e9" data-name="Path 746" d="M66.8,137.48a10.28,10.28,0,1,0,10.27,10.28h0A10.27,10.27,0,0,0,66.8,137.48h0" style="fill: #7173ad"/>
    </g>
    <g>
      <text transform="translate(755.79 87.24)" style="isolation: isolate;font-size: 25px;fill: #2d2a26;font-family: ArialMT, Arial">NGO</text>
      <text transform="translate(685.8 87.24)" style="isolation: isolate;font-size: 30px;fill: #7173ad;font-family: Arial-BoldMT, Arial;font-weight: 700">21%</text>
    </g>
    <g>
      <path id="e84eaa0f-651f-4dcf-a8dd-d775e0d381bc" data-name="Path 674" d="M263.85,247.63a10.28,10.28,0,1,0,10.27,10.28h0a10.26,10.26,0,0,0-10.27-10.28" style="fill: #32415f"/>
      <path id="a1beea4b-b1cb-4075-ac8d-86f24c7fb2f8" data-name="Path 675" d="M235.59,247.63a10.28,10.28,0,1,0,10.27,10.28h0a10.27,10.27,0,0,0-10.27-10.28h0" style="fill: #32415f"/>
      <path id="bcce5d68-c660-4b0f-bfee-f0d90e9cb08a" data-name="Path 676" d="M207.33,247.63a10.28,10.28,0,1,0,10.27,10.28h0a10.27,10.27,0,0,0-10.27-10.28h0" style="fill: #32415f"/>
      <path id="b55f6129-0944-44e5-97c3-af39b3d99482" data-name="Path 677" d="M179.07,247.63a10.28,10.28,0,1,0,10.27,10.28h0a10.27,10.27,0,0,0-10.27-10.28h0" style="fill: #32415f"/>
      <path id="bac12753-8467-4464-85df-66a3eeaf64f5" data-name="Path 678" d="M150.81,247.63a10.28,10.28,0,1,0,10.27,10.28h0a10.27,10.27,0,0,0-10.27-10.28h0" style="fill: #32415f"/>
      <path id="bf5824d0-46e2-4ae8-bed9-1d5d9b539987" data-name="Path 679" d="M263.85,220.09a10.28,10.28,0,1,0,10.27,10.28h0a10.26,10.26,0,0,0-10.27-10.28" style="fill: #32415f"/>
      <path id="ba8d84bd-35e0-4d9f-af2f-52d850895b44" data-name="Path 680" d="M235.59,220.09a10.28,10.28,0,1,0,10.27,10.28h0a10.27,10.27,0,0,0-10.27-10.28h0" style="fill: #32415f"/>
      <path id="f30ef89f-51b8-4931-8792-14c184997249" data-name="Path 681" d="M207.33,220.09a10.28,10.28,0,1,0,10.27,10.28h0a10.27,10.27,0,0,0-10.27-10.28h0" style="fill: #32415f"/>
      <path id="b3747182-f39b-4750-973f-384088e9f730" data-name="Path 682" d="M179.07,220.09a10.28,10.28,0,1,0,10.27,10.28h0a10.27,10.27,0,0,0-10.27-10.28h0" style="fill: #32415f"/>
      <path id="febf0b26-77b5-4f23-b726-759f2c29e81a" data-name="Path 683" d="M150.81,220.09a10.28,10.28,0,1,0,10.27,10.28h0a10.27,10.27,0,0,0-10.27-10.28h0" style="fill: #32415f"/>
      <path id="ee1f95a6-afa1-4cf4-9807-7f2add8b6b47" data-name="Path 684" d="M263.85,192.55a10.28,10.28,0,1,0,10.27,10.28h0a10.27,10.27,0,0,0-10.27-10.28" style="fill: #32415f"/>
      <path id="a1883983-ce93-420d-ba62-ab95cd499f62" data-name="Path 685" d="M235.59,192.55a10.28,10.28,0,1,0,10.27,10.28h0a10.27,10.27,0,0,0-10.27-10.28" style="fill: #32415f"/>
      <path id="b544594e-d40c-41c6-8e22-f21d99af1df8" data-name="Path 686" d="M207.33,192.55a10.28,10.28,0,1,0,10.27,10.28h0a10.27,10.27,0,0,0-10.27-10.28h0" style="fill: #32415f"/>
      <path id="f991b008-5f52-405e-bdcc-18b794f71e65" data-name="Path 687" d="M179.07,192.55a10.28,10.28,0,1,0,10.27,10.28h0a10.27,10.27,0,0,0-10.27-10.28" style="fill: #32415f"/>
      <path id="ba2f031c-9663-47be-9e78-3abd82da9a8d" data-name="Path 688" d="M150.81,192.55a10.28,10.28,0,1,0,10.27,10.28h0a10.27,10.27,0,0,0-10.27-10.28h0" style="fill: #32415f"/>
      <path id="a67d29d9-2762-4865-a365-ffc1be127b4f" data-name="Path 724" d="M123.32,247.63a10.28,10.28,0,1,0,10.27,10.28h0a10.27,10.27,0,0,0-10.27-10.28" style="fill: #32415f"/>
      <path id="b1971128-5a67-4ac1-9a79-5c3f742ef28c" data-name="Path 725" d="M95.06,247.63a10.28,10.28,0,1,0,10.27,10.28h0a10.27,10.27,0,0,0-10.27-10.28h0" style="fill: #32415f"/>
      <path id="ea574c74-989e-4b7b-8196-ef787608a0fa" data-name="Path 726" d="M66.8,247.63a10.28,10.28,0,1,0,10.27,10.28h0A10.27,10.27,0,0,0,66.8,247.63h0" style="fill: #32415f"/>
      <path id="e791909e-e2fc-4eb5-93d4-4791dc564266" data-name="Path 727" d="M38.54,247.63a10.28,10.28,0,1,0,10.27,10.28h0a10.27,10.27,0,0,0-10.27-10.28h0" style="fill: #32415f"/>
      <path id="a6334e25-d4ff-49cd-b76e-91b31c4a60a7" data-name="Path 728" d="M10.27,247.63a10.28,10.28,0,1,0,10.28,10.28h0a10.27,10.27,0,0,0-10.27-10.28h0" style="fill: #32415f"/>
      <path id="a4a3209f-579c-4c57-a939-3eeb60d35c57" data-name="Path 729" d="M123.32,220.09a10.28,10.28,0,1,0,10.27,10.28h0a10.27,10.27,0,0,0-10.27-10.28" style="fill: #32415f"/>
      <path id="fc03c1ad-f21d-45e8-9487-6b7d5236e3eb" data-name="Path 730" d="M95.06,220.09a10.28,10.28,0,1,0,10.27,10.28h0a10.27,10.27,0,0,0-10.27-10.28h0" style="fill: #32415f"/>
      <path id="a9e75a43-d9a7-44c7-8b23-9560789eb59f" data-name="Path 731" d="M66.8,220.09a10.28,10.28,0,1,0,10.27,10.28h0A10.27,10.27,0,0,0,66.8,220.09h0" style="fill: #32415f"/>
      <path id="b723dd31-50c7-4ee9-aad5-11c1fd5432fa" data-name="Path 732" d="M38.54,220.09a10.28,10.28,0,1,0,10.27,10.28h0a10.27,10.27,0,0,0-10.27-10.28h0" style="fill: #32415f"/>
      <path id="e8c0c6e7-65b4-4220-8e69-4b705649f839" data-name="Path 733" d="M10.27,220.09a10.28,10.28,0,1,0,10.28,10.28h0a10.27,10.27,0,0,0-10.27-10.28h0" style="fill: #32415f"/>
      <path id="f9226806-f3fe-41da-9c28-a3fba49855b1" data-name="Path 734" d="M123.32,192.55a10.28,10.28,0,1,0,10.27,10.28h0a10.27,10.27,0,0,0-10.27-10.28" style="fill: #32415f"/>
      <path id="a09fe05a-0316-461a-ae98-bdecdd0c97a6" data-name="Path 735" d="M95.06,192.55a10.28,10.28,0,1,0,10.27,10.28h0a10.27,10.27,0,0,0-10.27-10.28" style="fill: #32415f"/>
    </g>
    <g>
      <text transform="translate(755.79 147.1)" style="isolation: isolate;font-size: 25px;fill: #2d2a26;font-family: ArialMT, Arial">United Nations</text>
      <text transform="translate(685.8 147.49)" style="isolation: isolate;font-size: 30px;fill: #32415f;font-family: Arial-BoldMT, Arial;font-weight: 700">27%</text>
    </g>
  </g>
</svg>
