<svg id="e68781fd-edd4-41d7-bc89-b5169a133312" data-name="Camada 1" xmlns="http://www.w3.org/2000/svg" width="827.5" height="433.25" viewBox="0 0 827.5 433.25">
  <g>
    <g>
      <text transform="translate(0 362.65)" style="isolation: isolate;font-size: 88.83999633789062px;fill: #2e4161;font-family: Arial-BoldMT, Arial;font-weight: 700">896</text>
      <text transform="translate(0 421.25)" style="isolation: isolate;font-size: 55.525001525878906px;fill: #2e4161;font-family: ArialMT, Arial;letter-spacing: 0.030004783056575137em">Events</text>
    </g>
    <rect id="a71c1c24-3e8a-4a7e-95e0-1ffb3216d450" data-name="Rectangle 32" x="216.25" y="342.79" width="115.18" height="79.33" style="fill: #2e4161" class="scaleX ToR"/>
    <g>
      <text transform="translate(229.07 160.87)" style="isolation: isolate;font-size: 50.27299880981445px;fill: #2e4161;font-family: Arial-BoldMT, Arial;font-weight: 700">20%</text>
      <line id="acc64d23-ed3a-42f6-9f49-326ec07075cf" data-name="Line 10" x1="274.29" y1="343.9" x2="274.29" y2="177.42" style="fill: none;stroke: #7f7874;stroke-width: 0.7850000262260437px"/>
    </g>
    <g>
      <text transform="translate(201.04 93.12)" style="isolation: isolate;font-size: 25px;fill: #2e2a26;font-family: ArialMT, Arial">Face-to-Face</text>
      <path id="eec2ef31-a6c7-42dc-aa02-236154495003" data-name="Path 644" d="M323.69,57.37V35.74A19.2,19.2,0,0,0,330,21.61c0-11.06-9.72-20-21.72-20s-21.72,9-21.72,20q0,.45,0,.9l-3,4.84-4,6.37h5v7.9a5.65,5.65,0,0,0,5.86,5.4h9.27V57.36m-73.63,0V35.74a19.2,19.2,0,0,1-6.35-14.13c0-11.06,9.73-20,21.72-20s21.72,9,21.72,20c0,.3,0,.6,0,.9l3,4.84,4,6.37h-5v7.9a5.64,5.64,0,0,1-5.85,5.4h-9.28V57.36" style="fill: none;stroke: #2e4161;stroke-linecap: round;stroke-linejoin: round;stroke-width: 3.1760001182556152px"/>
    </g>
    <rect id="ac99867d-d299-4aca-88b4-1308a5134c46" data-name="Rectangle 31" x="344.14" y="342.79" width="449.19" height="79.33" style="fill: #498bca" class="scaleX ToR"/>
    <g>
      <text transform="translate(421.76 231.73)" style="isolation: isolate;font-size: 50.27299880981445px;fill: #498bca;font-family: Arial-BoldMT, Arial;font-weight: 700">78%</text>
      <path id="bee0b2c4-827f-4371-911c-dace2ca5675e" data-name="Path 648" d="M579,343.9V217.32H537.61" style="fill: none;stroke: #7f7874;stroke-width: 0.7850000262260437px"/>
    </g>
    <g>
      <path id="ed797dd5-6f60-4d98-9ea2-b45e781ffecd" data-name="Path 645" d="M429.24,82.22V84a5.29,5.29,0,0,0,5.29,5.29h74.06A5.29,5.29,0,0,0,513.88,84h0V82.22Zm79-71.94a19.4,19.4,0,0,0-29.94,24.37L474.53,44l9.32-3.73A19.4,19.4,0,0,0,508.2,10.28Zm.39,36.1V82.22m-17.63,0V73.08a7.14,7.14,0,0,0-4.38-6.58L479,63.32a3.55,3.55,0,0,1-2.17-3.26V60c2.2-2.29,2.59-6.29,2.63-10.42m-11.16-9a7.88,7.88,0,0,0-4.7,7.21c0,4.73.11,9.63,2.65,12.26v0a3.53,3.53,0,0,1-2.17,3.28l-7.56,3.18a7.13,7.13,0,0,0-4.38,6.58v9.14m-17.63,0V36.34a5.29,5.29,0,0,1,5.29-5.29H469" style="fill: none;stroke: #498bca;stroke-linecap: round;stroke-linejoin: round;stroke-width: 3.1760001182556152px"/>
      <text transform="translate(411.79 126.57)" style="isolation: isolate;font-size: 25px;fill: #2e2a26;font-family: ArialMT, Arial">e-Learning</text>
      <text transform="translate(418.74 156.57)" style="isolation: isolate;font-size: 25px;fill: #2e2a26;font-family: ArialMT, Arial">and other</text>
    </g>
    <rect id="e8f4e9bf-34b6-40ab-a4ec-becd461d1ad9" data-name="Rectangle 30" x="806.06" y="342.79" width="11.52" height="79.33" style="fill: #76a1d5" class="scaleX ToR"/>
    <g>
      <text transform="translate(710.63 296.34)" style="isolation: isolate;font-size: 50.27299880981445px;fill: #76a1d5;font-family: Arial-BoldMT, Arial;font-weight: 700">2%</text>
      <path id="f35fe77d-49b4-4ab3-9d8d-174d3818ed4f" data-name="Path 649" d="M812.29,343.9V284.07H795.43" style="fill: none;stroke: #7f7874;stroke-width: 0.7850000262260437px"/>
    </g>
    <g>
      <path id="aa4d07f3-3e01-44a3-8d9e-3fdbeb014ed7" data-name="Path 646" d="M595,179.38v1.76a5.31,5.31,0,0,0,5.29,5.3h74.06a5.3,5.3,0,0,0,5.29-5.3h0v-1.76Zm79-71.94A19.4,19.4,0,0,0,644,131.8l-3.72,9.32,9.31-3.73A19.4,19.4,0,0,0,674,107.44Zm.39,36.1v35.84m-17.63,0v-9.14a7.15,7.15,0,0,0-4.37-6.59l-7.57-3.17a3.55,3.55,0,0,1-2.17-3.27v-.05c2.2-2.29,2.59-6.3,2.63-10.42m-11.16-9a7.91,7.91,0,0,0-4.69,7.22c0,4.73.1,9.63,2.64,12.26v0a3.54,3.54,0,0,1-2.17,3.28l-7.56,3.17a7.15,7.15,0,0,0-4.37,6.59v9.14m-17.64,0V133.5a5.3,5.3,0,0,1,5.29-5.29h29.19" style="fill: none;stroke: #76a1d5;stroke-linecap: round;stroke-linejoin: round;stroke-width: 3.1760001182556152px"/>
      <path id="ac3d9e8d-8d02-4738-8d4e-952734be1246" data-name="Path 647" d="M819.57,180.68V159.06a19.16,19.16,0,0,0,6.34-14.14c0-11-9.71-20-21.71-20s-21.72,9-21.72,20c0,.3,0,.61,0,.9l-3,4.84-4,6.38h5v7.9a5.64,5.64,0,0,0,5.85,5.4h9.28v10.34m-73.63,0V159.06a19.22,19.22,0,0,1-6.35-14.14c0-11,9.73-20,21.72-20s21.72,9,21.72,20c0,.3,0,.61,0,.9l3,4.84,4,6.37h-5v7.9a5.64,5.64,0,0,1-5.86,5.4h-9.27v10.35" style="fill: none;stroke: #76a1d5;stroke-linecap: round;stroke-linejoin: round;stroke-width: 3.1760001182556152px"/>
      <text transform="translate(614.59 227.19)" style="isolation: isolate;font-size: 25px;fill: #2e2a26;font-family: ArialMT, Arial">Blended learning</text>
      <rect id="a23b485a-7deb-4dde-8d34-d6ff812f89f7" data-name="Rectangle 33" x="696.28" y="142.51" width="3.5" height="42.87" style="fill: #76a1d5"/>
    </g>
  </g>
</svg>
