<svg xmlns="http://www.w3.org/2000/svg" width="180" height="180" viewBox="0 0 180 180"><g transform="translate(-1207.902 -2638)"><circle cx="90" cy="90" r="90" transform="translate(1207.902 2638)" fill="#219e45"/><path d="M1347.469,2731.146h-11.126v-22.253a1.868,1.868,0,0,0-.2-.835l-1.855-3.708a1.852,1.852,0,0,0-.927-.872l-12.294-5.322-1-3.1a15.2,15.2,0,0,0,5.155-12.128V2668.1a1.851,1.851,0,0,0-.537-1.316,20.351,20.351,0,0,0-24.886,0,1.853,1.853,0,0,0-.538,1.316v14.835a15.208,15.208,0,0,0,5.137,12.128l-1,3.1-12.294,5.322a1.854,1.854,0,0,0-.928.872l-1.854,3.708a1.855,1.855,0,0,0-.185.835v22.253H1277v-5.564a1.854,1.854,0,0,0-1.854-1.854h-1.855v-5.563a1.855,1.855,0,0,0-1.854-1.855h-3.709v-17.783l2.615-2.615h1.428a5.564,5.564,0,0,0,5.229,3.709h3.709a5.563,5.563,0,0,0,0-11.126H1277a5.562,5.562,0,0,0-5.229,3.708h-2.188a1.86,1.86,0,0,0-1.317.538l-3.709,3.709a1.86,1.86,0,0,0-.538,1.317v18.543h-3.708a1.856,1.856,0,0,0-1.855,1.855v5.563H1256.6a1.854,1.854,0,0,0-1.854,1.854v5.564h-18.544v3.708h5.563v9.272a1.855,1.855,0,0,0,1.854,1.855h3.709v35.233h3.709V2762.67h16.689v-3.709h-16.689V2753.4h89.011v5.563h-16.69v3.709h16.69v18.544h3.708v-35.233h3.709a1.855,1.855,0,0,0,1.854-1.855v-9.272h5.564v-3.708ZM1277,2692.2h3.709a1.855,1.855,0,0,1,0,3.709H1277a1.855,1.855,0,0,1,0-3.709Zm25.962-23.235a17.131,17.131,0,0,1,18.544,0v8.141c-.928-.241-1.855-.7-1.855-1.595a1.855,1.855,0,0,0-1.854-1.855h-11.127a1.855,1.855,0,0,0-1.854,1.855c0,.871-.927,1.335-1.854,1.595Zm0,13.963v-2.021a6.582,6.582,0,0,0,5.229-3.542h8.085a6.582,6.582,0,0,0,5.23,3.542v2.021c0,5.137-2.43,11.127-9.272,11.127S1302.964,2688.068,1302.964,2682.931Zm14.538,16.226-5.266,5.267-5.267-5.267.7-2.206a12.987,12.987,0,0,0,9.086,0Zm-25.665,10.181,1.354-2.707,11.126-4.84,6.064,6.008v6.657h3.709V2707.8l6.027-6.027,11.126,4.84,1.391,2.726v21.808h-5.563v-9.272h-3.709v9.272h-22.253v-9.272H1297.4v9.272h-5.564Zm-29.67,10.681h7.418v3.709h-7.418Zm-3.709,7.418h14.835v3.709h-14.835Zm87.157,14.835h-3.709a1.854,1.854,0,0,0-1.854,1.854v5.563h-89.011v-3.708h77.884v-3.709h-83.447v-7.418h100.137Z" transform="translate(2.828 6.616)" fill="#fff"/><rect width="3.709" height="3.709" transform="translate(1335.462 2748.888)" fill="#fff"/><path d="M1315.944,2758.961h-40.8a1.856,1.856,0,0,0-1.855,1.855v14.835a1.855,1.855,0,0,0,1.855,1.854h40.8a1.854,1.854,0,0,0,1.855-1.854v-14.835A1.855,1.855,0,0,0,1315.944,2758.961Zm-1.854,14.836H1277V2762.67h37.088Z" transform="translate(2.828 6.616)" fill="#fff"/><rect width="3.709" height="3.709" transform="translate(1313.209 2724.781)" fill="#fff"/></g></svg>