<svg xmlns="http://www.w3.org/2000/svg" width="181.71" height="181.71" viewBox="0 0 181.71 181.71"><g transform="translate(-529.178 -2119.057)"><circle cx="90.855" cy="90.855" r="90.855" transform="translate(529.178 2119.057)" fill="#d53216"/><path d="M7627.676,2185.618a1.472,1.472,0,0,0-.533-1.025,1.429,1.429,0,0,0-1.11-.332l-12.569,1.388a1.485,1.485,0,0,0-.78,2.625l3,2.451-5.108,6.12v-21.4a1.487,1.487,0,0,0-1.487-1.485H7596.5a1.487,1.487,0,0,0-1.486,1.485v33l-9.611-2.8V2189.7a1.487,1.487,0,0,0-1.487-1.485h-5.557a29.362,29.362,0,0,0,1.2-8.206v0h0v0a1.485,1.485,0,0,0-1.486-1.487c-.006,0-.011,0-.018,0l-25.411-.076,14.277-21.047a1.487,1.487,0,0,0-.4-2.063,29.615,29.615,0,0,0-44.806,15.107,1.541,1.541,0,0,0-.086.151,1.275,1.275,0,0,0-.016.134,29.806,29.806,0,0,0,4.315,26.772.394.394,0,0,0,.182.252,29.238,29.238,0,0,0,18.574,11.389v19.62h-9.612V2216.3a1.487,1.487,0,0,0-1.486-1.485h-12.581a1.487,1.487,0,0,0-1.486,1.485v40.282h-1.113a1.484,1.484,0,1,0,0,2.969h101.059a1.484,1.484,0,1,0,0-2.969h-8.9v-44.3c7.6-9.062,11.148-13.311,12.744-15.3l2.929,2.4a1.485,1.485,0,0,0,2.422-1.267Zm-29.686-8.692h9.607v23.48l-7.856,9.411-1.751-.509Zm-15.558,14.259v13.6l-5.337-1.552a1.481,1.481,0,0,0-1.432.348l-2.838,2.682v-15.078h3.492l.01,0,.006,0Zm-5.98-9.7a26.457,26.457,0,0,1-1.252,6.732h-3.862a1.487,1.487,0,0,0-1.486,1.485v7.948a26.626,26.626,0,0,1-9.612,6.851v-4.943a1.487,1.487,0,0,0-1.486-1.485h-7.632l.193-16.662Zm-6.6,20.365v7.223l-9.612,9.082V2207.7A29.574,29.574,0,0,0,7569.852,2201.849ZM7547.66,2208v-6.962h9.607v19.921l-8.252,7.8h-1.355v-20.64s.006-.008.007-.013C7547.671,2208.07,7547.658,2208.038,7547.66,2208Zm-19.945-43.092a26.747,26.747,0,0,1,35.869-7.89l-14.337,21.137-24.268-8.024A26.665,26.665,0,0,1,7527.715,2164.911Zm-.17,29.748a26.851,26.851,0,0,1-3.491-21.7l22.614,7.477Zm7.287,7.39a26.618,26.618,0,0,1-5.509-5.015l19-14.131-.179,15.169h-1.975a1.487,1.487,0,0,0-1.486,1.485v6.565A26.465,26.465,0,0,1,7534.832,2202.049Zm-2.73,54.538H7522.5v-38.8h9.607v10.969h-6.167a1.486,1.486,0,0,0-1.486,1.484v6.991a1.486,1.486,0,0,0,1.486,1.484h6.167Zm12.584,0h-9.611v-17.869h9.611Zm12.581,0h-9.607v-17.869h4.727a1.477,1.477,0,0,0,1.019-.406l3.861-3.648Zm12.585,0h-9.612v-24.731l9.612-9.081Zm12.58,0h-9.607v-36.621l6.152-5.813,3.455,1v41.429Zm12.585,0H7585.4v-40.564l9.612,2.794Zm12.58,0h-9.607v-36.905l4.2,1.22a1.479,1.479,0,0,0,1.552-.471l3.857-4.6v40.754Zm16.526-62.779a1.491,1.491,0,0,0-2.092.2c-.163.2-8,9.543-13.957,16.636a1.386,1.386,0,0,0-.113.134l-5.874,7-23.1-6.716a1.487,1.487,0,0,0-1.432.348l-25.76,24.338h-24.374v-4.021h22.184a1.477,1.477,0,0,0,1.019-.406l9.14-8.635c.02-.019.04-.035.059-.055l12.5-11.811c.033-.03.065-.057.1-.091l4.664-4.406,22.761,6.617a1.481,1.481,0,0,0,1.552-.475l8.727-10.456c.01-.009.016-.02.026-.029l8.765-10.5a1.477,1.477,0,0,0,.348-.952c0-.528,0-.66-1.976-2.313l7.549-.834.594,7.5Z" transform="translate(-6949.147)" fill="#fff"/><path d="M7560.4,2174.428a1.489,1.489,0,0,0,1.313.789h.05l17-.58a1.489,1.489,0,0,0,1.436-1.481,17.28,17.28,0,0,0-7.537-14.528,1.492,1.492,0,0,0-2.034.353l-10.119,13.876A1.492,1.492,0,0,0,7560.4,2174.428Zm11.744-12.477a14.306,14.306,0,0,1,5.036,9.767l-12.472.426Z" transform="translate(-6949.147)" fill="#fff"/></g></svg>