<svg xmlns="http://www.w3.org/2000/svg" width="180" height="180" viewBox="0 0 180 180"><g transform="translate(-529.951 -3943)"><ellipse cx="90" cy="90" rx="90" ry="90" transform="translate(529.951 3943)" fill="#63c3ef"/><path d="M666.184,4008.386v-13.228a11.9,11.9,0,0,0-23.8,0v11.9h-.945a6.78,6.78,0,0,0-5.856-3.4h-1.744a8.412,8.412,0,0,0,1.744-5.1v-6.8a8.489,8.489,0,0,0-16.391-3.115,5.058,5.058,0,0,0-8.319.411,8.484,8.484,0,0,0-14.394,6.1v6.8a8.438,8.438,0,0,0,.576,3.009,6.744,6.744,0,0,0-3.977-1.309h-1.722a8.5,8.5,0,0,0,1.722-5.1v-8.5a6.8,6.8,0,0,0-6.8-6.8h-3.4a6.8,6.8,0,0,0-6.8,6.8v8.209a8.937,8.937,0,0,0,1.845,5.393h-3.545a8.512,8.512,0,0,0-8.5,8.5v3.4c0,.034.017.062.019.1s-.012.061-.008.091l3.141,28.281a4.267,4.267,0,0,0,4.674,3.815,4.215,4.215,0,0,0,1.107-.265l1.2,27.68a8.51,8.51,0,0,0-6.736,8.31,1.7,1.7,0,0,0,1.7,1.7h56.106a1.519,1.519,0,0,1,1.7,0h34a1.7,1.7,0,0,0,1.7-1.7,8.433,8.433,0,0,0-6.6-8.266l.881-7.036h7.425a1.7,1.7,0,0,0,1.7-1.7,1.677,1.677,0,0,0-.026-.292l-3.347-19.223a4.248,4.248,0,0,0,1.8-3.267l1.432-25.867a1.7,1.7,0,0,0,.136-.656v-5.1A5.076,5.076,0,0,0,666.184,4008.386ZM579.474,3995a10.012,10.012,0,0,0,10.2-4.5v8.052a5.1,5.1,0,0,1-5.611,5.077,5.3,5.3,0,0,1-4.59-5.369Zm3.4-8.348h3.4a3.344,3.344,0,0,1,1.375.3,6.8,6.8,0,0,1-6.476,4.8,6.977,6.977,0,0,1-1.7-.238v-1.463A3.4,3.4,0,0,1,582.874,3986.657ZM662,4044.464a.918.918,0,0,1-.918-.918h0v-24.585h3.208l-1.37,24.653A.909.909,0,0,1,662,4044.464Zm-7.719-57.807a8.511,8.511,0,0,1,8.5,8.5v11.9h-5.144a8.41,8.41,0,0,0,1.744-5.1v-3.4a1.7,1.7,0,0,0-.757-1.414l-5.1-3.4a1.7,1.7,0,0,0-1.575-.17l-6.17,2.474v-.889A8.512,8.512,0,0,1,654.282,3986.657Zm-8.5,15.3v-2.25l6.6-2.64,3.6,2.4v2.491a5.1,5.1,0,0,1-10.2,0Zm17,8.5a1.7,1.7,0,0,1,1.7,1.7v3.4h-5.1a1.7,1.7,0,0,0-1.7,1.7v8.5h-11.9v-8.9a5.1,5.1,0,0,0-4.468-5.062l-3.784-.472a1.679,1.679,0,0,1,1.452-.869Zm-47.605,66.353a8.44,8.44,0,0,0-3.207-1.515l.883-7.032h4.024v7.53A8.663,8.663,0,0,0,615.178,4076.813Zm-37.33-37.45h5.026v35.7H579.4Zm8.427,0h3l.262,4.421a4.258,4.258,0,0,0,1.807,3.267L588,4066.274a1.7,1.7,0,0,0,1.383,1.967,1.668,1.668,0,0,0,.292.025h.367l-.3,6.8h-3.471Zm10.2-28.9h20.4a1.7,1.7,0,0,1,1.7,1.7v3.4h-5.1a1.7,1.7,0,0,0-1.7,1.7v8.5h-13.6v-8.5a1.7,1.7,0,0,0-1.7-1.7h-5.1v-3.4a1.7,1.7,0,0,1,1.7-1.7Zm22.1-13.6v1.7a8.413,8.413,0,0,0,1.745,5.1h-1.745a6.778,6.778,0,0,0-5.855,3.4h-.99a8.411,8.411,0,0,0,1.745-5.1v-5.414a4.943,4.943,0,0,0,5.1-1.02Zm-8.5,5.1a5.1,5.1,0,0,1-10.2,0v-5.1h10.2Zm-18.38,62.907,2.975-17.084a4.324,4.324,0,0,0,3.5-4.236v-14.384h13.6v14.367a4.34,4.34,0,0,0,3.5,4.25l2.977,17.087Zm25.351-21.29a.944.944,0,0,1-.935.888.924.924,0,0,1-.935-.912v-24.591h3.3Zm-22.272-24.615v24.585a.92.92,0,1,1-1.84.052h0l-1.457-24.637Zm.868,57.278a8.553,8.553,0,0,0-2.5-.961l.3-7.012H597.1l.879,7.032A8.421,8.421,0,0,0,595.644,4076.239Zm4.883-7.973h2.75v6.8h-1.9Zm6.15,0h2.749l-.85,6.8h-1.9Zm13.6,0a1.7,1.7,0,0,0,1.7-1.7,1.784,1.784,0,0,0-.026-.292l-3.344-19.212a4.357,4.357,0,0,0,1.836-3.273l.257-4.426h3.147l1.241,12.411a5.107,5.107,0,0,0,.3,1.231v22.062h-5.11Zm23.8-13.6v6.8h-3.4v-5.1h-3.4v5.1h-3.4v-8.5h10.2Zm-15.3,20.4v-18.911a5.068,5.068,0,0,0,1.378.209h.323v18.7Zm1.7-23.8v1.7h-.323a1.7,1.7,0,0,1-1.7-1.531l-1.207-12.071h3.231Zm3.4,13.6h3.4v10.2h-3.4Zm6.8,0h3.4v10.2h-3.4Zm6.8,10.2v-6.8h1.7v6.8Zm0-23.8v-11.9h3.23l-1.207,12.071a1.7,1.7,0,0,1-1.7,1.531h-.323Zm-1.7-15.3a1.7,1.7,0,0,0-1.7,1.7v11.9h-10.2v-11.9a1.7,1.7,0,0,0-1.7-1.7h-5.1a3.4,3.4,0,0,1,3.4-3.4h17a3.4,3.4,0,0,1,3.4,3.4Zm-10.2-10.2v-3.4h6.8v3.4a3.4,3.4,0,1,1-6.8,0Zm5.312-10.587a1.7,1.7,0,0,1,1.489,1.689v2.1h-6.8a3.4,3.4,0,0,1-3.4-3.4v-1.474Zm-3.8-7.742a5.1,5.1,0,0,0-3.034,3.461l-3.369-.42a1.735,1.735,0,0,0-1.336.412,1.7,1.7,0,0,0-.575,1.275v3.4a6.781,6.781,0,0,0,3.4,5.856v4.345a6.73,6.73,0,0,0,.945,3.4H630.48a6.8,6.8,0,0,0-6.8,6.8H620.9l1.082-18.6h-.016c0-.034.019-.063.019-.1v-5.1a5.1,5.1,0,0,0-4.165-5,3.362,3.362,0,0,1,.761-.1h17A3.334,3.334,0,0,1,637.093,4007.432Zm-15.114-8.874v-.737l6.1-3.661.868,1.758a1.7,1.7,0,0,0,1.531.94h1.7v1.7a5.1,5.1,0,1,1-10.2,0Zm0-6.8a5.1,5.1,0,1,1,10.2,0v1.7h-.65l-1.22-2.46a1.709,1.709,0,0,0-2.4-.7l-5.933,3.559Zm-6.8-1.7a1.7,1.7,0,1,1-1.7,1.7A1.7,1.7,0,0,1,615.178,3990.057Zm-10.2,0a5.114,5.114,0,0,1,4.81,3.4h-9.62A5.113,5.113,0,0,1,604.977,3990.057Zm-31,54.121a.914.914,0,0,1-1.571-.527l-2.932-26.39h3.293l1.459,26.24A.909.909,0,0,1,573.975,4044.178Zm-4.7-30.318v-1.7a5.1,5.1,0,0,1,5.1-5.1h18.7a5.1,5.1,0,0,0-5.1,5.1v5.1c.005.033.012.066.02.1h-.02l1.1,18.6H577.209l-1.136-20.5a1.7,1.7,0,0,0-1.7-1.6Zm8.5,64.607h5.1v3.4h-9.91A5.112,5.112,0,0,1,577.774,4078.467Zm8.5,0h5.1a5.053,5.053,0,0,1,1.539.249,8.468,8.468,0,0,0-1.369,3.152h-5.27Zm8.791,3.4a5.113,5.113,0,0,1,4.81-3.4h3.4v3.4Zm18.412,0h-6.8v-3.4h3.4a5.112,5.112,0,0,1,4.81,3.4Zm11.9,0h-6.971a8.425,8.425,0,0,0-.991-2.515,5.108,5.108,0,0,1,2.861-.886h5.1Zm5.1-.293a1.7,1.7,0,0,1,.5-1.2l1.906-1.906h4.4v3.4h-6.8Zm10.2.293v-3.4h4.4l1.906,1.906a1.706,1.706,0,0,1,.5,1.2v.293Zm20.11,0h-9.909v-.293a5.047,5.047,0,0,0-1.085-3.108h6.186a5.126,5.126,0,0,1,3.6,1.483A5.217,5.217,0,0,1,660.791,4081.868Zm-6.31-6.8h-1.9v-6.8h2.749Zm-7-10.2v-8.5h.323a5.083,5.083,0,0,0,5.075-4.591l1.4-13.941a.231.231,0,0,1,0-.083.23.23,0,0,0,0-.087v-1.7a6.8,6.8,0,0,0-6.8-6.8h10.2v14.384a4.323,4.323,0,0,0,3.5,4.236l2.975,17.084Z" transform="translate(3.221 -1.113)" fill="#fff"/></g></svg>