<svg xmlns="http://www.w3.org/2000/svg" width="180" height="180" viewBox="0 0 180 180"><g transform="translate(-528.951 -2099)"><ellipse cx="90" cy="90" rx="90" ry="90" transform="translate(528.951 2099)" fill="#63c3ef"/><path d="M655.129,2142.864a2.043,2.043,0,0,0-2.89,0l-14,14-13.961,5.464-16.5-5.5-13.969-13.967a2.043,2.043,0,0,0-2.89,0L562.3,2171.48a2.044,2.044,0,0,0,0,2.89l13.871,13.871,3.752,18.76-1.62,1.622a7.824,7.824,0,0,0,5.533,13.358c.13,0,.257-.031.388-.039,0,.133-.039.258-.039.391a7.835,7.835,0,0,0,7.827,7.824c.13,0,.257-.031.388-.039,0,.133-.039.258-.039.39a7.836,7.836,0,0,0,7.827,7.825c.13,0,.257-.031.388-.039,0,.133-.039.258-.039.39a7.825,7.825,0,0,0,13.358,5.534h0l1.97-1.973,4.017,4.017a7.824,7.824,0,0,0,13.359-5.534c0-.132-.031-.257-.039-.39.131,0,.258.039.389.039a7.835,7.835,0,0,0,7.826-7.825c0-.132-.031-.257-.039-.39.131,0,.258.039.389.039a7.835,7.835,0,0,0,7.826-7.824c0-.133-.031-.258-.039-.391.131,0,.258.039.389.039a7.825,7.825,0,0,0,5.533-13.358l-1.159-1.161,15.23-20.94,14.2-14.2a2.044,2.044,0,0,0,0-2.89Zm-62.765,4.335,11.418,11.418-25.726,25.726-11.418-11.418Zm-8.525,70.694a3.736,3.736,0,0,1-2.643-6.379l2.743-2.747a3.737,3.737,0,1,1,5.286,5.285l-2.743,2.747A3.72,3.72,0,0,1,583.839,2217.893Zm8.176,8.176a3.736,3.736,0,0,1-2.643-6.379l2.743-2.748a3.738,3.738,0,1,1,5.286,5.286l-2.743,2.747A3.72,3.72,0,0,1,592.015,2226.069Zm8.176,8.176a3.736,3.736,0,0,1-2.643-6.379l2.743-2.748a3.738,3.738,0,1,1,5.286,5.286l-2.743,2.747A3.719,3.719,0,0,1,600.191,2234.245Zm13.562,4.335-2.744,2.747a3.737,3.737,0,1,1-5.285-5.285l2.743-2.748a3.738,3.738,0,1,1,5.286,5.286Zm36.193-18.643a3.718,3.718,0,0,1-2.643-1.094l-8.526-8.527-2.89,2.89,8.527,8.528a3.738,3.738,0,0,1-5.287,5.285l-8.526-8.527-2.89,2.89,8.528,8.528a3.738,3.738,0,0,1-5.288,5.285l-8.526-8.527-2.89,2.89,8.528,8.528a3.738,3.738,0,0,1-5.288,5.285l-4.432-4.425a7.833,7.833,0,0,0-7.233-10.833c-.131,0-.258.031-.389.039,0-.133.039-.258.039-.391a7.835,7.835,0,0,0-7.826-7.824c-.131,0-.258.031-.389.039,0-.133.039-.258.039-.391a7.835,7.835,0,0,0-7.826-7.824c-.131,0-.258.031-.389.039,0-.133.039-.258.039-.391a7.822,7.822,0,0,0-10.874-7.211l-3.26-16.3,26.95-26.944,11.1,3.7-3.2,1.253a2.06,2.06,0,0,0-.7.46l-19.768,19.769a7.826,7.826,0,0,0,11.067,11.067h0l9.212-9.215a16.357,16.357,0,0,0,10.138,3.475,16.542,16.542,0,0,0,4.74-.691l22.782,22.783a3.738,3.738,0,0,1-2.644,6.379Zm1.449-13.356-17.615-17.615a16.625,16.625,0,0,0,2.953-2.332l2.044-2.044-2.89-2.89-2.044,2.044a12.412,12.412,0,0,1-17.55,0,2.044,2.044,0,0,0-2.89,0l-10.569,10.571a3.737,3.737,0,1,1-5.286-5.285l19.465-19.467,7.376-2.886h.033v-.027L638.867,2161l26.443,26.439Zm16.6-22.238-25.726-25.726,11.418-11.418,25.726,25.726Z" transform="translate(-3.622 -6.127)" fill="#fff"/><rect width="4.088" height="4.088" transform="translate(661.479 2166.799) rotate(-45)" fill="#fff"/><rect width="4.088" height="4.088" transform="translate(571.544 2166.798) rotate(-45)" fill="#fff"/></g></svg>