<svg xmlns="http://www.w3.org/2000/svg" width="181.71" height="181.71" viewBox="0 0 181.71 181.71"><g transform="translate(-1208.29 -2748.655)"><circle cx="90.855" cy="90.855" r="90.855" transform="translate(1208.29 2748.655)" fill="#b81371"/><path d="M10339.113,2825.055h0c-.358-.119-.6-.358-.6-.6a1.906,1.906,0,0,1,0-.836,5.781,5.781,0,0,0-7.762-7.643.975.975,0,0,1-.836,0,.945.945,0,0,1-.6-.6h0a5.666,5.666,0,0,0-5.493-3.821h0a5.772,5.772,0,0,0-5.493,3.94h0a.987.987,0,0,1-.6.6,1.9,1.9,0,0,1-.836,0,5.782,5.782,0,0,0-7.644,7.762.693.693,0,0,1,0,.836c-.119.119-.239.477-.6.6h0a5.667,5.667,0,0,0-3.822,5.493,5.772,5.772,0,0,0,3.941,5.493h0a.98.98,0,0,1,.6.6,1.876,1.876,0,0,1,0,.836,5.624,5.624,0,0,0,1.2,6.568,5.683,5.683,0,0,0,2.627,1.433v16a2.4,2.4,0,0,0,3.94,1.792l6.807-5.852,6.807,5.852a2.521,2.521,0,0,0,1.553.6,2.25,2.25,0,0,0,.955-.239,2.359,2.359,0,0,0,1.434-2.15v-16.121a5.664,5.664,0,0,0,2.865-1.553,5.733,5.733,0,0,0,1.194-6.448v-.12a.694.694,0,0,1,0-.836c.12-.119.239-.477.6-.6a5.665,5.665,0,0,0,3.822-5.493A6.048,6.048,0,0,0,10339.113,2825.055Zm-9.2,31.407-4.418-3.822a3.4,3.4,0,0,0-1.553-.477,2.518,2.518,0,0,0-1.553.6l-4.419,3.7v-11.225h0c.12.119.479.238.6.6a5.665,5.665,0,0,0,5.493,3.821h0a5.771,5.771,0,0,0,5.492-3.941h0a1.635,1.635,0,0,1,.358-.477Zm7.643-24.958a5.948,5.948,0,0,0-3.224,8v.119a1.1,1.1,0,0,1-1.433,1.433,6.025,6.025,0,0,0-4.777-.119,5.778,5.778,0,0,0-3.224,3.463h0a1,1,0,0,1-1.911,0,5.77,5.77,0,0,0-3.344-3.344,6.767,6.767,0,0,0-2.149-.358,5.443,5.443,0,0,0-2.389.6h-.119a1.1,1.1,0,0,1-1.434-1.433,6.017,6.017,0,0,0,.119-4.777,5.778,5.778,0,0,0-3.463-3.224h0a1.043,1.043,0,0,1-.716-.956,1.1,1.1,0,0,1,.6-.955h0a5.774,5.774,0,0,0,3.345-3.344,6.04,6.04,0,0,0-.12-4.776,1.1,1.1,0,0,1,1.433-1.433,6.032,6.032,0,0,0,4.777.119,5.781,5.781,0,0,0,3.224-3.463h0a1.045,1.045,0,0,1,.956-.717,1.1,1.1,0,0,1,.955.6h0a5.769,5.769,0,0,0,3.344,3.343,6.043,6.043,0,0,0,4.776-.119,1.1,1.1,0,0,1,1.433,1.433,6.033,6.033,0,0,0-.119,4.777,5.784,5.784,0,0,0,3.463,3.224h0a.995.995,0,0,1,0,1.911Zm-51.826-41.439a2.394,2.394,0,0,1,2.388-2.388h19.106a2.389,2.389,0,1,1,0,4.777h-19.106A2.4,2.4,0,0,1,10285.734,2790.065Zm57.319,11.942a2.4,2.4,0,0,1-2.388,2.389h-52.544a2.389,2.389,0,0,1,0-4.777h52.544A2.4,2.4,0,0,1,10343.054,2802.007Zm-57.319,11.942a2.394,2.394,0,0,1,2.388-2.388h14.33a2.388,2.388,0,0,1,0,4.776h-14.33A2.394,2.394,0,0,1,10285.734,2813.949Zm0,11.942a2.4,2.4,0,0,1,2.388-2.389h4.777a2.389,2.389,0,0,1,0,4.777h-4.777A2.394,2.394,0,0,1,10285.734,2825.891Zm18.39,17.435a2.31,2.31,0,0,1,0,3.344l-9.553,9.553a2.309,2.309,0,0,1-3.345,0l-4.776-4.777a2.364,2.364,0,0,1,3.344-3.343l3.105,3.1,7.881-7.881A2.31,2.31,0,0,1,10304.124,2843.326Zm60.425-9.076H10355v-53.738a8.308,8.308,0,0,0-8.359-8.359h-76.428a8.308,8.308,0,0,0-8.359,8.359v34.631a2.4,2.4,0,0,0,2.389,2.389h9.554v53.738a8.308,8.308,0,0,0,8.359,8.359h76.428a8.308,8.308,0,0,0,8.359-8.359v-34.632A2.4,2.4,0,0,0,10364.549,2834.25Zm-90.757-21.5h-7.165v-32.243a3.583,3.583,0,1,1,7.165,0Zm8.359,62.1a3.592,3.592,0,0,1-3.582-3.582v-90.758a7.218,7.218,0,0,0-.836-3.583h68.9a3.519,3.519,0,0,1,3.582,3.583v90.758a7.217,7.217,0,0,0,.836,3.582Zm80.01-3.582a3.583,3.583,0,0,1-7.165,0v-32.243h7.165Z" transform="translate(-9014.249 12.191)" fill="#fff"/></g></svg>