<svg xmlns="http://www.w3.org/2000/svg" width="180" height="180" viewBox="0 0 180 180"><g transform="translate(-1207.951 -2720)"><circle cx="90" cy="90" r="90" transform="translate(1207.951 2720)" fill="#63c3ef"/><path d="M1347.469,2812.766h-11.126v-22.253a1.862,1.862,0,0,0-.2-.834l-1.855-3.709a1.854,1.854,0,0,0-.927-.872l-12.294-5.322-1-3.1a15.2,15.2,0,0,0,5.155-12.127v-14.835a1.855,1.855,0,0,0-.537-1.317,20.352,20.352,0,0,0-24.886,0,1.856,1.856,0,0,0-.538,1.317v14.835a15.2,15.2,0,0,0,5.137,12.127l-1,3.1L1291.1,2785.1a1.856,1.856,0,0,0-.928.872l-1.854,3.709a1.852,1.852,0,0,0-.185.834v22.253H1277V2807.2a1.855,1.855,0,0,0-1.854-1.855h-1.855v-5.563a1.854,1.854,0,0,0-1.854-1.854h-3.709v-17.784l2.615-2.615h1.428a5.561,5.561,0,0,0,5.229,3.709h3.709a5.563,5.563,0,0,0,0-11.126H1277a5.561,5.561,0,0,0-5.229,3.709h-2.188a1.854,1.854,0,0,0-1.317.537l-3.709,3.709a1.86,1.86,0,0,0-.538,1.317v18.544h-3.708a1.855,1.855,0,0,0-1.855,1.854v5.563H1256.6a1.855,1.855,0,0,0-1.854,1.855v5.563h-18.544v3.709h5.563v9.272a1.854,1.854,0,0,0,1.854,1.854h3.709v35.233h3.709V2844.29h16.689v-3.708h-16.689v-5.563h89.011v5.563h-16.69v3.708h16.69v18.544h3.708V2827.6h3.709a1.854,1.854,0,0,0,1.854-1.854v-9.272h5.564v-3.709ZM1277,2773.824h3.709a1.854,1.854,0,0,1,0,3.708H1277a1.854,1.854,0,0,1,0-3.708Zm25.962-23.236a17.133,17.133,0,0,1,18.544,0v8.141c-.928-.241-1.855-.705-1.855-1.595a1.854,1.854,0,0,0-1.854-1.854h-11.127a1.854,1.854,0,0,0-1.854,1.854c0,.872-.927,1.335-1.854,1.595Zm0,13.964v-2.022a6.582,6.582,0,0,0,5.229-3.541h8.085a6.582,6.582,0,0,0,5.23,3.541v2.022c0,5.136-2.43,11.126-9.272,11.126S1302.964,2769.688,1302.964,2764.552Zm14.538,16.226-5.266,5.266-5.267-5.266.7-2.207a12.977,12.977,0,0,0,9.086,0Zm-25.665,10.18,1.354-2.707,11.126-4.84,6.064,6.008v6.657h3.709v-6.657l6.027-6.027,11.126,4.84,1.391,2.726v21.808h-5.563v-9.272h-3.709v9.272h-22.253v-9.272H1297.4v9.272h-5.564Zm-29.67,10.682h7.418v3.708h-7.418Zm-3.709,7.417h14.835v3.709h-14.835Zm87.157,14.835h-3.709a1.854,1.854,0,0,0-1.854,1.855v5.563h-89.011V2827.6h77.884v-3.709h-83.447v-7.417h100.137Z" transform="translate(2.877 3.104)" fill="#fff"/><rect width="3.709" height="3.709" transform="translate(1335.511 2826.996)" fill="#fff"/><path d="M1315.944,2840.582h-40.8a1.855,1.855,0,0,0-1.855,1.854v14.835a1.856,1.856,0,0,0,1.855,1.855h40.8a1.855,1.855,0,0,0,1.855-1.855v-14.835A1.854,1.854,0,0,0,1315.944,2840.582Zm-1.854,14.835H1277V2844.29h37.088Z" transform="translate(2.877 3.104)" fill="#fff"/><rect width="3.709" height="3.709" transform="translate(1313.258 2802.889)" fill="#fff"/></g></svg>