<svg xmlns="http://www.w3.org/2000/svg" width="181.71" height="181.71" viewBox="0 0 181.71 181.71"><g transform="translate(-524.322 -2119.057)"><circle cx="90.855" cy="90.855" r="90.855" transform="translate(524.322 2119.057)" fill="#323e5f"/><path d="M10900.971,2164.549h-82.27a8.228,8.228,0,0,0-8.228,8.228v59.234a8.228,8.228,0,0,0,8.228,8.228h31.263v9.872h-9.873a4.95,4.95,0,0,0-4.936,4.936v6.582a1.644,1.644,0,0,0,1.645,1.645h46.072a1.644,1.644,0,0,0,1.645-1.645v-6.582a4.95,4.95,0,0,0-4.936-4.936h-9.873v-9.872h31.263a8.228,8.228,0,0,0,8.228-8.228v-59.234A8.228,8.228,0,0,0,10900.971,2164.549Zm-21.39,88.853a1.644,1.644,0,0,1,1.645,1.645v4.937h-42.779v-4.937a1.644,1.644,0,0,1,1.645-1.645Zm-26.327-3.291v-9.872h13.164v9.872Zm52.654-18.1a4.953,4.953,0,0,1-4.937,4.937h-82.27a4.953,4.953,0,0,1-4.937-4.937v-4.936h92.145Zm0-8.227h-92.145v-51.007a4.953,4.953,0,0,1,4.938-4.937h82.27a4.952,4.952,0,0,1,4.938,4.937Z" transform="translate(-10243.658)" fill="#fff"/><rect width="3.291" height="3.291" transform="translate(652.377 2230.366)" fill="#fff"/><rect width="3.291" height="3.291" transform="translate(645.795 2230.366)" fill="#fff"/><path d="M10896.035,2174.422h-4.937v-1.645a1.645,1.645,0,0,0-1.646-1.646h-26.326a1.645,1.645,0,0,0-1.646,1.646v1.645h-3.29v-1.645a1.646,1.646,0,0,0-1.646-1.646h-26.326a1.645,1.645,0,0,0-1.646,1.646v1.645h-4.937a1.645,1.645,0,0,0-1.646,1.645v42.781a1.645,1.645,0,0,0,1.646,1.646h72.4a1.645,1.645,0,0,0,1.646-1.646v-42.781A1.645,1.645,0,0,0,10896.035,2174.422Zm-31.263,0h23.035v36.2h-23.035Zm-6.581,3.291h3.29v34.553a1.645,1.645,0,1,1-3.29,0Zm-26.327-3.291h23.036v36.2h-23.036Zm62.525,42.781h-69.107v-39.49h3.291v34.553a1.646,1.646,0,0,0,1.646,1.646h24.978a4.916,4.916,0,0,0,9.279,0h24.978a1.646,1.646,0,0,0,1.646-1.646v-34.553h3.291Z" transform="translate(-10243.658)" fill="#fff"/><rect width="3.291" height="3.291" transform="translate(591.496 2181.004)" fill="#fff"/><rect width="9.872" height="3.291" transform="translate(598.078 2181.004)" fill="#fff"/><rect width="16.454" height="3.291" transform="translate(591.496 2187.585)" fill="#fff"/><rect width="16.454" height="3.291" transform="translate(591.496 2194.167)" fill="#fff"/><rect width="16.454" height="3.291" transform="translate(591.496 2200.749)" fill="#fff"/><rect width="16.454" height="3.291" transform="translate(624.405 2187.585)" fill="#fff"/><rect width="16.454" height="3.291" transform="translate(624.405 2181.004)" fill="#fff"/><rect width="16.454" height="3.291" transform="translate(624.405 2194.167)" fill="#fff"/><rect width="16.454" height="3.291" transform="translate(624.405 2200.749)" fill="#fff"/></g></svg>