<svg xmlns="http://www.w3.org/2000/svg" width="181.71" height="181.71" viewBox="0 0 181.71 181.71"><g transform="translate(-7260.259 -3078.266)"><circle cx="90.855" cy="90.855" r="90.855" transform="translate(7260.259 3078.266)" fill="#1f7129"/><path d="M7351.009,3140.3c3.391,0,33.9-.242,33.9-9.686v-9.686c0-9.445-30.511-9.687-33.9-9.687s-33.9.242-33.9,9.687v9.686C7317.107,3140.063,7347.619,3140.3,7351.009,3140.3Zm-29.058-9.928V3126.5a25.046,25.046,0,0,0,2.421.969v4.6C7323.161,3131.345,7322.193,3130.861,7321.951,3130.377Zm24.215.242v4.843a64.483,64.483,0,0,1-7.264-.484v-4.844C7341.565,3130.377,7343.987,3130.377,7346.166,3130.619Zm-12.108,3.632a28.565,28.565,0,0,1-4.843-.968v-4.6c1.453.242,3.148.484,4.843.726Zm16.951,1.211v-4.843c2.664,0,20.341-.242,29.059-4.117v4.117C7378.857,3132.314,7368.2,3135.462,7351.009,3135.462Zm3.148-19.373h9.687a3.063,3.063,0,0,1,1.453.243c.484,0,.726,0,.968.242a2.184,2.184,0,0,1,1.211.242,1.457,1.457,0,0,1,.969.242,2.181,2.181,0,0,1,1.21.242,1.457,1.457,0,0,1,.969.242c.242,0,.726.243.969.243s.484.242.968.242c.242,0,.727.242.969.242s.484.242.726.242.485.242.727.242.484.242.726.242.485.242.727.242a335.489,335.489,0,0,0,.968.485c.243,0,.243.242.485.242s.242.242.484.242.242.242.484.242.242.242.485.242l.242.243.242.242.242.242h0c-1.695,1.937-12.108,4.843-28.816,4.843s-27.122-2.906-28.817-4.843h0a.237.237,0,0,0,.242-.242l.242-.242a.237.237,0,0,0,.242-.243.848.848,0,0,1,.485-.242c.242,0,.242-.242.484-.242s.242-.242.484-.242.242-.242.485-.242.484-.242.726-.242a.845.845,0,0,0,.484-.243c.243,0,.485-.242.727-.242s.484-.242.726-.242c-.242-.242.243-.242.485-.242s.484-.242.726-.242.484-.242.969-.242c.242,0,.484-.242.968-.242.243,0,.727-.243.969-.243a1.46,1.46,0,0,0,.969-.242,2.632,2.632,0,0,0,1.21-.242,1.455,1.455,0,0,0,.969-.242,2.184,2.184,0,0,0,1.211-.242,1.456,1.456,0,0,0,.968-.242,3.063,3.063,0,0,0,1.453-.243h15.5Z" fill="#fff"/><path d="M7332.848,3173.723c8.959,0,19.13-1.938,21.067-2.18,3.39-.726,33.176-6.78,31.481-15.982l-1.938-9.444c-1.937-9.2-31.722-3.633-35.112-2.906a119.145,119.145,0,0,0-14.772,3.874c-2.664.969-5.085,1.7-7.265,2.664q-10.533,4.722-9.444,9.444l1.938,9.444C7319.529,3172.512,7325.825,3173.723,7332.848,3173.723Zm-10.171-10.171c.727.242,1.7.242,2.664.484l.968,4.359a4.677,4.677,0,0,1-2.663-.968Zm-.726-5.812.242-.242.242-.242.242-.242.242-.242c.242,0,.242-.242.485-.242s.242-.243.484-.243.242-.242.484-.242.242-.242.484-.242.485-.242.727-.242.484-.242.726-.242.485-.242.727-.242.484-.243.726-.243.485-.242.727-.242.484-.242.726-.242c.242-.242.727-.242.969-.484s.484-.242.969-.485c.242-.242.726-.242.968-.484s.727-.242.969-.484.726-.242.968-.484c.485-.243.727-.243,1.211-.485.485,0,.727-.242,1.211-.242.484-.242.726-.242,1.211-.484.484,0,.726-.242,1.211-.242.484-.243.968-.243,1.452-.485.485,0,.727-.242,1.211-.242.485-.242.969-.242,1.453-.484.242,0,.727-.242.969-.242.484-.243,1.211-.243,1.7-.485h.242a10.3,10.3,0,0,1,2.664-.484,14.179,14.179,0,0,1,3.148-.484h.726a6.708,6.708,0,0,1,2.18-.242,1.823,1.823,0,0,0,.968-.243c.727,0,1.211-.242,1.938-.242h.968c.485,0,1.211-.242,1.695-.242h.969a4.726,4.726,0,0,0,1.695-.242h13.8c.242,0,.242,0,.484.242h.242a170.312,170.312,0,0,1,.485.484h.242c-1.453,2.18-10.9,7.023-27.364,10.413-16.466,3.148-27.121,2.422-29.3.727l.485-.485Zm25.184,5.086.968,4.843c-2.663.484-5.085.726-7.264.968l-.969-4.843C7342.534,3163.552,7345.2,3163.068,7347.135,3162.826Zm-15.982,6.053-.969-4.6h.726a22.069,22.069,0,0,0,4.117-.243l.969,4.6A34.144,34.144,0,0,1,7331.153,3168.879Zm21.794-2.179h0l-.969-4.843c2.664-.484,19.857-4.117,27.606-9.686l.726,3.874C7379.584,3158.225,7369.9,3163.31,7352.947,3166.7Z" fill="#fff"/><path d="M7358.274,3190.674a110.774,110.774,0,0,0-20.825-9.687c-7.265-2.179-11.624-1.937-13.319.969l-4.843,8.475c-4.843,8.234,21.552,23.732,24.458,25.427a110.7,110.7,0,0,0,20.825,9.686,28.036,28.036,0,0,0,7.991,1.453c2.664,0,4.359-.727,5.328-2.422l4.843-8.475C7387.575,3207.867,7361.422,3192.369,7358.274,3190.674Zm.242,5.811a1.259,1.259,0,0,0,.969.485c.484.242,1.211.726,1.7.968.242.242.726.485.969.727a5.059,5.059,0,0,1,1.452.968c.243.242.727.485.969.727.484.242.727.484,1.211.726a3.34,3.34,0,0,0,.969.727c.484.242.726.484,1.21.726l.727.727c.242.242.726.484.968.726s.485.484.727.484c.242.243.726.485.968.727s.485.484.727.484l.726.727c.243.242.485.242.485.484l.726.726.485.485.726.726.484.485c.242.242.485.484.485.726.242.242.242.242.242.484.242.242.242.485.484.485a.237.237,0,0,0,.242.242l.485.484.242.242c0,.242.242.242.242.485a.237.237,0,0,0,.242.242.237.237,0,0,0,.242.242v.484c-2.421.727-12.834-1.937-27.364-10.413s-22.036-16.224-22.52-18.646h1.937c4.117.485,13.561,3.391,25.669,10.413h0A7.526,7.526,0,0,0,7358.516,3196.485Zm-27.848-1.7c1.211.969,2.422,2.18,3.875,3.148l-2.422,4.117c-1.453-1.211-2.664-2.18-3.632-3.148Zm7.749,6.054c1.937,1.453,3.875,2.664,6.054,4.117l-2.421,4.116c-2.18-1.453-4.117-2.663-6.054-4.116Zm-12.834-11.623a12.165,12.165,0,0,0,1.695,1.937l-2.179,3.874a9.95,9.95,0,0,1-1.453-2.421Zm20.583,22.52c0-.242-.242-.242,0,0h0l2.422-4.117c7.507,4.359,14.771,7.749,20.825,9.445a44.813,44.813,0,0,0,6.3,1.452l-1.937,3.391C7371.835,3222.88,7361.18,3220.217,7346.166,3211.741Z" fill="#fff"/></g></svg>