<svg xmlns="http://www.w3.org/2000/svg" width="181.71" height="181.71" viewBox="0 0 181.71 181.71"><g transform="translate(-1208.29 -3585.98)"><circle cx="90.855" cy="90.855" r="90.855" transform="translate(1208.29 3585.98)" fill="#7771b1"/><path d="M4400.831,3644.481a1.322,1.322,0,0,0-1.322,1.322v1.81h-10.63v-6.5a1.322,1.322,0,1,0-2.644,0v2.327h-47.979a5.875,5.875,0,0,0-5.868,5.869v.263h-2.767a4.878,4.878,0,0,0-4.64,3.794h-9.848a1.322,1.322,0,0,0,0,2.644h9.848a4.877,4.877,0,0,0,4.64,3.795h2.767v.683a5.875,5.875,0,0,0,5.868,5.869h47.979v2.1a1.322,1.322,0,1,0,2.644,0v-6.339h10.63v1.988a1.322,1.322,0,1,0,2.644,0v-18.3A1.321,1.321,0,0,0,4400.831,3644.481Zm-71.21,12.678a2.492,2.492,0,0,1,0-4.945h2.767v4.945Zm5.41,3.327v-11.179a3.23,3.23,0,0,1,3.225-3.225H4351.4v17.63h-6.1V3657.4a1.322,1.322,0,1,0-2.643,0v6.314h-4.4A3.23,3.23,0,0,1,4335.031,3660.486Zm45.246,3.226V3657.4a1.322,1.322,0,1,0-2.644,0v6.314h-6.1V3657.4a1.322,1.322,0,1,0-2.644,0v6.314h-6.1V3657.4a1.322,1.322,0,1,0-2.644,0v6.314h-6.1v-17.63h32.194v17.63Zm8.6-4.236v-9.219h10.63v9.219Z" transform="translate(-3057.837)" fill="#fff"/><path d="M4330.662,3685.269a5.908,5.908,0,1,0-5.908,5.909A5.914,5.914,0,0,0,4330.662,3685.269Zm-9.173,0a3.265,3.265,0,1,1,3.265,3.265A3.269,3.269,0,0,1,4321.489,3685.269Z" transform="translate(-3057.837)" fill="#fff"/><path d="M4324.754,3700.619a5.909,5.909,0,1,0,5.908,5.908A5.914,5.914,0,0,0,4324.754,3700.619Zm0,9.173a3.265,3.265,0,1,1,3.265-3.265A3.269,3.269,0,0,1,4324.754,3709.792Z" transform="translate(-3057.837)" fill="#fff"/><path d="M4402.13,3695.944a1.169,1.169,0,0,0,0-.16,1.3,1.3,0,0,0-.582-1c-.629-.4-15.811-9.766-63.855-9.934a24.688,24.688,0,1,0,0,22.216c48.043-.167,63.229-9.53,63.858-9.933a1.3,1.3,0,0,0,.581-.99A1.2,1.2,0,0,0,4402.13,3695.944Zm-85.676-10.667a9.3,9.3,0,0,1,18.6,0v.9a1.321,1.321,0,0,0,1.322,1.321c7.6,0,14.372.236,20.409.633v6.451h-31.03A9.312,9.312,0,0,1,4316.454,3685.277Zm19.921,19.15a1.321,1.321,0,0,0-1.322,1.322v.786a9.3,9.3,0,1,1-9.3-9.3c.027,0,.05-.014.077-.016h32.151c.022,0,.04-.011.062-.012s.04.012.062.012a1.321,1.321,0,0,0,1.322-1.322v-7.583c18.457,1.405,29.52,4.317,35.349,6.385H4368.6a1.325,1.325,0,0,0-1.211.79c-.726,1.655-3.082,7.034-3.325,7.718C4356.351,3703.948,4347.194,3704.427,4336.375,3704.427Zm58.044-7.083c-5.036,1.753-13.735,4.059-27.366,5.557.595-1.391,1.6-3.71,2.414-5.557Z" transform="translate(-3057.837)" fill="#fff"/><path d="M4401.651,3626.259h-87.338a9.216,9.216,0,0,0-9.205,9.206V3722.8a9.215,9.215,0,0,0,9.205,9.205h87.338a9.215,9.215,0,0,0,9.205-9.205v-87.338A9.216,9.216,0,0,0,4401.651,3626.259Zm6.562,96.544a6.569,6.569,0,0,1-6.562,6.561h-87.338a6.569,6.569,0,0,1-6.562-6.561v-87.338a6.569,6.569,0,0,1,6.562-6.562h87.338a6.569,6.569,0,0,1,6.562,6.562Z" transform="translate(-3057.837 0.228)" fill="#fff"/></g></svg>