<svg xmlns="http://www.w3.org/2000/svg" width="181.71" height="181.71" viewBox="0 0 181.71 181.71"><g transform="translate(-6581.948 -2645.272)"><circle cx="90.855" cy="90.855" r="90.855" transform="translate(6581.948 2645.272)" fill="#1f7129"/><path d="M6720.061,2711.167v-12.556a11.3,11.3,0,1,0-22.6,0v11.3h-.9a6.437,6.437,0,0,0-5.558-3.228h-1.656a7.984,7.984,0,0,0,1.656-4.841v-6.456a8.058,8.058,0,0,0-15.56-2.957,4.8,4.8,0,0,0-7.9.391,8.054,8.054,0,0,0-13.664,5.794v6.455a8.023,8.023,0,0,0,.547,2.857,6.4,6.4,0,0,0-3.775-1.243h-1.634a8.069,8.069,0,0,0,1.634-4.841v-8.07a6.455,6.455,0,0,0-6.455-6.456h-3.228a6.455,6.455,0,0,0-6.456,6.456v7.792a8.476,8.476,0,0,0,1.751,5.119h-3.365a8.082,8.082,0,0,0-8.07,8.07v3.228c0,.032.016.058.018.09s-.011.058-.008.088l2.983,26.846a4.05,4.05,0,0,0,5.487,3.37l1.143,26.275a8.079,8.079,0,0,0-6.4,7.889,1.615,1.615,0,0,0,1.614,1.614h53.26a1.443,1.443,0,0,1,1.614,0h32.279a1.614,1.614,0,0,0,1.614-1.614,8,8,0,0,0-6.27-7.847l.836-6.679h7.048a1.614,1.614,0,0,0,1.614-1.614,1.593,1.593,0,0,0-.024-.277l-3.178-18.248a4.034,4.034,0,0,0,1.714-3.1l1.359-24.554a1.609,1.609,0,0,0,.129-.623v-4.842A4.817,4.817,0,0,0,6720.061,2711.167Zm-82.311-12.7a9.832,9.832,0,0,0,1.614.146,9.687,9.687,0,0,0,8.07-4.416v7.644a4.842,4.842,0,0,1-4.841,4.843c-.162,0-.324-.008-.485-.024a5.032,5.032,0,0,1-4.358-5.1Zm3.228-7.924h3.228a3.192,3.192,0,0,1,1.305.282,6.456,6.456,0,0,1-6.147,4.56,6.563,6.563,0,0,1-1.614-.226v-1.388A3.228,3.228,0,0,1,6640.978,2690.541Zm75.113,54.874a.871.871,0,0,1-.872-.871h0v-23.338h3.046l-1.3,23.4A.862.862,0,0,1,6716.091,2745.415Zm-7.328-54.874a8.079,8.079,0,0,1,8.07,8.07v11.3h-4.884a7.979,7.979,0,0,0,1.656-4.842v-3.227a1.613,1.613,0,0,0-.718-1.343l-4.842-3.228a1.614,1.614,0,0,0-1.494-.162l-5.857,2.349v-.844A8.079,8.079,0,0,1,6708.763,2690.541Zm-8.069,14.525v-2.135l6.267-2.506,3.416,2.277v2.364a4.842,4.842,0,1,1-9.683,0Zm16.139,8.07a1.614,1.614,0,0,1,1.614,1.614v3.228H6713.6a1.614,1.614,0,0,0-1.614,1.614v8.07h-11.3v-8.448a4.841,4.841,0,0,0-4.242-4.8l-3.592-.449a1.6,1.6,0,0,1,1.378-.825Zm-45.19,62.988a8,8,0,0,0-3.044-1.438l.837-6.676h3.821v7.148A8.171,8.171,0,0,0,6671.643,2776.124Zm-35.436-35.551h4.771v33.893h-3.3Zm8,0h2.852l.248,4.2a4.042,4.042,0,0,0,1.716,3.1l-3.178,18.248a1.613,1.613,0,0,0,1.312,1.867,1.639,1.639,0,0,0,.278.024h.348l-.281,6.456h-3.295Zm9.683-27.437h19.368a1.615,1.615,0,0,1,1.614,1.614v3.228h-4.842a1.614,1.614,0,0,0-1.614,1.614v8.07H6655.5v-8.07a1.614,1.614,0,0,0-1.614-1.614h-4.841v-3.228a1.614,1.614,0,0,1,1.613-1.614Zm20.982-12.911v1.614a7.978,7.978,0,0,0,1.656,4.841h-1.656a6.439,6.439,0,0,0-5.559,3.228h-.939a7.985,7.985,0,0,0,1.656-4.842v-5.138a4.692,4.692,0,0,0,4.842-.969Zm-8.07,4.841a4.842,4.842,0,1,1-9.684,0v-4.841h9.684Zm-17.448,59.716,2.824-16.217a4.1,4.1,0,0,0,3.326-4.021V2730.89h12.912v13.637a4.12,4.12,0,0,0,3.325,4.035l2.826,16.22Zm24.065-20.209a.9.9,0,0,1-.888.842.876.876,0,0,1-.887-.865v-23.344h3.132Zm-21.143-23.367v23.338a.873.873,0,0,1-1.746.05h0l-1.383-23.388Zm.825,54.372a8.177,8.177,0,0,0-2.376-.912l.288-6.656h3.47l.834,6.676A8,8,0,0,0,6653.1,2775.578Zm4.635-7.568h2.61v6.456h-1.8Zm5.838,0h2.61l-.807,6.456h-1.8Zm12.912,0a1.613,1.613,0,0,0,1.613-1.614,1.642,1.642,0,0,0-.024-.277l-3.174-18.238a4.134,4.134,0,0,0,1.743-3.107l.243-4.2h2.988l1.178,11.782a4.964,4.964,0,0,0,.282,1.169v20.942h-4.849Zm22.6-12.911v6.455h-3.228v-4.841h-3.228v4.841H6689.4v-8.069h9.684Zm-14.526,19.367v-17.952a4.824,4.824,0,0,0,1.308.2h.306v17.753Zm1.614-22.595v1.614h-.306a1.614,1.614,0,0,1-1.614-1.453l-1.146-11.459h3.066Zm3.228,12.911h3.228v9.684H6689.4Zm6.456,0h3.228v9.684h-3.228Zm6.456,9.684v-6.456h1.614v6.456Zm0-22.595v-11.3h3.066l-1.146,11.459a1.615,1.615,0,0,1-1.614,1.453h-.306Zm-1.614-14.526a1.614,1.614,0,0,0-1.614,1.614v11.3H6689.4v-11.3a1.614,1.614,0,0,0-1.614-1.614h-4.842a3.229,3.229,0,0,1,3.228-3.228h16.14a3.229,3.229,0,0,1,3.228,3.228Zm-9.684-9.683v-3.228h6.456v3.228a3.228,3.228,0,0,1-6.456,0Zm5.042-10.05a1.614,1.614,0,0,1,1.414,1.6v1.992h-6.456a3.228,3.228,0,0,1-3.228-3.228v-1.4Zm-3.606-7.35a4.841,4.841,0,0,0-2.88,3.286l-3.2-.4a1.646,1.646,0,0,0-1.268.391,1.613,1.613,0,0,0-.546,1.21v3.228a6.435,6.435,0,0,0,3.228,5.558v4.126a6.391,6.391,0,0,0,.9,3.228h-2.512a6.456,6.456,0,0,0-6.456,6.455h-2.64l1.027-17.659h-.015c0-.033.018-.06.018-.092v-4.844a4.842,4.842,0,0,0-3.954-4.751,3.185,3.185,0,0,1,.723-.091h16.139A3.161,3.161,0,0,1,6692.446,2710.262Zm-14.347-8.423v-.7l5.792-3.475.825,1.669a1.615,1.615,0,0,0,1.452.893h1.614v1.614a4.842,4.842,0,0,1-9.683,0Zm0-6.456a4.842,4.842,0,1,1,9.683,0V2697h-.616l-1.159-2.336a1.62,1.62,0,0,0-.994-.828,1.6,1.6,0,0,0-1.282.162l-5.632,3.378Zm-6.456-1.614a1.614,1.614,0,1,1-1.614,1.614A1.614,1.614,0,0,1,6671.643,2693.769Zm-9.684,0a4.852,4.852,0,0,1,4.566,3.228h-9.132A4.852,4.852,0,0,1,6661.959,2693.769Zm-29.429,51.375a.867.867,0,0,1-1.491-.5l-2.784-25.052h3.126l1.385,24.91A.86.86,0,0,1,6632.53,2745.144Zm-4.464-28.78v-1.614a4.842,4.842,0,0,1,4.842-4.842h17.753a4.841,4.841,0,0,0-4.841,4.842v4.842a.916.916,0,0,0,.019.094h-.019l1.047,17.659H6635.6l-1.078-19.457a1.614,1.614,0,0,0-1.614-1.524Zm8.07,61.33h4.842v3.228h-9.408A4.852,4.852,0,0,1,6636.136,2777.694Zm8.07,0h4.842a4.761,4.761,0,0,1,1.46.236,8.038,8.038,0,0,0-1.3,2.992h-5Zm8.345,3.228a4.852,4.852,0,0,1,4.566-3.228h3.228v3.228Zm17.478,0h-6.456v-3.228h3.228a4.852,4.852,0,0,1,4.566,3.228Zm11.3,0h-6.617a8,8,0,0,0-.941-2.387,4.84,4.84,0,0,1,2.717-.841h4.841Zm4.842-.278a1.612,1.612,0,0,1,.473-1.141l1.809-1.809h4.174v3.228h-6.456Zm9.684.278v-3.228h4.174l1.809,1.809a1.617,1.617,0,0,1,.473,1.141v.278Zm19.09,0h-9.406v-.278a4.792,4.792,0,0,0-1.03-2.95h5.871a4.857,4.857,0,0,1,3.419,1.407A4.942,4.942,0,0,1,6714.942,2780.922Zm-5.99-6.456h-1.8v-6.456h2.609Zm-6.644-9.684v-8.069h.306a4.825,4.825,0,0,0,4.818-4.358l1.331-13.234a.226.226,0,0,1,0-.079.237.237,0,0,0,0-.083v-1.614a6.455,6.455,0,0,0-6.455-6.455h9.683v13.654a4.105,4.105,0,0,0,3.327,4.021l2.824,16.217Z" fill="#fff"/></g></svg>