<svg xmlns="http://www.w3.org/2000/svg" width="181.71" height="181.71" viewBox="0 0 181.71 181.71"><g transform="translate(-530 -3348.559)"><circle cx="90.855" cy="90.855" r="90.855" transform="translate(530 3348.559)" fill="#d53216"/><path d="M7575.879,3455.675A36.351,36.351,0,1,1,7593.7,3424.4q0,.551-.016,1.1l3.785,1.262a5.866,5.866,0,0,1,4.565-2.308l6.279-18.835a5.879,5.879,0,1,1,3.718,1.24l-6.278,18.836a5.88,5.88,0,1,1-9.491,4.8l-2.92-.974a36.07,36.07,0,0,1-4.456,12.964l27.555,27.554a8.735,8.735,0,0,1,0,12.353l-.751.751a8.735,8.735,0,0,1-12.353,0Zm10.825-9.838a36.583,36.583,0,0,1-7.508,7.613l26.916,26.915a4.815,4.815,0,0,0,6.809,0l.751-.751a4.815,4.815,0,0,0,0-6.809Zm3.079-21.641a32.415,32.415,0,1,0-.227,4.056l-16.276-5.425a5.884,5.884,0,0,1-5.857,2.161l-7.479,13.118a5.879,5.879,0,1,1-9.75,1.33l-11.778-11.778a5.874,5.874,0,1,1,2.777-2.767l11.768,11.768a5.845,5.845,0,0,1,2.544-.578,5.943,5.943,0,0,1,1.03.09l7.538-13.222a5.879,5.879,0,1,1,10.433-3.845ZM7555.5,3440a1.953,1.953,0,1,0,.2.01Zm46.637-11.631a1.96,1.96,0,1,0,0,3.92l.2-.01a1.959,1.959,0,0,0,.989-3.505,1.938,1.938,0,0,0-.989-.4Zm-66.252-7.983a1.96,1.96,0,0,0,0,3.92l.2-.01a1.96,1.96,0,0,0,0-3.9Zm32.738-3.115a1.96,1.96,0,0,0-.934,3.683l.171.083a1.958,1.958,0,0,0,.763.154l.2-.01a1.959,1.959,0,0,0,1.76-1.95,1.962,1.962,0,0,0-1.76-1.95Zm43.3-18.255a1.96,1.96,0,1,0,0,3.92l.2-.01a1.96,1.96,0,0,0,0-3.9Z" transform="translate(-6949.147)" fill="#fff" fill-rule="evenodd"/></g></svg>