<svg xmlns="http://www.w3.org/2000/svg" width="181.71" height="181.71" viewBox="0 0 181.71 181.71"><g transform="translate(-1208.289 -3717.19)"><circle cx="90.855" cy="90.855" r="90.855" transform="translate(1208.289 3717.19)" fill="#d53216"/><path d="M8272.232,3810.192h0c-.348-.115-.578-.347-.578-.578a1.82,1.82,0,0,1,0-.81,5.6,5.6,0,0,0-7.519-7.4.951.951,0,0,1-.809,0,.913.913,0,0,1-.578-.578h0a5.487,5.487,0,0,0-5.32-3.7h0a5.588,5.588,0,0,0-5.319,3.816h0a.95.95,0,0,1-.579.578,1.82,1.82,0,0,1-.81,0,5.6,5.6,0,0,0-7.4,7.518.672.672,0,0,1,0,.809c-.116.116-.231.463-.578.579h0a5.486,5.486,0,0,0-3.7,5.32,5.591,5.591,0,0,0,3.816,5.32h0a.948.948,0,0,1,.578.578,1.829,1.829,0,0,1,0,.809,5.447,5.447,0,0,0,1.156,6.361,5.51,5.51,0,0,0,2.545,1.388v15.5a2.323,2.323,0,0,0,3.816,1.735l6.592-5.667,6.592,5.667a2.437,2.437,0,0,0,1.5.578,2.175,2.175,0,0,0,.926-.231,2.284,2.284,0,0,0,1.388-2.082v-15.613a5.484,5.484,0,0,0,2.775-1.5,5.555,5.555,0,0,0,1.156-6.245v-.116a.671.671,0,0,1,0-.809c.116-.116.231-.463.578-.579a5.487,5.487,0,0,0,3.7-5.32A5.859,5.859,0,0,0,8272.232,3810.192Zm-8.905,30.417-4.279-3.7a3.288,3.288,0,0,0-1.5-.463,2.439,2.439,0,0,0-1.5.578l-4.279,3.586v-10.872h0c.115.116.462.232.578.579a5.488,5.488,0,0,0,5.32,3.7h0a5.593,5.593,0,0,0,5.32-3.817h0a1.59,1.59,0,0,1,.347-.463Zm7.4-24.171a5.76,5.76,0,0,0-3.122,7.748v.116a1.064,1.064,0,0,1-1.389,1.388,5.839,5.839,0,0,0-4.626-.116,5.6,5.6,0,0,0-3.123,3.354h0a.963.963,0,0,1-1.85,0,5.587,5.587,0,0,0-3.238-3.238,6.533,6.533,0,0,0-2.082-.347,5.26,5.26,0,0,0-2.312.578h-.116a1.062,1.062,0,0,1-1.387-1.388,5.845,5.845,0,0,0,.114-4.626,5.6,5.6,0,0,0-3.354-3.123h0a1.01,1.01,0,0,1-.694-.925,1.06,1.06,0,0,1,.579-.925h0a5.59,5.59,0,0,0,3.238-3.238,5.849,5.849,0,0,0-.116-4.626,1.064,1.064,0,0,1,1.388-1.388,5.839,5.839,0,0,0,4.626.116,5.6,5.6,0,0,0,3.123-3.354h0a1.01,1.01,0,0,1,.926-.694,1.06,1.06,0,0,1,.925.578h0a5.587,5.587,0,0,0,3.237,3.238,5.846,5.846,0,0,0,4.626-.115,1.063,1.063,0,0,1,1.389,1.387,5.833,5.833,0,0,0-.115,4.626,5.594,5.594,0,0,0,3.354,3.123h0a.964.964,0,0,1,0,1.851Zm-50.192-40.132a2.32,2.32,0,0,1,2.313-2.313h18.5a2.313,2.313,0,1,1,0,4.626h-18.5A2.319,2.319,0,0,1,8220.536,3776.306Zm55.512,11.566a2.319,2.319,0,0,1-2.312,2.313h-50.887a2.313,2.313,0,0,1,0-4.626h50.887A2.319,2.319,0,0,1,8276.048,3787.872Zm-55.512,11.565a2.32,2.32,0,0,1,2.313-2.313h13.878a2.313,2.313,0,1,1,0,4.626h-13.878A2.32,2.32,0,0,1,8220.536,3799.437Zm0,11.565a2.32,2.32,0,0,1,2.313-2.313h4.626a2.313,2.313,0,1,1,0,4.626h-4.626A2.32,2.32,0,0,1,8220.536,3811Zm17.81,16.885a2.235,2.235,0,0,1,0,3.238l-9.252,9.252a2.234,2.234,0,0,1-3.237,0l-4.626-4.626a2.289,2.289,0,0,1,3.237-3.238l3.007,3.007,7.634-7.633A2.235,2.235,0,0,1,8238.346,3827.887Zm58.521-8.79h-9.252v-52.043a8.046,8.046,0,0,0-8.1-8.095H8205.5a8.046,8.046,0,0,0-8.1,8.095v33.539a2.32,2.32,0,0,0,2.313,2.313h9.253v52.044a8.045,8.045,0,0,0,8.1,8.095h74.017a8.045,8.045,0,0,0,8.1-8.095v-33.539A2.32,2.32,0,0,0,8296.866,3819.1Zm-87.9-20.817h-6.939v-31.226a3.47,3.47,0,0,1,6.939,0Zm8.1,60.139a3.479,3.479,0,0,1-3.47-3.469v-87.9a6.985,6.985,0,0,0-.81-3.469h66.73a3.408,3.408,0,0,1,3.471,3.469v87.9a6.984,6.984,0,0,0,.809,3.469Zm77.486-3.469a3.469,3.469,0,0,1-6.938,0v-31.226h6.938Z" transform="translate(-6949.147)" fill="#fff"/></g></svg>