<svg xmlns="http://www.w3.org/2000/svg" width="181.71" height="181.71" viewBox="0 0 181.71 181.71"><g transform="translate(-7260.259 -4085.601)"><circle cx="90.855" cy="90.855" r="90.855" transform="translate(7260.259 4085.601)" fill="#1f7129"/><path d="M7398.434,4182.974h-10.151v-20.3a1.717,1.717,0,0,0-.186-.761l-1.692-3.384a1.7,1.7,0,0,0-.846-.795l-11.217-4.855-.913-2.826a13.871,13.871,0,0,0,4.7-11.064v-13.535a1.694,1.694,0,0,0-.491-1.2,18.569,18.569,0,0,0-22.7,0,1.694,1.694,0,0,0-.491,1.2v13.535a13.872,13.872,0,0,0,4.687,11.064l-.914,2.826L7347,4157.732a1.7,1.7,0,0,0-.846.795l-1.691,3.384a1.7,1.7,0,0,0-.17.761v20.3h-10.151V4177.9a1.691,1.691,0,0,0-1.691-1.692h-1.692v-5.076a1.692,1.692,0,0,0-1.692-1.691h-3.384v-16.225l2.386-2.385h1.3a5.076,5.076,0,0,0,4.771,3.383h3.384a5.075,5.075,0,1,0,0-10.151h-3.384a5.077,5.077,0,0,0-4.771,3.384h-2a1.689,1.689,0,0,0-1.2.491l-3.384,3.383a1.694,1.694,0,0,0-.49,1.2v16.919h-3.384a1.691,1.691,0,0,0-1.692,1.691v5.076h-1.692a1.691,1.691,0,0,0-1.691,1.692v5.075h-16.919v3.384H7302v8.459a1.692,1.692,0,0,0,1.692,1.692h3.383v32.144h3.384v-16.918h15.226v-3.383h-15.226v-5.076h81.207v5.076H7376.44v3.383h15.226v16.918h3.384v-32.144h3.384a1.691,1.691,0,0,0,1.691-1.692v-8.459h5.076v-3.384Zm-64.29-35.528h3.384a1.692,1.692,0,1,1,0,3.384h-3.384a1.692,1.692,0,0,1,0-3.384Zm23.686-21.2a15.628,15.628,0,0,1,16.918,0v7.428c-.846-.22-1.692-.643-1.692-1.455a1.692,1.692,0,0,0-1.692-1.692h-10.15a1.691,1.691,0,0,0-1.692,1.692c0,.795-.846,1.218-1.692,1.455Zm0,12.74v-1.844a6.005,6.005,0,0,0,4.771-3.232h7.376a6.005,6.005,0,0,0,4.771,3.232v1.844c0,4.686-2.216,10.151-8.459,10.151S7357.83,4143.673,7357.83,4138.987Zm13.264,14.8-4.805,4.805-4.805-4.805.643-2.013a11.84,11.84,0,0,0,8.29,0Zm-23.415,9.288,1.235-2.47,10.151-4.415,5.532,5.481v6.074h3.384v-6.074l5.5-5.5,10.151,4.415,1.269,2.487v19.9h-5.075v-8.459h-3.384v8.459h-20.3v-8.459h-3.384v8.459h-5.075Zm-27.069,9.745h6.767v3.384h-6.767Zm-3.384,6.768h13.535v3.383h-13.535Zm79.516,13.534h-3.384a1.692,1.692,0,0,0-1.692,1.692v5.075h-81.207v-3.383h71.056v-3.384h-76.132v-6.767h91.359Z" fill="#fff"/><rect width="3.384" height="3.384" transform="translate(7384.899 4193.125)" fill="#fff"/><path d="M7369.673,4208.352h-37.22a1.691,1.691,0,0,0-1.692,1.691v13.535a1.692,1.692,0,0,0,1.692,1.692h37.22a1.691,1.691,0,0,0,1.691-1.692v-13.535A1.691,1.691,0,0,0,7369.673,4208.352Zm-1.692,13.534h-33.837v-10.151h33.837Z" fill="#fff"/><rect width="3.384" height="3.384" transform="translate(7364.597 4171.131)" fill="#fff"/></g></svg>