<svg xmlns="http://www.w3.org/2000/svg" width="181.71" height="181.71" viewBox="0 0 181.71 181.71"><g transform="translate(-530.014 -3142.836)"><circle cx="90.855" cy="90.855" r="90.855" transform="translate(530.014 3142.836)" fill="#7771b1"/><path d="M3655.927,3244.341h3.55a1.775,1.775,0,0,0,0-3.55h-3.55a1.775,1.775,0,0,0,0,3.55Z" transform="translate(-3057.837)" fill="#fff"/><path d="M3666.577,3244.341h3.55a1.775,1.775,0,1,0,0-3.55h-3.55a1.775,1.775,0,0,0,0,3.55Z" transform="translate(-3057.837)" fill="#fff"/><path d="M3677.226,3244.341h3.55a1.775,1.775,0,1,0,0-3.55h-3.55a1.775,1.775,0,1,0,0,3.55Z" transform="translate(-3057.837)" fill="#fff"/><path d="M3655.927,3191.094h3.55a1.775,1.775,0,0,0,0-3.55h-3.55a1.775,1.775,0,0,0,0,3.55Z" transform="translate(-3057.837)" fill="#fff"/><path d="M3666.577,3191.094h3.55a1.775,1.775,0,1,0,0-3.55h-3.55a1.775,1.775,0,0,0,0,3.55Z" transform="translate(-3057.837)" fill="#fff"/><path d="M3677.226,3191.094h3.55a1.775,1.775,0,1,0,0-3.55h-3.55a1.775,1.775,0,1,0,0,3.55Z" transform="translate(-3057.837)" fill="#fff"/><path d="M3625.754,3263.865h48.632l-11.181,18.636a1.612,1.612,0,0,0,0,1.775,1.862,1.862,0,0,0,1.6.888h71a1.579,1.579,0,0,0,1.42-.888,2.1,2.1,0,0,0,.178-1.775l-12.425-26.623a1.862,1.862,0,0,0-1.6-.888H3695.33l-9.407-20.234a1.705,1.705,0,0,0-1.6-1.065h-42.6a.65.65,0,0,0-.532.178h-.178c-.177,0-.355.177-.532.355h0c0,.177-.178.177-.178.355l-15.974,26.624a1.611,1.611,0,0,0,0,1.774A1.406,1.406,0,0,0,3625.754,3263.865Zm56.8,17.749v-8.875a1.775,1.775,0,0,0-3.55,0v8.875h-11l12.779-21.3,11.36,21.3Zm50.407,0H3696.04l-12.247-23.074h38.516Zm-41.532-26.624h-10.65a.65.65,0,0,0-.532.178h-.178c-.177,0-.355.177-.532.355h0c0,.177-.178.177-.178.355l-2.84,4.437h-19.524l-12.246-23.074h38.515Zm-49.875-15.974,11.359,21.3H3643.5v-8.874a1.775,1.775,0,0,0-3.55,0v8.874h-11Z" transform="translate(-3057.837)" fill="#fff"/><path d="M3625.754,3208.843h48.632l-11.181,18.636a1.612,1.612,0,0,0,0,1.775,1.862,1.862,0,0,0,1.6.888h71a1.579,1.579,0,0,0,1.42-.888,2.1,2.1,0,0,0,.178-1.775l-12.425-26.623a1.862,1.862,0,0,0-1.6-.888H3695.33l-9.407-20.234a1.705,1.705,0,0,0-1.6-1.065h-42.6a1.066,1.066,0,0,0-.71.178h-.177c-.178,0-.355.177-.533.355h0c0,.177-.177.177-.177.355l-15.974,26.623a1.613,1.613,0,0,0,0,1.775A1.862,1.862,0,0,0,3625.754,3208.843Zm56.8,17.749v-8.875a1.775,1.775,0,1,0-3.55,0v8.875h-11l12.779-21.3,11.36,21.3Zm50.407,0H3696.04l-12.247-23.074h38.516Zm-41.532-26.624h-10.65a.65.65,0,0,0-.532.178h-.178c-.177,0-.355.177-.532.355h0c0,.177-.178.177-.178.355l-2.84,4.437h-19.524l-12.246-23.074h38.515Zm-49.875-15.974,11.359,21.3H3643.5v-8.875a1.775,1.775,0,0,0-3.55,0v8.875h-11Z" transform="translate(-3057.837)" fill="#fff"/></g></svg>