<svg xmlns="http://www.w3.org/2000/svg" width="181.71" height="181.71" viewBox="0 0 181.71 181.71"><g transform="translate(-1208.29 -2650.669)"><circle cx="90.855" cy="90.855" r="90.855" transform="translate(1208.29 2650.669)" fill="#f09300"/><path d="M4736.283,2709.415a9.175,9.175,0,0,0-2.805,12.254l16.774,28.92a3.1,3.1,0,0,0,3.54,1.429h0a3.1,3.1,0,0,0,2.247-3.09l-1.144-33.495a9.177,9.177,0,0,0-9.272-8.864,14.262,14.262,0,0,0,.749-5.582c-.558-6.155-5.664-10.607-5.882-10.784a1.362,1.362,0,0,0-2.233,1.225s.653,4.616,1.157,10.2a13.612,13.612,0,0,0,.123,1.361l-.654-1.266c-2.519-5-4.4-9.218-4.411-9.259a1.362,1.362,0,0,0-2.547.15c-.081.272-2.055,6.808.722,12.254A14.319,14.319,0,0,0,4736.283,2709.415Zm13.234,1.143a6.426,6.426,0,0,1,2.723,5.011l.095,2.941-4.874,1.362a1.361,1.361,0,1,0,.611,2.653,1.282,1.282,0,0,0,.138-.039l4.207-1.212.953,27.749a.381.381,0,0,1-.708.2l-6.808-11.886,3.554-1.022a1.361,1.361,0,1,0-.611-2.653,1.314,1.314,0,0,0-.138.039l-3.921,1.13a1.406,1.406,0,0,0-.259.136l-2.954-4.806,2.9-.83a1.4,1.4,0,0,0-.776-2.683h0l-3.554,1.021-3.513-6.072,2.573-.735a1.362,1.362,0,1,0-.611-2.654c-.046.011-.092.024-.137.039l-3.105.885a6.454,6.454,0,0,1,3.986-8.21c.114-.04.228-.076.344-.109l4.275-1.225a6.509,6.509,0,0,1,1.8-.259,6.425,6.425,0,0,1,3.812,1.239Zm-5.868-9.326a12.361,12.361,0,0,1-1.062,5.909h0c-.123-1.974-.286-3.921-.45-5.787-.19-2.137-.408-4.084-.6-5.786A12.561,12.561,0,0,1,4743.649,2701.232Zm-7.244,1.7c.844,1.674,1.743,3.4,2.723,5.146h0a12.35,12.35,0,0,1-4.085-4.452,12.559,12.559,0,0,1-1.184-5.909C4734.567,2699.271,4735.479,2701.082,4736.4,2702.934Z" transform="translate(-3455.11)" fill="#fff"/><path d="M4720.965,2719.436a76.232,76.232,0,0,0,5.718,9.667l.926,1.362a1.362,1.362,0,0,0,2.233-1.553l-.926-1.361a73.7,73.7,0,0,1-5.1-8.5c1.143-1.73,5.732-9.245,3.744-16.475h0c-2.22-8.061-11.669-12.255-12.064-12.432a1.362,1.362,0,0,0-1.647.531c-.259.355-6.223,8.8-4,16.857C4711.679,2714.139,4718.46,2718.156,4720.965,2719.436Zm-5.528-26.265c2.355,1.253,8.019,4.752,9.531,10.144h0c1.361,4.874-1.049,10.184-2.546,12.826a73.573,73.573,0,0,1-4.412-12.5l-.395-1.566a1.362,1.362,0,0,0-2.641.667h0l.368,1.552a76.2,76.2,0,0,0,3.594,10.675c-2.519-1.811-5.446-4.6-6.467-8.251C4710.971,2701.368,4714.062,2695.445,4715.437,2693.171Z" transform="translate(-3455.11)" fill="#fff"/><path d="M4710.862,2744.475a3.881,3.881,0,0,1-6.808-.667,1.362,1.362,0,1,0-2.519,1.035,6.6,6.6,0,0,0,11.6,1.13,1.365,1.365,0,1,0-2.274-1.511Z" transform="translate(-3455.11)" fill="#fff"/><path d="M4732.593,2749.813a5.229,5.229,0,1,0,5.228-5.229A5.229,5.229,0,0,0,4732.593,2749.813Zm7.733,0a2.505,2.505,0,1,1-2.505-2.506,2.505,2.505,0,0,1,2.505,2.506Z" transform="translate(-3455.11)" fill="#fff"/><path d="M4799.759,2714.875a5.229,5.229,0,1,0-5.228-5.229h0A5.243,5.243,0,0,0,4799.759,2714.875Zm0-7.734a2.505,2.505,0,1,1-2.5,2.5h0a2.506,2.506,0,0,1,2.491-2.519h.014Z" transform="translate(-3455.11)" fill="#fff"/><path d="M4761.281,2705.82a5.229,5.229,0,1,0-5.228-5.228A5.228,5.228,0,0,0,4761.281,2705.82Zm0-7.734a2.505,2.505,0,1,1-2.5,2.506,2.505,2.505,0,0,1,2.5-2.506Z" transform="translate(-3455.11)" fill="#fff"/><path d="M4702.978,2723.875a5.229,5.229,0,1,0-5.228-5.229A5.229,5.229,0,0,0,4702.978,2723.875Zm0-7.734a2.505,2.505,0,1,1-2.5,2.5,2.506,2.506,0,0,1,2.5-2.5Z" transform="translate(-3455.11)" fill="#fff"/><path d="M4721.251,2773.953a1.366,1.366,0,0,0-2.369,1.362h0q.639,1.13,1.361,2.206a1.365,1.365,0,1,0,2.274-1.512h0Q4721.863,2775,4721.251,2773.953Z" transform="translate(-3455.11)" fill="#fff"/><path d="M4737.168,2788.713c-.885-.45-1.771-.94-2.628-1.443s-2.029-1.28-2.982-1.961a38.083,38.083,0,0,1-4.616-3.935l-.517-.5a9.466,9.466,0,0,1-.844-.912,1.363,1.363,0,1,0-2.084,1.756,12.008,12.008,0,0,0,1.035,1.117l.477.476a40.72,40.72,0,0,0,4.956,4.221c1.021.735,2.083,1.443,3.186,2.1s1.838,1.062,2.723,1.539a1.362,1.362,0,1,0,1.4-2.334,1.391,1.391,0,0,0-.179-.09Z" transform="translate(-3455.11)" fill="#fff"/><path d="M4815.077,2712.764a3.718,3.718,0,0,0-5.237.457,3.756,3.756,0,0,0-.414.6l-3.948,7.189a9.755,9.755,0,0,0-5.365-.463,10.436,10.436,0,0,0-5.2,2.982l-5.855,5.978a86.815,86.815,0,0,1-20.818,15.63l-6.386,3.445a22.2,22.2,0,0,0-9.749,10.171c-.2.449-.368.926-.545,1.362h-22.316a1.362,1.362,0,0,0,.681-1.621l-4.466-14.391a6.6,6.6,0,1,0-4.275-12.363c-.109,0-.191.136-.3.19a8.579,8.579,0,0,0-.381-.9,22.828,22.828,0,1,0-9.953,23.936h0l3.867,5.147h-6.168a1.361,1.361,0,0,0-1.362,1.361c0,24.849,19.593,42.209,47.655,42.209s47.655-17.36,47.655-42.209a1.36,1.36,0,0,0-1.361-1.361h-1.525l12.5-24.577a10.2,10.2,0,0,0-.449-9.762l4.588-8.387A3.732,3.732,0,0,0,4815.077,2712.764Zm-103.929,38.56h0a1.343,1.343,0,0,0-2.478.545,5.7,5.7,0,1,1-10.348-4v-.1a1.873,1.873,0,0,0,.177-.5,1.36,1.36,0,0,0-.286-.993h0a5.705,5.705,0,0,1,7.08-8.715,1.35,1.35,0,0,0,.722.15h.286a1.36,1.36,0,0,0,1.034-1.62,5.705,5.705,0,1,1,11.261-1.593,1.363,1.363,0,0,0,.517.967h0a1.445,1.445,0,0,0,.218.109l.177.095a1.362,1.362,0,0,0,1.511-.422,3.923,3.923,0,1,1,2.778,6.209,1.362,1.362,0,0,0-1.5,1.21h0a1.36,1.36,0,0,0,.15.736h0l4.588,14.718-2.614,1.362-4.9-9.722a1.364,1.364,0,0,0-2.438,1.226h0l4.548,9.136h-3.853Zm43.393,49.643h0c-23.078,0-39.649-11.7-43.87-29.955h87.74C4794.19,2789.271,4777.62,2800.967,4754.541,2800.967Zm44.388-32.678h-88.775a42.71,42.71,0,0,1-.545-5.446h89.864A42.886,42.886,0,0,1,4798.929,2768.289Zm-44.388-8.169a.3.3,0,0,1,.1-.259,19.461,19.461,0,0,1,8.55-8.837l6.332-3.444A89.576,89.576,0,0,0,4791,2731.418l1.961-2,2.314.218a3.419,3.419,0,0,1,2.724,2.07,6.129,6.129,0,0,0,4.384,3.635h.218a3.418,3.418,0,0,1,2.314,1.934l1.362,2.968h0l-10.021,19.879Zm59.024-44.034-4.969,9.069a1.122,1.122,0,0,0,0,.19,1.373,1.373,0,0,0-.082.272,3.164,3.164,0,0,0,0,.518,1.33,1.33,0,0,0,.109.272,1.25,1.25,0,0,0,.082.177,7.6,7.6,0,0,1,.708,7.748l-1.444,2.845-.476-1.035a6.157,6.157,0,0,0-4.289-3.431h-.218a3.4,3.4,0,0,1-2.437-2.015,6.168,6.168,0,0,0-4.916-3.717h-.245l1.43-1.47a7.713,7.713,0,0,1,3.826-2.233,7.475,7.475,0,0,1,4.834.735,1.3,1.3,0,0,0,.218,0,1.383,1.383,0,0,0,.258,0,1.388,1.388,0,0,0,.259,0,.8.8,0,0,0,.476-.164.884.884,0,0,0,.4-.34,1.4,1.4,0,0,0,.15-.177l4.521-8.169a.993.993,0,0,1,1.348-.4.947.947,0,0,1,.163.111A1.007,1.007,0,0,1,4813.565,2716.086Z" transform="translate(-3455.11)" fill="#fff"/><path d="M4790.46,2736.034c-2.084,1.838-4.289,3.58-6.55,5.214a1.362,1.362,0,1,0,1.5,2.271c.031-.02.061-.042.09-.065,2.329-1.675,4.6-3.486,6.808-5.378a1.362,1.362,0,1,0-1.708-2.121c-.031.025-.06.051-.089.078Z" transform="translate(-3455.11)" fill="#fff"/><path d="M4774.393,2747.2l-6.4,3.391a23.24,23.24,0,0,0-6.645,5.337,1.362,1.362,0,1,0,2,1.847c.019-.02.037-.042.055-.063a20.548,20.548,0,0,1,5.855-4.657l6.386-3.445a1.362,1.362,0,0,0-1.294-2.4Z" transform="translate(-3455.11)" fill="#fff"/><path d="M4772.242,2735.394a1.36,1.36,0,0,0,1.756.394c1.58-.857,15.413-8.577,17.047-15.807a10.184,10.184,0,0,0-2.274-9.45,13.877,13.877,0,0,0-4.343-3.1,12.652,12.652,0,0,0,6.576-4.275h0c3.023-4.3,1.838-10.24,1.8-10.485a1.361,1.361,0,0,0-1.5-1.089,16.217,16.217,0,0,0-2.969.64,20.614,20.614,0,0,0-3.1-7.407,1.363,1.363,0,0,0-1.77-.4c-.272.15-6.808,3.854-8.169,10.1-.981,4.344.789,8.633,2.028,10.893a15.376,15.376,0,0,0-7.679.8,10.183,10.183,0,0,0-6.1,7.611C4761.921,2721.043,4771.125,2733.95,4772.242,2735.394Zm16.488-33.822h0a3.918,3.918,0,1,1,1.566-7A10.8,10.8,0,0,1,4788.73,2701.572Zm-10.77-6.454c.831-3.676,4.085-6.386,5.76-7.611a17.237,17.237,0,0,1,2.042,5.773,11.005,11.005,0,0,0-3.894,3.2,12.715,12.715,0,0,0-2.138,7.679C4778.709,2702.212,4777.184,2698.6,4777.96,2695.118Zm-11.764,19.294a7.478,7.478,0,0,1,4.493-5.651,11.181,11.181,0,0,1,4.276-.762,19.217,19.217,0,0,1,4.193.5,14.286,14.286,0,0,1,7.53,3.854,7.475,7.475,0,0,1,1.634,7.025c-1.1,4.712-10.117,10.784-14.651,13.426C4770.717,2728.5,4765.148,2719.123,4766.2,2714.412Z" transform="translate(-3455.11)" fill="#fff"/><path d="M4773.889,2724.106c-1.579-3.54-2.206-6.358-1.8-8.169a8.053,8.053,0,0,1,1.593-3.4,1.363,1.363,0,0,0-2.1-1.743,10.715,10.715,0,0,0-2.151,4.548c-.545,2.41.122,5.732,1.974,9.871a1.365,1.365,0,1,0,2.492-1.116Z" transform="translate(-3455.11)" fill="#fff"/></g></svg>