<svg xmlns="http://www.w3.org/2000/svg" width="181.71" height="181.71" viewBox="0 0 181.71 181.71"><g transform="translate(-525.146 -3315.765)"><circle cx="90.855" cy="90.855" r="90.855" transform="translate(525.146 3315.765)" fill="#323e5f"/><path d="M10907.158,3376.49a6.967,6.967,0,0,0-6.545,4.632l-21.412-1.947a10.388,10.388,0,0,0-.818-3.336l15.354-9.932a6.954,6.954,0,1,0-2.282-5.12,6.878,6.878,0,0,0,.385,2.188l-15.354,9.945a10.445,10.445,0,0,0-17.332,2.966l-18.432-4.434a15.7,15.7,0,1,0-17.541,13.62q.712.089,1.428.114l1.5,19.541a10.457,10.457,0,0,0-2.388,19.383l-6.825,20.473c-.159-.01-.31-.047-.472-.047a7.014,7.014,0,1,0,3.788,1.133l6.82-20.462a9.516,9.516,0,0,0,3.211,0l6.822,20.462a6.958,6.958,0,1,0,3.786-1.133c-.162,0-.312.037-.472.047l-6.826-20.471a10.468,10.468,0,0,0-3.969-19.657l-1.5-19.526a15.738,15.738,0,0,0,11.814-10.085l18.438,4.425c-.018.236-.037.471-.037.71a10.469,10.469,0,0,0,20.578,2.671l21.41,1.948a6.969,6.969,0,1,0,6.866-8.108Zm-8.725-19.193a3.489,3.489,0,1,1-3.489,3.49A3.489,3.489,0,0,1,10898.434,3357.3Zm-82,97.708a3.49,3.49,0,1,1,3.49-3.49A3.489,3.489,0,0,1,10816.429,3455Zm27.917-3.49a3.49,3.49,0,1,1-3.489-3.489A3.489,3.489,0,0,1,10844.346,3451.515Zm-8.724-36.64a6.979,6.979,0,1,1-6.979-6.979A6.98,6.98,0,0,1,10835.622,3414.875Zm-10.469-33.151a12.214,12.214,0,1,1,12.213-12.214A12.214,12.214,0,0,1,10825.153,3381.724Zm43.62,5.234a6.979,6.979,0,1,1,6.979-6.979A6.979,6.979,0,0,1,10868.773,3386.958Zm38.385,0a3.49,3.49,0,1,1,3.489-3.489A3.49,3.49,0,0,1,10907.158,3386.958Z" transform="translate(-10243.658)" fill="#fff"/><path d="M10898.434,3427.088a15.717,15.717,0,0,0-14.644,10.08l-15.065-3.929c.028-.3.049-.607.049-.916a10.417,10.417,0,0,0-2.432-6.7l9.847-11.486a6.87,6.87,0,0,0,3.053.735,7.013,7.013,0,1,0-5.714-2.994l-9.839,11.48a10.388,10.388,0,0,0-5.385-1.507c-.175,0-.349.017-.523.026l-3.285-14.776a6.958,6.958,0,1,0-3.4.767l3.28,14.759a10.469,10.469,0,1,0,13.479,13.983l15.055,3.931a15.685,15.685,0,1,0,15.528-13.456Zm-50.6-26.171a3.49,3.49,0,1,1,3.49,3.489A3.49,3.49,0,0,1,10847.835,3400.917Zm31.406,3.489a3.49,3.49,0,1,1-3.489,3.49A3.49,3.49,0,0,1,10879.241,3404.406Zm-20.937,34.9a6.979,6.979,0,1,1,6.979-6.979A6.979,6.979,0,0,1,10858.3,3439.3Zm40.13,15.7a12.214,12.214,0,1,1,12.214-12.214A12.214,12.214,0,0,1,10898.434,3455Z" transform="translate(-10243.658)" fill="#fff"/></g></svg>