<svg xmlns="http://www.w3.org/2000/svg" width="181.71" height="181.71" viewBox="0 0 181.71 181.71"><g transform="translate(-529.979 -4209.827)"><circle cx="90.855" cy="90.855" r="90.855" transform="translate(529.979 4209.827)" fill="#b81371"/><path d="M9688.7,4263.246a1.5,1.5,0,0,0-1.5,1.5v31.92h-16.879a1.5,1.5,0,0,0-1.5,1.5v13.32a1.5,1.5,0,0,0,3,0v-11.819h2.042v8.47a1.5,1.5,0,1,0,3,0v-8.47h5.295v8.47a1.5,1.5,0,1,0,3,0v-8.47h2.042v11.819a1.5,1.5,0,0,0,3,0v-46.74A1.5,1.5,0,0,0,9688.7,4263.246Z" transform="translate(-9014.249 32.939)" fill="#fff"/><path d="M9591.434,4259.772h.213a7.514,7.514,0,1,0-.213,0Zm.213-12.03a4.466,4.466,0,0,1,4.41,4.623,4.416,4.416,0,0,1-4.41,4.41h-.213a4.518,4.518,0,1,1,.213-9.033Z" transform="translate(-9014.249 32.939)" fill="#fff"/><path d="M9598.084,4296.686H9581.2v-31.923a1.5,1.5,0,1,0-3,0V4311.5a1.5,1.5,0,1,0,3,0v-11.815h2.045v8.47a1.5,1.5,0,1,0,3,0v-8.47h5.3v8.47a1.5,1.5,0,1,0,3,0v-8.47h2.046V4311.5a1.5,1.5,0,1,0,3,0v-13.316A1.5,1.5,0,0,0,9598.084,4296.686Z" transform="translate(-9014.249 32.939)" fill="#fff"/><path d="M9690.461,4214.207h-53.095a1.5,1.5,0,0,0-1.5,1.5V4237.9h-2.832v-2.644a9.613,9.613,0,0,0-9.6-9.6h-9.422a9.061,9.061,0,0,0-9.051,9.051v15.619a6.708,6.708,0,0,0,5.205,6.522v5.279c-.015.029-.048.042-.062.073l-3.477,7.779-4.1.064-6.208-6.6a7.156,7.156,0,0,0-13.054,4.055v19.649a7.625,7.625,0,0,0,7.616,7.618h7.219v.333a1.5,1.5,0,0,0,1.5,1.5h1.06l3.93,10.429a4.706,4.706,0,0,0,4.381,3.037,4.686,4.686,0,0,0,4.441-6.169l-2.523-7.3h18.531v8.644l-16.1,15.938a1.5,1.5,0,0,0,.013,2.14l4.056,3.923a1.493,1.493,0,0,0,2.1-.019l10.468-10.531-.025,7.9a1.5,1.5,0,0,0,1.5,1.5h5.487a1.5,1.5,0,0,0,1.5-1.493l.033-6.986,7.272,9.042a1.485,1.485,0,0,0,1.011.549,1.051,1.051,0,0,0,.156.011,1.518,1.518,0,0,0,.948-.336l4.424-3.6a1.5,1.5,0,0,0,.219-2.1l-13.693-16.982-.07-7.6h18.795l-2.523,7.3a4.684,4.684,0,0,0,4.445,6.151,4.7,4.7,0,0,0,4.379-3.037l3.93-10.41h1.062a1.5,1.5,0,0,0,1.5-1.5v-.351h7.221a7.631,7.631,0,0,0,7.617-7.622v-19.646a7.037,7.037,0,0,0-5.034-6.835,6.918,6.918,0,0,0-7.883,2.6l-6.355,6.776-4.1-.062-3.467-7.759a1.5,1.5,0,0,0-1.369-.887h-29.392v-13.815h8.332v4.065a1.5,1.5,0,0,0,1.5,1.5h32.061a7.474,7.474,0,0,0,14.866,0h6.168a1.5,1.5,0,0,0,1.5-1.5v-35.854A1.5,1.5,0,0,0,9690.461,4214.207Zm-92.232,74.557,0,.013a1.51,1.51,0,0,0-.127.6v2.383h-7.219a4.624,4.624,0,0,1-4.62-4.618v-19.649a4.046,4.046,0,0,1,2.925-3.972,4.171,4.171,0,0,1,4.8,1.791l6.349,6.776a3.106,3.106,0,0,0,2.241.948l5.029-.077h0l2.627-.04a1.089,1.089,0,0,1,.5.2.681.681,0,0,1,.208.49v1.252a.675.675,0,0,1-.205.49.688.688,0,0,1-.488.2h-.009l-5.1-.04-6.426-.051a2.448,2.448,0,0,1-1.928-.981l-3.469-4.658a1.5,1.5,0,1,0-2.4,1.789l2.659,3.573.858,10.42a1.5,1.5,0,0,0,1.356,1.368l3.117.287Zm1.97-4.405-2.882-.264-.5-6.036a5.411,5.411,0,0,0,1.866.394l4.14.033Zm10.135,22a1.749,1.749,0,0,1-2.94-.4l-3.532-9.375h3.854l2.855,8.255A1.672,1.672,0,0,1,9610.333,4306.361Zm20.082,5.612-.009.009-12,12.074-1.895-1.829,14.275-14.134,1.558,1.937Zm5.012,11.121h-2.492l.029-9.432,1.274-1.281,1.23,1.53Zm13.782-1.2-2.1,1.708-14.7-18.269v-8.742h3.3l.075,8.149a1.5,1.5,0,0,0,.331.925Zm11.8-15.947a1.742,1.742,0,0,1-2.938.392,1.64,1.64,0,0,1-.241-1.489l2.855-8.259h3.854Zm6.3-12.356H9601.1v-2.715H9667.3Zm.893-9.249-2.627-5.874,4.152-.033a5.385,5.385,0,0,0,1.862-.394l-.5,6.036Zm-2.39-11.33a2.754,2.754,0,0,0,2.259-.944l6.486-6.954a4.161,4.161,0,0,1,7.589,2.358v19.646a4.622,4.622,0,0,1-4.617,4.621h-7.22v-2.364a1.477,1.477,0,0,0-.13-.6v-.01l-.685-1.531,3.125-.287a1.5,1.5,0,0,0,1.357-1.369l.857-10.413,2.663-3.579a1.5,1.5,0,0,0-2.408-1.789l-3.465,4.658a2.426,2.426,0,0,1-1.925.98l-11.54.092a.718.718,0,0,1-.487-.2.675.675,0,0,1-.205-.49v-1.251a.679.679,0,0,1,.208-.494,1.511,1.511,0,0,1,.516-.194Zm-9.85-8.707,2.5,5.6-.209,0a3.737,3.737,0,0,0-2.671,1.041,3.655,3.655,0,0,0-1.119,2.643v1.252a3.662,3.662,0,0,0,1.1,2.623,3.829,3.829,0,0,0,2.624,1.065l4.116-.033,4.193,9.382h-64.58l.544-1.218c.015-.027.023-.055.037-.082l3.6-8.063,4.116.032a3.522,3.522,0,0,0,2.633-1.065,3.663,3.663,0,0,0,1.1-2.623V4273.6a3.66,3.66,0,0,0-1.115-2.64,3.523,3.523,0,0,0-2.654-1.044l-.238,0,2.511-5.618Zm-42.793-3v-7.435h4.189v7.435Zm7.186,0v-7.435h4.19v7.435Zm7.188-16.811v-7.741a1.5,1.5,0,0,0-3,0v14.12h-11.376v-14.12a1.5,1.5,0,0,0-3,0V4253.7a3.7,3.7,0,0,1-2.208-3.378V4234.7a6.062,6.062,0,0,1,6.054-6.054h9.422a6.614,6.614,0,0,1,6.605,6.6v4.142a1.5,1.5,0,0,0,1.5,1.5h7.664a1.8,1.8,0,0,1,0,3.6Zm49.324,12.26a4.51,4.51,0,1,1,4.516-4.518A4.522,4.522,0,0,1,9676.86,4256.757Zm12.1-6.7h-4.937a7.472,7.472,0,0,0-14.319,0h-30.841v-2.567h.337a4.779,4.779,0,0,0,4.753-4.579l7.662-7.567a1.5,1.5,0,0,0-2.107-2.133l-6.618,6.535a4.713,4.713,0,0,0-3.689-1.851h-.337V4217.2h50.1Z" transform="translate(-9014.249 32.939)" fill="#fff"/><path d="M9618.851,4223.583a7.878,7.878,0,1,0-7.878-7.878A7.886,7.886,0,0,0,9618.851,4223.583Zm0-12.759a4.881,4.881,0,1,1-4.881,4.881A4.887,4.887,0,0,1,9618.851,4210.824Z" transform="translate(-9014.249 32.939)" fill="#fff"/><path d="M9669.1,4230.459a1.493,1.493,0,0,0-1.562.516l-3.4,4.288-5.371-1.147a1.493,1.493,0,0,0-1.519.571l-3.71,4.989-5.855,1.122a1.5,1.5,0,0,0,.282,2.971,1.529,1.529,0,0,0,.282-.026l6.429-1.231a1.505,1.505,0,0,0,.922-.578l3.483-4.686,5.339,1.14a1.5,1.5,0,0,0,1.489-.534l3.367-4.246,4.771,1.273a1.487,1.487,0,0,0,1.533-.483l5.628-6.692v1.919a1.5,1.5,0,0,0,3,0v-6.016a1.473,1.473,0,0,0-.508-1.191c-.01-.008-.021-.009-.03-.016s-.008-.014-.014-.019a1.565,1.565,0,0,0-.246-.123,1.484,1.484,0,0,0-.258-.13,1.432,1.432,0,0,0-.466-.049c-.035,0-.069-.006-.1,0a1.215,1.215,0,0,0-.174,0l-5.844,1.2a1.5,1.5,0,0,0,.6,2.938l1.676-.343-4.939,5.872Z" transform="translate(-9014.249 32.939)" fill="#fff"/><path d="M9650.248,4223.188h18.358a1.5,1.5,0,1,0,0-3h-18.358a1.5,1.5,0,1,0,0,3Z" transform="translate(-9014.249 32.939)" fill="#fff"/><path d="M9650.248,4229.032h9.177a1.5,1.5,0,1,0,0-3h-9.177a1.5,1.5,0,1,0,0,3Z" transform="translate(-9014.249 32.939)" fill="#fff"/></g></svg>