<svg xmlns="http://www.w3.org/2000/svg" width="181.71" height="181.71" viewBox="0 0 181.71 181.71"><g transform="translate(-7260.259 -2217.671)"><circle cx="90.855" cy="90.855" r="90.855" transform="translate(7260.259 2217.671)" fill="#1f7129"/><path d="M7349.949,2280.357c3.39,0,33.9-.242,33.9-9.687v-9.686c0-9.444-30.512-9.686-33.9-9.686s-33.9.242-33.9,9.686v9.686C7316.047,2280.115,7346.559,2280.357,7349.949,2280.357Zm-29.059-9.929v-3.874a25.138,25.138,0,0,0,2.422.968v4.6C7322.1,2271.4,7321.133,2270.913,7320.89,2270.428Zm24.216.242v4.844a64.488,64.488,0,0,1-7.265-.485v-4.843C7340.5,2270.428,7342.927,2270.428,7345.106,2270.67ZM7333,2274.3a28.478,28.478,0,0,1-4.843-.969v-4.6c1.453.242,3.148.485,4.843.727Zm16.951,1.211v-4.844c2.664,0,20.341-.242,29.059-4.116v4.116C7377.8,2272.366,7367.142,2275.514,7349.949,2275.514Zm3.148-19.373h9.686a3.071,3.071,0,0,1,1.453.242c.485,0,.727,0,.969.242a2.179,2.179,0,0,1,1.211.243,1.453,1.453,0,0,1,.968.242,2.185,2.185,0,0,1,1.211.242,1.458,1.458,0,0,1,.969.242c.242,0,.726.242.968.242s.485.242.969.242c.242,0,.727.243.969.243s.484.242.726.242.484.242.727.242.484.242.726.242.484.242.727.242a1341.956,1341.956,0,0,0,.968.484c.242,0,.242.243.484.243s.243.242.485.242.242.242.484.242.242.242.484.242l.243.242.242.242.242.243h0c-1.695,1.937-12.108,4.843-28.817,4.843s-27.121-2.906-28.816-4.843h0a.237.237,0,0,0,.242-.243l.242-.242a.237.237,0,0,0,.242-.242.844.844,0,0,1,.485-.242c.242,0,.242-.242.484-.242s.242-.242.484-.242.242-.243.484-.243.485-.242.727-.242a.846.846,0,0,0,.484-.242c.242,0,.485-.242.727-.242s.484-.242.726-.242c-.242-.242.242-.242.484-.242s.485-.242.727-.242.484-.243.969-.243c.242,0,.484-.242.968-.242.242,0,.727-.242.969-.242a1.456,1.456,0,0,0,.968-.242,2.634,2.634,0,0,0,1.211-.242,1.455,1.455,0,0,0,.969-.242,2.181,2.181,0,0,0,1.211-.243,1.455,1.455,0,0,0,.968-.242,3.073,3.073,0,0,0,1.453-.242h15.5Z" fill="#fff"/><path d="M7331.787,2313.774c8.96,0,19.131-1.937,21.068-2.179,3.39-.727,33.175-6.781,31.48-15.982l-1.937-9.445c-1.937-9.2-31.722-3.632-35.113-2.905a119.025,119.025,0,0,0-14.771,3.874c-2.664.969-5.085,1.7-7.265,2.664q-10.533,4.722-9.444,9.444l1.937,9.444C7318.469,2312.563,7324.765,2313.774,7331.787,2313.774Zm-10.17-10.17c.726.242,1.695.242,2.664.484l.968,4.359a4.676,4.676,0,0,1-2.664-.969Zm-.727-5.812.243-.242.242-.242.242-.243.242-.242c.242,0,.242-.242.484-.242s.243-.242.485-.242.242-.242.484-.242.242-.242.484-.242.485-.242.727-.242.484-.243.726-.243.485-.242.727-.242.484-.242.726-.242.484-.242.727-.242.484-.242.726-.242c.242-.242.727-.242.969-.485s.484-.242.968-.484c.242-.242.727-.242.969-.484s.726-.242.969-.484.726-.243.968-.485c.485-.242.727-.242,1.211-.484.484,0,.726-.242,1.211-.242.484-.242.726-.242,1.211-.485.484,0,.726-.242,1.21-.242.485-.242.969-.242,1.453-.484.485,0,.727-.242,1.211-.242.484-.242.969-.242,1.453-.485.242,0,.726-.242.969-.242.484-.242,1.21-.242,1.7-.484h.242a10.3,10.3,0,0,1,2.664-.484,14.181,14.181,0,0,1,3.148-.485h.726a6.705,6.705,0,0,1,2.179-.242,1.83,1.83,0,0,0,.969-.242c.727,0,1.211-.242,1.937-.242h.969c.484,0,1.211-.242,1.695-.242h.969a4.728,4.728,0,0,0,1.695-.242h13.8c.242,0,.242,0,.484.242h.242a339.08,339.08,0,0,0,.484.484h.243c-1.453,2.179-10.9,7.023-27.364,10.413-16.467,3.148-27.122,2.421-29.3.726l.484-.484Zm25.185,5.085.968,4.843c-2.663.485-5.085.727-7.264.969l-.969-4.843C7341.474,2303.6,7344.137,2303.119,7346.075,2302.877Zm-15.983,6.054-.968-4.6h.726a22.154,22.154,0,0,0,4.117-.242l.968,4.6A34.133,34.133,0,0,1,7330.092,2308.931Zm21.794-2.179h0l-.968-4.843c2.663-.485,19.857-4.117,27.606-9.687l.726,3.875C7378.524,2298.276,7368.837,2303.362,7351.886,2306.752Z" fill="#fff"/><path d="M7357.214,2330.725a110.707,110.707,0,0,0-20.826-9.686c-7.264-2.179-11.623-1.937-13.318.969l-4.843,8.475c-4.843,8.233,21.552,23.731,24.457,25.426a110.779,110.779,0,0,0,20.826,9.687,28.073,28.073,0,0,0,7.991,1.453c2.664,0,4.359-.727,5.327-2.422l4.844-8.475C7386.515,2347.918,7360.362,2332.42,7357.214,2330.725Zm.242,5.812a1.258,1.258,0,0,0,.969.484c.484.242,1.21.727,1.7.969.242.242.726.484.968.726a5.068,5.068,0,0,1,1.453.969c.242.242.727.484.969.726.484.243.726.485,1.211.727a3.337,3.337,0,0,0,.968.726c.485.243.727.485,1.211.727l.727.726c.242.242.726.485.968.727s.484.484.727.484c.242.242.726.484.968.727s.485.484.727.484l.726.726c.242.243.485.243.485.485l.726.726.484.484.727.727.484.484c.242.242.484.485.484.727.243.242.243.242.243.484.242.242.242.484.484.484a.237.237,0,0,0,.242.242l.484.485.242.242c0,.242.243.242.243.484a170.139,170.139,0,0,1,.484.485v.484c-2.422.726-12.834-1.937-27.364-10.413s-22.036-16.224-22.52-18.646h1.937c4.117.484,13.561,3.39,25.669,10.413h0A7.549,7.549,0,0,0,7357.456,2336.537Zm-27.848-1.7c1.211.968,2.422,2.179,3.875,3.148l-2.422,4.117c-1.453-1.211-2.664-2.18-3.632-3.148Zm7.749,6.054c1.937,1.453,3.875,2.663,6.054,4.116l-2.422,4.117c-2.179-1.453-4.116-2.664-6.054-4.117Zm-12.834-11.624a12.1,12.1,0,0,0,1.695,1.938l-2.18,3.874a10.018,10.018,0,0,1-1.453-2.422Zm20.583,22.521c0-.242-.242-.242,0,0h0l2.422-4.117c7.506,4.359,14.771,7.749,20.825,9.444a44.7,44.7,0,0,0,6.3,1.453l-1.937,3.39C7370.775,2362.932,7360.12,2360.268,7345.106,2351.793Z" fill="#fff"/></g></svg>