<svg xmlns="http://www.w3.org/2000/svg" width="181.71" height="181.71" viewBox="0 0 181.71 181.71"><g transform="translate(-1205.402 -4726.094)"><circle cx="90.855" cy="90.855" r="90.855" transform="translate(1205.402 4726.094)" fill="#b81371"/><path d="M10344.139,4683.282a2.02,2.02,0,0,0-2.855,0l-13.837,13.838-13.795,5.4-16.3-5.436-13.8-13.8a2.02,2.02,0,0,0-2.855,0l-28.276,28.277a2.019,2.019,0,0,0,0,2.856l13.706,13.706,3.708,18.537-1.6,1.6a7.731,7.731,0,0,0,5.469,13.2c.129,0,.254-.03.383-.038,0,.131-.038.254-.038.386a7.741,7.741,0,0,0,7.734,7.731c.129,0,.254-.03.384-.038,0,.131-.039.254-.039.386a7.741,7.741,0,0,0,7.733,7.731c.13,0,.255-.03.385-.038,0,.131-.039.254-.039.386a7.732,7.732,0,0,0,13.2,5.467h0l1.946-1.949,3.969,3.969a7.731,7.731,0,0,0,13.2-5.468c0-.131-.029-.254-.038-.385.129,0,.254.038.385.038a7.741,7.741,0,0,0,7.732-7.732c0-.131-.03-.254-.038-.385.129,0,.254.038.385.038a7.74,7.74,0,0,0,7.732-7.732c0-.131-.03-.254-.038-.385.129,0,.254.038.384.038a7.732,7.732,0,0,0,5.468-13.2l-1.146-1.147,15.049-20.693,14.027-14.027a2.019,2.019,0,0,0,0-2.856Zm-62.021,4.284,11.283,11.283-25.421,25.42-11.283-11.282Zm-8.424,69.856a3.692,3.692,0,0,1-2.612-6.3l2.711-2.714a3.693,3.693,0,1,1,5.223,5.223l-2.711,2.714A3.671,3.671,0,0,1,10273.694,4757.422Zm8.079,8.079a3.693,3.693,0,0,1-2.612-6.3l2.711-2.714a3.693,3.693,0,1,1,5.223,5.223l-2.711,2.714A3.673,3.673,0,0,1,10281.773,4765.5Zm8.078,8.079a3.693,3.693,0,0,1-2.611-6.3l2.711-2.714a3.693,3.693,0,1,1,5.223,5.223l-2.711,2.714A3.673,3.673,0,0,1,10289.852,4773.58Zm13.4,4.284-2.711,2.714a3.693,3.693,0,1,1-5.223-5.223l2.711-2.714a3.693,3.693,0,1,1,5.223,5.223Zm35.764-18.423a3.67,3.67,0,0,1-2.611-1.08l-8.424-8.427-2.856,2.856,8.426,8.427a3.694,3.694,0,0,1-5.225,5.223l-8.424-8.426-2.856,2.855,8.426,8.427a3.694,3.694,0,0,1-5.225,5.223l-8.424-8.426-2.856,2.855,8.426,8.427a3.694,3.694,0,0,1-5.225,5.223l-4.379-4.373a7.741,7.741,0,0,0-7.148-10.7c-.129,0-.254.03-.383.038,0-.131.038-.255.038-.386a7.743,7.743,0,0,0-7.734-7.732c-.129,0-.254.031-.383.039,0-.131.038-.255.038-.386a7.743,7.743,0,0,0-7.733-7.732c-.13,0-.255.031-.384.039,0-.131.038-.255.038-.386a7.73,7.73,0,0,0-10.745-7.126l-3.222-16.1,26.631-26.625,10.967,3.658-3.165,1.238a2.046,2.046,0,0,0-.692.455l-19.533,19.535a7.732,7.732,0,0,0,10.936,10.935h0l9.1-9.1a16.174,16.174,0,0,0,10.018,3.433,16.368,16.368,0,0,0,4.685-.682l22.512,22.512a3.693,3.693,0,0,1-2.613,6.3Zm1.433-13.2-17.407-17.406a16.437,16.437,0,0,0,2.919-2.3l2.021-2.02-2.856-2.856-2.02,2.02a12.266,12.266,0,0,1-17.343,0,2.017,2.017,0,0,0-2.854,0l-10.445,10.446a3.693,3.693,0,1,1-5.223-5.223l19.233-19.236,7.29-2.852h.032v-.027l14.274-5.584,26.129,26.125Zm16.4-21.975-25.42-25.42,11.282-11.283,25.421,25.421Z" transform="translate(-9014.249 88)" fill="#fff"/><rect width="4.04" height="4.04" transform="translate(1339.743 4800.988) rotate(-45)" fill="#fff"/><rect width="4.04" height="4.04" transform="translate(1250.875 4800.987) rotate(-45)" fill="#fff"/></g></svg>