<svg xmlns="http://www.w3.org/2000/svg" width="180" height="180" viewBox="0 0 180 180"><g transform="translate(-529.902 -3108)"><ellipse cx="90" cy="90" rx="90" ry="90" transform="translate(529.902 3108)" fill="#219e45"/><path d="M658.787,3235.037H582.969a1.9,1.9,0,0,1-1.9-1.9,5.686,5.686,0,0,0-5.687-5.686,1.9,1.9,0,0,1-1.9-1.9v-53.073a1.9,1.9,0,0,1,1.9-1.9,5.687,5.687,0,0,0,5.687-5.686,1.9,1.9,0,0,1,1.9-1.9h75.818a1.9,1.9,0,0,1,1.9,1.9,5.686,5.686,0,0,0,5.686,5.686,1.9,1.9,0,0,1,1.895,1.9v53.073a1.9,1.9,0,0,1-1.895,1.9,5.686,5.686,0,0,0-5.686,5.686A1.9,1.9,0,0,1,658.787,3235.037Zm-74.112-3.791h72.406a9.477,9.477,0,0,1,7.393-7.392v-49.661a9.479,9.479,0,0,1-7.393-7.393H584.675a9.478,9.478,0,0,1-7.392,7.393v49.661A9.476,9.476,0,0,1,584.675,3231.246Z" transform="translate(-0.865 -1.279)" fill="#fff"/><path d="M670.16,3242.619H571.6a5.687,5.687,0,0,1-5.686-5.687v-75.818a5.686,5.686,0,0,1,5.686-5.686H670.16a5.686,5.686,0,0,1,5.686,5.686v75.818A5.687,5.687,0,0,1,670.16,3242.619Zm-98.564-83.4a1.894,1.894,0,0,0-1.9,1.9v75.818a1.9,1.9,0,0,0,1.9,1.9H670.16a1.9,1.9,0,0,0,1.9-1.9v-75.818a1.894,1.894,0,0,0-1.9-1.9Z" transform="translate(-0.865 -1.279)" fill="#fff"/><path d="M645.519,3187.65H596.237a7.581,7.581,0,1,1,0-15.163h49.282a7.581,7.581,0,1,1,0,15.163Zm-49.282-11.372a3.791,3.791,0,0,0,0,7.582h49.282a3.791,3.791,0,0,0,0-7.582Z" transform="translate(-0.865 -1.279)" fill="#fff"/><path d="M641.728,3221.769a11.247,11.247,0,0,1-6.824-2.275,11.373,11.373,0,1,1,13.648,0A11.247,11.247,0,0,1,641.728,3221.769Zm0-18.955a7.582,7.582,0,1,0,7.582,7.582A7.583,7.583,0,0,0,641.728,3202.814Z" transform="translate(-0.865 -1.279)" fill="#fff"/><path d="M647.414,3229.35a2.21,2.21,0,0,1-.606,0l-5.08-1.8-5.08,1.706a1.912,1.912,0,0,1-2.5-1.8v-9.477a1.852,1.852,0,0,1,2.957-1.517,7.676,7.676,0,0,0,9.1,0,1.992,1.992,0,0,1,3.109,1.517v9.477a1.9,1.9,0,0,1-.8,1.535A1.78,1.78,0,0,1,647.414,3229.35Zm-5.686-5.686a2.276,2.276,0,0,1,.607,0l3.184,1.062v-3.791a11.552,11.552,0,0,1-7.582,0v3.791l3.185-1.062A2.269,2.269,0,0,1,641.728,3223.664Z" transform="translate(-0.865 -1.279)" fill="#fff"/><path d="M590.551,3223.664a1.874,1.874,0,0,1-.739-.152,1.9,1.9,0,0,1-1.005-2.483l5.686-13.268a1.9,1.9,0,0,1,3.64.739v8.7l4.34-4.36a1.9,1.9,0,0,1,3.014,2.237,6.859,6.859,0,0,0-1.005,4.473c.114.208.588.322,1.232.322a7.457,7.457,0,0,0,1.157-.777,12.91,12.91,0,0,1,8.321-3.014h5.686a1.9,1.9,0,1,1,0,3.791h-5.686a9.289,9.289,0,0,0-6.085,2.275,5.891,5.891,0,0,1-3.393,1.516,4.776,4.776,0,0,1-4.492-2.18,4.131,4.131,0,0,1-.549-1.459l-3.09,3.089a1.907,1.907,0,0,1-3.241-1.345v-4.038l-2.047,4.777A1.9,1.9,0,0,1,590.551,3223.664Z" transform="translate(-0.865 -1.279)" fill="#fff"/><path d="M628.46,3195.232H592.446a1.9,1.9,0,0,1,0-3.791H628.46a1.9,1.9,0,0,1,0,3.791Z" transform="translate(-0.865 -1.279)" fill="#fff"/><path d="M628.46,3202.814H592.446a1.9,1.9,0,0,1,0-3.791H628.46a1.9,1.9,0,0,1,0,3.791Z" transform="translate(-0.865 -1.279)" fill="#fff"/></g></svg>