<svg xmlns="http://www.w3.org/2000/svg" width="181.71" height="181.71" viewBox="0 0 181.71 181.71"><g transform="translate(-530 -3104.35)"><circle cx="90.855" cy="90.855" r="90.855" transform="translate(530 3104.35)" fill="#f09300"/><path d="M4134.293,3180.828c0-.01,0-.022,0-.03l-1.035-1.707-.3-.844c0-.008-.014-.009-.017-.017a.27.27,0,0,0-.068-.075.224.224,0,0,0-.079-.062c-.008,0-.011-.012-.019-.015l-.419-.119,0,0-.011,0c-.031-.01-.06.008-.089.01s-.071-.009-.1.009l-.01,0h-.006l-.233.117c-.008,0-.008.015-.016.02s-.019,0-.027.007l-1.526,1.159-2.007.913h0l-1.947.852-2.049.362-.962-.056-.759-.351c-.006,0-.014,0-.019,0s-.008-.009-.016-.012l-2.167-.667h0c0-.029-.011-.051-.014-.079a.231.231,0,0,0-.013-.094.27.27,0,0,0-.068-.078c-.019-.018-.025-.043-.047-.055l-.207-.1-1.347-1.4-.448-1.079c-.011-.02-.031-.027-.045-.043s-.008-.038-.024-.052l-2.712-2.432-.01,0-.006-.011-3.058-2.317-2.039-2.592c-.008-.012-.024-.011-.036-.02s-.009-.027-.022-.034l-.731-.51.071-.558c0-.026-.014-.042-.019-.066s.011-.045,0-.068l-.721-1.8c0-.012-.019-.016-.027-.026s0-.027-.008-.037l-1.438-1.886-.008-.006,0-.006-3.3-3.842v-.176c0-.012-.011-.02-.013-.031s.008-.022,0-.033l-.069-.274c0-.009-.013-.012-.016-.02s0-.016,0-.024l-1.095-2.461c0-.007-.01-.008-.016-.015s0-.016,0-.024l-1.015-1.555-1.556-4.059-.338-1.221c-.006-.019-.025-.027-.031-.042s0-.036-.016-.052l-.753-.958h0l-1.067-1.4-.165-.438.042-.2.283-.33h.028l.878,1h0l0,0,.652.718.39.979c.008.016.022.024.031.038s0,.021.008.029l.55.685c.006.008.016,0,.024.012a.259.259,0,0,0,.187.088.274.274,0,0,0,.066-.008l.272-.068c.016,0,.021-.022.036-.028a.279.279,0,0,0,.094-.071.2.2,0,0,0,.036-.059c.008-.015.025-.025.027-.039l.069-.275c0-.008,0-.015,0-.023s.008-.012.011-.02l.063-.752.508-.762c.016-.024.008-.05.014-.075s.031-.046.031-.075v-.886c0-.017-.016-.028-.019-.045s.008-.031,0-.049l-.207-.547c0-.007-.011-.008-.014-.014s0-.013,0-.018l-1.641-3.079c0-.009-.016-.009-.024-.018a.224.224,0,0,0-.079-.065.212.212,0,0,0-.086-.045c-.011,0-.016-.012-.024-.014l-3.2-.3c-.021,0-.036.015-.057.017s-.039-.009-.058,0l-2.55.923-2.207.321-4.644.165h-.585l-.322-.164-.786-.943c-.022-.027-.058-.03-.089-.047a.249.249,0,0,0-.1-.049l-.655-.055c-.024-.005-.039.015-.061.018s-.031-.01-.047,0l-.45.15h-.784l-1.171-.459-.842-.735-.494-.439c-.021-.02-.052-.017-.079-.028s-.036-.034-.066-.038l-.437-.055s-.011.006-.016,0-.011-.006-.019-.006h-.932c-.014,0-.022.012-.031.013s-.024-.008-.036,0l-1.26.33c-.019.006-.027.026-.042.032s-.039,0-.055.016l-1.04.823s0,.009-.008.012a.293.293,0,0,0-.055.1c-.013.027-.034.047-.036.076l0,.01-.055,1.149c0,.015.011.026.013.038s-.01.027,0,.04l.207.834-.089,1-.184.079h-.535l-1.154-.157-.874-.361-5.628-3.5c-.007,0-.015,0-.022,0s-.007-.012-.015-.015l-2.3-.987c-.009,0-.018,0-.028,0s-.014-.015-.025-.018l-1.1-.217c-.023-.006-.039.011-.061.012s-.035-.013-.055-.009l-.7.169-.933-1.059-.072-.438.235-.509.581-.447h0l.5-.349c.017-.012.018-.034.031-.05a.258.258,0,0,0,.052-.082.216.216,0,0,0,.013-.1c0-.021.014-.037.008-.057l-.051-.2c0-.014-.017-.019-.022-.03s0-.024,0-.034l-.661-1.182-.046-1.374c0-.017-.016-.025-.02-.04s.007-.032,0-.05l-.5-1.238c-.006-.014-.02-.016-.027-.028a.273.273,0,0,0-.071-.073.267.267,0,0,0-.083-.047c-.014,0-.021-.018-.035-.02l-.293-.035-.229-.268-.01,0,0-.011-.147-.148c-.016-.016-.041-.013-.058-.025a.231.231,0,0,0-.09-.037.26.26,0,0,0-.1.007c-.022,0-.043-.007-.063,0l-.4.2-.01.011s-.009,0-.013,0l-1.16.725-1.363.376-1.162.047c-.011,0-.016.011-.027.012s-.017-.006-.028,0l-1.37.342-1.452.1h0l-2.952.147-1.459-.2c-.009,0-.017.008-.027.008s-.019-.01-.029-.009l-1.24.1c-.013,0-.02.013-.031.016s-.025-.007-.038,0l-2.874,1.04v0h0l-1.327.491-1.559.408h-.173l-.01,0-.009,0-.671.05h0l-1.765.1-1.174-.2-.963-.432-.483-.434c-.024-.023-.056-.019-.083-.029s-.045-.035-.075-.038l-.669-.051c-.033-.008-.056.018-.086.024s-.037-.005-.055,0l-.046.024-.011.006-.56.28s0,.01-.009.012-.011,0-.016,0l-.876.566c-.021.014-.023.038-.039.055s-.041.023-.053.043l-.359.668,0,.014s-.006,0-.008.008l-.59,1.375-.472.345-.713.232-1.527.255h0a.259.259,0,0,0-.173.109l-1.029,1.442c-.012.018-.006.039-.014.058s-.028.03-.032.051l-.256,1.43-.346,1.24-.32.549-.571.475-.742.494-.753.353h0l-1.339.618c-.009,0-.01.015-.019.02s-.019,0-.027.007l-1.134.823c-.008,0-.007.016-.013.022s-.019,0-.026.013l-1.171,1.256-.5.209-1.157.367c-.02.007-.027.029-.044.037s-.039.005-.055.02l-.469.421c-.01.01-.008.026-.017.035s-.026.012-.032.024l-.513.839-.881,1.253,0,.009-.006.006-.375.609c-.011.019,0,.039-.009.059s-.028.036-.03.059l-.041.5-.665,1.151-1.16,1.532,0,0-.841,1.123c-.007.009,0,.021-.008.031s-.017.01-.023.021l-.539,1.214-.993.948s0,.013-.008.017-.012,0-.016.01l-.375.466c0,.006,0,.015,0,.021s-.015.006-.019.014l-.186.326c-.012.023,0,.046-.008.07s-.027.039-.027.065v.374h0l-.134,4.675v1.66l-.113,1.016-.4.914c-.008.018,0,.036,0,.055s-.022.03-.022.052v.205l-.813,3.313-.719,1.037c-.008.012,0,.027-.008.038s-.022.017-.026.029l-.166.5c-.005.016,0,.028,0,.045s-.018.025-.018.04v.789c0,.025.02.04.027.063s0,.044.007.066l1.65,3.011.493,1.231c.009.025.029.037.045.055s0,.027.015.035l.369.369-.034.081s0,.008,0,.012a.276.276,0,0,0,0,.1.255.255,0,0,0,.008.1s0,.009,0,.013l.07.139.186.411c0,.008.013.01.017.018s0,.011,0,.015l.524.82s.01,0,.014.008,0,.015.007.022l1.455,1.717h0v0l.718.816a.022.022,0,0,0,0,.009.288.288,0,0,0,0,.1.2.2,0,0,0,.019.1c0,.006,0,.016,0,.024l.174.261.007,0v.009l1.927,2.568,0,0,0,.006.263.322s.008,0,.012,0,0,.012,0,.016l.2.2c.024.024.056.023.085.035s.043.036.072.04l.137.018.663.715c0,.007.015,0,.021.009s0,.017.012.022l.9.7,1.921,1.716c.01.01.023.005.034.014s.01.02.021.025l.612.319a.238.238,0,0,0,.059.015c.007,0,.011.011.019.012l.81.145,1.529.432a.264.264,0,0,0,.072.011h.016l.458-.027.8.188a.24.24,0,0,0,.059.008h0a.3.3,0,0,0,.031,0l.748-.087.014,0,1.291-.178h0l4.169-.487.016,0,.934-.134,0,0h.017l.3-.067,1.364.789a.245.245,0,0,0,.028.008c.005,0,.007.009.013.012l1.4.517a.255.255,0,0,0,.093.017.263.263,0,0,0,.056-.007l1.45-.308s0-.006.008-.006a.213.213,0,0,0,.033-.006l2.794-1.089c.011,0,.013-.017.024-.022s.028-.006.042-.015l.88-.671,0,0,.006,0,.569-.467c.008-.006.006-.02.015-.028a.29.29,0,0,0,.055-.06l.016-.032.939.132a.229.229,0,0,0,.037,0h0a.248.248,0,0,0,.14-.041l.277-.175.348.4c0,.005.012,0,.017.008s0,.013.01.018l.808.7c.017.015.04.013.059.023s.021.026.039.03l2.155.646h0l1.966.585,1.434.745a.277.277,0,0,0,.09.022c.005,0,.008.007.013.007l1.4.107.02,0a.282.282,0,0,0,.085-.015l1.454-.484c.006,0,.007-.008.012-.011s.022,0,.033-.008l.377-.205,2.6,3.914h0l.8,1.173,0,0v.008l.34.453-.483,1.547-.139.343c-.006.018,0,.034,0,.051s-.02.028-.02.049v.249h0l-.063,1.923-.287,2.1,0,.009,0,.008-.124,1.694c0,.017.012.028.015.043s-.009.028,0,.044l.2.784c0,.014.017.021.023.033s0,.022,0,.031l.618,1.075c0,.008.017,0,.022.012s0,.023.011.031l1.19,1.352,1.619,2.171.211.384.134.3h0l0,.01a.265.265,0,0,0,.128.126s.006.009.012.012l.189.082.487.651h0l1.7,2.34-.169,1.331c0,.009.006.015.006.024s-.009.015-.008.024l.074,1.51,0,0v.007l.326,3.479v2.28l-.249,1.045-.991,1.3c-.006.008,0,.018-.007.026s-.016.009-.02.017l-.863,1.727a.049.049,0,0,0,0,.012s-.007,0-.008.008l-.593,1.455c0,.01,0,.02,0,.029s-.015.016-.016.028l-.271,1.675v0l0,.006-.214,1.766-.049.195c-.009.031.009.059.013.09s-.008.065.007.094v0h0l2.076,4.056c.006.014.019.019.028.028s0,.018.007.025l1.2,1.413.775,1.761v0h0l1.5,3.363.347,1.663-.141,1.835,0,.01,0,.011v1.586c0,.014.012.02.013.032s-.008.022,0,.033l.144.574c.005.025.027.039.039.06s0,.03.013.043l.646.791h0l1.061,1.343.346.764c0,.006.01.009.014.014s.018.02.028.031a.249.249,0,0,0,.117.086c.009,0,.013.015.024.017l.107.027.154,1.373c0,.016.016.025.02.039s0,.028,0,.04l.6,1.331c.006.014.019.019.026.028s0,.018.005.025l2.1,2.753.176.7-.061.484c0,.007.006.011,0,.018s-.006.009-.006.016v1.13c0,.028.021.045.028.071s0,.05.013.072l.788,1.25.527,1.12a.218.218,0,0,0,.047.052.169.169,0,0,0,.035.039.25.25,0,0,0,.16.063h.027l11.914-1.133.005,0c.016,0,.028,0,.044-.007l3.861-1.132c.036-.011.057-.045.083-.069s.041-.009.055-.027l5.238-6.832.776-.643c.011-.009.008-.024.016-.032.021-.024.047-.04.06-.071l.333-.8c0-.008,0-.015,0-.023s.011-.013.014-.023l.33-1.446.3-.792.338-.334c.011-.011.008-.027.017-.037s.038-.035.046-.061l.273-.742v-.008s0,0,0-.008l.363-1.191,1.187-.791.676-.3c.006,0,.006-.006.008-.008a.076.076,0,0,0,.022-.005l.66-.388s0-.011.011-.015.013,0,.019-.005l.505-.39c.006-.006.006-.017.011-.022s.016,0,.022-.009l.5-.545c.008-.009.006-.023.014-.032s.031-.028.039-.047l.272-.66c.006-.015,0-.029,0-.043s.019-.029.022-.046l.039-.808.579-4.02.27-.978c0-.013-.008-.024,0-.036s.016-.022.016-.035v-.812c0-.021-.019-.032-.025-.052s.009-.039,0-.059l-.238-.528-.089-.6.2-.525.561-.43.616-.192s0-.007.011-.008a.156.156,0,0,0,.024-.006l1.218-.561s0-.006.008-.008a.11.11,0,0,0,.019-.005l1.526-.915c.008,0,.008-.015.013-.02s.019,0,.027-.01l2.793-2.439c.011-.008.008-.023.017-.031s.018,0,.024-.012l.814-1.116c.006-.006,0-.013.006-.018s.013-.011.016-.019l.66-1.27c0-.007,0-.014,0-.02s.014-.013.017-.022l.459-1.424,0-.017c0-.008.011-.011.011-.019l.253-1.425.707-2.724,0,0,.005-.008.254-1.221c0-.009-.006-.017-.006-.027s.011-.014.011-.024l.028-1.449h0l.042-.6h0a.3.3,0,0,0-.033-.11c-.014-.028-.011-.062-.031-.083v0l-.369-.409-1.067-2.175-.247-.909v-.475l.283-.648s0-.011,0-.017.011-.008.011-.015l.437-1.488c0-.01-.005-.019,0-.028s.013-.018.013-.028l.089-1.141s-.006-.007-.006-.011.006-.006.006-.01v-1.969c0-.007-.006-.011-.006-.016s.006-.011,0-.016l-.008-.082.074-.142.346-.462c.008-.011,0-.024.011-.033s.024-.026.028-.042l.476-1.43c0-.007,0-.014,0-.02s.011-.014.011-.022l.283-1.7,1.468-1.355.647-.47s0-.009.008-.013a.28.28,0,0,0,.065-.107c.011-.024.029-.039.031-.063,0,0,.006-.006.006-.01l.083-.9.644-.822,2.172-1.788c.011-.009.008-.024.019-.033s.022,0,.027-.015l4.052-5.5,3.811-3.32c.016-.012.013-.031.024-.046s.024-.006.028-.017l2.167-3.589c.008-.014,0-.029.006-.042s.024-.028.028-.047l.364-1.948,1.158-2.747,1.352-2.269v-.005l0,0,.558-.99v-.008a.341.341,0,0,0,.011-.087.277.277,0,0,0,.008-.114v-.007l-.247-.742C4134.308,3180.841,4134.3,3180.838,4134.293,3180.828Zm-15.818-1.782,1.223,1.272c.014.012.029.009.042.018s.016.029.031.035l.055.027-.005.015-.092.186-.511.568-.311.221-.055-.013-.553-.555-.666-.909h0v0l-.2-.265.558-.16c.024-.007.031-.029.053-.042s.044-.008.063-.026Zm-11.27-.885s.008-.008.008-.014l.317-1.5,2.348-.054h0a.32.32,0,0,0,.063-.01l2.587-.713,2.327,1.7h.006l0,0,1.455,1,.569.781-.006,0a.267.267,0,0,0-.052.375l.369.495h0l.676.925s.013,0,.019.009,0,.016.008.023l.618.62c.019.019.047.016.069.028s.033.035.057.042l.129.031.627,1.252c.008.016.024.024.033.037s0,.019.011.026l.99,1.052c.008.008.019.005.027.012s.008.021.019.028l1.114.742c.011.008.024.005.036.011s.008.014.016.017l1.3.5.006,0h0l3.525,1.237a.26.26,0,0,0,.071.012l.008,0,.991.046-.228.608-2.134,2.8-1.152,1.334-1.067.77-1.433.657-1.389.3-2.712.432c-.016,0-.024.019-.036.023s-.031,0-.044,0l-.514.266-.592-.743c0-.008-.016-.007-.024-.014s-.006-.017-.011-.023l-.314-.269-.016-.014c-.027-.023-.058-.019-.086-.028s-.055-.036-.088-.036h-.19c-.018,0-.031.017-.049.021s-.037-.006-.055,0l-.66.283c-.011,0-.011.015-.019.019s-.019,0-.027,0l-2.592,1.743,0,0-.006,0-.417.3-.414-.1-1.193-.642h-.008l0-.006-3.257-1.572-.06-.238c0-.011-.013-.015-.019-.025s0-.022,0-.031l-.36-.721c0-.012-.022-.013-.027-.024s0-.021-.011-.03l-1.08-1.258h0l0-.005-1.617-1.8c-.008-.007-.019-.005-.024-.012s-.008-.017-.016-.024l-.988-.741-.066-.526,1.764-3.523v-.008l0-.006.978-2.223,1.24-1.683c.008-.009,0-.023.008-.032s.027-.024.031-.04l.629-1.888S4107.2,3178.167,4107.205,3178.161Zm2.76-7.812,2.037,2.589c0,.009.021.006.028.014s.008.026.019.033l3.079,2.332,2.656,2.381.377.9-.385.385-.407.117-.64-.879c-.011-.015-.028-.013-.039-.025s-.013-.029-.027-.038l-1.493-1.028h0l-2.425-1.771c-.005,0-.01,0-.016,0a.219.219,0,0,0-.091-.023.245.245,0,0,0-.107-.015c-.006,0-.008,0-.014,0l-2.678.738-2.23.052.327-3.616.779-1.811.629-.769Zm-6.285-8.74c.008,0,.016,0,.021-.006l.086-.043,3.221,3.747,1.418,1.858.679,1.7-.074.573-.759.928c-.009.012,0,.027-.011.038s-.022.014-.027.027l-.81,1.887c-.006.014,0,.027,0,.039s-.022.026-.022.042l-.36,3.948-.351,1.667-.613,1.837-1.235,1.675c-.008.009,0,.021-.008.031s-.019.011-.021.02l-.991,2.249-1.792,3.582c-.014.027,0,.053-.006.08s-.024.047-.021.075l.091.72v0c0,.016.019.028.024.043a.257.257,0,0,0,.077.127l.005.01,1.059.794,1.6,1.778h0l1.05,1.225.333.667.066.262-.1.363h-1.866c-.019,0-.031.018-.05.022s-.033-.008-.052,0l-1.08.449-1.046.436-2,.261-.891-.081-1.023-.681c-.011-.007-.021,0-.033-.007s-.014-.019-.025-.023l-3.684-1.348h0l0,0-1.859-.62-.819-.518h0l0,0h0l-.849-.537-3.31-2.595h0l0,0-.718-.539c-.013-.01-.028,0-.044-.011s-.019-.024-.031-.028l-1.045-.348-.605-.378-.242-.966-.086-.695c0-.012-.013-.018-.016-.028s.006-.025,0-.035l-.451-1.169c0-.008-.013-.009-.016-.018s0-.016,0-.024l-1.04-1.743.143-1.464c0-.028-.016-.047-.021-.073s.005-.05-.006-.074l-.466-.93c-.006-.012-.022-.015-.029-.026s0-.025-.01-.033l-.679-.753-.226-.4.083-.17h0l.388-.7,0-.007s0,0,0-.008l1-2.074.568-.926.535-.2h0l.921-.307c.013,0,.016-.019.027-.025a.247.247,0,0,0,.091-.08.182.182,0,0,0,.036-.057c0-.01.019-.017.021-.028l.234-.93c0-.014-.008-.026-.008-.04s.016-.024.016-.037l-.079-1.629-.079-1.7.039-2.141,0-.011,0-.009-.063-1.134v-.09l.03-.016.682.1.4.282a.21.21,0,0,0,.091.028c.011,0,.019.018.031.019l.031,0a.256.256,0,0,0,.194-.1c.008-.009.019-.006.027-.014s.006-.039.014-.059.03-.037.033-.064l.063-.51c0-.014-.01-.023-.01-.034s.01-.024.01-.037l-.192-1.276c0-.01-.013-.015-.016-.025s.006-.017,0-.026l-.437-1.251-.053-.416.215-.561.8.054,1.483.4.018,0h0l3.627.684.008,0h0l2.324.342.039,0h.018l2.17-.136h.019l0,0a.25.25,0,0,0,.044-.005l2.807-.684c.005,0,.005-.007.011-.01a.128.128,0,0,0,.033-.006l1.694-.748,1.708-.613C4103.674,3161.615,4103.677,3161.61,4103.68,3161.609Zm1.132,38.342,0,0v.632l-.666.943c-.016.022-.008.047-.016.071s-.031.041-.031.066l-.121,1.727,0,.008,0,.011v.131l-1.751-.449c-.021-.007-.039.008-.06.008s-.039-.017-.06-.012l-1.166.233h-.356l-.517-.413a.258.258,0,0,0-.181-.055c-.008,0-.016-.007-.021,0l-.006,0-.476.058c-.021,0-.034.023-.052.03s-.045,0-.063.013l-.716.476c-.021.014-.021.037-.036.053s-.036.018-.047.037l-.2.344-.654.3-1.086.11-.272-.1-.089-.522.344-2.163.233-.373.592-.322,1.295-.589c.039-.017.055-.055.081-.086.011-.013.031-.008.042-.024l.239-.417c.008-.013,0-.028,0-.042a.183.183,0,0,0,.011-.1.252.252,0,0,0-.016-.1c0-.014,0-.028-.008-.04l-.383-.6-.112-1.172v-.544l.22-.714.577-1.17.805.073h.024a.155.155,0,0,0,.034,0l2.07-.269s0-.006.011-.007a.244.244,0,0,0,.057-.012l.918-.381,1.837,1.772.273.455-.427,1.067c-.006.015,0,.028,0,.044s-.019.028-.019.047l-.064,1.966Zm-6.667,6.977.044.359s.006.006.006.012l0,.012.22,1.017-.036.455-.192.343-.627.836-.608.179-.222-.083-.611-.654-.377-.961v-1.151l1.161-.232h0l1.273-.274a.234.234,0,0,0-.013.048c0,.03-.027.055-.024.087Zm-1.347-.4h0l-1.24.248v-.14l.082-.373.542-1.551.22.083a.228.228,0,0,0,.094.019h.028l1.088-.11.262.2.294.628c0,.012.019.019.027.029s0,.014,0,.021l.377.494-.019.08Zm-24.691-9.584c0,.014-.015.021-.016.033l-.035.7-.38.275-.6-1.209-1.406-3.047-.436-1.089.189-1.129,1.064-1.543c0-.007,0-.015,0-.021s.016-.015.022-.026l.272-.635,3.216-.554c.006,0,.007-.006.012-.008a.3.3,0,0,0,.046-.009l.93-.388c.008,0,.011-.015.019-.019s.024,0,.034-.012l.854-.62s0-.01.009-.014a.3.3,0,0,0,.062-.1c.011-.025.031-.044.034-.072,0,0,0-.006,0-.01l.068-.806.419-.3,4.788-2.242c.01,0,.01-.015.018-.02s.025,0,.034-.012l1.622-1.283.918,1.538.432,1.116.083.685c0,.006.008.009.008.014s0,.013,0,.019l.269,1.08a.284.284,0,0,0,.11.152c.006,0,.006.008.008.011l.721.451c.013.008.027.006.039.012s.011.012.019.014l1.037.345.684.516h0l3.321,2.6.013,0c.006,0,.006.009.008.012l.622.393-.031.048H4090c-.014,0-.022.012-.034.014s-.024-.008-.036,0l-2.437.656s-.008.009-.016.012-.011,0-.016,0l-2.931,1.209-2.585.554-1.078.085-.866-.454-.855-1.033v0l0,0c-.013-.016-.033-.015-.05-.028a.27.27,0,0,0-.126-.07l-.421-.047a.348.348,0,0,0-.074.024c-.028.005-.063,0-.091.012l-.327.189c-.025.015-.029.043-.047.063s-.053.034-.066.063l-.362.846-1.12.166c-.016,0-.024.019-.037.024s-.028,0-.042,0l-.562.28c-.024.012-.028.038-.047.055s-.045.021-.06.043l-.234.375v0l-.005,0-.451.793-1.43-.185c-.022,0-.038.015-.059.016s-.039-.011-.061,0l-.618.207c-.022.006-.028.028-.046.039s-.043.009-.059.025l-.33.33c-.016.016-.012.039-.024.058s-.034.027-.042.047l-.248.743C4072.1,3196.923,4072.11,3196.936,4072.107,3196.949Zm-1.492-11.726c0-.021.005-.041,0-.061l-.1-.207-.108-.266h0l-.273-.709c0-.006-.009-.008-.013-.013s0-.015,0-.021l-.934-1.7s-.008,0-.011-.009,0-.01,0-.014l-.6-.88-.336-.553-.694-1.441-.245-.588v-.782l.264-1.327.43-.981,1.347-1.8c.006-.01,0-.021.006-.029s.022-.02.029-.033l.844-2.144c0-.016,0-.031,0-.047s.018-.027.018-.043l.065-2.2.059-.959.723-.963.374-.373a.269.269,0,0,0,.08-.191v-.586c0-.019-.016-.03-.02-.047s.008-.032,0-.05l-.325-.844s-.009-.007-.012-.012,0-.013,0-.02l-.906-1.679-.492-1.234v-.73c0-.022-.018-.034-.023-.054a.243.243,0,0,0-.109-.158c-.012-.008-.017-.023-.031-.028l.882-.368,1.214-.182,1.245.119,3.905,2.329.008,0,0,0,3.368,1.779,2.6,1.9c.008,0,.016,0,.024.008s.006.01.011.013l1.213.639a.422.422,0,0,0,.042.011c.008,0,.01.012.018.013l.509.129h.013v0l.32.063a.233.233,0,0,0,.052.005.308.308,0,0,0,.066-.008l.17-.042-.033,1.8,0,.008,0,.01.079,1.707h0l.076,1.59-.189.75-.789.262-.005,0h-.006l-.621.234c-.028.012-.041.041-.066.062s-.052.024-.068.049l-.621,1.009s0,.01,0,.015-.008,0-.011.009l-1,2.08-.388.7v.008l-.005,0-.154.311c0,.008,0,.018,0,.027a.192.192,0,0,0-.008.1.222.222,0,0,0,.01.093c.006.01,0,.021.006.029l.308.542c.006.008.019,0,.025.013s0,.024.01.032l.674.749.415.828-.135,1.362-1.748,1.382-4.782,2.237c-.008,0-.01.015-.018.02s-.017,0-.025,0l-.542.388v0a.255.255,0,0,0-.069.107.237.237,0,0,0-.036.077s-.005.006-.005.01l-.069.808-.731.531-.871.364-3.107.535-.143-.391c-.005-.014-.02-.018-.027-.03s0-.027-.009-.037l-1.1-1.483v0h0l-.693-.906-.116-.272.005-.021.209-.121.389.043.861.216a.3.3,0,0,0,.065.008.256.256,0,0,0,.175-.073s.011,0,.015-.006l.165-.165c.016-.016.013-.039.024-.058a.236.236,0,0,0,.037-.091A.263.263,0,0,0,4070.615,3185.223Zm-41.69-3.435c0-.012.009-.021.006-.032l-.224-1.12c0-.014-.016-.019-.02-.03s0-.023,0-.033l-.522-1.083s-.007,0-.008-.008v-.011l-.524-.9c-.006-.011-.02-.012-.028-.022a.249.249,0,0,0-.08-.062.228.228,0,0,0-.09-.036c-.014,0-.022-.015-.034-.015h-.97c-.007,0-.012.009-.019.009s-.012-.007-.02-.006l-.523.077c-.02,0-.03.022-.049.028s-.037,0-.055.009l-.479.3h0l-.385.226h-.221l-.787-.231-.249-.276-.077-.226.034-.268c0-.026-.015-.044-.019-.069s.009-.047,0-.071l-.326-.773-.454-1.362-.316-1.217a.253.253,0,0,0,.145-.163l.055-.216.2-.444.4-.284.809.4a.253.253,0,0,0,.113.028l0,0,5.056.059h.01l3.867-.118h0l.012,0,.774-.06c.013,0,.02-.013.032-.017a.282.282,0,0,0,.109-.035l.475-.357c.007-.006,0-.015.012-.02a.274.274,0,0,0,.082-.11l.178-.534c.006-.015-.005-.029,0-.043s.017-.027.017-.042v-.476a.266.266,0,0,0-.079-.191l-.336-.334-.582-.9V3156.2h1.487l4.129,3.77.009,0s0,.007.005.01l4.206,3.33s.009,0,.014.005l.007.01,4.456,2.881,1.745,1.4.006,0,0,0,.718.523-.365.392c-.024.027-.023.062-.035.094s-.038.054-.038.089v.677l-.075,1.718,0,.005,0,.007v1.751l-.183.427-.566.565-3.356.147c-.006,0-.01.008-.018.01s-.013-.006-.018,0l-1.654.3,0,0h-.006l-.624.138-.9-.156c-.006,0-.008,0-.014,0s-.006,0-.011,0l-.673-.054c-.028-.005-.044.016-.069.02s-.037-.008-.056,0l-3.1,1.295h0l-1.551.673c-.011,0-.012.017-.022.022s-.023,0-.031.008l-1.6,1.191-.006.009-.008,0-1.034.879s0,.009-.007.013-.01,0-.014,0l-1.4,1.449s0,.013-.007.017-.012,0-.016.01l-.727.98-.439.586-.667.452-1.4.742-.68.2-.346-.024.039-.959C4028.937,3181.807,4028.926,3181.8,4028.925,3181.788Zm3.4.035c.015-.011.016-.029.028-.041s.029-.007.037-.019l.465-.621v0h0l.717-.973,1.373-1.425,1.009-.858,1.582-1.173,1.522-.659,3.042-1.268.378.028.034.446c0,.02.018.031.024.049s0,.034,0,.05l.672,1.344c0,.007.011.01.015.017s0,.009,0,.013l1.706,2.536c.007.011.022.007.03.016s.009.03.021.04l1.227,1.021.008.01-.125.092-.408.254c-.009.005-.009.018-.017.024s-.019,0-.027.011l-1.087,1.035c-.005,0,0,.012-.008.017s-.012,0-.016.009l-.381.477-.375.206-1,.144-.629-.1-1.39-.255c-.011,0-.021.007-.031.007s-.022-.015-.034-.011l-1.654.1s-.006,0-.01.005l-.012,0-.716.1-.466.051c-.032,0-.052.03-.079.045a.232.232,0,0,0-.087.047.236.236,0,0,0-.038.092c-.011.028-.035.05-.035.083V3183l-.051,1.32-.1.734-.019.045-.114-.143-.008,0,0-.008-.4-.444h0a.287.287,0,0,0-.106-.05c-.029-.012-.051-.035-.081-.036h0l-1.345-.045-1.654-.522h0l-.82-.247-.414-.452-.387-.729c0-.011-.02-.012-.027-.023s0-.022-.01-.03l-.2-.218Zm13.039-2.885-1.678-2.487-.642-1.285-.022-.276.615.106a.249.249,0,0,0,.045,0,.278.278,0,0,0,.058-.007l.676-.149h0l1.619-.295,3.449-.151c.037,0,.061-.029.093-.043s.062-.012.084-.035l.678-.677c.009-.009,0-.022.014-.032s.033-.029.044-.052l.224-.527c.008-.019,0-.035,0-.054s.021-.031.021-.051v-1.8l.075-1.717v-.006l0-.006v-.572l.412-.443.922.078h.022a.273.273,0,0,0,.133-.035l1.84-1.05s0-.011.011-.014.013,0,.018-.006l2.535-1.924h0l1.825-1.3,2.6-1.387,4.4-1.783.958-.062h.408l.561.506c.011.009.026.006.036.015s.012.021.023.026l.51.255a.258.258,0,0,0,.119.028h.781l.4.149v.595c0,.02.016.031.02.048s-.006.034,0,.051l.52,1.3c0,.006.008.008.01.014s0,.011,0,.015l.9,1.678.3.778v.424l-.31.31c-.005.006,0,.014-.006.019s-.014,0-.019.011l-.781,1.04c-.015.021-.01.045-.018.07s-.033.044-.035.075l-.064,1.038v.01l-.063,2.164-.812,2.065-1.344,1.793c-.007.009,0,.023-.008.031s-.018.012-.023.022l-.455,1.04c0,.01,0,.02,0,.028s-.015.017-.017.027l-.22,1.1-.372-.093s-.008,0-.014,0a.947.947,0,0,0-.2.04s-.009,0-.013,0l-.774.566-1.534.513h-.591l-.748-.4-.01,0-.006-.006-1.078-.484c-.013-.005-.027,0-.04,0s-.02-.019-.034-.02l-.807-.107c-.019,0-.034.013-.053.014a.238.238,0,0,0-.1.029.229.229,0,0,0-.069.056c-.014.016-.036.02-.046.039l-.356.66-.509.46-.444.112-.432-.388c-.021-.02-.049-.016-.074-.027s-.04-.036-.068-.04l-1.563-.215c-.015,0-.026.011-.039.011s-.026-.012-.039-.01l-.7.108c-.02,0-.028.021-.046.028s-.039,0-.057.009l-.526.334h-.48l-.564-.421-1.181-1.021c-.008-.008-.02,0-.029-.009s-.009-.019-.019-.025l-.7-.377c-.008-.005-.019,0-.027,0s-.012-.016-.022-.019l-.7-.215c-.015,0-.027.006-.04,0s-.023-.016-.038-.016h-.647l-.01,0a.32.32,0,0,0-.093.039.283.283,0,0,0-.091.047l-.011,0-.592.7h0l-1.024,1.24c-.009.012,0,.028-.012.04s-.025.019-.031.034l-.554,1.458-.3.135-1.6-.352-.1-.1s-.009,0-.013,0,0-.008-.006-.011Zm41.346-32.973a.25.25,0,0,0,.118.028h.666l4.66-.165v0h.029l2.246-.327c.005,0,.005-.006.01-.006a.142.142,0,0,0,.042-.008l2.519-.912,2.991.284,1.561,2.933.184.487v.761l-.5.752c-.011.019,0,.039-.011.059s-.031.04-.034.068l-.068.8-.008.042-.382-.475-.394-.989c-.008-.016-.024-.02-.033-.034s0-.033-.016-.047l-.685-.752h0l-.952-1.091-.008,0c-.024-.026-.06-.03-.091-.045a.248.248,0,0,0-.094-.038l-.008,0h-.275l-.008,0a.282.282,0,0,0-.1.038c-.03.017-.065.022-.088.047l-.008,0-.412.479c-.016.017-.011.038-.019.057s-.036.037-.042.066l-.068.343c0,.027.011.047.013.073s-.01.049,0,.075l.2.546a.231.231,0,0,0,.031.037c0,.01,0,.022.008.03l1.1,1.436h0l0,0,.721.916.325,1.18s.008.006.008.012,0,.008,0,.012l1.575,4.1c0,.011.013.016.019.026s0,.019,0,.027l1.017,1.562,1.075,2.411.055.224v.075l-.11.055-1.7.609-.008.008h-.011l-1.685.744-2.766.673-2.131.133-2.3-.338h0l-3.594-.678-1.5-.41c-.011,0-.019,0-.028,0s-.014-.012-.024-.012l-.82-.055-.16-.8-.068-4.355c0-.008-.008-.013-.011-.021s.008-.014.005-.022l-.61-3.537-.069-3.188.066-.869c0-.02-.013-.031-.016-.05s.011-.033.005-.052l-.4-1.27-.057-.939.852-.859Zm-22.193-2.225c.014-.016.009-.038.02-.057s.04-.045.045-.079l.1-.594c0-.02-.012-.035-.012-.055s.012-.034.008-.054l-.083-.333.536-.13,1.012.2,2.256.969,5.628,3.5c.009.006.019,0,.029.008s.006.01.012.013l.931.383a.206.206,0,0,0,.054.011c.005,0,.008.007.013.008l1.205.164.036,0h.6a.241.241,0,0,0,.1-.022l.383-.164c.016-.007.019-.023.028-.03a.222.222,0,0,0,.076-.076.215.215,0,0,0,.039-.079c0-.015.019-.023.019-.038l.11-1.205c0-.016-.013-.028-.013-.043s.01-.029.005-.045l-.209-.838.049-.988.9-.713,1.172-.307h.885l.336.041.432.385h0v0l.878.766c.013.012.03.009.046.017s.017.026.031.031l1.26.494a.275.275,0,0,0,.1.019h.877a.286.286,0,0,0,.084-.015l.442-.146.49.04.595.713-.9.908,0,.008a.207.207,0,0,0-.037.091c-.013.034-.036.063-.033.1l0,.008.069,1.094c0,.012.01.02.013.031s0,.021,0,.032l.4,1.25-.066.838c0,.005.006.008.006.013s-.006.008-.006.014l.069,3.215c0,.008.008.012.008.02s-.006.013-.006.021l.614,3.536.068,4.358c0,.009.008.015.011.024s-.008.016-.006.026l.192.95-.283.735c-.011.023,0,.043,0,.066s-.019.04-.016.064l.063.51c0,.011.014.018.016.028s-.005.019,0,.028l.437,1.25.184,1.222,0,.024-.082-.056c-.018-.015-.041-.007-.063-.015s-.031-.028-.052-.031l-.831-.129c-.028-.006-.052.015-.081.019s-.056-.007-.08.007l-.253.129c-.016.006-.016.024-.028.032a.232.232,0,0,0-.066.076.215.215,0,0,0-.036.09c0,.015-.019.026-.019.041v.253l.005.008,0,.007.05.927-.239.059-.247-.048-.481-.122-1.161-.611-2.6-1.9s-.013,0-.021-.005-.006-.012-.014-.016l-3.376-1.784-3.951-2.358c-.019-.011-.039,0-.058-.009s-.032-.026-.054-.028l-1.34-.129c-.014,0-.022.01-.034.01s-.02-.01-.031-.008l-1.276.193c-.012,0-.018.015-.029.019s-.023-.006-.034,0l-1.481.617h-.714l-.42-.211-.612-.55c-.023-.021-.053-.017-.08-.028a.238.238,0,0,0-.1-.04h-.509l-.008,0-.009,0-.941.061-.563-.308-.213-.425-.377-.945c-.007-.016-.026-.021-.034-.033a.239.239,0,0,0-.069-.073.244.244,0,0,0-.088-.04c-.017,0-.028-.021-.045-.023l-1.286-.062-.958-.479-.7-.409-.236-.378.119-1.315h0v0l.192-2.615c0-.008-.006-.012-.006-.021s.006-.01.006-.018l-.349-5.019.061-.045.728-.388.007-.009a.262.262,0,0,0,.114-.125l.234-.562.432-.561.528-.22c.045-.019.066-.059.093-.093.011-.012.029-.008.038-.023l.644-1.14v-.012c0-.006.008-.007.009-.012l.379-.851Zm-3.649-8.149c.01,0,.012-.012.02-.016a.279.279,0,0,0,.051-.015l1.176-.737.215-.106.01.013.286.332c.012.015.032.011.047.023a.281.281,0,0,0,.125.07l.239.028.42,1.048.048,1.392c0,.024.02.037.027.06s0,.041.007.062l.668,1.194-.341.24,0,.007h-.005l-.645.495c-.018.015-.018.038-.032.055s-.037.024-.048.044l-.3.643c-.012.027,0,.054,0,.082s-.022.048-.017.077l.1.594c.006.032.03.052.046.079s0,.038.019.054l1.048,1.19.118.475-.079.463-.4.439c-.011.012-.007.028-.015.041s-.025.015-.031.028l-.389.873-.6,1.054-.508.212c-.023.01-.03.034-.048.049s-.046.016-.062.035l-.5.644c-.008.01,0,.024-.009.034s-.02.014-.025.026l-.211.506-.659.351c-.007,0-.008.014-.015.019s-.014,0-.02.006l-.033.025-.033-.412.05-1.32c0-.007-.005-.011-.007-.018s.007-.012.006-.018l-.149-1.588c0-.024-.023-.036-.03-.059s0-.039-.009-.056l-1.553-2.524-.092-1.109v-.061l.2-.169v0l.644-.544c.01-.008.008-.022.016-.03a.253.253,0,0,0,.066-.087l.743-2.181c.006-.018-.005-.033,0-.051s.017-.029.017-.048l-.05-.99c0-.016-.014-.026-.017-.039s.007-.028,0-.042l-.147-.4c-.011-.028-.039-.037-.057-.06s-.021-.052-.047-.07l-.106-.071Zm-16.9,3.9c.009-.006.009-.019.017-.025a.244.244,0,0,0,.058-.083.271.271,0,0,0,.038-.09c0-.011.012-.018.012-.028v-.619c0-.007-.007-.011-.007-.018s0-.01,0-.017l-.023-.177,1.382-.36.006,0a.18.18,0,0,0,.02,0l1.333-.494h0l2.842-1.029,1.173-.095,1.458.2c.012,0,.023,0,.035,0h.014l2.973-.149,0,0h0l1.469-.1h0l.015,0h0a.234.234,0,0,0,.046-.005l1.36-.341,1.074-.043.451.3.1.278.044.9-.7,2.063-.585.495h0l-.3.249,0,.011a.283.283,0,0,0-.049.093.265.265,0,0,0-.036.09s0,.006,0,.012v.2s0,.007,0,.012l0,.011.1,1.189c0,.024.022.037.03.06s0,.039.009.058l1.554,2.524.142,1.51-.049,1.315c0,.007.005.01.005.017s-.005.009-.005.016l.051.644c0,.008.008.013.009.021s0,.015,0,.023l.05.2c0,.012.015.018.019.028s0,.019,0,.028a.229.229,0,0,0,.054.058.175.175,0,0,0,.035.037.246.246,0,0,0,.1.039l.335,4.806-.191,2.6v0l-.126,1.4c0,.03.019.052.025.082s0,.058.014.083l.318.511c.009.016.029.011.041.024s.026.051.051.068l.767.445.01,0,0,0,1.021.511a.237.237,0,0,0,.093.023s.008.007.013.007l1.169.056.318.8.008.011s0,.007,0,.011l.255.51a.294.294,0,0,0,.107.111l0,0,.206.111-3.926,1.593c-.006,0-.006.008-.011.011s-.011,0-.015,0l-2.628,1.4c-.006,0-.006.011-.013.015s-.012,0-.017,0l-1.84,1.314,0,0h0l-2.527,1.918-1.754,1-.892-.075-.9-.658-1.743-1.394s-.01,0-.015,0,0-.009-.008-.012l-4.455-2.881-4.2-3.326-4.182-3.82h0l-.008-.008-4.118-3.761v-1.193c0-.033-.024-.055-.035-.085s0-.062-.027-.086l-.142-.171.129-.445v0l0-.005.135-.534.993-.852,1.633-.792,1.563-.3,0,0,.017,0,1.649-.465c.006,0,.007-.008.014-.01s.023,0,.033-.008l.618-.308c.017-.008.02-.028.034-.04s.033-.007.045-.02l.44-.489,1.323-.833,1.407-.4.006,0a.1.1,0,0,0,.019,0l1.956-.77c.008,0,.009-.013.017-.017s.022,0,.031-.01l1.317-.861.342-.148c.009,0,.01-.016.02-.021a.253.253,0,0,0,.088-.09c.012-.02.029-.031.034-.053,0-.006.009-.01.011-.017l.205-.824c0-.012,0-.021,0-.032a.252.252,0,0,0-.015-.1.135.135,0,0,0-.028-.092c-.007-.011,0-.024-.013-.032l-.465-.465c-.016-.017-.04-.013-.059-.025s-.028-.035-.051-.042l-.824-.256c-.012,0-.022.005-.034,0s-.019-.014-.031-.015l-.886-.043-.235-.4.1-.486.549-.255s0-.009.01-.012a.082.082,0,0,0,.021-.005Zm-18.147,9.452,1.092-.793,1.314-.606v0l.773-.362c.006,0,.006-.01.011-.012s.016,0,.024-.008l.772-.514s0-.008.008-.012.01,0,.015-.006l.618-.516c.016-.014.015-.035.028-.051s.026-.008.032-.02l.36-.618c0-.009,0-.021,0-.029s.019-.02.023-.032l.361-1.288s0-.008,0-.013.006-.008.006-.013l.248-1.382.93-1.3,1.436-.24.008,0a.256.256,0,0,0,.032-.006l.773-.256c.012,0,.015-.018.026-.023s.033,0,.048-.016l.554-.4h0l.01-.008c.007-.006.006-.014.012-.019a.261.261,0,0,0,.077-.091l.613-1.429.323-.6.807-.521.538-.269.5.038.447.4c.012.01.028.008.041.016s.015.024.029.029l1.03.465a.471.471,0,0,0,.053.012c.005,0,.008.006.013.008l1.236.206a.225.225,0,0,0,.044,0h.016l1.786-.1h0l.02,0,.62-.045.019.153v.459l-.424.267-.658.307c-.005,0-.006.011-.012.015a.229.229,0,0,0-.072.079.222.222,0,0,0-.054.079c0,.007-.009.009-.011.016l-.151.707,0,.012c-.007.031.012.058.016.089s0,.071.014.1l.361.618c0,.008.016.006.021.012a.259.259,0,0,0,.2.123l1,.049.729.227.308.309-.137.547-.239.1c-.008,0-.009.014-.017.019s-.016,0-.023,0l-1.311.858-1.928.758-1.426.41c-.014,0-.019.019-.031.026s-.027,0-.038.007l-1.391.874c-.011.007-.012.023-.022.03s-.026.007-.035.017l-.429.478-.547.272-1.613.454-1.588.307c-.013,0-.018.016-.03.02s-.025,0-.035,0l-1.7.824c-.011,0-.012.019-.023.025s-.026,0-.035.012l-1.082.926c-.024.022-.024.051-.039.078s-.04.035-.046.062l-.155.617-.11.38h-2.544l-1.712-.232h0l-1.482-.232Zm-10.012,12.4.143-.253.346-.429,1.019-.974c.009-.009.006-.023.013-.031s.036-.031.046-.054l.549-1.233.825-1.1h0l1.17-1.542c0-.007,0-.015,0-.022s.011,0,.014-.008l.7-1.217c.01-.017,0-.036.007-.055s.026-.033.028-.056l.042-.5.334-.544.887-1.259,0-.011.006,0,.5-.81.394-.356,1.116-.357,0,0a.152.152,0,0,0,.018,0l.511-.213h.493l1.473.231h0l1.732.235.037,0h2.635l.09.108v1.213l0,.007v.008l0,0,.094,1.358c0,.008.008.012.01.02s0,.014,0,.02l.035.159-.73.123h-3.019l-1.891-.14h-.011a.248.248,0,0,0-.256.189c-.007.019-.028.029-.029.049l-.14,1.265v.007l0,.008-.177,3.093-1.094.35h-1.177c-.027,0-.043.021-.066.028s-.046,0-.067.009l-.327.19v0c-.031.018-.045.055-.066.083s-.05.046-.058.08h0l-.047.186c0,.013.007.022,0,.033s-.013.02-.013.032v.655l-.042,1.143-.4.368h-.551l-.01,0s-.005,0-.009,0l-1.292.093h-3.733l-.077-.038v-.142Zm-.277,7.832c.006-.014,0-.026,0-.038s.019-.024.02-.039l.12-1.072s0-.009,0-.014.006-.011.006-.017v-1.665h0l.124-4.278c.008,0,.016.006.024.006h3.791l.018,0,1.293-.092h.654a.274.274,0,0,0,.182-.071l.56-.516,0,0a.251.251,0,0,0,.065-.143c0-.014.019-.026.019-.041l.047-1.264v-.006l0-.005v-.625l.01-.043.165-.094h1.148a.23.23,0,0,0,.081-.014l1.311-.418c.019-.007.027-.027.043-.036a.225.225,0,0,0,.079-.068.213.213,0,0,0,.039-.083c.006-.02.025-.032.026-.053l.186-3.272.112-1,1.661.124h3.062a.225.225,0,0,0,.044,0l.842-.141,0,0h.016l.188-.045c.034-.009.053-.038.079-.058s.066-.031.085-.062a.248.248,0,0,0,.017-.1c.006-.032.026-.063.018-.1l0-.007-.087-.393-.047-.671,3.2,2.922h-1.167a.27.27,0,0,0-.269.269v14.871c0,.028.022.044.029.07s0,.052.013.076l.639.993c.005.008.017,0,.024.013s0,.023.013.031l.278.278v.323l-.138.412-.348.261-.681.052h0l-3.863.117-4.988-.058-.9-.448c-.014-.007-.028,0-.042,0a.26.26,0,0,0-.092-.008.233.233,0,0,0-.1.023c-.012.005-.027,0-.037.008l-.595.417c-.021.016-.024.042-.039.062s-.041.027-.052.05l-.225.507-.518-.518-1.416-1.826-.652-.89s-.008,0-.011-.007l0-.013-.476-.535h0c-.024-.029-.063-.033-.1-.049s-.055-.039-.087-.041h0l-2.259-.118c-.006,0-.008,0-.014,0s-.008,0-.012,0l-1.292.056-.191-.023Zm-.023,10.961-.477-1.194c0-.005-.01-.007-.012-.012s0-.012,0-.018l-1.625-2.966v-.678l.14-.419.726-1.046c.008-.014,0-.028.009-.042s.027-.028.031-.047l.777-3.161.24.028.032,0h.012l1.295-.058,2.136.113.394.443.645.88h0v0l1.428,1.844c0,.005.01,0,.014.008s0,.013.009.019l.6.6.394,1.52s0,0,.006.008v.01l.456,1.37.008.01v.01l.305.72-.015.116-1.377.116h-1.527l-.006,0-.007,0-.832.041c-.028,0-.047.025-.073.033s-.051,0-.072.019l-.456.333c-.006,0-.006.013-.011.017s-.015,0-.02.01l-1.065,1.065-.745.624-.432.134-.513-.064Zm2.607,3.815-1.442-1.7-.5-.785-.174-.38.41.051a.315.315,0,0,0,.033,0h0a.257.257,0,0,0,.078-.012l.538-.167c.016,0,.022-.022.036-.029s.041-.007.057-.022l.789-.664,0-.012.011,0,1.065-1.065.371-.27.752-.038h1.543l1.431-.122.023.07c.008.024.028.035.04.055s0,.028.013.037l.337.375c.016.018.042.014.06.028s.037.043.065.051l.9.261a.292.292,0,0,0,.075.011h.335a.275.275,0,0,0,.136-.036l.447-.262,0,0,0,0,.436-.268.451-.066h.8l.439.754.5,1.042.212,1.057-.047,1.177h0v.007l-.137,3.337-.2.621-.7.812h0l-.284.311-.355-.026-.006,0-.008,0-1.345-.029-.028-.855h0v-.561c0-.023-.019-.036-.024-.059s.005-.042,0-.062l-.224-.448c-.012-.026-.039-.031-.058-.05a.183.183,0,0,0-.177-.08c-.024,0-.044-.016-.068-.011l-.467.113-.434.1h-.023l-.06-.051-.03-.445-.038-1c0-.011-.01-.016-.011-.027s.005-.016,0-.024l-.112-.484v0l-.036-.149c-.007-.029-.034-.043-.05-.068s-.016-.056-.039-.076l-.224-.187c-.02-.017-.047-.012-.07-.021s-.034-.032-.059-.036l-.932-.149c-.009,0-.016.007-.026.005s-.016-.009-.025-.009l-1.269.036c-.006,0-.01.007-.017.007s-.01,0-.016,0l-.747.112s0,.006-.009.006a.261.261,0,0,0-.089.054c-.028.02-.062.029-.082.057,0,0-.007,0-.008.007l-.539.864-.24.213-.226.019Zm3.7,4.369h-.322l-.117-.015-.137-.137-.241-.3v0l-1.92-2.56-.007-.009.137-.012c.023,0,.035-.023.056-.028a.25.25,0,0,0,.1-.038l.336-.3c.012-.011.011-.028.02-.042s.023,0,.028-.016l.494-.79.612-.092,1.229-.034.83.132.1.084.016.063h0l.106.457.038.981v.007l.036.561v0c0,.02.019.033.026.053a.263.263,0,0,0,.066.125l0,.007.224.188a.277.277,0,0,0,.172.063h.111l-.153.29-.629.6-.829.607Zm6.874,3.711-.124.266-.147.115-.364.022-1.5-.425s-.008,0-.014,0-.006-.007-.012-.008l-.775-.14-.548-.287-1.9-1.7-.01,0,0-.008-.888-.688-.343-.372.373-.139c.01,0,.013-.018.024-.023s.028,0,.04-.014l.876-.642c.006,0,0-.011.01-.016s.012,0,.017-.007l.671-.643c.008-.008.005-.02.012-.028s.031-.024.04-.042l.384-.728.141-.034.1.2v.507l.036,1.119a.226.226,0,0,0,.046.1c.013.027.013.057.033.077a.273.273,0,0,0,.119.052c.023.008.038.028.064.028l1.606.037h0l.364.028.2.209.068.183,0,.005v0l.321.759.007.008v.008l.32.642c.006.011.017.015.022.025s0,.013.005.02l.38.495h0l.353.479Zm7.808-2.65c0,.016-.015.028-.013.043l.088.891c0,.011.011.018.014.027s-.006.017,0,.027l.168.545.038.62-.053.126-.254.056-.927.133h0l-4.177.489h0l-1.291.178h0l-.7.084-.324-.077.149-.321c.008-.02,0-.037,0-.057s.023-.034.023-.055v-.7c0-.031-.023-.051-.033-.08s0-.056-.02-.08l-.409-.556h0l0,0-.363-.475-.306-.61-.318-.752-.083-.223c-.007-.017-.026-.022-.035-.036s-.006-.037-.019-.052l-.133-.142.205-.226,0,0h0l.746-.86c.01-.011.006-.027.014-.039s.032-.031.04-.055l.224-.707c0-.014-.005-.025,0-.037s.014-.021.016-.033l.126-3.1.378.026.019,0a.25.25,0,0,0,.076-.012l.757-.223c.006,0,.007-.008.014-.011s.025,0,.036-.009l1.24-.659.237.263.387.73c.006.015.021.021.031.032s0,.016.008.023l.488.533c.016.017.042.014.06.026s.034.042.061.05l.891.267h0l1.688.532a.217.217,0,0,0,.066.01l.005,0,1.266.042.313.348.4.494.07.087-.168,1.672v0h0l-.039.457-.487.65c-.012.018-.007.038-.015.057s-.028.025-.032.044l-.134.58C4036.487,3189.349,4036.5,3189.361,4036.5,3189.376Zm4.652,3.3-1.347.289-1.3-.482-1.228-.71.04-.093c.009-.021,0-.04,0-.063s.023-.036.022-.06l-.046-.711c0-.012-.012-.02-.015-.031s.006-.02,0-.03l-.169-.548-.082-.826.11-.477.5-.668c.015-.021.009-.045.018-.068s.032-.042.035-.072l.044-.529h0l.179-1.781a.257.257,0,0,0-.035-.114c-.01-.028,0-.056-.023-.08v0l-.038-.048.146-.346c0-.012,0-.023,0-.034s.018-.021.019-.035l.1-.775c0-.006,0-.008,0-.014s0-.006,0-.012l.051-1.322.227-.025h.008l.726-.1,1.6-.1,1.365.251,0,0h0l.593.091.384.345.4,3.67h0l.153,1.593v.565l-.193.578c0,.016.005.028,0,.044s-.018.026-.018.04v.622c0,.02.018.031.022.049s-.007.035,0,.054l.247.592.061.373Zm4.109-2.137-.517.422-.527.4-.03-.181c0-.012-.013-.016-.017-.027s0-.022,0-.032l-.238-.571v-.525l.193-.578c.006-.016-.005-.028,0-.045s.017-.025.017-.04v-.621s0-.008,0-.014,0-.008,0-.013l-.154-1.6h0l-.415-3.778c0-.037-.032-.06-.05-.091s-.014-.058-.039-.08l-.088-.08.412-.059.377.263.57,1.093.2,1.261-.149,1.1s0,.009,0,.016-.006.008-.006.013l-.052,1.863c0,.013.012.023.013.035s-.008.025,0,.039l.362,1.4c0,.01.011.014.014.022s0,.015,0,.021l.155.352Zm2.144-7.018c-.005.009-.016.009-.02.019l-.322.646c-.008.017,0,.031,0,.047s-.021.023-.023.039l-.107.862c0,.008.005.013.005.021s-.008.012-.008.02l.108,3.494v1.471l-.384.243-.886-.125-.138-.31-.346-1.34.049-1.8.153-1.128c0-.015-.009-.026-.01-.038s.012-.025.009-.039l-.207-1.344c0-.016-.018-.024-.024-.038s0-.031,0-.045l-.621-1.191c-.011-.021-.034-.025-.05-.04s-.016-.041-.035-.055l-.166-.117.09-.049c.019-.011.021-.032.036-.046s.032-.008.043-.021l.4-.505,1.052-1,.391-.244s0-.008.007-.011l.014,0,.206-.156c.008,0,.007-.017.014-.024a.227.227,0,0,0,.064-.07l.011-.021,1.456.319.28.4.085.687-1.119,1.476S4047.408,3183.514,4047.4,3183.522Zm9.964,9.191-.534.291-1.377.459-1.29-.1-1.407-.73c-.009,0-.018,0-.028,0s-.011-.013-.02-.016l-1.993-.591h0l-2.1-.63-.752-.652-.3-.339v-1.741l-.107-3.483.1-.793.293-.586,1.17-1.541a.23.23,0,0,0,.028-.11c.007-.028.028-.053.024-.084v0h0l-.107-.859c0-.024-.024-.035-.031-.056s0-.045-.015-.065l-.192-.274.188-.083c.007,0,.007-.011.014-.015a.253.253,0,0,0,.127-.132v0h0l.579-1.523.991-1.2h0l.511-.6h.484l.64.2.645.347,1.165,1.008.01,0,0,.008.647.483a.271.271,0,0,0,.161.054h.647a.27.27,0,0,0,.144-.042l.546-.347.6-.092,1.445.2.476.429.01,0a.269.269,0,0,0,.17.066.3.3,0,0,0,.066-.008l.647-.163c.021,0,.029-.026.048-.034s.047-.01.066-.027l.591-.537c.008-.007.006-.019.012-.027a.314.314,0,0,0,.045-.045l.29-.537.583.078,1.033.463.8.429a.269.269,0,0,0,.126.031h.7a.276.276,0,0,0,.085-.015l1.617-.539c.012,0,.015-.018.025-.023s.034-.006.049-.016l.705-.518.321.082v.652c0,.02.018.031.022.049s-.007.035,0,.054l.269.644.006.007v.007l.667,1.386-.094.849-.294.636-1,1.323-1.291,1.668c-.007.008,0,.02-.007.028s-.017.011-.023.02l-.861,1.777h0l-1.125,2.358-.527.813-.588.169-1.224-.307c-.02-.006-.036.009-.056.008s-.034-.015-.052-.012l-.647.107c-.013,0-.019.016-.031.02s-.027,0-.039,0l-.808.377c-.02.01-.024.031-.04.043s-.039.013-.052.029l-1.131,1.347Zm3.133,4.18h0l-2.624-3.942.345-.385v0l0,0,1.094-1.3.721-.338.553-.091,1.24.31a.28.28,0,0,0,.064.008.261.261,0,0,0,.074-.011l.754-.216a.26.26,0,0,0,.12-.095c.008-.009.024,0,.031-.017l.591-.916s0-.009,0-.014.011-.01.015-.016l1.131-2.373.848-1.749,1.277-1.65h0l1.024-1.347c0-.007,0-.016,0-.023s.019-.016.024-.028l.323-.7c.007-.014,0-.029,0-.042s.02-.024.021-.04l.022-.194.545.795.921,1.678.266.694v.006l.092.226-.6-.15c-.006,0-.012,0-.018,0s-.01-.008-.018-.01l-.494-.055a.637.637,0,0,0-.064.023.251.251,0,0,0-.1.012l-.384.22v0c-.03.017-.042.054-.062.082s-.052.048-.06.083h0l-.055.22c-.007.03.01.055.012.084s-.012.057,0,.085l.164.386c.005.014.02.021.028.032s0,.017.007.025l.711.929h0l1.075,1.452.17.467-.278.645-1.082,1.572c-.011.016,0,.036-.012.053s-.029.031-.033.054l-.21,1.259c0,.026.013.046.016.072s-.011.048,0,.072l.469,1.173.006.007v.007l1.406,3.047,0,0v0l.743,1.485.207.536-.039.308v0l-.034.306-.015.011-.41-.034-1.035-.5c-.013,0-.027,0-.039,0s-.02-.019-.033-.021l-3.752-.61h0s-.008,0-.014,0l-.009,0-2.531-.188c-.009,0-.017.009-.028.008s-.016-.008-.025-.007l-.752.093h0l-.743.092-.455.035-.334-.444Zm.6,3.979.122-.308v-.009l.007-.011.474-1.512.428-.032h0l.012,0,.613-.077.044.048v.608l-.035.731-.028.388-.138.217-.608.028-.008,0-.008,0-.839.09-.036-.05Zm.3,7.647-.589-1.022-.186-.7.12-1.645.287-2.093c0-.006,0-.01,0-.015s.005-.008.005-.014l.049-1.447.94-.1.74-.034a.254.254,0,0,0,.2-.114c0-.006.015,0,.019-.01l.25-.392c.012-.02,0-.042.011-.063s.028-.036.029-.062l.035-.463v-.007l.037-.744,0-.007,0-.007v-.712c0-.006,0-.01-.007-.016l.286-.034,2.382.176.4.537.156.31c0,.005.008.006.01.012l0,.01.413.661c0,.008.017,0,.023.013a.263.263,0,0,0,.2.113.252.252,0,0,0,.1-.022l.373-.154.109.06.319.606.129.484-.065.111-.738.295c-.028.013-.038.041-.061.061s-.055.027-.071.055l-.165.288c-.006.008,0,.019,0,.029a.246.246,0,0,0-.014.1.273.273,0,0,0,.007.1c0,.01,0,.019,0,.028l.083.165s.006.007.009.011v.009l.331.537c0,.006.009,0,.013.008s0,.015.005.02l.475.592.168.369v.294l-.121.762-.155.859-.262.464-1.459-.177-.736-.425c-.018-.011-.035,0-.054-.008s-.028-.025-.047-.027l-.66-.083c-.027,0-.046.016-.07.02s-.055-.008-.08,0l-.867.414c-.022.011-.026.033-.043.047a.239.239,0,0,0-.064.073.219.219,0,0,0-.027.095c0,.022-.02.036-.018.059l.083.7c0,.019.019.028.025.044s0,.03,0,.045l.451.9-.035.141-.2.141h0l-1.456.946Zm3.194,3.46c-.02.028-.013.06-.022.09a.225.225,0,0,0-.023.094.285.285,0,0,0,.041.09c.015.028.014.059.038.082l.236.218-.008.066-.117.116-.1.044-.052-.023-.1-.232s-.005,0-.008-.008,0-.008,0-.012l-.219-.4c0-.007-.012-.007-.016-.014s0-.013,0-.019l-1.469-1.969,1.41-.917,0-.005.007,0,.288-.207,0,0a.266.266,0,0,0,.1-.149l.083-.33c.008-.031-.009-.059-.014-.09s.009-.065-.006-.095l-.474-.948-.055-.463.623-.3.527.067.737.426a.284.284,0,0,0,.08.023c.008,0,.012.01.022.012l1.692.2.032,0h0a.254.254,0,0,0,.2-.119c.007-.011.023-.007.028-.018l.371-.657c.006-.013,0-.028,0-.04s.023-.027.025-.043l.165-.91v0l0,0,.123-.783c0-.008,0-.014,0-.022s.008-.013.008-.021v-.372c0-.021-.018-.033-.023-.054s.007-.037,0-.057l-.207-.454c0-.012-.019-.013-.026-.024s0-.024-.009-.032l-.486-.607-.312-.51-.014-.028.047-.083.738-.3a.255.255,0,0,0,.1-.094c.009-.012.028-.008.036-.022l.165-.287h0c.012-.021,0-.043.008-.066a.268.268,0,0,0,.019-.138l-.165-.62c0-.011-.015-.015-.02-.025s0-.022,0-.031l-.37-.7c-.012-.024-.039-.028-.058-.047s-.023-.047-.047-.06l-.29-.165s-.012,0-.019,0a.81.81,0,0,0-.2-.012s-.012,0-.018,0l-.284.118-.286-.457-.16-.318c0-.008-.013-.01-.018-.016s0-.018-.006-.025l-.092-.124,3.06.5,1.046.5a.294.294,0,0,0,.08.018c.006,0,.008.007.014.007l.562.047h.023a.277.277,0,0,0,.161-.053l.188-.141.005-.011a.252.252,0,0,0,.071-.121c.007-.018.024-.03.027-.051v0l.047-.421.046-.37c0-.024-.015-.041-.018-.063s.01-.043,0-.066l-.16-.419.573-.416c.005,0,0-.012.009-.016a.249.249,0,0,0,.057-.091.222.222,0,0,0,.037-.083c0-.006.007-.01.007-.015l.039-.788.216-.648.241-.243.5-.166,1.536.2h0l.639.113.2.152.081.314-.792,1.857c0,.006,0,.013,0,.021s-.011.009-.013.018l-.577,2.27c0,.011,0,.02,0,.029s-.012.019-.012.031l-.04,1.939v.918l-.861.751-.86.313c-.007,0-.008.011-.014.013s-.013,0-.02,0l-.78.422c-.026.015-.033.043-.053.065s-.047.024-.059.048l-.454.866c-.007.012,0,.025,0,.036s-.018.019-.021.031l-.248,1.155v.009l0,.008-.121.806-.31.971-1.105,1.539-.493.362-.331-.408-.4-.683s-.008,0-.01-.009,0-.008,0-.012c-.019-.025-.05-.028-.073-.044a.233.233,0,0,0-.091-.057.254.254,0,0,0-.1.015c-.029.007-.058,0-.085.014l-.007.009s-.009,0-.014,0l-.909.66c-.015.011-.013.028-.025.042s-.03.012-.041.027l-.413.618s0,.01,0,.014l-.4-.247-.274-.235c-.009-.008-.023,0-.032-.011s-.012-.023-.024-.028l-.165-.082c-.02-.011-.042,0-.062,0a.245.245,0,0,0-.1-.007.242.242,0,0,0-.092.038c-.018.012-.04.008-.057.024l-.288.289s0,.013-.008.02-.013,0-.019.01Zm.449,1.189c.012-.008.028,0,.039-.016l.218-.218c.015-.016.012-.037.023-.055a.223.223,0,0,0,.054-.1l.036-.293c0-.008,0-.014,0-.022a.267.267,0,0,0-.027-.1.224.224,0,0,0-.042-.088c0-.007,0-.016-.009-.022l-.16-.147.424-.577.13-.131.232.2c.007.006.015,0,.023.008s.006.014.012.018l.537.33a.263.263,0,0,0,.141.04h.165a.259.259,0,0,0,.168-.07.183.183,0,0,0,.033-.036c.012-.016.03-.024.039-.041l.074-.148.378-.568.631-.457.262.444c0,.005.012,0,.016.009s0,.018.006.025l.353.433.07.139h0v0a.3.3,0,0,0,.073.079c.01.008.016.023.028.028a.26.26,0,0,0,.139.039.264.264,0,0,0,.121-.028l.166-.083c.007,0,.007-.012.014-.016s.016,0,.023-.008l.618-.454c.015-.011.015-.03.027-.043s.026,0,.034-.017l1.155-1.609c.007-.011,0-.024.008-.034s.024-.024.03-.04l.33-1.033c0-.008,0-.014,0-.022s.011-.013.012-.021l.121-.811.24-1.119.4-.758.7-.366.887-.323c.016-.006.022-.023.034-.03s.036-.007.051-.02l.99-.866,0-.008a.258.258,0,0,0,.047-.095.234.234,0,0,0,.036-.088s.006-.006.006-.01v-1.028l.038-1.909.567-2.221.814-1.92c.014-.028,0-.054,0-.082s.021-.057.013-.088l-.126-.495c-.008-.031-.035-.047-.052-.073s-.022-.058-.046-.078l-.329-.248c-.018-.013-.041-.008-.063-.016s-.029-.03-.052-.034l-.327-.057.351-.618.187-.3.456-.228,1.224-.183c.013,0,.018-.014.031-.019a.251.251,0,0,0,.115-.069.266.266,0,0,0,.036-.043c.008-.011.019-.018.024-.028l.388-.9.17-.1.231.026.82.993c.014.014.031.011.044.022s.019.035.039.045l.983.516a.264.264,0,0,0,.126.031l.021,0,1.172-.092,0,0a.149.149,0,0,0,.031,0l2.626-.562s0-.007.011-.007.024,0,.033-.008l2.933-1.209,2.39-.644h1.323a.25.25,0,0,0,.2-.108c.008-.007.018,0,.024-.013l.118-.178.632.4c.013.008.027,0,.039.012s.01.013.018.016l1.89.63h0l3.646,1.334.858.572-.561,1.142c-.006.008,0,.016,0,.024s-.011.009-.013.017l-.241.774c0,.015.006.027,0,.041s-.016.024-.016.037v.595c0,.005,0,.008,0,.013l0,.012.118,1.253c0,.026.024.039.031.061s0,.04.01.059l.33.519-.115.2-1.232.561-.008.007h-.011l-.654.357c-.022.012-.024.035-.042.051s-.044.02-.058.042l-.3.476c-.011.016,0,.035-.008.053s-.027.028-.028.048l-.357,2.265c0,.016.011.028.011.041s-.014.029-.011.045l.107.648-.616,1.766c0,.005,0,.01,0,.016s-.008.008-.01.015l-.092.414c0,.011.009.019.006.028s-.011.019-.011.028v.367c0,.016.014.027.016.04a.217.217,0,0,0,.039.091.241.241,0,0,0,.063.075c.014.01.016.027.028.033l.037.017v1.259c0,.018.016.029.018.047s-.008.033,0,.051l.415,1.056c.008.021.027.032.039.051s0,.025.013.033l.614.655-.055,1.418,0,.006,0,0v.393c0,.022.018.035.021.055s-.005.039,0,.058l.261.569c.011.021.029.031.042.047s.005.021.013.028l.231.233.215.43v.072s-.006,0-.011,0l-.569.131a.265.265,0,0,0-.151.11c-.006.006-.011,0-.014.01h0l-.217.348c-.011.016,0,.035-.011.052a.222.222,0,0,0-.016.1.218.218,0,0,0,.022.094c.008.018,0,.038.013.055l.352.482c.013.016.033.012.047.024s.024.044.047.057l1,.519.262.79.131.945h-.152l-.585-.18c-.016-.005-.028.007-.047.006s-.03-.02-.052-.016l-1.821.143c-.008,0-.01.008-.019.01s-.013-.006-.021,0l-.624.14c-.005,0-.008.01-.016.011s-.013,0-.019,0l-.385.144c-.008,0-.011.014-.021.018a.331.331,0,0,0-.069.066.25.25,0,0,0-.06.083c-.006.008-.014.012-.016.022l-.047.194c-.006.018.008.031.008.049s-.016.028-.014.045l.14,1.176v.519l-.27.722c-.005.019.006.035,0,.054s-.022.031-.019.051l.047,1.245c0,.019.016.028.022.045s-.009.03,0,.046l1.143,2.767.178.623v.664l-.031.3-.028.022h-.427l-3.829-1.8h0v0l-3.26-1.488c-.011-.006-.022,0-.031,0s-.016-.016-.027-.018l-2.112-.43c-.019,0-.031.01-.05.01s-.028-.014-.047-.011l-.3.051c-.008-.02-.031-.03-.044-.046s-.027-.052-.053-.068l-.464-.275c-.019-.012-.039,0-.06-.01s-.034-.027-.055-.028l-.748-.055-.555-.083-.346-.65-.21-1.41-.047-.571.292-.811c.008-.024-.006-.045-.006-.07s.022-.043.016-.068l-.294-1.656-.008-.011,0-.01-.184-.7h0v0c0-.009-.014-.013-.016-.023a.268.268,0,0,0-.108-.139c-.027-.016-.06-.008-.088-.013a.227.227,0,0,0-.113-.018l-.385.095-.525-.091-.863-.484-.723-.542c-.021-.018-.049-.011-.074-.021s-.044-.032-.073-.033l-.7-.036h-.013c-.008,0-.013.006-.019.008s-.013-.007-.019-.006l-.81.11c-.011,0-.016.012-.024.014s-.016,0-.024,0l-.443.147,0,0a.229.229,0,0,0-.086.073c-.022.022-.053.034-.066.065l-.008.007-.11.259c-.006.016,0,.031,0,.047s-.019.025-.019.04l-.033.534-.053.1s-.005,0-.011,0l-1.179.142-1.62-.252c-.008,0-.013,0-.021,0s-.013-.009-.022-.009h-.869l-.11-.129-.262-.72v-.564l.11-1.09s0-.009,0-.015.006-.008.006-.013v-.294c0-.013-.012-.02-.014-.032s.008-.022,0-.032l-.037-.149c0-.015-.019-.022-.024-.034a.28.28,0,0,0-.055-.075.238.238,0,0,0-.086-.064c-.012-.006-.018-.019-.031-.023l-.146-.036c-.006,0-.01,0-.015,0s-.007-.007-.012-.008l-1.288-.184c-.006,0-.01,0-.015,0s-.008-.006-.015-.006l-3.5-.11h0l-1.548-.037h-.006a.258.258,0,0,0-.188.08h0l-.74.738Zm37.4,10.518v.006l.037,1.3-.473.434-.322.283c-.016.014-.013.034-.024.051s-.033.021-.042.038l-.244.525c-.008.02,0,.037,0,.057s-.022.034-.022.055v.647c0,.023.019.036.024.059s-.005.042.006.062l.28.561-.05.253-.055.029-.524.174-1.111.187c-.011,0-.014.01-.022.013s-.019,0-.027,0l-3.013,1.085h0l-1.266.419c-.013.005-.018.022-.03.028s-.034,0-.047.012l-.988.754c-.008.007-.008.021-.016.029s-.022.005-.028.014l-1.927,2.35h0l-.982,1.169-.437.483-.473.236-1.405.09c-.008,0-.01.008-.018.01s-.017-.006-.025,0l-.5.115,0-.006c0-.021.008-.041,0-.062l-.071-.142-.044-.514c0-.02-.019-.032-.022-.051a.317.317,0,0,0-.028-.064.219.219,0,0,0-.1-.094c-.011,0-.014-.016-.024-.02l-.514-.188c-.016-.007-.031.005-.047,0s-.028-.018-.044-.018h-1.149l-2.217.134c0-.007,0-.012,0-.017l-.214-.647c0-.014-.019-.018-.027-.03s0-.026-.008-.037l-2.047-2.941.314-3.572c0-.007-.005-.011-.005-.018s.008-.011.008-.017l-.05-1.315.092.023a.3.3,0,0,0,.065.008h2a.258.258,0,0,0,.165-.07.213.213,0,0,0,.034-.034c.009-.012.027-.021.036-.036l.322-.592c.013-.025,0-.052.008-.079s.027-.047.024-.075l-.139-1.48.366-.063,2.037.416,3.228,1.475,3.882,1.819a.249.249,0,0,0,.115.027h.575a.275.275,0,0,0,.162-.054l.192-.143c.005,0,0-.008.008-.011a.269.269,0,0,0,.071-.122c.006-.019.024-.03.027-.049l0-.005.047-.432c0-.005-.006-.009-.006-.015s.006-.009.006-.015v-.717c0-.015-.014-.023-.014-.035s.008-.026,0-.038l-.192-.671c0-.005-.008-.008-.011-.013s0-.011,0-.016l-1.132-2.736-.042-1.146.267-.717c.006-.017-.005-.032,0-.048s.018-.028.018-.046v-.577c0-.006,0-.01,0-.016s0-.01,0-.016l-.137-1.148,0-.01.234-.087.589-.134,1.748-.14.577.177a.273.273,0,0,0,.08.012h.314l.065.173c.006.015.019.022.027.034a.26.26,0,0,0,.036.045.244.244,0,0,0,.113.072c.013,0,.019.017.031.02l.525.088h0v0l1.795.261h.006l.964.161.86.784-.024,4.087Zm.538-.009.022-3.711.684.438a.179.179,0,0,0,.031.01c.008,0,.008.013.016.016l1.263.49.414.785.168,1.269c0,.02.022.031.027.048s0,.034.008.05l.1.182-.622,1.282v0l0,0-.4.888c0,.008,0,.017,0,.025s-.013.013-.016.022l-.2.808,0,.011a.222.222,0,0,0,.017.1.228.228,0,0,0,.021.1l0,.01.28.4c.011.016.034.012.047.025s.034.053.063.067l.446.2h0l.53.232.16.57.036.941c0,.015.014.023.016.035s0,.024,0,.035l.587,1.842-.018.172-.237.131h0l-.6.322c-.016.008-.018.029-.031.038s-.033.009-.044.023l-1.077,1.226-.055-.007-.1-.163-.071-.719.238-2.518c0-.012-.008-.019-.008-.029s.008-.019.008-.028l-.041-.322,0-.006c0-.021-.021-.033-.028-.054a.267.267,0,0,0-.076-.122l0,0-.281-.2c-.013-.009-.026,0-.039-.009s-.018-.023-.03-.028l-.716-.239-.81-.386-.492-.386-.267-.534v-.526l.194-.418.278-.246,0,0h0l.566-.525.006-.008a.255.255,0,0,0,.044-.1c.011-.029.034-.056.034-.088l0-.01Zm-3.244,14.388c0,.008-.008.014-.008.022l.055,1.9-.042.318-.316.365-.006.012s-.008,0-.011.007l-.585.8,0,.01-.008.006-.5.807-.622.43-.146-.037c-.013,0-.024.007-.034,0s-.021-.014-.033-.014h-2.3l-1.428-.254v-.383c0-.02-.016-.031-.018-.048s.005-.034,0-.051l-.155-.383c0-.012-.019-.014-.024-.025s0-.027-.011-.036l-.684-.915s-.011,0-.013-.008,0-.011-.006-.015l-1.058-1.133-2.66-3.773.207-.047,1.415-.091h.016c.006,0,.009-.006.011-.006a.294.294,0,0,0,.094-.023l.564-.283c.018-.008.021-.028.033-.039s.034-.006.045-.02l.472-.519,0,0,.005,0,.987-1.177,0,0,1.911-2.328.927-.709.8-.266-.068.386c0,.023.013.038.013.061s-.01.036,0,.057l.264.957c0,.005.008.008.011.014s.022.029.031.048a.265.265,0,0,0,.091.092c.008,0,.011.017.019.021l.372.159a.272.272,0,0,0,.107.023h.022l.623-.051h.873l.789.51.5.777-.2,2.2h0l-.319,2.653C4099.726,3238.055,4099.731,3238.06,4099.731,3238.065Zm-19.946,9.892a.221.221,0,0,0-.036-.091.252.252,0,0,0-.063-.079c-.011-.008-.011-.023-.022-.028l-.522-.3-.907-.6v-3.74l.382-.6h1.078a.258.258,0,0,0,.168-.069.271.271,0,0,0,.036-.042c.013-.019.033-.029.041-.051l.218-.507c.008-.018,0-.034,0-.052s.021-.031.021-.053v-4.594l1.531-.829h3.187l1.441-.072,0,0a.2.2,0,0,0,.05-.006l.288-.073c.019,0,.027-.023.042-.03a.242.242,0,0,0,.065-.024l.432-.36c.014-.013.014-.032.025-.048s.026-.007.03-.017l.65-1.05.152.055.03.4c0,.02.019.031.025.048s0,.034.005.05l.066.132v.126c0,.027.021.043.027.067a.281.281,0,0,0,.038.091.244.244,0,0,0,.08.059c.021.014.033.036.057.043l.094.024,2.846,4.038c.006,0,.011,0,.016.008s0,.015.008.021l1.059,1.131.655.874.118.3v.411l-2.009,1.29c-.01.008-.01.024-.021.032s-.028.006-.036.019l-1.3,1.522c-.006.005,0,.01-.006.015s-.008,0-.01.007l-1.067,1.523c-.008.012,0,.027-.008.037s-.022.018-.027.03l-.577,1.731-.55.305-.962.138-1.543-.44-.674-.224c-.005,0-.008,0-.011,0s-.005-.006-.01-.007l-.305-.077c-.016,0-.028.008-.044.007a.217.217,0,0,0-.1.015.237.237,0,0,0-.088.045c-.014.01-.029.008-.037.019l-.448.521-1.389,1.313-1.349.337-.38-.216-.456-.715v-1.751C4079.8,3247.977,4079.788,3247.969,4079.785,3247.957Zm-15.393-15.616h0l.264-1.636.576-1.411.849-1.7,1.009-1.327c.011-.014,0-.031.012-.046s.03-.032.035-.055l.27-1.135c0-.011-.006-.02,0-.03s.012-.02.012-.03v-2.32c0-.006,0-.009-.006-.014s0-.007,0-.012l-.327-3.493-.071-1.476.18-1.405v-.008a.253.253,0,0,0-.027-.1c-.008-.031,0-.066-.023-.094l0-.007h0l-1.628-2.24.714-.712,1.431.033,3.484.11,1.228.175v.205l-.11,1.09s0,.009,0,.014,0,.008,0,.014v.626c0,.018.014.029.018.045s-.008.031,0,.047l.3.81c.007.02.026.03.036.047s0,.026.013.035l.221.259s.007,0,.009,0a.261.261,0,0,0,.195.089h.978l1.633.252a.183.183,0,0,0,.039,0h0l.031,0,1.192-.144h.14a.247.247,0,0,0,.165-.07.239.239,0,0,0,.036-.036c.011-.016.028-.024.036-.042l.147-.294c.01-.017,0-.034,0-.053s.022-.03.024-.05l.034-.541.044-.11.3-.1.762-.1.595.031.671.5c.008,0,.013,0,.021.007s.006.011.011.013l.92.517a.268.268,0,0,0,.064.017c.008,0,.013.012.021.014l.627.11a.368.368,0,0,0,.047,0,.3.3,0,0,0,.065-.008l.184-.046.113.425.28,1.584-.283.8c-.008.02.006.037,0,.059s-.019.032-.019.054l.052.646s.006,0,.006.008l0,.01.215,1.454c0,.019.019.028.027.045a.19.19,0,0,0,0,.041l.432.811c.006.008.014.01.019.018a.359.359,0,0,0,.028.03.264.264,0,0,0,.129.078c.008,0,.014.012.022.013l.7.107.019,0h0l.668.048.189.159.028.114.152,1.622-.207.38h-1.8l-.4-.1c-.011,0-.022.006-.034,0s-.018-.013-.031-.013-.041.021-.068.028a.246.246,0,0,0-.091.039.218.218,0,0,0-.055.076c-.014.023-.039.034-.045.06s.006.023.006.034-.014.02-.014.031v.215l0,0,0,.005.055,1.444-.324,3.648c0,.033.021.058.028.088s0,.061.019.088l2.084,2.991.154.466-.583-.046-1.984-.321-3.281-.7c-.011,0-.016.006-.027.006s-.016-.012-.026-.012l-8.848-.16h-2.053c-.015,0-.023.013-.037.015s-.022-.007-.034,0l-1.942.536-.009.007c-.005,0-.01,0-.014,0l-.844.317Zm7.711,21.139-.306-.676c-.005-.012-.019-.014-.025-.024s0-.023-.01-.031l-1.081-1.369h0v0l-.61-.747-.121-.483v-1.55l.142-1.857c0-.015-.01-.024-.012-.036s.011-.026.007-.039l-.361-1.73c0-.01-.013-.016-.018-.026s0-.021,0-.029l-1.513-3.388h0l-.79-1.8c-.006-.013-.022-.016-.029-.028s0-.028-.012-.039l-1.205-1.418-1.937-3.787.17-.084.854-.321,1.882-.522h2.012l8.825.16,3.263.7h.011l0,0,1.994.322h.022l0,0,.7.055h.252l2.471-.148h.65l-.487.786-.354.294-.2.051-1.415.07h-3.229c-.024,0-.039.02-.063.025s-.044,0-.066.008l-1.729.938c-.014.007-.016.023-.027.031a.238.238,0,0,0-.06.077.231.231,0,0,0-.039.091c0,.013-.016.023-.016.036v4.7l-.124.291h-1.048c-.011,0-.019.01-.028.012a.264.264,0,0,0-.091.037.209.209,0,0,0-.082.058c-.008.008-.019.008-.027.017l-.5.8c-.016.024-.008.05-.014.075s-.028.042-.028.07v3.962l0,.011,0,.009.289,3.819,0,0v.006l.347,3.042-.479.48h-.729l-.912-.2-.451-.388-.012,0s0-.008-.007-.01l-1.275-.924c-.006-.005-.012-.008-.017-.013l-.006,0c-.01-.008-.024,0-.034-.008a.2.2,0,0,0-.141-.041l-1.009.074c-.03,0-.049.026-.074.036s-.058.006-.082.028l-.467.4-.455.17Zm26.713-1.3c0,.007,0,.014,0,.022s-.011.009-.014.017l-.327,1.442-.3.716-.748.621c-.008.008-.008.02-.014.028s-.021,0-.027.015l-5.207,6.787-3.753,1.1-11.7,1.111-.451-.961c0-.006-.011-.006-.014-.012s0-.012,0-.017l-.757-1.2v-1.041l.063-.514c0-.019-.011-.029-.014-.048s.014-.031.009-.05l-.2-.8c0-.02-.026-.028-.034-.044s0-.036-.013-.053l-2.111-2.77-.569-1.266-.146-1.309.38-.141c.015-.006.019-.023.032-.03s.035-.006.05-.019l.437-.374.823-.06,1.213.877.492.422c.022.018.047.017.073.028s.026.028.045.031l1.009.217a.251.251,0,0,0,.055.007h.866a.277.277,0,0,0,.192-.079l.646-.65c.006,0,0-.011.008-.016a.264.264,0,0,0,.037-.087.257.257,0,0,0,.028-.1l0-.015-.359-3.16-.247-3.274.574.378.014,0,0,.006.4.227v1.673c0,.028.021.045.028.071s0,.051.013.074l.532.836c.011.016.031.012.044.024s.024.051.05.066l.534.3a.257.257,0,0,0,.131.035.283.283,0,0,0,.066-.008l1.523-.38c.024-.005.034-.028.052-.039a.283.283,0,0,0,.069-.026l1.446-1.37c.006,0,0-.011.008-.015s.008,0,.011-.006l.352-.406.14.035.666.221.011,0,0,0,1.6.456a.272.272,0,0,0,.073.011.247.247,0,0,0,.039,0l1.064-.151c.011,0,.014-.011.024-.014a.206.206,0,0,0,.069-.018l.687-.38s0-.008.008-.009a.266.266,0,0,0,.115-.14l.6-1.793,1.035-1.477,1.263-1.487,2.01-1.291,1.567.281a.253.253,0,0,0,.047,0h2.3l.069.017.1.5h0l.53,2.845v0l.2,1.314v.166l-.228.365-.676.111c-.029.005-.045.028-.069.041s-.057.011-.079.033l-.6.6c-.021.021-.019.047-.028.07s-.036.034-.044.061l-.2.865,0,.008c-.008.032.011.065.016.1a.274.274,0,0,0,.024.1v.006l.454.65.126.248.011.009a.093.093,0,0,0,.021.023.248.248,0,0,0,.121.092c.011,0,.013.014.024.017l.531.134a.265.265,0,0,0,.066.008h.531a.267.267,0,0,0,.144-.041l.621-.4.027.2Zm.134-1.853s0,0,0,.008v0l.124.248,0,.026h-.011c-.026,0-.044.021-.071.028s-.049,0-.074.013l-.665.422h-.419l-.382-.095-.079-.155c0-.006-.011-.006-.016-.013s0-.014,0-.02l-.4-.568.157-.675.485-.484.585-.095.351.312.135.4s0,.006.008.01,0,.008,0,.013Zm15.962-26.937-.249,1.2v0l-.708,2.73,0,.009-.008.011-.252,1.41-.446,1.382-.637,1.228-.789,1.084-2.752,2.4-1.493.9-1.188.545-.647.2c-.016,0-.024.024-.036.031s-.034,0-.047.013l-.66.508c-.022.017-.022.042-.036.061s-.042.029-.05.055l-.254.66c-.01.023,0,.044,0,.067s-.021.043-.016.069l.1.709c0,.015.016.023.019.035s0,.027,0,.038l.231.508v.72l-.268.963c0,.007.006.012,0,.017s-.008.011-.011.018l-.582,4.047s0,.008,0,.012-.006.008-.006.013l-.036.775-.236.57-.459.492-.47.364-.646.378-.679.3c-.008,0-.008.012-.016.016s-.016,0-.024.005l-1.285.855c-.03.021-.039.056-.057.086s-.042.032-.05.06l-.388,1.276-.186.507.008-.173c0-.027-.019-.043-.024-.067s.005-.044-.006-.066l-.145-.3v0l-.272-.62-.149-.448c-.008-.025-.031-.035-.047-.056s-.011-.043-.028-.059l-.33-.295.215-.344c.013-.023,0-.048.01-.072s.028-.042.028-.07v-.264c0-.008-.008-.012-.008-.019s.008-.014.006-.022l-.2-1.332,0,0v0l-.531-2.862h0v0l-.1-.493.624-.432c.021-.013.021-.037.036-.056s.028-.007.039-.021l.527-.847.569-.774.366-.42c.017-.018.011-.041.022-.061s.039-.049.042-.083l.055-.424c0-.008-.008-.013-.006-.021s.008-.014.008-.022l-.055-1.9.317-2.636v0l0,0,.212-2.288c0-.032-.019-.056-.027-.086s0-.058-.016-.083l-.585-.9c-.014-.017-.034-.018-.047-.032s-.016-.035-.034-.047l-.9-.585c-.024-.016-.05-.006-.074-.014s-.044-.029-.071-.029h-.96s-.005,0-.01,0-.006,0-.011,0l-.572.047-.194-.084-.215-.772.107-.616,2.846-1.025,1.106-.186.008-.005c.011,0,.024,0,.034,0l.563-.19c.006,0,.006-.006.011-.008s.019,0,.027-.006l.186-.094c.008,0,.011-.015.019-.02a.286.286,0,0,0,.083-.1c.011-.02.027-.031.031-.054,0-.006.008-.009.011-.016l.008-.045.223.174c.01.008.021,0,.031.011s.01.017.018.021l.85.4c.005,0,.016,0,.021.006s.006.005.008.006l.693.232.151.109.022.176-.239,2.517c0,.009.008.017.008.027s-.011.016-.008.027l.082.807c0,.025.021.037.028.058s0,.04.011.058l.2.322s.008,0,.011.007a.257.257,0,0,0,.183.116l.322.042c.011,0,.022,0,.034,0a.261.261,0,0,0,.187-.085s.01,0,.016-.007l1.137-1.3.564-.3v0h0l.363-.2c.011-.006.011-.018.019-.023a.3.3,0,0,0,.071-.087.258.258,0,0,0,.036-.073c0-.009.011-.015.014-.024l.039-.364c0-.021-.016-.034-.019-.055s.013-.036.005-.055l-.591-1.861-.039-.935c0-.012-.011-.02-.014-.031s.006-.02,0-.029l-.2-.726c0-.006-.008-.007-.008-.011a.334.334,0,0,0-.066-.083c-.024-.026-.036-.055-.068-.07-.006,0-.006-.009-.011-.012l-.644-.283-.375-.171-.167-.241.165-.671.393-.861.621-1.285.506-.1,1.248-.043h0l.017,0,3.632-.348,0,0,.019,0,2.626-.482h0l.018,0,.663-.173Zm-.844-11.739c0,.027-.027.047-.021.076l.016.142v1.955l-.083,1.1-.422,1.437-.3.691c-.008.019,0,.036,0,.056s-.022.031-.022.051v.569c0,.013.014.022.016.034s-.01.024,0,.036l.262.965c0,.01.013.016.016.025s0,.015,0,.023l1.093,2.233c.008.016.024.022.033.036s0,.019.008.025l.32.353-.025.308-.817.212-2.589.475-3.622.347-1.263.044c-.008,0-.013.01-.021.01s-.016-.007-.024,0l-.465.094-.052-.092-.17-1.261c0-.017-.019-.027-.024-.041s0-.033-.006-.047l-.472-.9h0l-.008-.016c-.013-.028-.044-.035-.066-.057s-.038-.056-.073-.069l-1.331-.518-1.054-.675-.99-.9c-.019-.019-.047-.015-.071-.027s-.036-.035-.066-.04l-1.051-.176h0l-1.795-.262h0l-.367-.062-.065-.177-.173-1.241c0-.009-.011-.013-.014-.023s.006-.017,0-.026l-.307-.916v0a.267.267,0,0,0-.135-.154l-1.034-.537-.207-.286.063-.1.432-.1h.144a.265.265,0,0,0,.176-.073.222.222,0,0,0,.033-.054c.019-.026.045-.045.053-.079l.041-.175c0-.013-.005-.022-.005-.033s.013-.02.013-.031v-.22c0-.022-.019-.036-.024-.059s0-.041,0-.061l-.262-.525c-.008-.015-.024-.017-.033-.028s-.006-.028-.017-.039l-.228-.23-.217-.475v-.323l.044-1.161.022.008a.216.216,0,0,0,.091.018.28.28,0,0,0,.076-.011l.779-.228c.039-.012.06-.046.088-.071s.039-.009.053-.027l.689-.92c.006-.007,0-.016.006-.025s.01,0,.013-.008l.231-.414c.008-.018,0-.035,0-.053s.027-.032.027-.055l.047-.55c0-.014-.013-.025-.013-.039s.01-.025.008-.038l-.229-1.046-.03-.249.307-.42v-.008c.011-.012.008-.027.013-.041s.024-.025.028-.043l.092-.366c0-.007,0-.012,0-.017a.23.23,0,0,0-.013-.094.259.259,0,0,0-.029-.1c0-.006,0-.011,0-.016l-.438-.571-.311-.664c-.011-.023-.034-.028-.05-.044s-.013-.04-.03-.055l-.045-.034.369-.169c.039-.019.055-.056.082-.088.011-.012.031-.008.039-.023l.207-.364.607-.406.3-.037.509.408a.276.276,0,0,0,.168.059h.476a.209.209,0,0,0,.052-.005l1.136-.227,2.023.52h0l.239.06a.251.251,0,0,0,.065.008.264.264,0,0,0,.126-.031l1.007-.532.642-.3.179.1.044.4s.006,0,.006.008l0,0,.121.772c0,.016.016.026.021.039s0,.028,0,.041l.537,1.074a.238.238,0,0,0,.063.067c0,.007,0,.019.013.026l3.877,2.98h0l1.7,1.35,1.176,1.358c.019.019.045.016.063.028l.014.009C4114.068,3211.628,4114.071,3211.64,4114.068,3211.652Zm3.453-5.941-.559.406s0,.01-.008.014-.013,0-.016.007l-1.551,1.431c-.021.02-.021.048-.033.073s-.042.046-.047.08l-.3,1.768-.453,1.367-.22.293-1.128-1.3c0-.008-.016-.006-.024-.012s0-.018-.013-.023l-1.727-1.37h0v0l-3.827-2.941-.492-.984-.11-.716v0l-.058-.536c0-.008-.011-.012-.013-.02a.2.2,0,0,0-.058-.1.234.234,0,0,0-.044-.056c-.008-.008-.011-.022-.022-.029l-.417-.238c-.008,0-.016,0-.024,0a.232.232,0,0,0-.1-.014.259.259,0,0,0-.1,0c-.008,0-.016,0-.024,0l-.773.357,0,.005h-.008l-.858.455v-.217l.113-1.634.671-.953c.019-.024.011-.051.019-.078s.031-.047.031-.078v-.707l.057-1.923.459-1.144c0-.007,0-.012,0-.019a.252.252,0,0,0,0-.1.283.283,0,0,0-.016-.1c0-.006,0-.013,0-.02l-.357-.6c0-.011-.021-.011-.029-.021s0-.024-.013-.033l-1.7-1.639.654-.271h2.013a.249.249,0,0,0,.173-.073.154.154,0,0,0,.036-.051.29.29,0,0,0,.05-.072l.091-.322,3.074,1.481,1.221.659a.155.155,0,0,0,.045.011c.008,0,.01.012.019.014l.566.141a.239.239,0,0,0,.066.008.263.263,0,0,0,.157-.052l0,0h0l.506-.368,2.568-1.726.588-.253h.036l.231.2.621.78-.14.373s0,.011,0,.016-.008.008-.01.014l-.254,1.015-.831,2.049c0,.015,0,.029,0,.041s-.018.018-.018.032l-.129,1.226c0,.019.013.03.013.047s-.01.031,0,.048l.322,1.227c0,.011.013.015.016.024s0,.016,0,.023l1.548,3.294s.006,0,.008.011,0,.008,0,.012l.6,1.025Zm15.994-23.173-1.358,2.281c0,.007,0,.014,0,.019s-.01.008-.013.015l-1.177,2.784c0,.011,0,.02,0,.03s-.013.015-.016.025l-.362,1.932-2.117,3.511-3.806,3.314c-.008.007,0,.019-.013.027s-.022.008-.027.017l-4.047,5.492-2.17,1.788c-.008.006-.008.018-.013.025s-.022.007-.028.016l-.467.595-.446-.759-1.528-3.248-.3-1.155.118-1.142.826-2.033c0-.005,0-.012,0-.018s.01-.01.013-.018l.254-1.02.151-.4.58-.3,2.678-.426v0h.014l1.423-.309c.006,0,.008-.008.014-.009a.212.212,0,0,0,.041-.009l1.486-.682c.008,0,.008-.012.013-.016s.024,0,.031-.011l1.114-.8c.01-.008.01-.021.018-.028s.022,0,.029-.013l1.174-1.363,0-.01.008,0,2.165-2.844c.008-.01,0-.022.008-.03s.024-.023.031-.038l.371-.989c.006-.014-.005-.028,0-.041s.018-.026.018-.04-.016-.038-.021-.061a.226.226,0,0,0-.034-.091.266.266,0,0,0-.071-.068c-.018-.012-.026-.035-.047-.043s-.028,0-.044,0-.024-.017-.039-.019l-1.323-.062-3.486-1.222-1.265-.482-1.064-.708-.941-1-.561-1.124.247-.175c.011-.007.011-.02.019-.028s.019,0,.027-.013l.555-.618c.008-.007,0-.018.011-.026s.024-.02.031-.033l.021-.043,2.181.669.786.364a.229.229,0,0,0,.089.02s0,0,.008,0l.013,0h0l1.034.06h.016a.251.251,0,0,0,.047,0l2.1-.371c.006,0,.008-.008.014-.01a.155.155,0,0,0,.047-.009l1.979-.866,0,0h0l2.041-.928c.008,0,.011-.014.019-.018s.024,0,.034-.012l1.528-1.164.129-.064.2.058.265.738c0,.01.013.016.018.026s0,.016.006.023l1.034,1.707.2.6Z" transform="translate(-3455.11)" fill="#fff" stroke="#fff" stroke-miterlimit="10" stroke-width="1.342"/><path d="M4123.023,3225.227a.341.341,0,0,0,.039.075.277.277,0,0,0,.086.066c.019.009.027.028.047.033a.236.236,0,0,0,.066.008l.031,0,.366-.045c.011,0,.016-.012.024-.013a.26.26,0,0,0,.129-.073.2.2,0,0,0,.034-.037c0-.011.018-.016.024-.028l.459-.968c.01-.02,0-.039,0-.06s.025-.032.025-.055v-.459s-.006-.009-.006-.015a1.346,1.346,0,0,0-.086-.181c-.005,0-.005-.009-.008-.013l-.459-.367c-.008-.006-.018,0-.027-.008a.272.272,0,0,0-.1-.028.24.24,0,0,0-.1-.007c-.011,0-.019-.006-.031,0s-.037.035-.061.052-.047.015-.063.034,0,.02-.008.028a.214.214,0,0,0-.028.092.227.227,0,0,0,0,.1c0,.01-.008.019,0,.028l.06.186-.335.924c0,.012,0,.023,0,.034s-.014.014-.016.025l-.042.344-.044.174c0,.019.008.032.008.051s-.016.03-.014.047S4123.015,3225.207,4123.023,3225.227Z" transform="translate(-3455.11)" fill="#fff" stroke="#fff" stroke-miterlimit="10" stroke-width="1.342"/><path d="M4132.652,3228.97s0-.009-.008-.014.006-.008.006-.014l-.341-2.463c0-.016-.019-.026-.024-.039s0-.032-.006-.049l-.888-1.708c-.008-.012-.021-.013-.028-.022s0-.023-.011-.031l-.547-.616c-.011-.012-.027-.01-.039-.02a.247.247,0,0,0-.083-.042.228.228,0,0,0-.1-.016c-.014,0-.027-.009-.039-.005l-.273.068c-.027.007-.036.03-.057.042s-.05.01-.069.028l-.412.412a.272.272,0,0,0-.041.1c-.011.031-.037.055-.037.089v1.844l-2.141,1.492c-.008,0-.008.017-.016.024s-.019,0-.027.012l-1.369,1.436v0l0,0-.532.6-.652.522-1.54.967-1.182-.251,0,0h-.008c-.027,0-.047.012-.074.015a.222.222,0,0,0-.12.018l-.685.412c-.031.019-.039.054-.06.082s-.047.038-.058.07l-.547,1.777c-.006.014.008.028.005.043s-.016.025-.016.04l.068,3.831c0,.009.008.014.008.022s-.005.015,0,.023l.192,1.035-.187.754-.657,1.645-1.4,1.536c-.016.019-.013.043-.024.063s-.039.043-.044.074l-.137.82c0,.03.014.054.019.083s-.008.055,0,.082l.383.769.068,2.064c0,.008.008.013.008.021s0,.014,0,.02l.2,1.095c.006.028.029.044.042.07s0,.035.016.051l.616.753c.011.013.028.009.042.02s.018.035.036.045l.753.41a.249.249,0,0,0,.128.032h.831l1.644-.069s.008-.006.016-.006a.347.347,0,0,0,.11-.031l.327-.2,1.007-.471.742-.268c.008,0,.008-.012.016-.016a.262.262,0,0,0,.131-.121l.006,0,1.092-2.326v0l.005-.007,1.845-4.372,1.292-2.447c.006-.013,0-.027,0-.039s.022-.023.024-.038l.341-1.847v-.007l0-.007.272-2.032.189-.755.443-.571c.016-.019.008-.04.019-.062s.031-.04.036-.07l.192-1.477.1.6c0,.02.019.029.027.047a.26.26,0,0,0,.039.069.283.283,0,0,0,.091.069c.016.008.024.027.039.029l.273.072a.248.248,0,0,0,.217-.042c.013-.009.021-.026.034-.036a.3.3,0,0,0,.055-.061l.275-.547c.005-.011,0-.022,0-.031s.016-.02.019-.032l.207-.96c0-.012-.008-.021-.008-.032s.013-.02.013-.032Zm-.66,2.863-.086.171-.074-.445v-.252c0-.023-.018-.037-.024-.057s.006-.043,0-.063l-.137-.275h0v0a.258.258,0,0,0-.278-.124c-.028,0-.057-.008-.082.005h0l-.275.14c-.008,0-.008.015-.016.019a.233.233,0,0,0-.074.085.288.288,0,0,0-.042.078c0,.01-.011.015-.013.024l-.265,2.045-.432.56c-.013.016-.008.036-.016.054s-.028.026-.033.045l-.2.82c0,.007,0,.011,0,.018s-.008.008-.008.013l-.275,2.052-.33,1.791-1.281,2.43s0,.008,0,.012-.008,0-.008.009l-1.846,4.376v0l-1.043,2.212-.647.237s0,.006-.01.009h-.014l-1.025.479s0,.009-.011.011-.01,0-.013,0l-.283.169-1.575.066h-.743l-.646-.351-.54-.658-.186-1-.069-2.1c0-.023-.021-.035-.026-.055s0-.038,0-.056l-.372-.744.11-.658,1.384-1.513c.008-.01,0-.023.01-.032s.031-.029.039-.049l.685-1.711a.043.043,0,0,0,0-.016c0-.008.01-.01.013-.018l.2-.82c.005-.022-.011-.039-.011-.059s.016-.035.014-.057l-.2-1.069-.068-3.771.5-1.638.5-.3,1.2.253a.245.245,0,0,0,.055.006.273.273,0,0,0,.141-.04l1.644-1.028s0-.009.008-.013.01,0,.016-.005l.687-.548c0-.005,0-.016.01-.023s.017,0,.022-.009l.547-.616,1.342-1.409,2.236-1.558c.008-.005.008-.015.013-.021a.238.238,0,0,0,.055-.083.3.3,0,0,0,.039-.092c0-.009.008-.014.008-.024v-1.873l.28-.28.042-.011.417.467.855,1.642.333,2.4.068,1.941Z" transform="translate(-3455.11)" fill="#fff" stroke="#fff" stroke-miterlimit="10" stroke-width="1.342"/><path d="M4094.149,3253.869c-.013-.019-.011-.044-.028-.06l-.016-.015-.006,0-.642-.582c-.017-.015-.037-.01-.055-.02s-.025-.029-.042-.035l-.8-.265c-.028-.01-.057.006-.086.007a.228.228,0,0,0-.1.007c-.03.014-.047.043-.073.069s-.053.031-.066.061l-.311.686-.289.289h-.154c-.011,0-.019.011-.028.012s-.022-.008-.031-.005l-.866.2c-.021.005-.031.028-.052.037s-.042,0-.058.019l-.4.333c-.013.012-.013.032-.024.047s-.034.02-.044.037l-.135.267c-.005.011,0,.023,0,.034s-.016.016-.019.028l-.134.6c-.006.022.01.038.01.059s-.016.039-.01.061l.4,1.729c.006.026.028.04.039.062s0,.033.016.048l.6.734c.013.016.034.012.052.026s.027.04.05.051l.464.2a.265.265,0,0,0,.108.023.273.273,0,0,0,.12-.028l.265-.134c.036-.019.049-.055.074-.085.01-.013.033-.008.041-.024l.985-1.771,1.243-1.374c.005-.007,0-.016.008-.023s.01,0,.016-.008l.129-.193.005-.007c.019-.028.011-.063.019-.094a.283.283,0,0,0,.024-.1l-.134-.8A.288.288,0,0,0,4094.149,3253.869Zm-.42.972-1.253,1.384c-.008.008,0,.02-.011.029s-.019.009-.024.02l-.96,1.724-.081.039-.289-.124-.519-.636-.372-1.608.113-.508.094-.188.3-.253.776-.179h.236a.263.263,0,0,0,.189-.079l.4-.4c.009-.009.006-.023.014-.031s.031-.028.039-.047l.233-.512.517.17.555.5.1.6Z" transform="translate(-3455.11)" fill="#fff" stroke="#fff" stroke-miterlimit="10" stroke-width="1.342"/><path d="M4120.72,3222.229c0-.011-.014-.015-.019-.024s0-.021,0-.029l-.082-.166-.039-.151c0-.015-.019-.02-.024-.032a.319.319,0,0,0-.058-.078.236.236,0,0,0-.083-.061c-.013,0-.019-.02-.031-.024l-.17-.04-.006,0h-.008c-.028-.007-.052.011-.082.013s-.076-.008-.112.014l-.415.228c-.013.008-.013.024-.027.032a.284.284,0,0,0-.063.078.275.275,0,0,0-.033.091c0,.015-.016.026-.016.04l.047,1.471c0,.008.008.014.008.022s-.006.013,0,.02l.091.506a.271.271,0,0,0,.052.088c.011.018.009.039.025.054l.136.137a.272.272,0,0,0,.19.077.269.269,0,0,0,.141-.04l.369-.228c.005,0,.005-.011.008-.013a.274.274,0,0,0,.088-.124c.006-.013.019-.021.022-.035l0,0,.231-1.147c0-.021-.011-.037-.013-.059s.016-.038.01-.059Zm-.592,1.6-.036.023-.053-.293-.041-1.293.126-.069,0,.006c0,.009,0,.018,0,.028l.079.16.116.465Z" transform="translate(-3455.11)" fill="#fff" stroke="#fff" stroke-miterlimit="10" stroke-width="1.342"/><path d="M4122.182,3223.724c0-.009-.013-.012-.019-.021a.233.233,0,0,0-.065-.078.26.26,0,0,0-.08-.059c-.01,0-.013-.015-.024-.018l-.184-.047c-.03-.009-.06.01-.091.012a.263.263,0,0,0-.086.011.285.285,0,0,0-.082.081c-.018.02-.044.028-.055.052l-.016.039c-.013,0-.021-.018-.033-.019s-.019.009-.028.011a.254.254,0,0,0-.121.041.382.382,0,0,0-.052.031c-.011.011-.029.01-.039.023s-.011.052-.019.079-.031.032-.034.057l-.091.92c0,.016.013.027.013.042s-.01.028-.008.041l.092.415c0,.019.021.028.026.043a.416.416,0,0,0,.042.064.249.249,0,0,0,.094.069c.016.006.021.024.036.028l.187.044a.259.259,0,0,0,.063.008.256.256,0,0,0,.181-.083c.008-.007.019,0,.024-.011l.275-.322c.011-.015.008-.033.016-.05s.034-.036.039-.063l.184-.781c.008-.026-.011-.046-.011-.072s.014-.05.006-.075Zm-.545,1.151-.024.027-.011-.052.05-.51a.278.278,0,0,0,.124-.059Z" transform="translate(-3455.11)" fill="#fff" stroke="#fff" stroke-miterlimit="10" stroke-width="1.342"/></g></svg>