<svg xmlns="http://www.w3.org/2000/svg" width="181.71" height="181.71" viewBox="0 0 181.71 181.71"><g transform="translate(-6581.969 -3556.053)"><circle cx="90.855" cy="90.855" r="90.855" transform="translate(6581.969 3556.053)" fill="#1f7129"/><path d="M6649.911,3678.523h-3.786v15.144h-11.358V3684.2a22.715,22.715,0,0,1,20.823-22.715v17.282a5.679,5.679,0,1,0,3.786,0v-17.282h1.116l10.79,10.808a1.891,1.891,0,0,0,2.677.011l.011-.011,10.014-10.032v16.525a7.571,7.571,0,0,0-5.679,7.307v1.893a1.894,1.894,0,0,0,1.893,1.893h3.786v-3.786h-1.893a3.786,3.786,0,0,1,7.572,0h-1.893v3.786h3.786a1.894,1.894,0,0,0,1.893-1.893v-1.893a7.572,7.572,0,0,0-5.679-7.307v-17.3a22.715,22.715,0,0,1,22.715,22.715v9.465h-11.357v-15.144h-3.786v26.5h3.786v-7.572h7.572v7.572h3.785v-7.572h1.893a1.893,1.893,0,0,0,1.893-1.893V3684.2a26.5,26.5,0,0,0-26.5-26.5h-1.893v-3.578a26.5,26.5,0,0,0,12.626-17.245,8.48,8.48,0,0,0,.625-16.942v-1.988a1.893,1.893,0,0,0,1.893-1.892v-17.037a11.358,11.358,0,0,0-11.358-11.358H6655.59a11.358,11.358,0,0,0-11.358,11.358v17.037a1.892,1.892,0,0,0,1.893,1.892v1.988a8.48,8.48,0,0,0,.625,16.942,26.5,26.5,0,0,0,12.626,17.245v3.578h-1.893a26.5,26.5,0,0,0-26.5,26.5v11.358a1.894,1.894,0,0,0,1.893,1.893h1.893v7.572h3.786v-7.572h7.572v7.572h3.786Zm37.859-30.439a22.582,22.582,0,0,1-30.287,0v-14.992h30.287Zm3.786-4.353v-11.756l3.786-3.786v3.01A22.589,22.589,0,0,1,6691.556,3643.731Zm11.358-15.371a4.732,4.732,0,0,1-3.786,4.732v-9.37A4.735,4.735,0,0,1,6702.914,3628.36Zm-54.9-29.341a7.572,7.572,0,0,1,7.572-7.572h34.073a7.572,7.572,0,0,1,7.572,7.572v15.144h-49.217Zm47.324,18.929v4.9l-6.455,6.455h-32.521l-6.455-6.455v-4.9Zm-53,10.412a4.733,4.733,0,0,1,3.786-4.638v7.477a11.394,11.394,0,0,0,.094,1.8A4.734,4.734,0,0,1,6642.339,3628.36Zm7.572-.171,3.786,3.786v11.756a22.585,22.585,0,0,1-3.786-12.532Zm7.572,57.906a1.893,1.893,0,1,1,1.893-1.893A1.892,1.892,0,0,1,6657.483,3686.095Zm15.143-17.813-9.465-9.465v-2.9a26.067,26.067,0,0,0,18.93,0v2.9Z" fill="#fff"/></g></svg>