<svg xmlns="http://www.w3.org/2000/svg" width="180" height="180" viewBox="0 0 180 180"><g transform="translate(-1207.951 -4722)"><circle cx="90" cy="90" r="90" transform="translate(1207.951 4722)" fill="#63c3ef"/><path d="M1342.915,4755.849H1253.98a8.893,8.893,0,0,0-8.893,8.894v64.033a8.892,8.892,0,0,0,8.893,8.893h33.8v10.672H1277.1a5.353,5.353,0,0,0-5.336,5.337v7.114a1.778,1.778,0,0,0,1.779,1.779h49.8a1.778,1.778,0,0,0,1.779-1.779v-7.114a5.353,5.353,0,0,0-5.336-5.337H1309.12v-10.672h33.8a8.892,8.892,0,0,0,8.893-8.893v-64.033A8.893,8.893,0,0,0,1342.915,4755.849Zm-23.123,96.05a1.778,1.778,0,0,1,1.778,1.779v5.336h-46.246v-5.336a1.779,1.779,0,0,1,1.779-1.779Zm-28.459-3.558v-10.672h14.229v10.672Zm56.918-19.565a5.352,5.352,0,0,1-5.336,5.336H1253.98a5.352,5.352,0,0,1-5.336-5.336v-5.336h99.607Zm0-8.894h-99.607v-55.139a5.352,5.352,0,0,1,5.336-5.336h88.935a5.352,5.352,0,0,1,5.336,5.336Z" transform="translate(-0.003 3.284)" fill="#fff"/><rect width="3.557" height="3.557" transform="translate(1337.576 4830.281)" fill="#fff"/><rect width="3.557" height="3.557" transform="translate(1330.461 4830.281)" fill="#fff"/><path d="M1337.579,4766.522h-5.336v-1.779a1.779,1.779,0,0,0-1.779-1.779h-28.459a1.778,1.778,0,0,0-1.779,1.779v1.779h-3.557v-1.779a1.779,1.779,0,0,0-1.779-1.779h-28.459a1.779,1.779,0,0,0-1.779,1.779v1.779h-5.336a1.779,1.779,0,0,0-1.779,1.778v46.246a1.779,1.779,0,0,0,1.779,1.779h78.263a1.779,1.779,0,0,0,1.778-1.779V4768.3A1.778,1.778,0,0,0,1337.579,4766.522Zm-33.795,0h24.9v39.131h-24.9Zm-7.115,3.557h3.557v37.352a1.779,1.779,0,1,1-3.557,0Zm-28.459-3.557h24.9v39.131h-24.9Zm67.59,46.246h-74.705v-42.689h3.557v37.352a1.779,1.779,0,0,0,1.779,1.779h27a5.314,5.314,0,0,0,10.031,0h27a1.779,1.779,0,0,0,1.779-1.779v-37.352h3.557Z" transform="translate(-0.003 3.284)" fill="#fff"/><rect width="3.557" height="3.557" transform="translate(1271.765 4776.92)" fill="#fff"/><rect width="10.672" height="3.557" transform="translate(1278.879 4776.92)" fill="#fff"/><rect width="17.787" height="3.557" transform="translate(1271.765 4784.035)" fill="#fff"/><rect width="17.787" height="3.557" transform="translate(1271.765 4791.15)" fill="#fff"/><rect width="17.787" height="3.557" transform="translate(1271.765 4798.265)" fill="#fff"/><rect width="17.787" height="3.557" transform="translate(1307.338 4784.035)" fill="#fff"/><rect width="17.787" height="3.557" transform="translate(1307.338 4776.92)" fill="#fff"/><rect width="17.787" height="3.557" transform="translate(1307.338 4791.15)" fill="#fff"/><rect width="17.787" height="3.557" transform="translate(1307.338 4798.265)" fill="#fff"/></g></svg>