<svg xmlns="http://www.w3.org/2000/svg" width="180" height="180" viewBox="0 0 180 180"><g transform="translate(-529.951 -3126)"><circle cx="90" cy="90" r="90" transform="translate(529.951 3126)" fill="#63c3ef"/><path d="M620.718,3223.317a18.592,18.592,0,0,1-13.447-5.735c-7.653-7.586-11.137-21.685-11.137-31.572,0-1.017.071-1.959.145-2.9a2.061,2.061,0,1,1,4.109.316c-.064.841-.13,1.682-.13,2.587,0,9.348,3.406,22.189,9.915,28.646a14.89,14.89,0,0,0,10.68,4.538c15.432-.128,20.625-22.843,20.625-33.184a15.828,15.828,0,0,0-.182-2.436,2.062,2.062,0,0,1,4.076-.625,20.025,20.025,0,0,1,.23,3.061c0,12.1-6.041,37.151-24.716,37.307Z" transform="translate(-1.356 3.072)" fill="#fff"/><path d="M575.523,3270.588a2.062,2.062,0,0,1-2.062-2.062c0-11.918,2.85-23.191,7.816-30.931a2.061,2.061,0,1,1,3.47,2.225c-4.552,7.093-7.163,17.558-7.163,28.706A2.061,2.061,0,0,1,575.523,3270.588Zm19.923-36.9a2.061,2.061,0,0,1-.308-4.1l.954-.142c3.553-.526,6.907-1.023,9.352-3.309,1.758-1.711,1.661-5.276,1.344-9.757a2.063,2.063,0,0,1,1.913-2.2,2.094,2.094,0,0,1,2.2,1.912c.322,4.6.689,9.819-2.613,13.028-3.413,3.193-7.759,3.837-11.594,4.405l-.937.14A2.033,2.033,0,0,1,595.446,3233.691Z" transform="translate(-1.356 3.072)" fill="#fff"/><path d="M666.213,3270.588a2.061,2.061,0,0,1-2.061-2.062c0-11.056-2.614-21.523-7.17-28.716a2.062,2.062,0,0,1,3.484-2.206c4.961,7.835,7.809,19.106,7.809,30.922A2.062,2.062,0,0,1,666.213,3270.588Zm-19.923-36.9a2,2,0,0,1-.307-.023l-.909-.133c-4.069-.594-8.278-1.209-11.615-4.4-3.314-3.226-2.963-8.284-2.625-13.177a2.1,2.1,0,0,1,2.2-1.914,2.063,2.063,0,0,1,1.915,2.2c-.339,4.859-.424,8.175,1.373,9.924,2.374,2.268,5.761,2.762,9.349,3.286l.923.137a2.061,2.061,0,0,1-.3,4.1Z" transform="translate(-1.356 3.072)" fill="#fff"/><path d="M666.213,3270.588h-90.69a2.061,2.061,0,1,1,0-4.123h90.69a2.061,2.061,0,1,1,0,4.123Z" transform="translate(-1.356 3.072)" fill="#fff"/><path d="M650.276,3186.286a2.1,2.1,0,0,1-.324-.026,185.81,185.81,0,0,0-58.237,0,2.061,2.061,0,0,1-.644-4.071,189.851,189.851,0,0,1,59.525,0,2.061,2.061,0,0,1-.32,4.1Z" transform="translate(-1.356 3.072)" fill="#fff"/><path d="M599.171,3203.988a8.622,8.622,0,0,1-6.133-2.3c-3.205-3.02-4.416-8.788-3.7-17.634a2.061,2.061,0,0,1,4.109.334c-.748,9.231.9,12.872,2.416,14.3,1.073,1.011,2.562,1.363,4.585,1.082a2.06,2.06,0,1,1,.578,4.08A13.2,13.2,0,0,1,599.171,3203.988Z" transform="translate(-1.356 3.072)" fill="#fff"/><path d="M642.555,3203.99a13.1,13.1,0,0,1-1.848-.138,2.061,2.061,0,0,1,.582-4.08,5.193,5.193,0,0,0,4.552-1.086c1.524-1.441,3.174-5.09,2.379-14.284a2.062,2.062,0,0,1,1.877-2.231,2.036,2.036,0,0,1,2.232,1.876c.762,8.82-.434,14.588-3.655,17.635A8.581,8.581,0,0,1,642.555,3203.99Z" transform="translate(-1.356 3.072)" fill="#fff"/><path d="M593.112,3186.01a2.062,2.062,0,0,1-2.062-2.062c0-24.641,8.083-33.8,29.819-33.8a2.062,2.062,0,1,1,0,4.123c-19.452,0-25.7,7.211-25.7,29.679A2.062,2.062,0,0,1,593.112,3186.01Z" transform="translate(-1.356 3.072)" fill="#fff"/><path d="M648.624,3186.01a2.062,2.062,0,0,1-2.061-2.062c0-22.468-6.244-29.679-25.694-29.679a2.062,2.062,0,0,1,0-4.123c21.736,0,29.817,9.161,29.817,33.8A2.062,2.062,0,0,1,648.624,3186.01Z" transform="translate(-1.356 3.072)" fill="#fff"/><path d="M615.856,3170.414a2.062,2.062,0,0,1-1.271-3.687l5.015-3.916a2.062,2.062,0,0,1,2.538,3.25l-5.016,3.916A2.051,2.051,0,0,1,615.856,3170.414Z" transform="translate(-1.356 3.072)" fill="#fff"/><path d="M625.88,3170.414a2.046,2.046,0,0,1-1.266-.438l-5.014-3.916a2.061,2.061,0,1,1,2.538-3.247l5.013,3.916a2.061,2.061,0,0,1-1.271,3.685Z" transform="translate(-1.356 3.072)" fill="#fff"/><path d="M648.283,3178.8a1.947,1.947,0,0,1-.3-.023,186.324,186.324,0,0,0-54.293,0,2.061,2.061,0,1,1-.6-4.078,190.429,190.429,0,0,1,55.5,0,2.062,2.062,0,0,1-.3,4.1Z" transform="translate(-1.356 3.072)" fill="#fff"/><path d="M620.869,3270.588a2.061,2.061,0,0,1-2.061-2.062v-32.361a2.062,2.062,0,1,1,4.123,0v32.361A2.062,2.062,0,0,1,620.869,3270.588Z" transform="translate(-1.356 3.072)" fill="#fff"/><path d="M612.966,3245.853c-.04,0-.081,0-.121-.005a2.055,2.055,0,0,1-1.472-.75l-10.992-13.4a2.06,2.06,0,1,1,3.186-2.613l9.576,11.669,4.372-4.218-11.733-7.132a2.061,2.061,0,1,1,2.14-3.522l14.017,8.519a2.063,2.063,0,0,1,.362,3.245l-7.9,7.626A2.064,2.064,0,0,1,612.966,3245.853Z" transform="translate(-1.356 3.072)" fill="#fff"/><path d="M578.957,3241.661a2.063,2.063,0,0,1-2.038-1.756l-.892-5.977a2.06,2.06,0,0,1,1.55-2.308l16.969-4.123a2.061,2.061,0,0,1,2.516,1.64l1.1,6.185a2.059,2.059,0,0,1-1.57,2.372l-17.177,3.915A2.036,2.036,0,0,1,578.957,3241.661Zm1.425-6.481.287,1.915,13.091-2.985-.371-2.09Z" transform="translate(-1.356 3.072)" fill="#fff"/><path d="M606.509,3256.914h-14.5a2.062,2.062,0,1,1,0-4.123h14.5a2.062,2.062,0,0,1,0,4.123Z" transform="translate(-1.356 3.072)" fill="#fff"/><path d="M594.006,3270.588a2.063,2.063,0,0,1-1.806-1.063c-2.265-4.095-2.258-8.573-2.251-13.759v-.914a2.062,2.062,0,0,1,4.124,0l0,.921c-.007,4.8-.012,8.594,1.738,11.754a2.062,2.062,0,0,1-1.8,3.061Z" transform="translate(-1.356 3.072)" fill="#fff"/><path d="M604.445,3270.588a2.062,2.062,0,0,1-1.8-3.061c1.809-3.264,1.806-7.2,1.8-12.187v-.488a2.061,2.061,0,0,1,4.123,0v.485c0,5.362.005,9.989-2.319,14.188A2.063,2.063,0,0,1,604.445,3270.588Z" transform="translate(-1.356 3.072)" fill="#fff"/><path d="M606.166,3263.167h-13.88a2.062,2.062,0,1,1,0-4.123h13.88a2.062,2.062,0,0,1,0,4.123Z" transform="translate(-1.356 3.072)" fill="#fff"/><path d="M628.77,3245.853a2.064,2.064,0,0,1-1.432-.578l-7.9-7.626a2.064,2.064,0,0,1,.362-3.245l14.015-8.519a2.061,2.061,0,1,1,2.14,3.522l-11.731,7.132,4.372,4.218,9.574-11.669a2.06,2.06,0,1,1,3.186,2.613l-10.992,13.4a2.056,2.056,0,0,1-1.475.75C628.851,3245.851,628.81,3245.853,628.77,3245.853Z" transform="translate(-1.356 3.072)" fill="#fff"/><path d="M662.71,3241.661a2.043,2.043,0,0,1-.459-.052l-17.177-3.915a2.06,2.06,0,0,1-1.57-2.372l1.1-6.185a2.062,2.062,0,0,1,.9-1.363,2.033,2.033,0,0,1,1.612-.277l17.037,4.123a2.06,2.06,0,0,1,1.551,2.329l-.961,5.977a2.063,2.063,0,0,1-2.036,1.735Zm-14.8-7.551,13.118,2.992.308-1.924-13.054-3.16Z" transform="translate(-1.356 3.072)" fill="#fff"/><path d="M649.725,3256.914h-14.5a2.062,2.062,0,0,1,0-4.123h14.5a2.062,2.062,0,1,1,0,4.123Z" transform="translate(-1.356 3.072)" fill="#fff"/><path d="M647.73,3270.588a2.062,2.062,0,0,1-1.816-3.035c1.754-3.271,1.752-7.212,1.749-12.2v-.5a2.062,2.062,0,0,1,4.124,0v.5c0,5.345,0,9.96-2.237,14.145A2.062,2.062,0,0,1,647.73,3270.588Z" transform="translate(-1.356 3.072)" fill="#fff"/><path d="M637.223,3270.588a2.063,2.063,0,0,1-1.821-1.089c-2.241-4.185-2.239-8.8-2.236-14.145v-.5a2.061,2.061,0,0,1,4.123,0v.5c0,4.987-.005,8.928,1.749,12.2a2.062,2.062,0,0,1-1.815,3.035Z" transform="translate(-1.356 3.072)" fill="#fff"/><path d="M649.45,3263.167H635.5a2.062,2.062,0,1,1,0-4.123H649.45a2.062,2.062,0,1,1,0,4.123Z" transform="translate(-1.356 3.072)" fill="#fff"/></g></svg>