<svg xmlns="http://www.w3.org/2000/svg" width="181.71" height="181.71" viewBox="0 0 181.71 181.71"><g transform="translate(-7260.259 -4902.558)"><circle cx="90.855" cy="90.855" r="90.855" transform="translate(7260.259 4902.558)" fill="#1f7129"/><path d="M7353.286,5014.854a39.035,39.035,0,1,1,19.14-33.584q0,.591-.017,1.178l4.065,1.355a6.3,6.3,0,0,1,4.9-2.479l6.742-20.225a6.314,6.314,0,1,1,3.993,1.331l-6.742,20.227a6.314,6.314,0,1,1-10.191,5.151l-3.136-1.046a38.731,38.731,0,0,1-4.785,13.921l29.589,29.589a9.381,9.381,0,0,1,0,13.265l-.806.806a9.38,9.38,0,0,1-13.265,0Zm11.625-10.565a39.278,39.278,0,0,1-8.063,8.175l28.9,28.9a5.172,5.172,0,0,0,7.311,0l.807-.807a5.172,5.172,0,0,0,0-7.312Zm3.306-23.238a34.807,34.807,0,1,0-.244,4.355l-17.477-5.825a6.32,6.32,0,0,1-6.29,2.32l-8.031,14.087a6.313,6.313,0,1,1-10.47,1.428l-12.648-12.648a6.3,6.3,0,1,1,2.983-2.971l12.636,12.637a6.327,6.327,0,0,1,3.838-.524l8.095-14.2a6.314,6.314,0,1,1,11.2-4.129Zm-36.809,16.972a2.081,2.081,0,1,0,.215.01Zm50.08-12.49a2.1,2.1,0,1,0,0,4.209l.216-.011a2.1,2.1,0,0,0,1.062-3.763,2.069,2.069,0,0,0-1.062-.424Zm-71.143-8.573a2.1,2.1,0,0,0,0,4.21l.216-.011a2.1,2.1,0,0,0,0-4.187Zm35.155-3.345a2.1,2.1,0,0,0-1,3.955l.184.089a2.088,2.088,0,0,0,.819.166l.215-.011a2.072,2.072,0,0,0,.6-.155,2.1,2.1,0,0,0-.6-4.033Zm46.5-19.6a2.1,2.1,0,1,0,0,4.209l.215-.011a2.1,2.1,0,0,0,0-4.188Z" fill="#fff" fill-rule="evenodd"/></g></svg>