<svg xmlns="http://www.w3.org/2000/svg" width="181.71" height="181.71" viewBox="0 0 181.71 181.71"><g transform="translate(-529.177 -2189.912)"><circle cx="90.855" cy="90.855" r="90.855" transform="translate(529.177 2189.912)" fill="#7771b1"/><path d="M3727.9,2275.552a1.441,1.441,0,0,0-1.44,1.438v30.629h-16.2a1.442,1.442,0,0,0-1.439,1.44v12.78a1.44,1.44,0,1,0,2.879,0V2310.5h1.959v8.128a1.439,1.439,0,0,0,2.879,0V2310.5h5.081v8.128a1.439,1.439,0,0,0,2.878,0V2310.5h1.96v11.34a1.439,1.439,0,1,0,2.878,0V2276.99A1.439,1.439,0,0,0,3727.9,2275.552Z" transform="translate(-3057.837)" fill="#fff"/><path d="M3634.573,2272.219h.2a7.211,7.211,0,1,0-.2,0Zm.2-11.543a4.285,4.285,0,0,1,4.232,4.436,4.237,4.237,0,0,1-4.232,4.231h-.2a4.335,4.335,0,1,1,.2-8.667Z" transform="translate(-3057.837)" fill="#fff"/><path d="M3640.955,2307.641h-16.2v-30.633a1.438,1.438,0,1,0-2.875,0v44.849a1.438,1.438,0,1,0,2.875,0V2310.52h1.963v8.128a1.438,1.438,0,1,0,2.876,0v-8.128h5.085v8.128a1.438,1.438,0,1,0,2.876,0v-8.128h1.963v11.337a1.438,1.438,0,1,0,2.875,0V2309.08A1.438,1.438,0,0,0,3640.955,2307.641Z" transform="translate(-3057.837)" fill="#fff"/><path d="M3729.6,2228.5h-50.948a1.44,1.44,0,0,0-1.438,1.438v21.295h-2.717v-2.537a9.224,9.224,0,0,0-9.214-9.213h-9.041a8.694,8.694,0,0,0-8.684,8.685v14.987a6.436,6.436,0,0,0,4.994,6.259v5.065c-.014.028-.046.041-.059.07l-3.337,7.465-3.937.061-5.957-6.336a6.866,6.866,0,0,0-12.525,3.891v18.854a7.316,7.316,0,0,0,7.308,7.31h6.927v.32a1.439,1.439,0,0,0,1.438,1.439h1.016l3.771,10.007a4.517,4.517,0,0,0,4.2,2.914,4.5,4.5,0,0,0,4.261-5.919l-2.422-7h17.783v8.295l-15.449,15.293a1.434,1.434,0,0,0,.012,2.054l3.892,3.764a1.433,1.433,0,0,0,2.019-.018l10.044-10.1-.023,7.584a1.441,1.441,0,0,0,1.437,1.443h5.265a1.44,1.44,0,0,0,1.438-1.433l.031-6.7,6.979,8.677a1.427,1.427,0,0,0,.969.526.953.953,0,0,0,.151.011,1.459,1.459,0,0,0,.909-.323l4.245-3.459a1.443,1.443,0,0,0,.211-2.018l-13.14-16.295-.068-7.293h18.035l-2.422,7a4.5,4.5,0,0,0,4.266,5.9,4.507,4.507,0,0,0,4.2-2.914l3.769-9.989h1.02a1.441,1.441,0,0,0,1.44-1.439v-.337h6.927a7.321,7.321,0,0,0,7.31-7.314v-18.851a6.753,6.753,0,0,0-4.831-6.559,6.64,6.64,0,0,0-7.563,2.5l-6.1,6.5-3.937-.06-3.328-7.445a1.436,1.436,0,0,0-1.313-.851h-28.2v-13.257h7.995v3.9a1.439,1.439,0,0,0,1.438,1.438h30.765a7.171,7.171,0,0,0,14.265,0h5.918a1.44,1.44,0,0,0,1.44-1.438v-34.4A1.441,1.441,0,0,0,3729.6,2228.5Zm-88.5,71.543,0,.012a1.43,1.43,0,0,0-.122.574v2.286h-6.928a4.436,4.436,0,0,1-4.432-4.431v-18.854a3.883,3.883,0,0,1,2.807-3.812,4,4,0,0,1,4.608,1.719l6.092,6.5a2.985,2.985,0,0,0,2.151.909l4.825-.074h0l2.521-.038a1.048,1.048,0,0,1,.481.189.655.655,0,0,1,.2.471v1.2a.645.645,0,0,1-.2.47.653.653,0,0,1-.469.19h-.009l-4.894-.039-6.166-.049a2.347,2.347,0,0,1-1.85-.941l-3.329-4.47a1.438,1.438,0,0,0-2.307,1.717l2.552,3.428.824,10a1.437,1.437,0,0,0,1.3,1.314l2.992.275Zm1.89-4.227-2.766-.253-.478-5.793a5.19,5.19,0,0,0,1.791.379l3.972.031Zm9.725,21.112a1.678,1.678,0,0,1-2.821-.379l-3.39-9h3.7l2.739,7.921A1.6,1.6,0,0,1,3652.708,2316.924Zm19.27,5.385-.009.009-11.514,11.586-1.817-1.756,13.7-13.562,1.5,1.859Zm4.809,10.671H3674.4l.028-9.05,1.222-1.229,1.181,1.468Zm13.225-1.151-2.012,1.639-14.1-17.531v-8.388h3.171l.071,7.819a1.443,1.443,0,0,0,.318.889Zm11.32-15.3a1.672,1.672,0,0,1-2.82.376,1.576,1.576,0,0,1-.231-1.429l2.74-7.925h3.7Zm6.042-11.857h-63.53v-2.6h63.53Zm.856-8.875-2.52-5.636,3.985-.032a5.171,5.171,0,0,0,1.787-.378l-.477,5.793Zm-2.292-10.871a2.641,2.641,0,0,0,2.167-.906l6.225-6.673a3.993,3.993,0,0,1,7.282,2.263v18.851a4.436,4.436,0,0,1-4.431,4.434h-6.928v-2.268a1.429,1.429,0,0,0-.124-.577l0-.009-.657-1.47,3-.275a1.434,1.434,0,0,0,1.3-1.313l.822-9.993,2.555-3.434a1.439,1.439,0,0,0-2.31-1.717l-3.325,4.47a2.326,2.326,0,0,1-1.847.941l-11.074.088a.7.7,0,0,1-.467-.19.65.65,0,0,1-.2-.47v-1.2a.654.654,0,0,1,.2-.474,1.418,1.418,0,0,1,.5-.186Zm-9.452-8.355,2.4,5.373-.2,0a3.587,3.587,0,0,0-2.563,1,3.507,3.507,0,0,0-1.074,2.537v1.2a3.514,3.514,0,0,0,1.053,2.517,3.672,3.672,0,0,0,2.517,1.022l3.95-.032,4.024,9h-61.969l.522-1.169c.014-.025.023-.052.035-.078l3.459-7.737,3.95.031a3.378,3.378,0,0,0,2.526-1.022,3.512,3.512,0,0,0,1.052-2.517v-1.2a3.507,3.507,0,0,0-1.069-2.533,3.385,3.385,0,0,0-2.547-1l-.229,0,2.409-5.391Zm-41.062-2.876v-7.134h4.02v7.134Zm6.9,0v-7.134h4.02v7.134Zm6.9-16.131v-7.428a1.438,1.438,0,1,0-2.875,0v13.549h-10.916v-13.549a1.438,1.438,0,0,0-2.876,0v16.259a3.556,3.556,0,0,1-2.119-3.242v-14.987a5.817,5.817,0,0,1,5.809-5.809h9.042a6.346,6.346,0,0,1,6.337,6.337v3.975a1.439,1.439,0,0,0,1.438,1.438h7.354a1.728,1.728,0,0,1,0,3.456h-11.194Zm47.33,11.763a4.327,4.327,0,1,1,4.333-4.334A4.337,4.337,0,0,1,3716.545,2269.325Zm11.612-6.425h-4.738a7.17,7.17,0,0,0-13.74,0h-29.593v-2.463h.323a4.586,4.586,0,0,0,4.561-4.394l7.352-7.261a1.439,1.439,0,0,0-2.022-2.047l-6.35,6.271a4.523,4.523,0,0,0-3.541-1.777h-.323v-19.857h48.071Z" transform="translate(-3057.837)" fill="#fff"/><path d="M3660.882,2237.494a7.559,7.559,0,1,0-7.56-7.56A7.568,7.568,0,0,0,3660.882,2237.494Zm0-12.244a4.684,4.684,0,1,1-4.684,4.684A4.69,4.69,0,0,1,3660.882,2225.25Z" transform="translate(-3057.837)" fill="#fff"/><path d="M3709.095,2244.091a1.435,1.435,0,0,0-1.5.495l-3.261,4.115-5.155-1.1a1.435,1.435,0,0,0-1.457.548l-3.56,4.788-5.618,1.076a1.439,1.439,0,0,0,.27,2.851,1.4,1.4,0,0,0,.271-.025l6.169-1.181a1.446,1.446,0,0,0,.885-.555l3.342-4.5,5.123,1.094a1.435,1.435,0,0,0,1.429-.513l3.23-4.074,4.579,1.222a1.427,1.427,0,0,0,1.471-.464l5.4-6.422v1.842a1.44,1.44,0,0,0,2.879,0v-5.772a1.411,1.411,0,0,0-.488-1.144c-.008-.007-.019-.008-.028-.015s-.008-.013-.014-.018a1.357,1.357,0,0,0-.236-.118,1.01,1.01,0,0,0-.693-.172c-.035,0-.067-.006-.1,0a1.271,1.271,0,0,0-.167,0l-5.607,1.148a1.439,1.439,0,0,0,.576,2.819l1.608-.329-4.74,5.635Z" transform="translate(-3057.837)" fill="#fff"/><path d="M3691.009,2237.114h17.615a1.438,1.438,0,1,0,0-2.875h-17.615a1.438,1.438,0,1,0,0,2.875Z" transform="translate(-3057.837)" fill="#fff"/><path d="M3691.009,2242.722h8.806a1.438,1.438,0,1,0,0-2.876h-8.806a1.438,1.438,0,1,0,0,2.876Z" transform="translate(-3057.837)" fill="#fff"/></g></svg>