<svg xmlns="http://www.w3.org/2000/svg" width="180" height="180" viewBox="0 0 180 180"><g transform="translate(-529.902 -3962.768)"><ellipse cx="90" cy="90" rx="90" ry="90" transform="translate(529.902 3962.768)" fill="#219e45"/><path d="M678.223,4094.748l-8.03-13.985a2.235,2.235,0,0,0-.959-.851l-9.349-3.527-12.465-13.5a1.844,1.844,0,0,0-1.917-.487l-13.9,4.743L614.58,4051.7a1.656,1.656,0,0,0-1.8-.365l-8.27,3.162v-15.323h.24a1.857,1.857,0,0,0,1.8-1.824v-.243H661.2a7.905,7.905,0,0,0,0-15.809H606.55v-.121a1.857,1.857,0,0,0-1.8-1.824h-.24v-24.808a1.909,1.909,0,0,0-1.078-1.7,1.81,1.81,0,0,0-1.918.365c-5.992,6.08-10.068,15.323-11.626,26.024h-1.078a1.857,1.857,0,0,0-1.8,1.824v.122h-.959a7.832,7.832,0,0,0-7.791,7.9,8.547,8.547,0,0,0,2.278,5.594,7.554,7.554,0,0,0,5.513,2.31h.959v.244a1.857,1.857,0,0,0,1.8,1.824h1.078A54.02,54.02,0,0,0,596,4057.536l-7.91,3.04a1.987,1.987,0,0,0-1.078,2.311l4.074,13.133-19.177,12.039a.943.943,0,0,0-.479.487l-9.589,13.5a1.9,1.9,0,0,0-.119,1.946,1.867,1.867,0,0,0,1.558.973H672.23a2.04,2.04,0,0,0,1.558-.852l4.434-7.418A1.887,1.887,0,0,0,678.223,4094.748Zm-17.019-69.8a4.257,4.257,0,0,1,0,8.513H606.55v-8.513Zm-70.594,10.58V4023h12.345v12.525Zm10.307-35.995v19.822h-7.431C594.685,4011.569,597.2,4004.759,600.917,3999.53Zm-14.862,33.928a3.83,3.83,0,0,1-2.877-1.338,4.336,4.336,0,0,1-1.318-2.918,4.127,4.127,0,0,1,4.195-4.257h.959v8.513Zm14.862,5.715v19.7c-3.6-5.108-6.113-11.918-7.431-19.7Zm70.354,62.141H566.758l7.192-10.336,20.015-12.526a1.8,1.8,0,0,0,.719-2.067l-3.716-12.89,7.072-2.676a31.107,31.107,0,0,0,3.475,4.257,1.79,1.79,0,0,0,1.319.486,1.493,1.493,0,0,0,.719-.122,1.721,1.721,0,0,0,1.079-1.7v-5.594l8.51-3.162,16.9,15.444a1.658,1.658,0,0,0,1.8.365l13.9-4.743,11.986,13.134a2.485,2.485,0,0,0,.719.486l9.109,3.405,7.192,12.526Z" transform="translate(0.395 -0.737)" fill="#fff"/></g></svg>