<svg xmlns="http://www.w3.org/2000/svg" width="181.71" height="181.71" viewBox="0 0 181.71 181.71"><g transform="translate(-1203.435 -4096.84)"><circle cx="90.855" cy="90.855" r="90.855" transform="translate(1203.435 4096.84)" fill="#323e5f"/><path d="M11593.454,4172.494a1.468,1.468,0,0,0-2.06.2c-.161.2-7.885,9.4-13.744,16.383a1.411,1.411,0,0,0-.112.132l-5.784,6.894-22.747-6.614a1.461,1.461,0,0,0-1.409.343l-25.367,23.967h-24v-3.96h21.849a1.461,1.461,0,0,0,1-.4l9-8.5c.02-.021.039-.036.059-.056l12.311-11.631c.031-.029.063-.057.095-.089l4.593-4.338,22.412,6.514a1.454,1.454,0,0,0,1.53-.468l8.594-10.3a.353.353,0,0,1,.026-.029l8.63-10.341a1.444,1.444,0,0,0,.343-.937c0-.52,0-.65-1.945-2.278l7.434-.82.585,7.384Zm-16.274,61.823h-9.46v-36.343l4.134,1.2a1.458,1.458,0,0,0,1.528-.466l3.8-4.526Zm-12.388,0h-9.466V4194.37l9.466,2.751Zm-12.393,0h-9.461v-36.063l6.06-5.725,3.4.989Zm-12.389,0h-9.466v-24.355l9.466-8.942Zm-12.394,0h-9.46v-17.6h4.656a1.455,1.455,0,0,0,1-.4l3.8-3.593Zm-12.389,0h-9.464v-17.6h9.464Zm-12.393,0h-9.461V4196.11h9.461v10.8h-6.073a1.465,1.465,0,0,0-1.464,1.463v6.884a1.465,1.465,0,0,0,1.464,1.461h6.073Zm2.688-53.707a26.239,26.239,0,0,1-5.426-4.938l18.716-13.917-.177,14.938h-1.945a1.465,1.465,0,0,0-1.464,1.463v6.464a26.077,26.077,0,0,1-9.7-4.01m-7.176-7.277a26.444,26.444,0,0,1-3.437-21.371l22.269,7.363Zm.167-29.294a26.34,26.34,0,0,1,35.322-7.771l-14.118,20.816-23.9-7.9a26.112,26.112,0,0,1,2.693-5.142m19.642,42.434v-6.856h9.46v19.617l-8.125,7.678h-1.335v-20.324s0-.009.007-.013c0-.035-.009-.067-.007-.1m21.854-6.059v7.112l-9.466,8.942v-10.294a29.171,29.171,0,0,0,9.466-5.76m6.5-20.055a26.081,26.081,0,0,1-1.232,6.629h-3.8a1.464,1.464,0,0,0-1.463,1.461v7.828a26.214,26.214,0,0,1-9.466,6.747v-4.868a1.465,1.465,0,0,0-1.463-1.463h-7.517l.19-16.409Zm5.89,9.553V4183.3l-5.257-1.528a1.453,1.453,0,0,0-1.408.342l-2.8,2.641v-14.847h3.438l.011,0,.006,0Zm15.32-14.042h9.46v23.122l-7.735,9.267-1.725-.5Zm29.233,8.56a1.445,1.445,0,0,0-.525-1.01,1.406,1.406,0,0,0-1.092-.327l-12.379,1.366a1.462,1.462,0,0,0-.766,2.586s1.74,1.424,2.947,2.414l-5.03,6.026v-21.076a1.464,1.464,0,0,0-1.464-1.463h-12.39a1.465,1.465,0,0,0-1.463,1.463v32.5l-9.464-2.753v-15.7a1.465,1.465,0,0,0-1.465-1.463h-5.473a28.917,28.917,0,0,0,1.178-8.081v-.008a1.461,1.461,0,0,0-1.463-1.462h-.02l-25.022-.074,14.059-20.725a1.465,1.465,0,0,0-.39-2.033,29.163,29.163,0,0,0-44.122,14.878,1.146,1.146,0,0,0-.085.148,1.06,1.06,0,0,0-.016.132,29.344,29.344,0,0,0,4.25,26.363,1,1,0,0,0,.072.154,1.234,1.234,0,0,0,.106.1,28.786,28.786,0,0,0,18.29,11.216v19.32h-9.466v-12.263a1.464,1.464,0,0,0-1.463-1.463h-12.389a1.464,1.464,0,0,0-1.463,1.463v39.668h-1.1a1.462,1.462,0,1,0,0,2.924h99.52a1.462,1.462,0,1,0,0-2.924h-8.762v-43.623c7.484-8.923,10.979-13.11,12.549-15.072l2.885,2.367a1.462,1.462,0,0,0,2.386-1.247Z" transform="translate(-10243.658)" fill="#fff"/><path d="M11542.268,4141.121a14.071,14.071,0,0,1,4.957,9.612l-12.274.418Zm-11.556,12.278a1.46,1.46,0,0,0,1.292.776h.05l16.734-.572a1.461,1.461,0,0,0,1.412-1.455,17,17,0,0,0-7.418-14.3,1.468,1.468,0,0,0-2,.348l-9.958,13.654a1.467,1.467,0,0,0-.111,1.546" transform="translate(-10243.658)" fill="#fff"/></g></svg>