<svg xmlns="http://www.w3.org/2000/svg" width="181.71" height="181.71" viewBox="0 0 181.71 181.71"><g transform="translate(-530.014 -4002.199)"><circle cx="90.855" cy="90.855" r="90.855" transform="translate(530.014 4002.199)" fill="#7771b1"/><path d="M3716.455,4126.389h-73.5a1.838,1.838,0,0,1-1.838-1.838,5.512,5.512,0,0,0-5.512-5.512,1.838,1.838,0,0,1-1.838-1.838v-51.448a1.837,1.837,0,0,1,1.838-1.837,5.513,5.513,0,0,0,5.512-5.513,1.838,1.838,0,0,1,1.838-1.837h73.5a1.838,1.838,0,0,1,1.838,1.837,5.512,5.512,0,0,0,5.512,5.513,1.836,1.836,0,0,1,1.837,1.837V4117.2a1.837,1.837,0,0,1-1.837,1.838,5.511,5.511,0,0,0-5.512,5.512A1.838,1.838,0,0,1,3716.455,4126.389Zm-71.844-3.675h70.19a9.188,9.188,0,0,1,7.166-7.166v-48.141a9.188,9.188,0,0,1-7.166-7.166h-70.19a9.188,9.188,0,0,1-7.166,7.166v48.141A9.189,9.189,0,0,1,3644.611,4122.714Z" transform="translate(-3057.837)" fill="#fff"/><path d="M3727.48,4133.738h-95.547a5.512,5.512,0,0,1-5.512-5.512v-73.5a5.513,5.513,0,0,1,5.512-5.513h95.547a5.512,5.512,0,0,1,5.512,5.513v73.5A5.512,5.512,0,0,1,3727.48,4133.738Zm-95.547-80.847a1.838,1.838,0,0,0-1.838,1.838v73.5a1.838,1.838,0,0,0,1.838,1.838h95.547a1.838,1.838,0,0,0,1.837-1.838v-73.5a1.838,1.838,0,0,0-1.837-1.838Z" transform="translate(-3057.837)" fill="#fff"/><path d="M3703.593,4080.453H3655.82a7.35,7.35,0,1,1,0-14.7h47.773a7.35,7.35,0,1,1,0,14.7Zm-47.773-11.025a3.675,3.675,0,0,0,0,7.35h47.773a3.675,3.675,0,0,0,0-7.35Z" transform="translate(-3057.837)" fill="#fff"/><path d="M3699.918,4113.527a10.9,10.9,0,0,1-6.615-2.205,11.026,11.026,0,1,1,13.23,0A10.9,10.9,0,0,1,3699.918,4113.527Zm0-18.375a7.35,7.35,0,1,0,7.35,7.35A7.35,7.35,0,0,0,3699.918,4095.152Z" transform="translate(-3057.837)" fill="#fff"/><path d="M3705.43,4120.876a2.155,2.155,0,0,1-.588,0l-4.924-1.745-4.924,1.654a1.854,1.854,0,0,1-2.426-1.746v-9.187a1.8,1.8,0,0,1,2.867-1.47,7.439,7.439,0,0,0,8.819,0,1.931,1.931,0,0,1,3.014,1.47v9.187a1.838,1.838,0,0,1-.772,1.488A1.722,1.722,0,0,1,3705.43,4120.876Zm-5.512-5.512a2.237,2.237,0,0,1,.588,0l3.087,1.029v-3.675a11.183,11.183,0,0,1-7.35,0v3.675l3.087-1.029A2.236,2.236,0,0,1,3699.918,4115.364Z" transform="translate(-3057.837)" fill="#fff"/><path d="M3650.307,4115.364a1.813,1.813,0,0,1-.716-.147,1.837,1.837,0,0,1-.974-2.407l5.512-12.862a1.838,1.838,0,0,1,3.528.717v8.433l4.208-4.226a1.837,1.837,0,0,1,2.921,2.168,6.656,6.656,0,0,0-.974,4.337c.111.2.57.312,1.2.312a7.262,7.262,0,0,0,1.121-.753,12.51,12.51,0,0,1,8.066-2.922h5.512a1.837,1.837,0,1,1,0,3.675h-5.512a9,9,0,0,0-5.9,2.205,5.706,5.706,0,0,1-3.289,1.47,4.63,4.63,0,0,1-4.355-2.113,4.044,4.044,0,0,1-.533-1.415l-2.995,3a1.849,1.849,0,0,1-3.142-1.3v-3.914l-1.984,4.63A1.839,1.839,0,0,1,3650.307,4115.364Z" transform="translate(-3057.837)" fill="#fff"/><path d="M3687.056,4087.8h-34.911a1.837,1.837,0,1,1,0-3.674h34.911a1.837,1.837,0,1,1,0,3.674Z" transform="translate(-3057.837)" fill="#fff"/><path d="M3687.056,4095.152h-34.911a1.838,1.838,0,1,1,0-3.675h34.911a1.838,1.838,0,0,1,0,3.675Z" transform="translate(-3057.837)" fill="#fff"/></g></svg>