<svg xmlns="http://www.w3.org/2000/svg" width="180" height="180" viewBox="0 0 180 180"><g transform="translate(-529.951 -5123)"><circle cx="90" cy="90" r="90" transform="translate(529.951 5123)" fill="#63c3ef"/><path d="M669.179,5215.58H658.053v-22.252a1.86,1.86,0,0,0-.2-.835l-1.854-3.709a1.858,1.858,0,0,0-.927-.871l-12.295-5.322-1-3.1a15.211,15.211,0,0,0,5.155-12.128v-14.835a1.856,1.856,0,0,0-.538-1.317,20.355,20.355,0,0,0-24.886,0,1.856,1.856,0,0,0-.538,1.317v14.835a15.208,15.208,0,0,0,5.137,12.128l-1,3.1-12.295,5.322a1.853,1.853,0,0,0-.927.871l-1.855,3.709a1.855,1.855,0,0,0-.185.835v22.252H598.713v-5.563a1.855,1.855,0,0,0-1.855-1.854H595V5202.6a1.854,1.854,0,0,0-1.855-1.855h-3.708v-17.783l2.614-2.615h1.428a5.566,5.566,0,0,0,5.23,3.709h3.708a5.563,5.563,0,1,0,0-11.127h-3.708a5.565,5.565,0,0,0-5.23,3.709h-2.188a1.854,1.854,0,0,0-1.317.538l-3.708,3.709a1.854,1.854,0,0,0-.538,1.316v18.544h-3.709a1.854,1.854,0,0,0-1.854,1.855v5.563h-1.855a1.854,1.854,0,0,0-1.854,1.854v5.563H557.916v3.709h5.563v9.272a1.854,1.854,0,0,0,1.855,1.854h3.708v35.234h3.709V5247.1h16.69V5243.4h-16.69v-5.563h89.011v5.563h-16.69v3.709h16.69v18.544h3.709v-35.234h3.708a1.854,1.854,0,0,0,1.855-1.854v-9.272H676.6v-3.709Zm-70.466-38.942h3.708a1.854,1.854,0,1,1,0,3.709h-3.708a1.854,1.854,0,1,1,0-3.709Zm25.961-23.235a17.131,17.131,0,0,1,18.544,0v8.14c-.927-.241-1.854-.7-1.854-1.594a1.855,1.855,0,0,0-1.855-1.855H628.383a1.855,1.855,0,0,0-1.855,1.855c0,.871-.927,1.335-1.854,1.594Zm0,13.963v-2.021a6.585,6.585,0,0,0,5.229-3.542h8.086a6.585,6.585,0,0,0,5.229,3.542v2.021c0,5.137-2.429,11.126-9.272,11.126S624.674,5172.5,624.674,5167.366Zm14.538,16.226-5.266,5.267-5.266-5.267.7-2.207a12.977,12.977,0,0,0,9.087,0Zm-25.664,10.181,1.353-2.708,11.127-4.84,6.064,6.009v6.657H635.8v-6.657l6.027-6.027,11.127,4.84,1.39,2.726v21.807h-5.563v-9.272h-3.709v9.272H622.82v-9.272h-3.709v9.272h-5.563Zm-29.671,10.681h7.418v3.709h-7.418Zm-3.708,7.418H595v3.708H580.169Zm87.156,14.835h-3.709a1.854,1.854,0,0,0-1.854,1.854v5.563H572.751v-3.709h77.885v-3.708H567.188v-7.418H667.325Z" transform="translate(3.167 4.263)" fill="#fff"/><rect width="3.709" height="3.709" transform="translate(657.511 5230.969)" fill="#fff"/><path d="M637.655,5243.4h-40.8a1.854,1.854,0,0,0-1.854,1.855v14.835a1.854,1.854,0,0,0,1.854,1.854h40.8a1.854,1.854,0,0,0,1.854-1.854v-14.835A1.854,1.854,0,0,0,637.655,5243.4Zm-1.855,14.835H598.713V5247.1H635.8Z" transform="translate(3.167 4.263)" fill="#fff"/><rect width="3.709" height="3.709" transform="translate(635.259 5206.862)" fill="#fff"/></g></svg>