<svg xmlns="http://www.w3.org/2000/svg" width="181.71" height="181.71" viewBox="0 0 181.71 181.71"><g transform="translate(-1208.108 -3638.711)"><circle cx="90.855" cy="90.855" r="90.855" transform="translate(1208.108 3638.711)" fill="#b81371"/><path d="M10362.7,3622.684h-7.07v-4.6a7.319,7.319,0,0,0-7.306-7.188h-30.165a7.372,7.372,0,0,0-4.949,1.886,6.579,6.579,0,0,0-4.714-1.886h-30.636a7.091,7.091,0,0,0-7.07,7.07v4.714h-7.07a2.362,2.362,0,0,0-2.356,2.356v77.771a2.363,2.363,0,0,0,2.356,2.356h56.561v4.714a7.09,7.09,0,0,0,7.069,7.07h21.211a7.09,7.09,0,0,0,7.069-7.07v-4.714h7.07a2.363,2.363,0,0,0,2.356-2.356V3625.04A2.363,2.363,0,0,0,10362.7,3622.684Zm-87.2-4.714a2.363,2.363,0,0,1,2.357-2.356h30.636a2.363,2.363,0,0,1,2.357,2.356v70.7a2.363,2.363,0,0,1-2.357,2.356h-30.636a2.363,2.363,0,0,1-2.357-2.356Zm44.777,82.484h-54.2V3627.4h4.714v61.274a7.091,7.091,0,0,0,7.07,7.07h30.636a7.078,7.078,0,0,0,4.832-1.886,7.37,7.37,0,0,0,4.949,1.886h2Zm30.637,9.427a2.364,2.364,0,0,1-2.356,2.357h-21.211a2.364,2.364,0,0,1-2.356-2.357v-10.605h25.924ZM10325,3694.562V3681.6a2.364,2.364,0,0,1,2.356-2.357h8.248v15.318Zm25.924,0h-10.6v-15.318h8.248a2.364,2.364,0,0,1,2.356,2.357Zm0-19.678a7.587,7.587,0,0,0-2.356-.353h-8.248v-10.6a9.455,9.455,0,0,0-9.428-9.427h-8.248a2.356,2.356,0,1,0,0,4.713h8.248a4.727,4.727,0,0,1,4.713,4.714v10.6h-8.248a7.09,7.09,0,0,0-7.069,7.07v9.426h-2.121a2.6,2.6,0,0,1-2.593-2.474v-70.465a2.6,2.6,0,0,1,2.593-2.474h30.047a2.625,2.625,0,0,1,2.711,2.474Zm9.426,25.57h-4.713V3627.4h4.713Zm-77.77-63.63h21.21a2.364,2.364,0,0,0,2.356-2.357v-11.783a2.364,2.364,0,0,0-2.356-2.357h-21.21a2.365,2.365,0,0,0-2.357,2.357v11.783A2.365,2.365,0,0,0,10282.576,3636.824Zm2.356-11.784h16.5v7.07h-16.5Zm-4.714,18.854a2.365,2.365,0,0,1,2.357-2.357h21.21a2.356,2.356,0,1,1,0,4.713h-21.21A2.364,2.364,0,0,1,10280.219,3643.894Zm0,9.427a2.364,2.364,0,0,1,2.357-2.357h21.21a2.356,2.356,0,1,1,0,4.713h-21.21A2.364,2.364,0,0,1,10280.219,3653.321Zm0,9.426a2.364,2.364,0,0,1,2.357-2.356h21.21a2.356,2.356,0,1,1,0,4.713h-21.21A2.365,2.365,0,0,1,10280.219,3662.747Zm0,9.427a2.365,2.365,0,0,1,2.357-2.357h21.21a2.357,2.357,0,0,1,0,4.714h-21.21A2.365,2.365,0,0,1,10280.219,3672.174Zm0,9.427a2.365,2.365,0,0,1,2.357-2.357h5.892a2.357,2.357,0,0,1,0,4.713h-5.892A2.364,2.364,0,0,1,10280.219,3681.6Zm25.924,0a2.363,2.363,0,0,1-2.356,2.356h-5.893a2.357,2.357,0,0,1,0-4.713h5.893A2.364,2.364,0,0,1,10306.143,3681.6Zm40.063-43.6a2.363,2.363,0,0,1-2.356,2.357h-21.21a2.357,2.357,0,0,1,0-4.714h21.21A2.363,2.363,0,0,1,10346.206,3638Zm0,9.427a2.363,2.363,0,0,1-2.356,2.357h-21.21a2.357,2.357,0,0,1,0-4.714h21.21A2.363,2.363,0,0,1,10346.206,3647.429Zm0-18.854a2.363,2.363,0,0,1-2.356,2.357h-5.892a2.356,2.356,0,1,1,0-4.713h5.892A2.363,2.363,0,0,1,10346.206,3628.575Zm-25.923,0a2.363,2.363,0,0,1,2.356-2.356h5.892a2.356,2.356,0,1,1,0,4.713h-5.892A2.363,2.363,0,0,1,10320.283,3628.575Z" transform="translate(-9014.249 65.641)" fill="#fff"/></g></svg>