<svg xmlns="http://www.w3.org/2000/svg" width="181.71" height="181.71" viewBox="0 0 181.71 181.71"><g transform="translate(-6581.969 -5343.184)"><circle cx="90.855" cy="90.855" r="90.855" transform="translate(6581.969 5343.184)" fill="#1f7129"/><path d="M6731.626,5411.722a1.445,1.445,0,0,0-.521-1,1.4,1.4,0,0,0-1.084-.324l-12.281,1.357a1.45,1.45,0,0,0-.761,2.564l2.926,2.4-4.992,5.979v-20.912a1.452,1.452,0,0,0-1.452-1.45h-12.292a1.453,1.453,0,0,0-1.452,1.45v32.245l-9.39-2.731V5415.71a1.454,1.454,0,0,0-1.453-1.45h-5.429a28.663,28.663,0,0,0,1.167-8.019h0v0a1.451,1.451,0,0,0-1.452-1.453c-.006,0-.011,0-.017,0l-24.828-.074,13.949-20.564a1.452,1.452,0,0,0-.386-2.015,28.935,28.935,0,0,0-43.777,14.76,1.489,1.489,0,0,0-.084.147c-.014.044,0,.088-.016.132a29.121,29.121,0,0,0,4.217,26.156,1.338,1.338,0,0,0,.071.152c.03.039.074.059.106.1a28.567,28.567,0,0,0,18.148,11.127v19.169h-9.391V5441.7a1.453,1.453,0,0,0-1.452-1.45h-12.292a1.452,1.452,0,0,0-1.452,1.45v39.357h-1.088a1.45,1.45,0,1,0,0,2.9h98.738a1.45,1.45,0,1,0,0-2.9h-8.693v-43.28c7.426-8.854,10.892-13.006,12.451-14.953l2.862,2.348a1.451,1.451,0,0,0,2.367-1.238Zm-29-8.493h9.387v22.94l-7.676,9.2-1.711-.5Zm-15.2,13.932v13.287l-5.214-1.516a1.443,1.443,0,0,0-1.4.34l-2.774,2.62v-14.731h9.387Zm-5.843-9.479a25.8,25.8,0,0,1-1.223,6.578h-3.773a1.452,1.452,0,0,0-1.452,1.45v7.766a26.005,26.005,0,0,1-9.391,6.693v-4.829a1.453,1.453,0,0,0-1.452-1.451h-7.457l.189-16.279Zm-6.448,19.9v7.057l-9.391,8.873v-10.215A28.911,28.911,0,0,0,6675.13,5427.58Zm-21.683,6.012v-6.8h9.387v19.464l-8.062,7.617h-1.325v-20.165c0-.006.007-.008.007-.013C6653.459,5433.658,6653.445,5433.627,6653.447,5433.592Zm-19.486-42.1a26.133,26.133,0,0,1,35.045-7.709L6655,5404.433l-23.711-7.841A26.051,26.051,0,0,1,6633.961,5391.49Zm-.167,29.065a26.236,26.236,0,0,1-3.41-21.2l22.1,7.305Zm7.121,7.22a26.014,26.014,0,0,1-5.383-4.9l18.567-13.807-.174,14.821H6652a1.452,1.452,0,0,0-1.452,1.451v6.414A25.854,25.854,0,0,1,6640.915,5427.775Zm-2.668,53.285h-9.387v-37.906h9.387v10.717h-6.025a1.453,1.453,0,0,0-1.453,1.451v6.829a1.453,1.453,0,0,0,1.453,1.451h6.025Zm12.295,0h-9.39V5463.6h9.39Zm12.292,0h-9.387V5463.6h4.619a1.446,1.446,0,0,0,1-.4l3.772-3.564Zm12.3,0h-9.391V5456.9l9.391-8.872Zm12.291,0h-9.387v-35.78l6.012-5.679,3.376.982v40.477Zm12.3,0h-9.391v-39.633l9.391,2.731Zm12.291,0h-9.387V5445l4.1,1.193a1.445,1.445,0,0,0,1.516-.46l3.769-4.492v39.817Zm16.146-61.337a1.455,1.455,0,0,0-2.043.195c-.16.193-7.822,9.324-13.637,16.254a1.365,1.365,0,0,0-.11.131l-5.74,6.84-22.568-6.562a1.455,1.455,0,0,0-1.4.34l-25.168,23.78h-23.815v-3.928h21.675a1.446,1.446,0,0,0,1-.4l8.93-8.437c.019-.018.039-.035.057-.054l12.214-11.539c.032-.03.064-.057.094-.089l4.557-4.3,22.238,6.465a1.448,1.448,0,0,0,1.516-.464l8.528-10.216c.009-.009.015-.02.024-.029l8.564-10.26a1.44,1.44,0,0,0,.34-.93c0-.515,0-.644-1.93-2.26l7.375-.815.581,7.328Z" fill="#fff"/><path d="M6665.9,5400.788a1.454,1.454,0,0,0,1.283.771h.049l16.614-.567a1.454,1.454,0,0,0,1.4-1.447,16.88,16.88,0,0,0-7.364-14.194,1.457,1.457,0,0,0-1.987.345l-9.887,13.557A1.459,1.459,0,0,0,6665.9,5400.788Zm11.474-12.191a13.972,13.972,0,0,1,4.92,9.543l-12.185.417Z" fill="#fff"/></g></svg>