<svg xmlns="http://www.w3.org/2000/svg" width="181.71" height="181.71" viewBox="0 0 181.71 181.71"><g transform="translate(-1208.29 -2719.695)"><circle cx="90.855" cy="90.855" r="90.855" transform="translate(1208.29 2719.695)" fill="#7771b1"/><path d="M4388.049,2815.079a54.09,54.09,0,0,1-13.363-5.3l-3.384-1.86v-.7l2.268-.17a10.016,10.016,0,0,0,8.629-13.671l-3.672-9.714-.007-.016c.244-3.137.562-9.472-.369-13.816l1.925-.622a1.5,1.5,0,0,0,.965-1.887,1.4,1.4,0,0,0-.085-.209l-2.487-4.974,1.9-5.708a3.734,3.734,0,0,0-2.158-4.646l-10.229-4.081a28.178,28.178,0,0,0-20.971,0l-10.23,4.082a3.737,3.737,0,0,0-2.157,4.645l1.9,5.706-2.486,4.974a1.5,1.5,0,0,0,.67,2.011,1.388,1.388,0,0,0,.209.085l1.3.42c-.936,4.7.223,10.187.7,12.107a4.667,4.667,0,0,0,.042,4.772l-1.468,8.681a10.188,10.188,0,0,0,8.347,11.744q.467.079.939.115l1.921.143v.681c0,.2.007.4.012.6l-4.292,2.155a57.257,57.257,0,0,1-12.508,4.449,22.281,22.281,0,0,0-17.131,21.743V2869.6a1.5,1.5,0,0,0,1.5,1.5h89.4a1.5,1.5,0,0,0,1.5-1.5h0v-32.779A22.279,22.279,0,0,0,4388.049,2815.079Zm-13.024-1.724-3.75,11.176-4.236-4.054a17.916,17.916,0,0,0,4.1-9.224l2.1,1.157q.891.489,1.783.944Zm-10.725,5.692h-10.585a17.534,17.534,0,0,1-4.014-11.167v-2.991a18.444,18.444,0,0,0,18.6-.2v4.125a14.989,14.989,0,0,1-4,10.237Zm-3.488,7.412h-3.66l-1.867-4.416h7.394Zm-2.794,3h2.5l4.434,25.747-6.044,7.059-5.878-7.034Zm-16.195-43.68h-.849a1.689,1.689,0,0,1,0-3.378h.849a1.5,1.5,0,0,0,1.5-1.5,9.977,9.977,0,0,1,3.337-7.472c.1-.087.2-.17.3-.254a29.175,29.175,0,0,0,10.538,1.963q.439,0,.878-.014a59.725,59.725,0,0,0,15.949,10.742v2.94a15.5,15.5,0,0,1-31.005,0v-1.529A1.5,1.5,0,0,0,4341.823,2785.777ZM4337.5,2766.9l1.57-3.14h36.851l1.57,3.14-9.567,3.091c-.044.014-.087.03-.13.048a26.264,26.264,0,0,1-20.6,0q-.064-.027-.13-.048Zm41.893,27.544a7.02,7.02,0,0,1-6.05,9.622l-2.045.153v-1.761h-.005a18.455,18.455,0,0,0,6.024-13.505Zm-3.845-11.311a61.454,61.454,0,0,1-13.182-8.4,28.957,28.957,0,0,0,6.547-1.909l6.37-2.058c.744,3.767.485,9.363.264,12.369Zm-37.656-28.554,10.229-4.082a25.184,25.184,0,0,1,18.749,0l10.23,4.082a.733.733,0,0,1,.424.913l-1.756,5.271h-36.544l-1.757-5.271A.734.734,0,0,1,4337.9,2754.577Zm5.87,17.494a12.978,12.978,0,0,0-3.36,7.364,4.612,4.612,0,0,0-.883.2,26.437,26.437,0,0,1-.429-9.071Zm1.239,31.993a7.19,7.19,0,0,1-6.634-7.706q.026-.333.081-.662l1.2-7.115a4.539,4.539,0,0,0,.669.15v.075a18.459,18.459,0,0,0,6.379,13.958v1.429Zm2.052,7.594a20.509,20.509,0,0,0,3.924,8.772l-4.267,4.11-3.752-10.835q.406-.2.806-.4Zm55.124,56.444h-86.4v-31.28a19.293,19.293,0,0,1,14.831-18.828,64.161,64.161,0,0,0,9.6-3.064l4.435,12.806a1.5,1.5,0,0,0,2.456.589l5.387-5.188,1.868,4.415a2.669,2.669,0,0,0,.744,1.185l-5.156,26.621a1.5,1.5,0,0,0,.321,1.246l7.471,8.94a1.5,1.5,0,0,0,1.141.538h.009a1.5,1.5,0,0,0,1.139-.525l7.654-8.94a1.5,1.5,0,0,0,.339-1.229l-4.689-27.229a2.741,2.741,0,0,0,.272-.607l1.87-4.422,5.434,5.2a1.5,1.5,0,0,0,2.457-.606l4.382-13.059a53.88,53.88,0,0,0,9.6,3.33,19.294,19.294,0,0,1,14.831,18.828Z" transform="translate(-3057.837)" fill="#fff"/></g></svg>