<svg xmlns="http://www.w3.org/2000/svg" width="181.71" height="181.71" viewBox="0 0 181.71 181.71"><g transform="translate(-529.177 -2119.057)"><circle cx="90.855" cy="90.855" r="90.855" transform="translate(529.177 2119.057)" fill="#f09300"/><path d="M4126.886,2202.051a1.522,1.522,0,0,0-1.522,1.52v32.383H4108.24a1.524,1.524,0,0,0-1.522,1.522v13.512a1.522,1.522,0,1,0,3.043,0V2239h2.072v8.593a1.521,1.521,0,1,0,3.043,0V2239h5.372v8.593a1.522,1.522,0,0,0,3.044,0V2239h2.071v11.99a1.522,1.522,0,0,0,3.044,0v-47.417A1.521,1.521,0,0,0,4126.886,2202.051Z" transform="translate(-3455.11)" fill="#fff"/><path d="M4028.212,2198.526h.215a7.624,7.624,0,1,0-.215,0Zm.215-12.2a4.532,4.532,0,0,1,4.475,4.691,4.48,4.48,0,0,1-4.475,4.473h-.215a4.583,4.583,0,1,1,.215-9.164Z" transform="translate(-3455.11)" fill="#fff"/><path d="M4034.959,2235.976h-17.128v-32.387a1.521,1.521,0,0,0-3.041,0v47.417a1.521,1.521,0,1,0,3.041,0V2239.02h2.075v8.593a1.52,1.52,0,1,0,3.04,0v-8.593h5.377v8.593a1.52,1.52,0,1,0,3.04,0v-8.593h2.075v11.986a1.52,1.52,0,1,0,3.04,0V2237.5A1.521,1.521,0,0,0,4034.959,2235.976Z" transform="translate(-3455.11)" fill="#fff"/><path d="M4128.675,2152.3H4074.81a1.52,1.52,0,0,0-1.52,1.52v22.514h-2.873v-2.682a9.751,9.751,0,0,0-9.741-9.741h-9.559a9.192,9.192,0,0,0-9.182,9.182v15.846a6.8,6.8,0,0,0,5.281,6.616v5.356c-.016.029-.05.042-.063.074l-3.528,7.892-4.162.064-6.3-6.7a7.26,7.26,0,0,0-13.243,4.113v19.934a7.736,7.736,0,0,0,7.727,7.729h7.324v.338a1.522,1.522,0,0,0,1.52,1.522h1.074l3.987,10.579a4.776,4.776,0,0,0,4.446,3.081,4.752,4.752,0,0,0,4.5-6.258l-2.56-7.4h18.8v8.769l-16.334,16.169a1.516,1.516,0,0,0,.013,2.171l4.115,3.979a1.515,1.515,0,0,0,2.135-.018l10.619-10.684-.025,8.018a1.524,1.524,0,0,0,1.52,1.526h5.566a1.523,1.523,0,0,0,1.521-1.515l.032-7.087,7.379,9.174a1.513,1.513,0,0,0,1.024.557,1.214,1.214,0,0,0,.16.011,1.541,1.541,0,0,0,.961-.342l4.488-3.656a1.527,1.527,0,0,0,.223-2.135l-13.893-17.228-.071-7.71h19.068l-2.561,7.4a4.753,4.753,0,0,0,4.51,6.24,4.765,4.765,0,0,0,4.444-3.081l3.985-10.561h1.078a1.524,1.524,0,0,0,1.522-1.521V2234h7.324a7.74,7.74,0,0,0,7.728-7.732v-19.931a7.139,7.139,0,0,0-5.108-6.934,7.019,7.019,0,0,0-8,2.641l-6.447,6.875-4.163-.063-3.518-7.871a1.519,1.519,0,0,0-1.389-.9h-29.818V2186.07h8.453v4.125a1.521,1.521,0,0,0,1.52,1.52h32.526a7.582,7.582,0,0,0,15.082,0h6.257a1.522,1.522,0,0,0,1.522-1.52v-36.374A1.522,1.522,0,0,0,4128.675,2152.3Zm-93.57,75.638,0,.013a1.505,1.505,0,0,0-.13.607v2.417h-7.324a4.691,4.691,0,0,1-4.686-4.685v-19.934a4.1,4.1,0,0,1,2.968-4.029,4.23,4.23,0,0,1,4.872,1.817l6.441,6.875a3.152,3.152,0,0,0,2.273.961l5.1-.078h0l2.665-.041a1.094,1.094,0,0,1,.508.2.684.684,0,0,1,.212.5v1.27a.684.684,0,0,1-.208.5.692.692,0,0,1-.5.2h-.009l-5.175-.041-6.518-.052a2.485,2.485,0,0,1-1.957-1l-3.519-4.726a1.52,1.52,0,1,0-2.439,1.815l2.7,3.625.872,10.571a1.518,1.518,0,0,0,1.375,1.388l3.163.291Zm2-4.469-2.924-.268-.506-6.124a5.463,5.463,0,0,0,1.894.4l4.2.034Zm10.282,22.321a1.775,1.775,0,0,1-2.983-.4l-3.584-9.511h3.909l2.9,8.375A1.7,1.7,0,0,1,4047.385,2245.791Zm20.373,5.693-.009.01-12.173,12.249-1.921-1.856,14.482-14.339,1.58,1.965Zm5.085,11.282h-2.528l.03-9.568,1.291-1.3,1.249,1.553Zm13.981-1.217-2.127,1.733-14.911-18.534v-8.869h3.352l.076,8.267a1.515,1.515,0,0,0,.336.939Zm11.968-16.178a1.767,1.767,0,0,1-2.981.4,1.667,1.667,0,0,1-.245-1.51l2.9-8.379h3.91Zm6.389-12.536h-67.167v-2.754h67.167Zm.9-9.383-2.664-5.959,4.213-.033a5.463,5.463,0,0,0,1.889-.4l-.5,6.123Zm-2.423-11.494a2.79,2.79,0,0,0,2.291-.957l6.581-7.055a4.221,4.221,0,0,1,7.7,2.392v19.931a4.69,4.69,0,0,1-4.684,4.688h-7.324v-2.4a1.521,1.521,0,0,0-.132-.61l0-.01-.694-1.553,3.17-.292a1.515,1.515,0,0,0,1.377-1.388l.87-10.565,2.7-3.63a1.522,1.522,0,0,0-2.442-1.816l-3.516,4.726a2.458,2.458,0,0,1-1.952,1l-11.708.093a.73.73,0,0,1-.494-.2.684.684,0,0,1-.208-.5v-1.27a.687.687,0,0,1,.212-.5,1.5,1.5,0,0,1,.523-.2Zm-9.992-8.833,2.539,5.681-.212,0a3.789,3.789,0,0,0-2.71,1.056,3.71,3.71,0,0,0-1.136,2.682v1.27a3.719,3.719,0,0,0,1.114,2.661,3.888,3.888,0,0,0,2.662,1.081l4.175-.034,4.255,9.518H4038.84l.552-1.236c.014-.027.024-.055.037-.083l3.657-8.18,4.176.033a3.573,3.573,0,0,0,2.671-1.081,3.718,3.718,0,0,0,1.112-2.661v-1.27a3.71,3.71,0,0,0-1.13-2.678,3.581,3.581,0,0,0-2.693-1.06l-.242,0,2.547-5.7Zm-43.414-3.04v-7.543h4.251v7.543Zm7.291,0v-7.543h4.25v7.543Zm7.29-17.055v-7.853a1.52,1.52,0,1,0-3.04,0V2189.5h-11.541v-14.325a1.52,1.52,0,0,0-3.04,0v17.189a3.755,3.755,0,0,1-2.24-3.426v-15.846a6.15,6.15,0,0,1,6.141-6.142h9.559a6.71,6.71,0,0,1,6.7,6.7v4.2a1.521,1.521,0,0,0,1.521,1.52h7.775a1.828,1.828,0,0,1,0,3.655Zm50.04,12.437a4.575,4.575,0,1,1,4.581-4.582A4.586,4.586,0,0,1,4114.877,2195.467Zm12.276-6.793h-5.009a7.579,7.579,0,0,0-14.526,0H4076.33v-2.6h.342a4.847,4.847,0,0,0,4.821-4.646l7.774-7.677a1.521,1.521,0,0,0-2.138-2.164l-6.714,6.63a4.782,4.782,0,0,0-3.743-1.878h-.342v-20.994h50.823Z" transform="translate(-3455.11)" fill="#fff"/><path d="M4056.027,2161.813a7.992,7.992,0,1,0-7.993-7.992A8,8,0,0,0,4056.027,2161.813Zm0-12.944a4.952,4.952,0,1,1-4.953,4.952A4.958,4.958,0,0,1,4056.027,2148.869Z" transform="translate(-3455.11)" fill="#fff"/><path d="M4107,2168.788a1.514,1.514,0,0,0-1.585.524l-3.449,4.35-5.449-1.164a1.516,1.516,0,0,0-1.541.58l-3.764,5.061-5.939,1.138a1.521,1.521,0,0,0,.285,3.014,1.474,1.474,0,0,0,.286-.026l6.522-1.249a1.527,1.527,0,0,0,.936-.586l3.534-4.754,5.416,1.157a1.52,1.52,0,0,0,1.511-.542l3.415-4.308,4.841,1.292a1.51,1.51,0,0,0,1.555-.49l5.709-6.79v1.947a1.522,1.522,0,0,0,3.044,0v-6.1a1.49,1.49,0,0,0-.516-1.208c-.009-.008-.02-.009-.029-.016s-.009-.014-.015-.02a1.532,1.532,0,0,0-.25-.125,1.476,1.476,0,0,0-.262-.131,1.422,1.422,0,0,0-.471-.05c-.036,0-.071-.006-.106,0a1.3,1.3,0,0,0-.177,0l-5.928,1.214a1.521,1.521,0,0,0,.609,2.98l1.7-.348-5.012,5.957Z" transform="translate(-3455.11)" fill="#fff"/><path d="M4087.879,2161.412H4106.5a1.52,1.52,0,1,0,0-3.04h-18.623a1.52,1.52,0,1,0,0,3.04Z" transform="translate(-3455.11)" fill="#fff"/><path d="M4087.879,2167.34h9.31a1.52,1.52,0,1,0,0-3.04h-9.31a1.52,1.52,0,1,0,0,3.04Z" transform="translate(-3455.11)" fill="#fff"/></g></svg>