<svg xmlns="http://www.w3.org/2000/svg" width="181.71" height="181.71" viewBox="0 0 181.71 181.71"><g transform="translate(-529.227 -3173.41)"><circle cx="90.855" cy="90.855" r="90.855" transform="translate(529.227 3173.41)" fill="#b81371"/><path d="M9634.334,3292.052a60.822,60.822,0,0,0,48.069-23.573c.031-.034.077-.051.105-.089a60.261,60.261,0,0,0,12.016-27.921c.009-.06.017-.12.025-.18q.193-1.295.331-2.6c.023-.211.044-.422.065-.634q.105-1.126.172-2.261c.015-.245.034-.49.045-.736.045-.966.074-1.935.074-2.908,0-1.135-.037-2.261-.1-3.381-.023-.458-.068-.912-.1-1.368-.05-.643-.1-1.286-.17-1.924-.062-.569-.14-1.135-.217-1.7-.07-.509-.144-1.016-.227-1.521q-.151-.928-.332-1.851c-.086-.442-.182-.88-.278-1.319-.14-.639-.28-1.278-.441-1.912-.106-.416-.228-.826-.341-1.239q-.376-1.361-.815-2.7c-.226-.692-.453-1.383-.7-2.064-.16-.434-.34-.862-.511-1.293-.246-.623-.5-1.246-.761-1.859-.179-.412-.368-.821-.558-1.23-.284-.621-.581-1.237-.886-1.847-.114-.228-.212-.46-.329-.687-.021-.039-.053-.067-.076-.1a61.232,61.232,0,0,0-10.687-14.7,1.387,1.387,0,0,0-.154-.2c-.33-.333-.689-.63-1.026-.955-.571-.549-1.149-1.091-1.741-1.617-.487-.434-.978-.864-1.478-1.281q-1.315-1.1-2.687-2.123c-.43-.319-.869-.622-1.308-.93q-1.264-.891-2.574-1.719c-.289-.182-.569-.374-.861-.551-1.157-.7-2.348-1.355-3.555-1.982-.175-.09-.337-.2-.513-.286-.025-.013-.056-.008-.083-.019a60.413,60.413,0,0,0-12.84-4.763c-.012,0-.021-.012-.033-.015-.14-.034-.281-.057-.422-.09q-1.406-.334-2.836-.6c-.246-.046-.494-.089-.741-.133q-1.348-.235-2.717-.411c-.275-.035-.55-.073-.826-.1-.894-.1-1.795-.181-2.7-.244-.272-.02-.542-.047-.813-.062-1.146-.065-2.3-.1-3.46-.1-.187,0-.374.006-.561.013l-.361.01h0a61,61,0,0,0-10.143,1,.237.237,0,0,0-.026,0c-.055.01-.107.023-.16.034q-1.334.249-2.646.559c-.135.032-.27.061-.4.094q-1.349.326-2.671.712l-.295.084q-1.4.417-2.78.9c-.041.015-.084.028-.125.043a60.886,60.886,0,0,0-18.689,10.6c-.216.178-.422.368-.635.55-.534.457-1.068.913-1.586,1.388-.376.343-.739.7-1.107,1.055-.339.327-.683.65-1.015.984-.431.434-.848.881-1.266,1.328-.255.272-.514.541-.764.818-.439.488-.865.988-1.291,1.49-.215.254-.432.506-.643.764-.424.519-.835,1.048-1.243,1.582-.2.262-.4.523-.6.788-.393.531-.773,1.07-1.149,1.615-.2.292-.4.586-.6.882-.177.267-.366.525-.539.795-.022.034-.023.075-.042.11a60.855,60.855,0,0,0,51.338,93.6Zm42.545-26.168a5.784,5.784,0,0,1-3.445-3.129,2.793,2.793,0,0,1-.373-1.757c.953-1.907,1.03-6.811,1.03-12.548,0-1.98,2.028-3.542,4.377-5.351a32.147,32.147,0,0,0,3.777-3.238,2.851,2.851,0,0,0,.953-2.849c-.494-1.6-2.44-2.025-4.5-2.47a11.5,11.5,0,0,1-2.856-.856,6.563,6.563,0,0,0-1.407-5.292,7.279,7.279,0,0,0-5.851-2.4c-2.031,0-4.17-.751-4.636-6.327a4.806,4.806,0,0,0-3.2-4.339,4.053,4.053,0,0,1-2.617-3.086c-.78-2.934,1.055-4,5.427-5.743.6-.239,1.2-.477,1.771-.725,1.844-.8,7.1-.866,14.054-.181h0a30.391,30.391,0,0,0,5.933.008l.943-.091c.044.09.094.177.138.268.342.7.662,1.406.975,2.115.145.327.292.652.43.982q.514,1.224.969,2.465c.2.555.385,1.12.57,1.683.128.387.262.772.38,1.161.188.61.358,1.227.526,1.845.095.354.191.707.28,1.062q.236.939.437,1.889.119.553.226,1.108c.12.615.232,1.232.332,1.854.067.427.126.856.185,1.286.078.57.157,1.14.218,1.715s.1,1.127.145,1.692c.036.456.08.91.1,1.37.056,1.043.088,2.091.088,3.145,0,.923-.026,1.84-.069,2.752-.011.233-.028.465-.041.7-.043.723-.1,1.442-.165,2.158-.02.194-.038.387-.059.581-.094.877-.2,1.751-.334,2.617v.007a57.647,57.647,0,0,1-11.041,26.064A14.99,14.99,0,0,1,9676.879,3265.884ZM9670.7,3190.4a5.944,5.944,0,0,1-4.739,2.912,28.655,28.655,0,0,0-4.868.531,15.5,15.5,0,0,1-4.2.355,6.984,6.984,0,0,1-4.759-3.447c-.163-.406-.132-1.9,3.654-6.947a16.991,16.991,0,0,1,5.33-4c.13.068.263.132.393.2q1.247.663,2.454,1.387c.506.3,1,.62,1.5.938.515.328,1.025.658,1.528,1q.791.542,1.562,1.112c.319.234.634.474.947.714q2.106,1.614,4.058,3.408C9671.545,3189.229,9670.969,3189.737,9670.7,3190.4Zm-31.062-8.075a2.236,2.236,0,0,1-1.785.7,6.225,6.225,0,0,1-3.51-3.032c-.435-.652-.594-2.8.271-6.77.432,0,.859.021,1.29.033.525.014,1.052.02,1.577.049.311.016.616.049.926.07.7.05,1.4.1,2.1.174.154.016.306.041.458.058.842.1,1.685.206,2.522.34.1.016.2.037.3.054.869.144,1.736.3,2.6.487l.087.019A38.916,38.916,0,0,1,9639.642,3182.327Zm-16.065,4.5c2.577,3.129,4.093,6.947,3.245,8.171a6.8,6.8,0,0,1-5.244,3.38,9.471,9.471,0,0,1-3.23-1.062c-1.775-.8-3.789-1.717-4.968-.065a6.552,6.552,0,0,0-.773,3.151c-.131,1.347-.329,3.384-1.109,3.644a16,16,0,0,1-4.3-.24c-3.914-.5-8.353-1.067-9.242,2.126-.95,3.422,1.892,6.149,3.257,7.459a7.047,7.047,0,0,1,.511.507c.288.362,3.031,3.528,10.247,3.528,1.566,0,2.888-.107,3.951-.193,2.936-.236,3.677-.235,4.806,1.326a8.759,8.759,0,0,1,1,4.4c.142,2.166.332,5.132,3.178,5.467a11.91,11.91,0,0,0,5.275-1.275c2.251-.889,4.808-1.9,6.517-1.12,3.479,1.581,7,5.1,6.5,7.619-.121.6-.213,1.224-.3,1.858-.491,3.389-.961,5.521-4.3,6.635-5.879,1.96-7.257,4.966-7.65,9.5a9.567,9.567,0,0,1-5.651,7.537c-4.015,2.008-4.335,4.823-4.7,8.084l-.067.586a12.494,12.494,0,0,0,.284,4.228c.253,1.218.279,1.547-.029,1.991a1.854,1.854,0,0,1-1.406.063,3.56,3.56,0,0,1-2.782-2.333,42.931,42.931,0,0,1-.115-5.615c.076-5.208.052-8.758-.914-10.568a25.846,25.846,0,0,1-1.405-5.164,30.287,30.287,0,0,0-2.65-8.533,15.8,15.8,0,0,0-4.829-4.289c-2.247-1.528-4.571-3.106-4.571-4.908,0-4.492,0-11.28-6.01-15.286-5.207-3.472-10.592-7.062-10.592-14.946a20.673,20.673,0,0,1,.216-2.767c.141-.217.276-.438.42-.654.167-.251.34-.5.511-.746.366-.53.737-1.057,1.121-1.575.168-.227.341-.45.513-.675.395-.517.794-1.029,1.2-1.532.188-.23.383-.455.573-.682.4-.477.811-.952,1.229-1.416.23-.256.468-.506.7-.758.389-.417.779-.831,1.18-1.237.3-.3.6-.593.907-.886.349-.339.7-.678,1.057-1.008.386-.356.782-.7,1.178-1.046.289-.252.575-.506.869-.752.493-.413,1-.813,1.5-1.208.209-.165.415-.333.627-.494q.911-.691,1.85-1.345c.121-.086.242-.176.365-.261q1.075-.739,2.182-1.431l.12-.077a57.83,57.83,0,0,1,15.44-6.719l.03-.009q1.332-.359,2.685-.652l.072-.017c-.039.357-.1.744-.187,1.163C9621.737,3176.488,9620.79,3183.447,9623.576,3186.831Zm-40.882,18.112c1.036,7.8,6.924,11.753,11.845,15.035,4.581,3.053,4.581,8.426,4.581,12.743,0,3.374,3.121,5.5,5.873,7.365a14.059,14.059,0,0,1,3.951,3.361,28.719,28.719,0,0,1,2.291,7.62,25.479,25.479,0,0,0,1.691,5.946c.679,1.271.61,6,.563,9.126a42.237,42.237,0,0,0,.156,6.148,6.805,6.805,0,0,0,6.448,4.9,3.635,3.635,0,0,0,3.11-1.427,5.017,5.017,0,0,0,.5-4.287,9.5,9.5,0,0,1-.244-3.281l.069-.6c.349-3.072.507-4.475,3.081-5.761a12.25,12.25,0,0,0,7.281-9.937c.319-3.673,1.173-5.449,5.632-6.936v0c5.25-1.75,5.857-5.956,6.3-9.029.084-.579.165-1.15.275-1.7.856-4.281-3.577-8.814-8.182-10.906-2.854-1.3-6.034-.045-8.837,1.061a10.091,10.091,0,0,1-3.941,1.063,7.069,7.069,0,0,1-.456-2.684,11.179,11.179,0,0,0-1.555-5.949c-2.149-2.975-4.491-2.791-7.455-2.545-1.06.085-2.264.182-3.71.182-5.833,0-7.909-2.389-7.929-2.414a9.8,9.8,0,0,0-.772-.794c-1.416-1.36-2.89-2.941-2.446-4.532.5-.663,4.353-.174,6,.038a14.572,14.572,0,0,0,5.618.111c2.611-.87,2.908-3.937,3.126-6.175.038-.386.088-.9.142-1.266.42.148.993.407,1.418.6a11.371,11.371,0,0,0,4.457,1.326,9.55,9.55,0,0,0,7.686-4.659c2.267-3.273-1.068-8.928-3.394-11.752-1.648-2-1.322-7.151-1.091-8.718a12.924,12.924,0,0,0,.257-2.251,58.028,58.028,0,0,1,6.535-.686c-.808,4.03-.708,6.838.3,8.355,1.741,2.615,3.624,4.072,5.6,4.33a4.588,4.588,0,0,0,.6.039,5.279,5.279,0,0,0,3.538-1.456h0c2.156-1.905,6.382-6.262,7.841-9.325a57.524,57.524,0,0,1,8.452,3.017,16.409,16.409,0,0,0-4.483,3.778c-3.121,4.16-5,7.424-4.037,9.832a9.873,9.873,0,0,0,7.125,5.288,9.189,9.189,0,0,0,1.207.077,23.543,23.543,0,0,0,3.882-.449,26.092,26.092,0,0,1,4.369-.489,8.837,8.837,0,0,0,7.33-4.43,15.731,15.731,0,0,1,2.7-.9,58.219,58.219,0,0,1,8.751,11.7,27.556,27.556,0,0,1-5.065-.023c-5.421-.535-12.515-.9-15.53.414-.542.236-1.111.461-1.685.689-3.689,1.468-8.744,3.477-7.2,9.269a6.9,6.9,0,0,0,4.162,4.979c1.093.544,1.461.727,1.562,1.926.5,6.007,3.055,9.052,7.595,9.052a4.518,4.518,0,0,1,3.583,1.351,3.673,3.673,0,0,1,.72,3.036c-.479,2.869,2.928,3.606,5.182,4.093.556.121,1.371.3,1.92.478a31.232,31.232,0,0,1-3.335,2.824c-2.721,2.095-5.534,4.262-5.534,7.7,0,3.176,0,9.785-.717,11.218a5,5,0,0,0,.3,4.263,8.7,8.7,0,0,0,5.44,4.831,10.057,10.057,0,0,0,1.987.239,57.892,57.892,0,0,1-95.439-64.058Z" transform="translate(-9014.249 33.117)" fill="#fff" stroke="#fff" stroke-miterlimit="10" stroke-width="1"/></g></svg>