<svg xmlns="http://www.w3.org/2000/svg" width="180" height="180" viewBox="0 0 180 180"><g transform="translate(-1207.951 -3524)"><circle cx="90" cy="90" r="90" transform="translate(1207.951 3524)" fill="#63c3ef"/><path d="M1326.236,3616.382a51.773,51.773,0,0,1-12.79-5.069l-3.239-1.78v-.669l2.171-.163a9.587,9.587,0,0,0,8.259-13.085l-3.515-9.3-.007-.016c.233-3,.538-9.065-.353-13.223l1.842-.6a1.434,1.434,0,0,0,.924-1.806,1.3,1.3,0,0,0-.082-.2l-2.38-4.761,1.822-5.462a3.574,3.574,0,0,0-2.064-4.447l-9.791-3.906a26.974,26.974,0,0,0-20.072,0l-9.79,3.907a3.575,3.575,0,0,0-2.065,4.446l1.821,5.461-2.38,4.76a1.435,1.435,0,0,0,.641,1.925,1.457,1.457,0,0,0,.2.082l1.243.4c-.9,4.5.213,9.749.669,11.587a4.467,4.467,0,0,0,.041,4.567l-1.405,8.309a9.75,9.75,0,0,0,7.988,11.24q.447.076.9.11l1.839.137v.652c0,.192.006.381.012.571l-4.108,2.063a54.9,54.9,0,0,1-11.972,4.258,21.324,21.324,0,0,0-16.4,20.811v31.374a1.435,1.435,0,0,0,1.434,1.435H1341.2a1.435,1.435,0,0,0,1.435-1.435h0v-31.372A21.324,21.324,0,0,0,1326.236,3616.382Zm-12.466-1.65-3.589,10.7-4.054-3.88a17.148,17.148,0,0,0,3.923-8.828l2.014,1.107q.852.468,1.706.9Zm-10.265,5.447h-10.131a16.773,16.773,0,0,1-3.841-10.687v-2.863a17.651,17.651,0,0,0,17.8-.2v3.948a14.34,14.34,0,0,1-3.832,9.8Zm-3.338,7.095h-3.5l-1.787-4.227h7.077Zm-2.674,2.869h2.389l4.243,24.643-5.784,6.756-5.626-6.732Zm-15.5-41.806h-.813a1.616,1.616,0,1,1,0-3.233h.813a1.434,1.434,0,0,0,1.434-1.435,9.544,9.544,0,0,1,3.194-7.151c.094-.084.191-.163.29-.243a27.96,27.96,0,0,0,10.086,1.879c.28,0,.56-.006.84-.014a57.143,57.143,0,0,0,15.265,10.281v2.814a14.838,14.838,0,0,1-29.675,0v-1.464A1.434,1.434,0,0,0,1281.993,3588.337Zm-4.134-18.069,1.5-3.006h35.271l1.5,3.006-9.157,2.958c-.042.013-.083.029-.124.046a25.136,25.136,0,0,1-19.716,0,1.262,1.262,0,0,0-.124-.046Zm40.1,26.362a6.719,6.719,0,0,1-5.79,9.209l-1.958.147V3604.3h0a17.666,17.666,0,0,0,5.766-12.925Zm-3.679-10.826a58.784,58.784,0,0,1-12.617-8.041,27.752,27.752,0,0,0,6.266-1.827l6.1-1.97c.712,3.6.465,8.961.254,11.838Zm-36.042-27.329,9.791-3.907a24.109,24.109,0,0,1,17.945,0l9.79,3.907a.7.7,0,0,1,.407.874l-1.681,5.045H1279.51l-1.682-5.045A.7.7,0,0,1,1278.234,3558.475Zm5.619,16.744a12.412,12.412,0,0,0-3.215,7.048,4.505,4.505,0,0,0-.846.189,25.31,25.31,0,0,1-.411-8.682Zm1.186,30.62a6.881,6.881,0,0,1-6.349-7.375c.015-.212.041-.424.077-.634l1.151-6.809a4.534,4.534,0,0,0,.641.143v.072a17.669,17.669,0,0,0,6.1,13.359v1.367Zm1.964,7.269a19.649,19.649,0,0,0,3.755,8.4l-4.083,3.934-3.591-10.37c.258-.125.516-.251.771-.378Zm52.759,54.023h-82.693v-29.938a18.465,18.465,0,0,1,14.2-18.021,61.432,61.432,0,0,0,9.189-2.933l4.244,12.257a1.435,1.435,0,0,0,2.351.564l5.155-4.966,1.788,4.226a2.58,2.58,0,0,0,.712,1.134l-4.934,25.479a1.434,1.434,0,0,0,.308,1.193l7.15,8.556a1.434,1.434,0,0,0,1.092.515h.009a1.435,1.435,0,0,0,1.089-.5l7.326-8.556a1.43,1.43,0,0,0,.324-1.176l-4.488-26.061a2.6,2.6,0,0,0,.261-.582l1.79-4.232,5.2,4.976a1.434,1.434,0,0,0,2.352-.58l4.194-12.5a51.692,51.692,0,0,0,9.191,3.187,18.465,18.465,0,0,1,14.195,18.021Z" transform="translate(-0.601 1.743)" fill="#fff" stroke="#fff" stroke-miterlimit="10" stroke-width="0.5"/></g></svg>