<svg xmlns="http://www.w3.org/2000/svg" width="181.71" height="181.71" viewBox="0 0 181.71 181.71"><g transform="translate(-529.178 -2238.228)"><circle cx="90.855" cy="90.855" r="90.855" transform="translate(529.178 2238.228)" fill="#b81371"/><path d="M9678.749,2286.4h-88.935a8.894,8.894,0,0,0-8.894,8.893v64.033a8.894,8.894,0,0,0,8.894,8.894h33.795v10.672h-10.673a5.354,5.354,0,0,0-5.336,5.336v7.115a1.78,1.78,0,0,0,1.779,1.779h49.8a1.779,1.779,0,0,0,1.779-1.779v-7.115a5.352,5.352,0,0,0-5.336-5.336h-10.672v-10.672h33.795a8.893,8.893,0,0,0,8.893-8.894v-64.033A8.893,8.893,0,0,0,9678.749,2286.4Zm-23.123,96.049a1.78,1.78,0,0,1,1.779,1.779v5.336h-46.246v-5.336a1.778,1.778,0,0,1,1.777-1.779Zm-28.459-3.557v-10.672H9641.4v10.672Zm56.918-19.566a5.351,5.351,0,0,1-5.336,5.336h-88.935a5.353,5.353,0,0,1-5.337-5.336v-5.336h99.607Zm0-8.893h-99.607v-55.14a5.354,5.354,0,0,1,5.337-5.336h88.935a5.352,5.352,0,0,1,5.336,5.336Z" transform="translate(-9014.248 -6.029)" fill="#fff"/><rect width="3.557" height="3.557" transform="translate(659.165 2351.514)" fill="#fff"/><rect width="3.557" height="3.557" transform="translate(652.05 2351.514)" fill="#fff"/><path d="M9673.413,2297.067h-5.336v-1.779a1.779,1.779,0,0,0-1.779-1.778h-28.459a1.779,1.779,0,0,0-1.779,1.778v1.779H9632.5v-1.779a1.778,1.778,0,0,0-1.779-1.778h-28.459a1.779,1.779,0,0,0-1.778,1.778v1.779h-5.336a1.778,1.778,0,0,0-1.778,1.779v46.246a1.778,1.778,0,0,0,1.778,1.778h78.263a1.78,1.78,0,0,0,1.779-1.778v-46.246A1.78,1.78,0,0,0,9673.413,2297.067Zm-33.795,0h24.9V2336.2h-24.9Zm-7.115,3.557h3.557v37.353a1.778,1.778,0,1,1-3.557,0Zm-28.459-3.557h24.9V2336.2h-24.9Zm67.59,46.246h-74.705v-42.689h3.558v37.353a1.78,1.78,0,0,0,1.778,1.779h27a5.315,5.315,0,0,0,10.032,0h27a1.78,1.78,0,0,0,1.779-1.779v-37.353h3.557Z" transform="translate(-9014.248 -6.029)" fill="#fff"/><rect width="3.557" height="3.557" transform="translate(593.354 2298.153)" fill="#fff"/><rect width="10.672" height="3.557" transform="translate(600.468 2298.153)" fill="#fff"/><rect width="17.787" height="3.557" transform="translate(593.354 2305.268)" fill="#fff"/><rect width="17.787" height="3.557" transform="translate(593.354 2312.382)" fill="#fff"/><rect width="17.787" height="3.557" transform="translate(593.354 2319.497)" fill="#fff"/><rect width="17.787" height="3.557" transform="translate(628.927 2305.268)" fill="#fff"/><rect width="17.787" height="3.557" transform="translate(628.927 2298.153)" fill="#fff"/><rect width="17.787" height="3.557" transform="translate(628.927 2312.382)" fill="#fff"/><rect width="17.787" height="3.557" transform="translate(628.927 2319.497)" fill="#fff"/></g></svg>