<svg xmlns="http://www.w3.org/2000/svg" width="181.71" height="181.71" viewBox="0 0 181.71 181.71"><g transform="translate(-1203.435 -2739.695)"><circle cx="90.855" cy="90.855" r="90.855" transform="translate(1203.435 2739.695)" fill="#323e5f"/><path d="M11520.843,2802.941a17.29,17.29,0,1,0,17.29-17.29A17.29,17.29,0,0,0,11520.843,2802.941Zm30.409,0a13.119,13.119,0,1,1-13.119-13.119,13.119,13.119,0,0,1,13.119,13.119Z" transform="translate(-10243.658)" fill="#fff"/><path d="M11573.422,2822a25.019,25.019,0,0,0-16.372,6.09,31.721,31.721,0,0,0-37.834,0,25.151,25.151,0,0,0-41.565,19.1v6.09a2.085,2.085,0,0,0,2.085,2.086h26.509v6.257a2.085,2.085,0,0,0,2.085,2.085h59.607a2.086,2.086,0,0,0,2.086-2.085v-6.257h26.509a2.086,2.086,0,0,0,2.085-2.086v-6.09A25.214,25.214,0,0,0,11573.422,2822Zm-91.6,25.194a21.023,21.023,0,0,1,34.162-16.414l-.417.459-.813.855c-.459.5-.918,1.022-1.355,1.543l-.73.939c-.438.563-.834,1.147-1.209,1.731s-.417.6-.605.918c-.417.709-.834,1.46-1.21,2.21,0,.188-.208.376-.292.564-.459.959-.854,1.939-1.229,2.94a2.567,2.567,0,0,1-.23.751c-.25.751-.479,1.523-.667,2.294-.1.355-.167.73-.25,1.085-.146.688-.271,1.376-.354,2.085s-.1.793-.146,1.189-.1.584-.125.876h-24.526Zm28.594,12.284V2853.6a1.459,1.459,0,0,0,0-.292,27.7,27.7,0,0,1,45.362-20.856c.668.584,1.313,1.167,1.919,1.772a27.487,27.487,0,0,1,8.112,19.188v6.069Zm84.03-8.342h-24.527v-.6c0-.209-.1-.855-.146-1.293s-.25-1.022-.355-1.648a12.58,12.58,0,0,0-.271-1.272c-.1-.417-.271-1.064-.418-1.606l-.375-1.23c-.187-.522-.376-1.022-.584-1.544s-.312-.792-.479-1.168-.48-1.022-.73-1.522-.354-.751-.562-1.106-.605-1-.918-1.5-.4-.668-.625-.981-.772-1.063-1.189-1.585-.376-.521-.584-.771a20.492,20.492,0,0,0-2.086-2.211l-.312-.188a21.024,21.024,0,0,1,34.163,16.289Z" transform="translate(-10243.658)" fill="#fff"/><path d="M11573.422,2793.055a13.891,13.891,0,1,0,13.869,13.911v-.042a13.869,13.869,0,0,0-13.869-13.869Zm0,23.588a9.719,9.719,0,1,1,9.7-9.739v.02A9.719,9.719,0,0,1,11573.422,2816.643Z" transform="translate(-10243.658)" fill="#fff"/><path d="M11488.975,2806.924a13.869,13.869,0,1,0,13.869-13.869h0A13.89,13.89,0,0,0,11488.975,2806.924Zm23.567,0a9.7,9.7,0,1,1-9.7-9.7h0A9.719,9.719,0,0,1,11512.542,2806.924Z" transform="translate(-10243.658)" fill="#fff"/></g></svg>