<svg xmlns="http://www.w3.org/2000/svg" width="181.71" height="181.71" viewBox="0 0 181.71 181.71"><g transform="translate(-1208.29 -4330.076)"><circle cx="90.855" cy="90.855" r="90.855" transform="translate(1208.29 4330.076)" fill="#7771b1"/><path d="M4348.971,4409.8a1.523,1.523,0,0,0,2.084-.556l6.563-11.33,5.1,8.812a1.5,1.5,0,0,0-1.538,1.026,1.525,1.525,0,0,0,.981,1.921l3.248,1.051a1.508,1.508,0,0,0,.47.075,1.525,1.525,0,0,0,1.451-1.056l1.053-3.247a1.519,1.519,0,0,0-2.86-1.02l-6.588-11.374a1.586,1.586,0,0,0-2.64,0l-7.884,13.61A1.529,1.529,0,0,0,4348.971,4409.8Z" transform="translate(-3057.837)" fill="#fff"/><path d="M4368.221,4416.215l7.611,13.141h-11.589a1.5,1.5,0,0,0-.063-1.891,1.524,1.524,0,0,0-2.153-.137l-2.563,2.255a1.526,1.526,0,0,0-.137,2.154l2.256,2.562a1.514,1.514,0,0,0,2.362-1.892h14.533a1.525,1.525,0,0,0,1.321-2.289l-8.939-15.433a1.525,1.525,0,1,0-2.639,1.53Z" transform="translate(-3057.837)" fill="#fff"/><path d="M4336.759,4432.408h17.375a1.526,1.526,0,1,0,0-3.052h-14.728l6.351-10.962a1.521,1.521,0,0,0,2.866-1.015l-1.067-3.243a1.523,1.523,0,0,0-1.926-.972l-3.243,1.067a1.524,1.524,0,0,0-.972,1.926,1.5,1.5,0,0,0,1.52,1.02l-7.5,12.941a1.525,1.525,0,0,0,1.319,2.29Z" transform="translate(-3057.837)" fill="#fff"/><path d="M4319.19,4380.593a1.527,1.527,0,0,0,1.526,1.526h1.608l3.72,71.88a4.58,4.58,0,0,0-3.6,4.467v17.875a4.583,4.583,0,0,0,4.577,4.577h2.67a4.581,4.581,0,0,0,4.577-4.577v-2.2h44.814v2.2a4.582,4.582,0,0,0,4.577,4.577h2.67a4.581,4.581,0,0,0,4.577-4.577v-17.875a4.571,4.571,0,0,0-3.4-4.4l3.745-71.944h1.609a1.527,1.527,0,0,0,1.526-1.526v-4.223a7.678,7.678,0,0,0-7.669-7.669h-16.777v-3.172a6.709,6.709,0,0,0-6.7-6.7H4349.39a6.709,6.709,0,0,0-6.7,6.7v3.172h-15.83a7.677,7.677,0,0,0-7.668,7.669Zm12.023,95.747a1.525,1.525,0,0,1-1.525,1.524h-2.671a1.524,1.524,0,0,1-1.524-1.524v-17.874a1.525,1.525,0,0,1,1.524-1.525h2.671a1.527,1.527,0,0,1,1.525,1.525Zm56.637,0a1.525,1.525,0,0,1-1.524,1.524h-2.671a1.525,1.525,0,0,1-1.525-1.524v-17.874a1.527,1.527,0,0,1,1.525-1.525h2.671a1.526,1.526,0,0,1,1.524,1.525Zm-3.391-22.451h-.8a4.581,4.581,0,0,0-4.577,4.577v12.622h-44.813v-12.622a4.582,4.582,0,0,0-4.577-4.577h-.6l-3.713-71.77h62.815Zm-38.719-88.36a3.654,3.654,0,0,1,3.65-3.651h13.848a3.656,3.656,0,0,1,3.651,3.651v3.172H4345.74Zm-23.5,10.841a4.622,4.622,0,0,1,4.616-4.616h59.86a4.622,4.622,0,0,1,4.617,4.616v2.7h-69.093Z" transform="translate(-3057.837)" fill="#fff"/></g></svg>