<svg xmlns="http://www.w3.org/2000/svg" width="180" height="180" viewBox="0 0 180 180"><g transform="translate(-1207.902 -3512)"><circle cx="90" cy="90" r="90" transform="translate(1207.902 3512)" fill="#219e45"/><g transform="translate(1248.057 3553.134)"><path d="M1340.28,3555.08h-82.271a8.228,8.228,0,0,0-8.227,8.227v59.235a8.227,8.227,0,0,0,8.227,8.227h31.263v9.873H1279.4a4.95,4.95,0,0,0-4.936,4.936v6.582a1.645,1.645,0,0,0,1.645,1.645h46.072a1.646,1.646,0,0,0,1.645-1.645v-6.582a4.95,4.95,0,0,0-4.936-4.936h-9.873v-9.873h31.263a8.227,8.227,0,0,0,8.227-8.227v-59.235A8.227,8.227,0,0,0,1340.28,3555.08Zm-21.39,88.853a1.644,1.644,0,0,1,1.645,1.645v4.936h-42.781v-4.936a1.645,1.645,0,0,1,1.646-1.645Zm-26.327-3.291v-9.873h13.163v9.873Zm52.653-18.1a4.95,4.95,0,0,1-4.936,4.936h-82.271a4.951,4.951,0,0,1-4.936-4.936v-4.936h92.143Zm0-8.227h-92.143v-51.008a4.951,4.951,0,0,1,4.936-4.936h82.271a4.95,4.95,0,0,1,4.936,4.936Z" transform="translate(-1249.782 -3555.08)" fill="#fff"/><rect width="3.291" height="3.291" transform="translate(85.562 65.817)" fill="#fff"/><rect width="3.291" height="3.291" transform="translate(78.98 65.817)" fill="#fff"/><path d="M1335.344,3564.953h-4.936v-1.646a1.646,1.646,0,0,0-1.646-1.645h-26.326a1.646,1.646,0,0,0-1.646,1.645v1.646H1297.5v-1.646a1.645,1.645,0,0,0-1.645-1.645h-26.327a1.646,1.646,0,0,0-1.645,1.645v1.646h-4.936a1.645,1.645,0,0,0-1.646,1.645v42.781a1.645,1.645,0,0,0,1.646,1.645h72.4a1.644,1.644,0,0,0,1.645-1.645V3566.6A1.644,1.644,0,0,0,1335.344,3564.953Zm-31.263,0h23.036v36.2h-23.036Zm-6.582,3.291h3.291V3602.8a1.646,1.646,0,1,1-3.291,0Zm-26.326-3.291h23.036v36.2h-23.036Zm62.526,42.781h-69.108v-39.49h3.291V3602.8a1.646,1.646,0,0,0,1.645,1.646h24.978a4.917,4.917,0,0,0,9.28,0h24.977a1.646,1.646,0,0,0,1.646-1.646v-34.553h3.291Z" transform="translate(-1249.782 -3555.08)" fill="#fff"/><rect width="3.291" height="3.291" transform="translate(24.682 16.454)" fill="#fff"/><rect width="9.872" height="3.291" transform="translate(31.263 16.454)" fill="#fff"/><rect width="16.454" height="3.291" transform="translate(24.682 23.036)" fill="#fff"/><rect width="16.454" height="3.291" transform="translate(24.682 29.618)" fill="#fff"/><rect width="16.454" height="3.291" transform="translate(24.682 36.199)" fill="#fff"/><rect width="16.454" height="3.291" transform="translate(57.59 23.036)" fill="#fff"/><rect width="16.454" height="3.291" transform="translate(57.59 16.454)" fill="#fff"/><rect width="16.454" height="3.291" transform="translate(57.59 29.618)" fill="#fff"/><rect width="16.454" height="3.291" transform="translate(57.59 36.199)" fill="#fff"/></g></g></svg>