<svg xmlns="http://www.w3.org/2000/svg" width="181.71" height="181.71" viewBox="0 0 181.71 181.71"><g transform="translate(-1208.29 -3623.054)"><circle cx="90.855" cy="90.855" r="90.855" transform="translate(1208.29 3623.054)" fill="#f09300"/><path d="M4751.793,3650.052c-3.593.72-7.294,2.21-9.811,5.164a14.245,14.245,0,0,0-11.71,7.067c-3.2,5.075-5.117,13.015-5.018,24.96,0,6.913,1.447,15.61,4.385,20.611a13.376,13.376,0,0,0,9.676,6.659,1.482,1.482,0,0,0,1.446-.634,42.347,42.347,0,0,0,2.984,3.126l-1.311,5.255a1.475,1.475,0,0,0-1.311-.68c-8.635,3.017-20.9,4.255-29.071,9.015-2.989,2.364-4.858,6.488-4.882,11.189q-.71,12.309-1.447,24.643a1.509,1.509,0,0,0,1.447,1.54H4807a1.509,1.509,0,0,0,1.446-1.54c-.477-8.212-.979-16.437-1.446-24.643-.177-4.319-1.418-9.37-5.154-11.325-9.427-3.341-19.424-5.615-28.348-8.788a1.493,1.493,0,0,0-1.763.635l-1.311-5.482c.793-.739,1.6-1.482,2.351-2.31,4.566-.064,7.46-2.963,10.353-6.84,2.894-6.27,5.787-14.968,5.787-22.016.072-22.548-13.062-36.331-27.4-36.331a54.536,54.536,0,0,0-9.72.725Zm9.72,2.175c12.44,0,24.483,11.92,24.5,33.2,0,8.725-2.894,14.523-5.381,20.747a10.113,10.113,0,0,1-4.928,4.575,51.255,51.255,0,0,0,7.279-14.677h.046c1.594-5.383.717-9.43-1.9-12.095s-6.561-3.966-10.987-5.164c-8.851-2.4-19.763-4.227-26.629-11.778-.97-.732-1.456-.362-2.26.136-2.65,3.646-6.016,8.069-8.319,13s-3.558,10.448-1.809,16.036a51.986,51.986,0,0,0,7.686,15.221,9.574,9.574,0,0,1-6.646-5.028c-4.024-6.451-4.024-13.7-4.024-19.3-.084-11.562,1.829-18.944,4.567-23.284s6.188-5.8,9.9-5.8a1.481,1.481,0,0,0,1.175-.589c1.855-2.476,5.095-3.84,8.545-4.53a48.368,48.368,0,0,1,9.178-.68Zm-18.808,17.893c7.693,7.385,18.527,9.3,26.675,11.506,4.3,1.165,7.787,2.472,9.675,4.394a6.562,6.562,0,0,1,1.356,2.039l-3.255,1.63a6.077,6.077,0,0,0-1.537-3.4c-1.692-1.379-4.172-1.569-8.59-1.585a9.977,9.977,0,0,0-6.013,1.54,6.635,6.635,0,0,0-2.532,4.258H4755.5a6.633,6.633,0,0,0-2.532-4.258,9.977,9.977,0,0,0-6.013-1.54c-4.418.016-6.9.206-8.59,1.585a5.133,5.133,0,0,0-1.492,3.307l-3.391-1.676a25.252,25.252,0,0,1,2.08-6.523,70.623,70.623,0,0,1,7.143-11.28Zm4.25,17.486a7.562,7.562,0,0,1,4.341,1c.865.627,1.393,1.51,1.491,3.353a4.865,4.865,0,0,1-1.356,3.351,8.024,8.024,0,0,1-4.476,1,12.1,12.1,0,0,1-4.792-1.132c-1.533-.768-2.441-1.687-2.442-3.217a7.318,7.318,0,0,1,.5-3.4c.521-.424,2.475-.935,6.736-.951Zm20.074,0c4.262.016,6.215.526,6.736.951a6.052,6.052,0,0,1,.5,3.4c0,1.53-.909,2.449-2.442,3.216a12.078,12.078,0,0,1-4.792,1.133,7.85,7.85,0,0,1-4.431-1c-.877-.625-1.4-1.495-1.4-3.307a5.342,5.342,0,0,1,1.492-3.4,7.558,7.558,0,0,1,4.34-1Zm-33.818,3.4,3.707,1.858a6.927,6.927,0,0,0,3.979,4.892,14.1,14.1,0,0,0,6.058,1.449,10.4,10.4,0,0,0,6.149-1.54,6.328,6.328,0,0,0,2.441-4.258h2.894a6.334,6.334,0,0,0,2.441,4.258,10.4,10.4,0,0,0,6.149,1.54,14.283,14.283,0,0,0,6.1-1.449,6.9,6.9,0,0,0,3.934-4.8L4781,3691a16.1,16.1,0,0,1-.768,4.258,47.4,47.4,0,0,1-9.63,17.26c-4.216,4.689-9.075,7.676-13.609,7.7-4.5.024-9.3-2.941-13.473-7.611a48.187,48.187,0,0,1-9.63-17.259A15.181,15.181,0,0,1,4733.211,3691Zm34.722,27.905,2.08,8.335c-2.883,5.9-8.011,8.652-13.066,8.652-5.024,0-10.026-2.74-12.795-8.561l2.035-8.29c3.35,2.524,7,4.1,10.805,4.077C4760.825,3723.1,4764.533,3721.468,4767.933,3718.908Zm6.465,6.07c1.648.569,3.271,1.112,4.883,1.631l6.465,14.224-9.9,2.491a1.529,1.529,0,0,0-.678,2.4l4.838,4.847-13.654,14.5h-6.239c9.406-12.489,11.993-27.245,14.286-40.09Zm-34.631.09c2.289,12.824,4.9,27.538,14.286,40h-6.239l-13.653-14.495,4.837-4.847a1.53,1.53,0,0,0-.678-2.4l-9.9-2.491,6.374-14.043C4736.466,3726.262,4738.138,3725.713,4739.767,3725.068Zm43.221,2.672c5.84,2.1,11.754,2.908,17.588,5.3,2.782,2.128,3.5,5.672,3.526,8.834q.663,11.584,1.356,23.194h-35.174l12.75-13.545a1.507,1.507,0,0,0,0-2.038l-3.979-3.987,9.088-2.265a1.514,1.514,0,0,0,.949-1.993Zm-51.857.136-6.058,13.364a1.514,1.514,0,0,0,.95,1.993l9.087,2.265-3.979,3.986a1.511,1.511,0,0,0,0,2.039l12.75,13.545h-35.174c.447-7.73.919-15.471,1.356-23.2a11.614,11.614,0,0,1,3.707-8.924c5.837-2.444,11.778-3.542,17.361-5.073Zm38.972,4.259c-2.175,11.022-5.321,22.485-13.02,32.208-7.67-9.684-10.846-21.09-13.021-32.072a16.354,16.354,0,0,0,12.885,6.523A16.752,16.752,0,0,0,4770.1,3732.135Z" transform="translate(-3455.11)" fill="#fff" stroke="#fff" stroke-miterlimit="10" stroke-width="0.214"/></g></svg>