<svg xmlns="http://www.w3.org/2000/svg" width="181.71" height="181.71" viewBox="0 0 181.71 181.71"><g transform="translate(-6581.969 -4526.964)"><circle cx="90.855" cy="90.855" r="90.855" transform="translate(6581.969 4526.964)" fill="#1f7129"/><path d="M6717.292,4568.663h-88.935a8.893,8.893,0,0,0-8.893,8.894v64.033a8.893,8.893,0,0,0,8.893,8.893h33.795v10.672H6651.48a5.353,5.353,0,0,0-5.336,5.336v7.115a1.779,1.779,0,0,0,1.779,1.779h49.8a1.779,1.779,0,0,0,1.779-1.779v-7.115a5.353,5.353,0,0,0-5.336-5.336H6683.5v-10.672h33.795a8.893,8.893,0,0,0,8.893-8.893v-64.033A8.893,8.893,0,0,0,6717.292,4568.663Zm-23.123,96.05a1.779,1.779,0,0,1,1.779,1.778v5.336H6649.7v-5.336a1.778,1.778,0,0,1,1.778-1.778Zm-28.459-3.558v-10.672h14.229v10.672Zm56.918-19.565a5.352,5.352,0,0,1-5.336,5.336h-88.935a5.352,5.352,0,0,1-5.336-5.336v-5.336h99.607Zm0-8.894h-99.607v-55.139a5.351,5.351,0,0,1,5.336-5.336h88.935a5.351,5.351,0,0,1,5.336,5.336Z" fill="#fff"/><rect width="3.557" height="3.557" transform="translate(6711.956 4639.811)" fill="#fff"/><rect width="3.557" height="3.557" transform="translate(6704.841 4639.811)" fill="#fff"/><path d="M6711.956,4579.335h-5.336v-1.778a1.779,1.779,0,0,0-1.779-1.779h-28.459a1.779,1.779,0,0,0-1.779,1.779v1.778h-3.557v-1.778a1.779,1.779,0,0,0-1.779-1.779h-28.459a1.78,1.78,0,0,0-1.779,1.779v1.778h-5.336a1.779,1.779,0,0,0-1.778,1.779v46.246a1.779,1.779,0,0,0,1.778,1.779h78.263a1.78,1.78,0,0,0,1.779-1.779v-46.246A1.779,1.779,0,0,0,6711.956,4579.335Zm-33.795,0h24.9v39.132h-24.9Zm-7.115,3.558h3.557v37.352a1.779,1.779,0,1,1-3.557,0Zm-28.459-3.558h24.9v39.132h-24.9Zm67.59,46.246h-74.7v-42.688h3.557v37.352a1.779,1.779,0,0,0,1.779,1.779h27a5.314,5.314,0,0,0,10.031,0h27a1.779,1.779,0,0,0,1.779-1.779v-37.352h3.557Z" fill="#fff"/><rect width="3.557" height="3.557" transform="translate(6646.144 4586.45)" fill="#fff"/><rect width="10.672" height="3.557" transform="translate(6653.259 4586.45)" fill="#fff"/><rect width="17.787" height="3.557" transform="translate(6646.144 4593.565)" fill="#fff"/><rect width="17.787" height="3.557" transform="translate(6646.144 4600.68)" fill="#fff"/><rect width="17.787" height="3.557" transform="translate(6646.144 4607.794)" fill="#fff"/><rect width="17.787" height="3.557" transform="translate(6681.718 4593.565)" fill="#fff"/><rect width="17.787" height="3.557" transform="translate(6681.718 4586.45)" fill="#fff"/><rect width="17.787" height="3.557" transform="translate(6681.718 4600.68)" fill="#fff"/><rect width="17.787" height="3.557" transform="translate(6681.718 4607.794)" fill="#fff"/></g></svg>