<svg xmlns="http://www.w3.org/2000/svg" width="181.71" height="181.71" viewBox="0 0 181.71 181.71"><g transform="translate(-530 -4140.98)"><circle cx="90.855" cy="90.855" r="90.855" transform="translate(530 4140.98)" fill="#f09300"/><path d="M4024.472,4221.271a1.764,1.764,0,0,0,.227.015,1.7,1.7,0,0,0,1.68-1.473c.8-5.982,1.821-11.816,3.034-17.333a32.436,32.436,0,0,1,31.5-25.309H4080a1.7,1.7,0,0,1,1.358,2.715l-.294.392a1.693,1.693,0,0,1-.948.628l-3.922.981a1.7,1.7,0,0,0,.825,3.291l3.919-.979a5.116,5.116,0,0,0,2.841-1.885l.293-.392a5.09,5.09,0,0,0-4.072-8.144h-19.091a35.856,35.856,0,0,0-34.812,27.972c-1.232,5.611-2.268,11.538-3.081,17.615A1.7,1.7,0,0,0,4024.472,4221.271Z" transform="translate(-3455.11)" fill="#fff"/><path d="M4086.787,4211.106h10.18a1.7,1.7,0,0,0,1.7-1.7v-10.18a1.7,1.7,0,0,0-1.7-1.7h-10.18a1.7,1.7,0,0,0-1.7,1.7v10.18A1.7,1.7,0,0,0,4086.787,4211.106Zm1.7-10.181h6.787v6.787h-6.787Z" transform="translate(-3455.11)" fill="#fff"/><path d="M4107.148,4211.106h10.18a1.7,1.7,0,0,0,1.7-1.7v-10.18a1.7,1.7,0,0,0-1.7-1.7h-10.18a1.7,1.7,0,0,0-1.7,1.7v10.18A1.7,1.7,0,0,0,4107.148,4211.106Zm1.7-10.181h6.787v6.787h-6.787Z" transform="translate(-3455.11)" fill="#fff"/><path d="M4085.09,4226.376a1.7,1.7,0,0,0,1.7,1.7h10.18a1.7,1.7,0,0,0,1.7-1.7V4216.2a1.7,1.7,0,0,0-1.7-1.7h-10.18a1.7,1.7,0,0,0-1.7,1.7Zm3.394-8.483h6.787v6.786h-6.787Z" transform="translate(-3455.11)" fill="#fff"/><path d="M4105.451,4226.376a1.7,1.7,0,0,0,1.7,1.7h10.18a1.7,1.7,0,0,0,1.7-1.7V4216.2a1.7,1.7,0,0,0-1.7-1.7h-10.18a1.7,1.7,0,0,0-1.7,1.7Zm3.393-8.483h6.787v6.786h-6.787Z" transform="translate(-3455.11)" fill="#fff"/><path d="M4085.09,4243.343a1.7,1.7,0,0,0,1.7,1.7h10.18a1.7,1.7,0,0,0,1.7-1.7v-10.18a1.7,1.7,0,0,0-1.7-1.7h-10.18a1.7,1.7,0,0,0-1.7,1.7Zm3.394-8.483h6.787v6.787h-6.787Z" transform="translate(-3455.11)" fill="#fff"/><path d="M4105.451,4243.343a1.7,1.7,0,0,0,1.7,1.7h10.18a1.7,1.7,0,0,0,1.7-1.7v-10.18a1.7,1.7,0,0,0-1.7-1.7h-10.18a1.7,1.7,0,0,0-1.7,1.7Zm3.393-8.483h6.787v6.787h-6.787Z" transform="translate(-3455.11)" fill="#fff"/><path d="M4126.921,4257.411a5.167,5.167,0,0,0-1.11-.55v-61.026a5.089,5.089,0,0,0-5.09-5.09h-37.327a5.09,5.09,0,0,0-5.091,5.09v49.205a1.7,1.7,0,0,0,3.394,0v-49.205a1.7,1.7,0,0,1,1.7-1.7h37.327a1.7,1.7,0,0,1,1.7,1.7V4256.9c-.1.034-.2.044-.293.085a23.658,23.658,0,0,1-9.039,1.629c-.865,0-1.715-.046-2.545-.119v-8.365a1.7,1.7,0,0,0-1.7-1.7h-13.573a1.7,1.7,0,0,0-1.7,1.7v7.839c-.621.142-1.266.261-1.929.356a1.652,1.652,0,0,0-.3-.2,49.147,49.147,0,0,1-30.012-45.321v-5.721a9.561,9.561,0,0,1,9.549-9.549,5.068,5.068,0,0,0,3.3-8.916,1.674,1.674,0,0,1-.36-2.113,1.7,1.7,0,1,0-2.945-1.7h0a5.09,5.09,0,0,0,1.1,6.378,1.675,1.675,0,0,1-1.09,2.954h-23.754a28.917,28.917,0,0,0-13.743,3.488,1.7,1.7,0,1,0,1.619,2.983,25.512,25.512,0,0,1,12.123-3.078h15.055a12.893,12.893,0,0,0-4.242,9.549v5.721a52.5,52.5,0,0,0,26.469,45.627,18.919,18.919,0,0,1-7.047-2.055,4.985,4.985,0,0,0-4.91,0,24.668,24.668,0,0,1-20.541,0,4.969,4.969,0,0,0-2.349-.648,1.7,1.7,0,1,0-.073,3.393,1.562,1.562,0,0,1,.744.2,27.942,27.942,0,0,0,23.9,0,1.579,1.579,0,0,1,1.554,0,27.942,27.942,0,0,0,23.9,0,1.58,1.58,0,0,1,1.554,0,25.064,25.064,0,0,0,11.948,2.684,27.036,27.036,0,0,0,10.374-1.9,1.682,1.682,0,0,1,2.213.877,1.655,1.655,0,0,1,.138.678v5.383a5.068,5.068,0,0,0-3.686.124,23.639,23.639,0,0,1-9.039,1.629,25.714,25.714,0,0,1-7.126-.954,1.7,1.7,0,0,0-.952,3.258,29.188,29.188,0,0,0,8.078,1.089,27.044,27.044,0,0,0,10.374-1.9,1.682,1.682,0,0,1,2.213.876,1.661,1.661,0,0,1,.138.678v7.136h-101.8v-7.136a1.681,1.681,0,0,1,2.351-1.554,27.043,27.043,0,0,0,10.374,1.9,25.049,25.049,0,0,0,11.948-2.684,1.577,1.577,0,0,1,1.554,0,27.937,27.937,0,0,0,23.9,0,1.577,1.577,0,0,1,1.554,0,27.942,27.942,0,0,0,23.9,0,1.552,1.552,0,0,1,.748-.205,1.7,1.7,0,0,0-.025-3.394h-.026a4.988,4.988,0,0,0-2.375.648,24.663,24.663,0,0,1-20.539,0,4.983,4.983,0,0,0-4.91,0,24.668,24.668,0,0,1-20.541,0,4.983,4.983,0,0,0-4.91,0,21.647,21.647,0,0,1-10.27,2.24,23.625,23.625,0,0,1-9.037-1.629,5.079,5.079,0,0,0-3.688-.122v-5.385a1.683,1.683,0,0,1,1.673-1.693,1.7,1.7,0,0,1,.678.138,27.035,27.035,0,0,0,10.374,1.9,29.193,29.193,0,0,0,8.144-1.1,1.7,1.7,0,0,0-.962-3.255,25.739,25.739,0,0,1-7.182.966,23.643,23.643,0,0,1-9.037-1.629,5.073,5.073,0,0,0-3.7-.116,303.246,303.246,0,0,1,1.58-30.315,1.7,1.7,0,0,0-3.368-.42c0,.024-.005.048-.007.072a319.836,319.836,0,0,0-1.585,37.5v16.967a1.7,1.7,0,0,0,1.7,1.7h105.2a1.7,1.7,0,0,0,1.7-1.7v-19.013A5.07,5.07,0,0,0,4126.921,4257.411Zm-29.014-1.037c-.3.17-.611.326-.938.475v-5.022h10.18v6.142a16.206,16.206,0,0,1-4.331-1.6,4.985,4.985,0,0,0-4.912,0Z" transform="translate(-3455.11)" fill="#fff"/><path d="M4034.528,4226.206c-.227,2.282-.339,4.6-.339,6.889v13.642a1.7,1.7,0,0,0,3.393,0V4233.1c0-2.177.109-4.381.326-6.553a1.7,1.7,0,1,0-3.376-.339Z" transform="translate(-3455.11)" fill="#fff"/><path d="M4037.582,4217.859a1.7,1.7,0,0,0,2-1.324l1.358-6.787a1.7,1.7,0,1,0-3.3-.779c-.009.038-.016.076-.023.114l-1.357,6.787A1.7,1.7,0,0,0,4037.582,4217.859Z" transform="translate(-3455.11)" fill="#fff"/><path d="M4050.946,4230.17a52.765,52.765,0,0,0,3.778,10.52,1.7,1.7,0,1,0,3.054-1.48,49.492,49.492,0,0,1-3.534-9.841,1.7,1.7,0,0,0-3.314.728c.005.024.011.049.017.073Z" transform="translate(-3455.11)" fill="#fff"/><path d="M4051.156,4214.5a1.7,1.7,0,0,0-1.7,1.7v1.557a52.709,52.709,0,0,0,.279,5.4,1.7,1.7,0,0,0,1.686,1.527,1.233,1.233,0,0,0,.17,0,1.7,1.7,0,0,0,1.514-1.861v-.005a49.564,49.564,0,0,1-.254-5.065V4216.2A1.7,1.7,0,0,0,4051.156,4214.5Z" transform="translate(-3455.11)" fill="#fff"/></g></svg>