<svg xmlns="http://www.w3.org/2000/svg" width="181.71" height="181.71" viewBox="0 0 181.71 181.71"><g transform="translate(-6581.146 -1694.021)"><circle cx="90.855" cy="90.855" r="90.855" transform="translate(6581.146 1694.021)" fill="#1f7129"/><path d="M6705.845,1740.431a2.045,2.045,0,0,0-2.891,0l-14,14-13.961,5.464-16.5-5.5-13.968-13.966a2.045,2.045,0,0,0-2.891,0l-28.615,28.616a2.044,2.044,0,0,0,0,2.89l13.87,13.87,3.753,18.76-1.621,1.623a7.825,7.825,0,0,0,5.533,13.358c.131,0,.258-.031.388-.039,0,.133-.038.257-.038.39a7.835,7.835,0,0,0,7.826,7.825c.131,0,.258-.031.388-.039,0,.133-.038.257-.038.39a7.834,7.834,0,0,0,7.826,7.825c.131,0,.258-.031.388-.039,0,.133-.038.257-.038.39a7.824,7.824,0,0,0,13.357,5.533h0l1.97-1.972,4.017,4.016a7.824,7.824,0,0,0,13.359-5.533c0-.133-.03-.257-.038-.39.13,0,.257.039.388.039a7.834,7.834,0,0,0,7.826-7.825c0-.133-.03-.257-.038-.39.13,0,.257.039.388.039a7.834,7.834,0,0,0,7.826-7.825c0-.133-.03-.257-.038-.39.13,0,.257.039.388.039a7.825,7.825,0,0,0,5.533-13.358l-1.159-1.161,15.23-20.941,14.195-14.195a2.044,2.044,0,0,0,0-2.89Zm-62.765,4.335,11.417,11.418-25.725,25.726-11.418-11.418Zm-8.526,70.694a3.737,3.737,0,0,1-2.643-6.38l2.743-2.747a3.738,3.738,0,1,1,5.286,5.286l-2.743,2.747A3.716,3.716,0,0,1,6634.554,1815.46Zm8.176,8.176a3.737,3.737,0,0,1-2.643-6.38l2.743-2.747a3.738,3.738,0,1,1,5.286,5.286l-2.743,2.747A3.718,3.718,0,0,1,6642.73,1823.636Zm8.176,8.176a3.737,3.737,0,0,1-2.643-6.38l2.743-2.747a3.738,3.738,0,1,1,5.286,5.286l-2.743,2.747A3.721,3.721,0,0,1,6650.906,1831.812Zm13.562,4.335-2.743,2.747a3.738,3.738,0,0,1-5.286-5.286l2.743-2.747a3.738,3.738,0,1,1,5.286,5.286Zm36.193-18.643a3.717,3.717,0,0,1-2.643-1.094l-8.525-8.527-2.891,2.89,8.528,8.527a3.739,3.739,0,0,1-5.288,5.286l-8.525-8.527-2.891,2.89,8.528,8.527a3.739,3.739,0,0,1-5.288,5.286l-8.525-8.527-2.891,2.89,8.528,8.527a3.738,3.738,0,0,1-5.288,5.286l-4.431-4.425a7.834,7.834,0,0,0-7.234-10.833c-.131,0-.257.03-.388.039,0-.133.039-.258.039-.391a7.834,7.834,0,0,0-7.827-7.824c-.131,0-.257.03-.388.039,0-.133.039-.258.039-.391a7.834,7.834,0,0,0-7.827-7.824c-.131,0-.257.03-.388.039,0-.133.039-.258.039-.391a7.822,7.822,0,0,0-10.874-7.211l-3.261-16.3,26.95-26.944,11.1,3.7-3.2,1.253a2.062,2.062,0,0,0-.7.46l-19.767,19.769a7.825,7.825,0,0,0,11.066,11.066h0l9.212-9.214a16.366,16.366,0,0,0,10.139,3.475,16.541,16.541,0,0,0,4.74-.691l22.782,22.782a3.739,3.739,0,0,1-2.645,6.38Zm1.449-13.356-17.615-17.615a16.716,16.716,0,0,0,2.954-2.332l2.044-2.044-2.891-2.89-2.044,2.044a12.411,12.411,0,0,1-17.549,0,2.044,2.044,0,0,0-2.891,0l-10.569,10.571a3.738,3.738,0,1,1-5.286-5.286l19.465-19.467,7.377-2.886h.033v-.026l14.445-5.652L6716.026,1785Zm16.6-22.238-25.725-25.726,11.417-11.418,25.726,25.726Z" fill="#fff"/><rect width="4.088" height="4.088" transform="translate(6715.817 1770.493) rotate(-45)" fill="#fff"/><rect width="4.088" height="4.088" transform="translate(6625.881 1770.492) rotate(-45)" fill="#fff"/></g></svg>