<svg xmlns="http://www.w3.org/2000/svg" width="181.71" height="181.71" viewBox="0 0 181.71 181.71"><g transform="translate(-1208.289 -2929.24)"><circle cx="90.855" cy="90.855" r="90.855" transform="translate(1208.289 2929.24)" fill="#d53216"/><path d="M8291.427,2973.732h-82.27a8.228,8.228,0,0,0-8.228,8.227v59.235a8.227,8.227,0,0,0,8.228,8.227h31.263v9.873h-9.873a4.95,4.95,0,0,0-4.936,4.936v6.582a1.645,1.645,0,0,0,1.645,1.645h46.072a1.645,1.645,0,0,0,1.645-1.645v-6.582a4.95,4.95,0,0,0-4.936-4.936h-9.872v-9.873h31.262a8.228,8.228,0,0,0,8.229-8.227v-59.235A8.229,8.229,0,0,0,8291.427,2973.732Zm-21.39,88.853a1.644,1.644,0,0,1,1.645,1.645v4.936H8228.9v-4.936a1.644,1.644,0,0,1,1.645-1.645Zm-26.327-3.291v-9.873h13.164v9.873Zm52.654-18.1a4.951,4.951,0,0,1-4.937,4.936h-82.27a4.951,4.951,0,0,1-4.937-4.936v-4.936h92.145Zm0-8.227H8204.22v-51.008a4.952,4.952,0,0,1,4.938-4.936h82.27a4.951,4.951,0,0,1,4.938,4.936Z" transform="translate(-6949.147)" fill="#fff"/><rect width="3.291" height="3.291" transform="translate(1337.344 3039.549)" fill="#fff"/><rect width="3.291" height="3.291" transform="translate(1330.762 3039.549)" fill="#fff"/><path d="M8286.491,2983.6h-4.937v-1.646a1.645,1.645,0,0,0-1.645-1.645h-26.327a1.645,1.645,0,0,0-1.645,1.645v1.646h-3.291v-1.646a1.646,1.646,0,0,0-1.646-1.645h-26.326a1.645,1.645,0,0,0-1.646,1.645v1.646h-4.937a1.644,1.644,0,0,0-1.645,1.645v42.781a1.644,1.644,0,0,0,1.645,1.645h72.4a1.645,1.645,0,0,0,1.646-1.645V2985.25A1.645,1.645,0,0,0,8286.491,2983.6Zm-31.264,0h23.036v36.2h-23.036Zm-6.58,3.29h3.291v34.554a1.646,1.646,0,1,1-3.291,0Zm-26.327-3.29h23.036v36.2H8222.32Zm62.525,42.78h-69.107V2986.9h3.291v34.554a1.646,1.646,0,0,0,1.646,1.646h24.978a4.916,4.916,0,0,0,9.279,0h24.979a1.645,1.645,0,0,0,1.645-1.646V2986.9h3.291Z" transform="translate(-6949.147)" fill="#fff"/><rect width="3.291" height="3.291" transform="translate(1276.464 2990.186)" fill="#fff"/><rect width="9.872" height="3.291" transform="translate(1283.045 2990.186)" fill="#fff"/><rect width="16.454" height="3.291" transform="translate(1276.464 2996.768)" fill="#fff"/><rect width="16.454" height="3.291" transform="translate(1276.464 3003.35)" fill="#fff"/><rect width="16.454" height="3.291" transform="translate(1276.464 3009.931)" fill="#fff"/><rect width="16.454" height="3.291" transform="translate(1309.372 2996.768)" fill="#fff"/><rect width="16.454" height="3.291" transform="translate(1309.372 2990.186)" fill="#fff"/><rect width="16.454" height="3.291" transform="translate(1309.372 3003.35)" fill="#fff"/><rect width="16.454" height="3.291" transform="translate(1309.372 3009.931)" fill="#fff"/></g></svg>