<svg xmlns="http://www.w3.org/2000/svg" viewBox="0 0 280 240"><path d="M238.91,240a6.09,6.09,0,0,0,6.09-6.09V6.5a4.17,4.17,0,0,1,0-.5,6.09,6.09,0,0,0-6.08-6H172.73a6.09,6.09,0,0,0-6.09,6.09,4.14,4.14,0,0,1,0,.61v56H107.53A6,6,0,0,0,104,63.86a6.18,6.18,0,0,0-3.13,5.31v72.28H41.09A6,6,0,0,0,35.2,149l.14.52-.14.52a6.59,6.59,0,0,0-.2,1.47V233.9a6.09,6.09,0,1,0,12.17,0V153.64h53.65V233.9a6.09,6.09,0,1,0,12.17,0v-159h53.65V233.9a6.09,6.09,0,1,0,12.17,0V12.18h54V233.9a6.09,6.09,0,0,0,6.09,6.08" style="fill:#fff"/></svg>