<svg xmlns="http://www.w3.org/2000/svg" viewBox="0 0 280 240"><path d="M41.17,173.08,52.53,184.3,40,196.7,28.81,185.46ZM61.27,153,72.5,164.18,56.93,179.77,45.72,168.53Zm17-16.93,11.2,11.25L77,159.65,65.82,148.41Zm27.12,27.1,2.9,2.9L95.9,178.41,81.58,164.18l12.36-12.37Zm8-21.92,5.5,5.5L108.57,157,103,151.5ZM95.18,113.93a57.24,57.24,0,0,0,38.61-38.82l47,47A70.12,70.12,0,0,1,142,160.86Zm-25.12-9.39a58.74,58.74,0,0,0,18.46-9,104.33,104.33,0,0,0,14.65-12.3c1.23-1.26,2.44-2.57,3.62-3.81a98.89,98.89,0,0,0,8.69-10.88,58.2,58.2,0,0,0,9-18.5c5.14,10.29,8.25,27.12-9.54,44.92s-34.7,14.67-45,9.6Zm-3.21-5.92-1.39.18H61.61l-.52-.18-.38-.18-.47-.51-.33-.26-.31-.28C56,93.76,59.06,81.75,69.88,67.8l12.5,24a44.23,44.23,0,0,1-15.66,6.84Zm-10-50.91a7.76,7.76,0,1,1,11-.07l-.07.07a7.93,7.93,0,0,1-11.07,0Zm15.42,4.55A18.1,18.1,0,0,0,74,50.05l34,17.78a101.29,101.29,0,0,1-9.44,10.83,98.56,98.56,0,0,1-10.77,9.42L70,54.06a15.25,15.25,0,0,0,2.21-1.8m40.51-14a6.22,6.22,0,0,1,4.53,1.44l.31.36a2.36,2.36,0,0,1,.2.31,2.22,2.22,0,0,1,.23.43,3.76,3.76,0,0,1,.18.36l.16.52a2.8,2.8,0,0,1,0,.41v.59a4,4,0,0,1,0,.49c0,.23,0,.47,0,.7a4.34,4.34,0,0,1,0,.51v.8a4.51,4.51,0,0,1,0,.52,2.32,2.32,0,0,1-.13.9v.57a1.76,1.76,0,0,1-.21,1c-.2.33,0,.38,0,.56l-.31,1.14a.72.72,0,0,1-.18.56,6.68,6.68,0,0,0-.41,1.24l-.2.54c-.16.46-.36.95-.57,1.41a2.22,2.22,0,0,1-.18.49c-.23.51-.46,1-.72,1.54s-.13.31-.18.44c-.28.59-.61,1.21-.92,1.83l-.16.26c-.31.59-.64,1.18-1,1.77l-.24.41c-.41.72-.87,1.44-1.33,2.19L87.72,50c10.26-8,19.43-11.78,25-11.78m58.76,44.66,2.78,2.78L177,88.42l-10.41,10.3-5.53-5.54ZM155.94,58.22,168.2,45.84l11.21,11.25L167.05,69.46Zm32.47-32.5L199.62,37,184.19,52.53,172.83,41.29ZM205.3,8.79,216.53,20,204.19,32.41,193,21.17Zm30,30L222.93,51.17,208.72,37l12.36-12.38Zm15.75,15.8L238.69,67,227.46,55.73l12.39-12.38ZM218.54,87.09,207.3,75.85l15.58-15.44,11.26,11ZM201.62,104,190.47,92.76l12.36-12.38L214,91.62Zm-13-46.83L204,41.6l14.21,14.23L202.83,71.4Zm-9.81,24L171.7,74l12.37-12.38,14.21,14.23L185.92,88.22Zm16,66.9A38.58,38.58,0,0,1,168,175L154.66,161.6a75.6,75.6,0,0,0,26.86-26.76Zm-70.9,33.73-12.26,12.37L100.34,183l12.36-12.37Zm-32.46,32.5L80.24,203.11l15.42-15.57,11.23,11.22ZM74.56,231.28,63.32,220l12.34-12.24L86.9,219Zm-13.08-47L77,168.86l14.22,14.23L75.82,198.53ZM44.57,201.23l12.36-12.38,14.22,14.23-12.37,12.4Zm-6.81,2.29h0l18.76,18.76,15.76,15.8a3.27,3.27,0,0,0,4.55,0l54-54a3.29,3.29,0,0,0,0-4.56L115,163.77l-2.08-2.08,10.41-10.53L139,166.83a3.18,3.18,0,0,0,2.26.93,3.26,3.26,0,0,0,1.28-.13c2.19-.87,4.3-1.85,6.33-2.85l16.06,16.05a3.2,3.2,0,0,0,2.26.95,3.29,3.29,0,0,0,.88-.13,45.53,45.53,0,0,0,33.6-33.6,3.23,3.23,0,0,0-.83-3.14l-16-16c1-2.08,2-4.22,2.82-6.43a3.26,3.26,0,0,0-.72-3.45l-15.65-15.64L181.68,93.1,199.52,111a3.25,3.25,0,0,0,2.26,1,3.41,3.41,0,0,0,2.29-1l54-54a3.19,3.19,0,0,0,.95-2.27,3.23,3.23,0,0,0-.95-2.29L242.29,36.6,223.53,17.82,207.59,1.94a3.22,3.22,0,0,0-4.54,0h0l-54,54a3.24,3.24,0,0,0,0,4.53l15.78,15.8,2.08,2.09L156.51,88.68,134.79,67c.16-16.31-10-28.61-12.46-31.31a4.69,4.69,0,0,0-.52-.57l-.38-.33c-8.43-7.57-25.71.3-39.79,12L76.29,44c0-.56.15-1.13.15-1.72a14.18,14.18,0,1,0-14.18,14.2A6.68,6.68,0,0,0,64,56.29l2.8,5.35c-12,14.43-20,32.06-11.67,40.32a6.28,6.28,0,0,0,.59.56c2.77,2.57,14.86,12.4,30.84,12.4H87l21.75,21.77L98.32,147,80.48,129.12a3.22,3.22,0,0,0-4.54,0h0l-54,54a3.21,3.21,0,0,0,0,4.55h0Z" style="fill:#fff"/></svg>