<?xml version="1.0" encoding="utf-8"?>
<!-- Generator: Adobe Illustrator 25.4.1, SVG Export Plug-In . SVG Version: 6.00 Build 0)  -->
<svg version="1.1" id="Camada_1" xmlns="http://www.w3.org/2000/svg" xmlns:xlink="http://www.w3.org/1999/xlink" x="0px" y="0px"
	 viewBox="0 0 280 240" style="enable-background:new 0 0 280 240;" xml:space="preserve">
<style type="text/css">
	.st0{fill:#FFFFFF;}
</style>
<path class="st0" d="M258.6,43.2c-1.9-4.2-1.8-9,0.3-13c2.4-5,6-9,10.4-12.7c2.9,10.8,0.7,21.3-6.7,26.8
	C260.1,46.1,259.9,46.1,258.6,43.2 M251.6,88.7c3.8,0.9,7.3,2.5,10.5,4.8c-6.4,2.3-12.4,3.6-18.3-0.1c-2.5-1.6-2.5-2.1,0.1-3.6
	C246.3,88.6,249,88.2,251.6,88.7 M234.1,66.2c-0.1,1.7-0.7,1.9-2.2,1.4c-3.4-1.2-6.2-3.8-7.5-7.1c-1.7-4.1-2.4-8.6-2.1-13.1
	c3.8,2.3,7,5.4,9.5,9C233.5,59.4,234.4,62.8,234.1,66.2 M142.3,100.9c-1.9,2.2-3.3,2-5.7,0.6c-21.6-13.5-43.9-25.8-65.3-39.5
	c-1.6-0.8-2.6-2.5-2.4-4.3c0.1-7.2,0.1-14.3,0-21.5c0-2.1,0.7-3.4,2.9-3.8c0.9,0.1,1.6,0.6,2.2,1.2C96.6,55,119.3,76.4,142,97.9
	C143.3,99,143.3,99.5,142.3,100.9 M263.6,54.2c7.2-3.3,12.5-9.5,14.8-17.1c3.1-10.2,1.3-20.1-2-29.9c-0.9-2.7-4.7-3.6-7.1-1.8
	c-6.1,4.7-12,9.6-16.2,16.2c-6.2,9.4-7.3,19.1-1,29c0.4,0.7,0.8,1.3,0.3,2.1c-1.2,1.8-7.2,10.6-9.1,12.4c0-2.2-0.4-4.5-1.1-6.6
	c-3.6-12-12.6-18.5-23.2-23.4c-2.2-0.9-4.8,0.2-5.7,2.4c-0.2,0.4-0.3,0.9-0.3,1.4c-0.4,3.7-0.6,7.5-0.4,11.3
	c0.5,6.6,1.7,13,5.7,18.5c3.4,4.6,8.1,7.2,13.8,8.4c-4.1,4.8-7.6,9.9-10.7,15.4c-1.4-2.1-2.6-4-3.8-5.8c-4-5.7-7.7-11.7-12.8-16.6
	c-11.8-11.4-31-12.3-42.5,3c-3.6,4.8-6.5,10-9.7,15c-2.6,4.1-2.6,4.1-6,0.9l-3.5-3.3L80,26.4c-3.1-3.2-7.8-4.3-12-2.7
	c-4.5,1.4-7.7,5.3-8.2,9.9c-0.2,2-0.3,3.9-0.2,5.9c0,4.8,0,9.5,0,14.8c-4.4-3-8.4-5.7-12.4-8.5c-8.7-6-17.1-12.4-25.5-18.8
	c-4.1-3.4-9.9-4-14.7-1.4c-5,2.5-7.1,6.8-7.1,12.3C0,53.4,0,69,0,84.5c-0.1,9.4,1.7,18.7,5.2,27.5c6.4,16,16.9,28,33.6,34
	c5.9,2.1,11.8,4.4,17.6,6.7c0.7,0.3,1.7,0.3,2.2,1.3c-9.4,2.2-18.8,4-28.3,5.3c-3.4,0.5-4.9,2.5-4.5,5.9c0.2,1.4,0.4,2.8,0.6,4.3
	l22.8-3.9l0,0c8.5-1.7,17-3.7,25.3-6.2c2.4-0.7,4.3-1.7,4.4-4.5c0.1-2.8-1.7-4.2-4.1-5.1c-10.7-4-21.2-8.3-32-12
	c-14.4-5-23.5-15.2-29-29c-3.1-7.9-4.7-16.3-4.6-24.7c-0.1-15.2,0-30.4,0-45.6c0-1.9,0.2-3.6,2.1-4.5s3.6-0.3,5.2,0.9
	c10.7,8.4,21.7,16.5,33,24.2c22.1,15.1,45.3,28.4,68.3,42.1c6.3,3.7,12.5,7.6,18.8,11.5c3.1,1.9,4.6,1.8,7.3-0.5
	c7.3-6.1,13.5-13.4,18.3-21.6c2.3-4.2,5-8.2,7.9-11.9c6.7-8.1,16.3-9.6,25.1-3.9c2.9,2,5.5,4.6,7.6,7.5c4.3,5.6,8.1,11.4,12,17.2
	c1,1.5,0.6,1.8-0.8,2.4c-7.1,3-14.2,6.2-21.4,9.1c-10.2,4.1-15.2,11.3-15.1,22.7c0.5,22.8-14.7,43-36.9,48.8
	c-7.3,2-14.7,1.7-22.1,1.6c-3.7,0-7.3,0.1-11,0c-3.1-0.1-4.8,1.2-6,4c-1.2,2.8-2.5,6-3.8,8.9l0.1,0.1l-5.6,12.8l-5.8,13.6
	c-0.2,0.5-0.4,1-0.8,1.4l-3.9,9c1.4,0.5,2.9,1,4.3,1.5c3.3,1,5.2-0.1,6.7-3.5c5.2-12.1,10.4-24.2,15.5-36.4c0.4-1.5,1.8-2.5,3.3-2.3
	c5.3,0.2,10.6,0.1,15.9,0c14.7-0.1,27.8-4.7,38.9-14.4c14.1-12.3,20.7-28,20.4-46.7c-0.1-4.9,1.6-8.9,5.9-11
	c7.6-3.6,15.5-6.9,23.4-10.3c-0.5,3.8-0.8,7.5-1,11.3c-0.1,1.3,0.3,2.6,1.2,3.5c1.2,1.4,3.1,1.9,4.8,1.3c2-0.6,3.4-2.6,3.2-4.7
	c0-8.4,1.8-16.7,5.1-24.3c0.4-1.4,1.2-2.6,2.2-3.6c4.4,6,8.1,8.8,13.7,10.2c10.4,2.4,19.5-1.1,28.1-6.3c2-1.4,2.5-4.2,1.1-6.2
	c0,0,0,0,0,0c-0.2-0.3-0.4-0.5-0.6-0.7c-8.4-6.9-17.2-13.1-29.5-11.4c3.1-3.8,13.9-18.3,15.8-22.1C261,56.1,262.2,54.9,263.6,54.2"
	/>
</svg>
