<svg xmlns="http://www.w3.org/2000/svg" viewBox="0 0 280 240"><path d="M243.68,19.18l-.07-.27-2.5-2.5-.25-.07a15.44,15.44,0,0,0-6.56,0c-20,3.08-37.74,6.33-54.19,10C157,31.41,132.5,37.45,109.41,47.11c-8.89,3.72-19,8.32-26.92,15.84-15.27,14.54-23.69,32.85-25,54.41a7.46,7.46,0,0,0,1.29,5,6.09,6.09,0,0,0,8.47.86,7.31,7.31,0,0,0,2.18-5.16A67.09,67.09,0,0,1,72,102.65c4.93-16.3,13.22-28.08,25.37-36,9.8-6.42,20.88-10.54,31.39-14C164.16,40.77,200.55,34,228.3,29.38c.47-.08,1.57-.26,2.16.39a2,2,0,0,1,.18,2c0,.16-.08.33-.11.49-3,18.65-6.32,35.84-10.2,52.54-4.8,20.69-10.45,42.69-19.3,63.38-3.71,8.69-9.33,19.72-19.85,28-24.57,19.21-60.29,19.36-84.93.34-.8-.61-1.34-1.18-1.38-1.93a2.72,2.72,0,0,1,1.08-2c6.16-6,12.38-12.25,19-19a5.48,5.48,0,0,1,4.55-1.8c11,.23,22.16.39,33.06.55l11.28.19c2.13,0,4.34.1,6.49,0a6,6,0,0,0,5.07-3.08,5.91,5.91,0,0,0-.06-5.84c-1.18-2-3-3-5.9-3q-14.79-.17-29.58-.42l-6.51-.1c-.55,0-1.1,0-1.8-.08l-2.8-.15,41.75-41.77c2.28-2.27,4.56-4.54,6.81-6.83s2.8-4.75,1.75-7.15a5.71,5.71,0,0,0-4.23-3.46,6.6,6.6,0,0,0-5.86,2q-16.62,16.59-33.21,33.21l-16,16v-3.08c0-.71,0-1.28,0-1.83l.12-8.37q.23-14.24.47-28.47c0-2.64-.65-4.39-2.27-5.66a5.6,5.6,0,0,0-6.29-.73c-2.27,1.09-3.4,3-3.43,5.84l-.3,20.22q-.24,15.81-.45,31.64a5.9,5.9,0,0,1-1.88,4.5Q78.1,173.39,50.5,201L38.61,212.92l.71.71-.76-.66c-.38.37-.77.75-1.11,1.15a6,6,0,0,0-.08,7.75A5.86,5.86,0,0,0,41.88,224a6,6,0,0,0,3.29-1,14,14,0,0,0,2.26-1.95l6.67-6.66c9.46-9.44,19.22-19.19,28.76-28.84,1.92-2,3.23-2.06,5.36-.43,22.48,17.25,47.53,21.9,74.45,13.81,19.38-5.83,33.85-17,43-33.32,5.52-9.78,10.22-21.05,14.8-35.47,11.94-37.58,18.67-75.79,23.2-104.89a15,15,0,0,0,0-6.07" style="fill:#fff"/></svg>