<svg xmlns="http://www.w3.org/2000/svg" viewBox="0 0 280 240"><path d="M252.6,176.79a3.37,3.37,0,0,1-3.29,3.46H218a3.7,3.7,0,1,0,0,7.4h22.23a3.37,3.37,0,0,1,3.45,3.3v2.88a3.36,3.36,0,0,1-3.29,3.45H217.54a3.71,3.71,0,1,0,0,7.41h14.81a3,3,0,0,1,3,3v2.22a3,3,0,0,1-3,3H199.76a45.1,45.1,0,0,1-11.6-1.73l-30.87-10.37a15.85,15.85,0,0,0-4.69-.74h-.74V157.53h6.42a14.29,14.29,0,0,0,8.89-3l22-15.56a12.44,12.44,0,0,1,7.66-2.47h18.77a5.37,5.37,0,0,1,4.94,3.46l1.72,5.19h-17a3.7,3.7,0,1,0,0,7.4h35.32a3.37,3.37,0,0,1,3.45,3.29.49.49,0,0,1,0,.17v3a3.36,3.36,0,0,1-3.29,3.45H218.28a3.71,3.71,0,1,0,0,7.41h31.11a3.39,3.39,0,0,1,3.46,3.29v3.63Zm-82.22,50.87V212.84l15.55,4.94A43.62,43.62,0,0,0,199.76,220h27.9v7.66Zm-25.93-20.25h-22a12.44,12.44,0,0,0,8.64-11.85V176.79a19.69,19.69,0,0,0-4-12.1l-10.37-14.57h27.66Zm-37-22.23V220.5a3.37,3.37,0,0,1-3.3,3.45.43.43,0,0,1-.16,0h-3a3.37,3.37,0,0,1-3.46-3.29V198.27a3.71,3.71,0,0,0-7.41,0v31.12a3.36,3.36,0,0,1-3.29,3.45H83.21a3.37,3.37,0,0,1-3.46-3.29V198a3.7,3.7,0,0,0-7.4,0v22.23a3.39,3.39,0,0,1-3.29,3.46H66.17a3.37,3.37,0,0,1-3.45-3.3V197.53a3.71,3.71,0,0,0-7.41,0v14.82a3,3,0,0,1-3,3H50.12a3,3,0,0,1-3-3v-32.6a45.61,45.61,0,0,1,1.73-11.61l10.37-30.86a15.28,15.28,0,0,0,.74-4.69v-.74h42.47v6.41a14.26,14.26,0,0,0,3,8.89l15.55,22a12.3,12.3,0,0,1,2.47,7.66v18.76a5.36,5.36,0,0,1-3.45,4.94l-5.19,1.73v-17a3.71,3.71,0,0,0-7.41,0M42.23,165.92A43.91,43.91,0,0,0,40,179.75v27.9H32.35V150.36H47.16Zm10.37-63.7h0a12.44,12.44,0,0,0,11.85,8.64H83.21a19.72,19.72,0,0,0,12.11-4l14.57-10.37v27.65H52.59ZM36.05,83.94V81a3.39,3.39,0,0,1,3.29-3.46H61.73a3.7,3.7,0,1,0,0-7.4H30.86a3.39,3.39,0,0,1-3.46-3.29V63.2a3.37,3.37,0,0,1,3.29-3.45H62a3.71,3.71,0,1,0,0-7.41H39.75A3.38,3.38,0,0,1,36.29,49V46.17a3.38,3.38,0,0,1,3.3-3.46H62.47a3.71,3.71,0,0,0,0-7.41H47.65a3,3,0,0,1-3-3V30.11a3,3,0,0,1,3-3H80.74a46,46,0,0,1,11.6,1.73l30.37,10.37a15.28,15.28,0,0,0,4.69.74h.75V82.46h-6.42a14.35,14.35,0,0,0-8.89,3L90.86,101a12.27,12.27,0,0,1-7.65,2.47H64.44A5.37,5.37,0,0,1,59.5,100l-1.72-5.18h17a3.71,3.71,0,1,0,0-7.41H39.5a3.7,3.7,0,0,1-3.45-3.46m73.58-71.6V27.16L94.07,22.22A43.6,43.6,0,0,0,80.25,20H52.59V12.34Zm25.93,20.25h22a12.45,12.45,0,0,0-8.65,11.85V63.21a19.82,19.82,0,0,0,4,12.1l10.37,14.57H135.56Zm37,22.22V19.5A3.38,3.38,0,0,1,175.89,16H179a3.39,3.39,0,0,1,3.46,3.3V41.72a3.7,3.7,0,1,0,7.4,0V10.86a3.37,3.37,0,0,1,3.3-3.46h3.61a3.38,3.38,0,0,1,3.46,3.3V42a3.71,3.71,0,0,0,7.41,0h0V19.75A3.37,3.37,0,0,1,211,16.29h2.88a3.39,3.39,0,0,1,3.46,3.29V42.47a3.7,3.7,0,1,0,7.4,0V27.65a3,3,0,0,1,3-3h2.22a3,3,0,0,1,3,3V60.74a45.1,45.1,0,0,1-1.73,11.6l-10.37,30.37a15.92,15.92,0,0,0-.74,4.7v.74H177.53v-6.42a14.31,14.31,0,0,0-3-8.89L159,70.86a12.27,12.27,0,0,1-2.47-7.65V44.44A5.37,5.37,0,0,1,160,39.5l5.19-1.73v17a3.71,3.71,0,1,0,7.41,0m75.06,34.82h-14.8l4.94-15.56A44.19,44.19,0,0,0,240,60.24V32.59h7.65ZM148.14,143H111.36a8.16,8.16,0,0,1-1.48-4.7v-6.42h3.46a3.8,3.8,0,0,0,3.7-3.7V91.36a8.18,8.18,0,0,1,4.69-1.48h6.42v3.46a3.8,3.8,0,0,0,3.7,3.7H168.4a8,8,0,0,1,1.48,4.69v6.42h-3.45a3.8,3.8,0,0,0-3.71,3.7V148.4a8.18,8.18,0,0,1-4.69,1.48h-6.42v-3.46a3.23,3.23,0,0,0-3-3.45,1.77,1.77,0,0,0-.46,0m79.27-5.19h0a12.45,12.45,0,0,0-11.85-8.64H196.8a19.67,19.67,0,0,0-12.1,4l-14.57,10.37v-27.9h57.29Zm23.21,24.69a8,8,0,0,0,.5-3.46v-3a11,11,0,0,0-10.87-10.86h-5.43V111.85a3.8,3.8,0,0,0-3.7-3.7h-3.7v-.74a8.74,8.74,0,0,1,.49-2.47l2.47-7.9h21a3.8,3.8,0,0,0,3.7-3.7V28.89a3.8,3.8,0,0,0-3.7-3.7h-11.6A10.33,10.33,0,0,0,229.65,17h-2.22a12.55,12.55,0,0,0-3.21.49A10.85,10.85,0,0,0,213.6,8.89h-2.71a15,15,0,0,0-3.46.49A10.88,10.88,0,0,0,196.81,0h-3.45a10.67,10.67,0,0,0-10.62,9.38,7.84,7.84,0,0,0-3.46-.49h-3a11,11,0,0,0-10.86,10.87v5.43H131.85a3.81,3.81,0,0,0-3.7,3.7v3.7h-.74a8.74,8.74,0,0,1-2.47-.49L117,29.63v-21a3.8,3.8,0,0,0-3.7-3.7H48.89a3.79,3.79,0,0,0-3.7,3.7v11.6A10.33,10.33,0,0,0,37,30.36v2.23a12.55,12.55,0,0,0,.49,3.21,10.84,10.84,0,0,0-8.64,10.61v2.72a14.44,14.44,0,0,0,.49,3.46A10.88,10.88,0,0,0,20,63.21v3.45a10.67,10.67,0,0,0,9.38,10.62,7.84,7.84,0,0,0-.49,3.46v3A11,11,0,0,0,39.75,94.57h5.44V127.9a3.81,3.81,0,0,0,3.7,3.71h3.7v.74a9,9,0,0,1-.5,2.46l-2.47,7.91h-21a3.79,3.79,0,0,0-3.7,3.7v64.69a3.8,3.8,0,0,0,3.7,3.7h11.6A10.33,10.33,0,0,0,50.36,223h2.22a12.41,12.41,0,0,0,3.21-.49,10.85,10.85,0,0,0,10.62,8.64h2.72a14.44,14.44,0,0,0,3.46-.49A10.86,10.86,0,0,0,83.2,240h3.46a10.67,10.67,0,0,0,10.62-9.38,7.81,7.81,0,0,0,3.45.49h3a11,11,0,0,0,10.86-10.87v-5.43H147.9a3.79,3.79,0,0,0,3.7-3.7v-3.7h.74a8.6,8.6,0,0,1,2.47.49l7.9,2.47v21a3.81,3.81,0,0,0,3.71,3.7h64.69a3.79,3.79,0,0,0,3.7-3.7V219.75A10.32,10.32,0,0,0,243,209.63v-2.22a12.41,12.41,0,0,0-.49-3.21,10.85,10.85,0,0,0,8.64-10.62v-2.72a14.36,14.36,0,0,0-.49-3.45A10.88,10.88,0,0,0,260,176.79v-3.46a10.94,10.94,0,0,0-9.38-10.86" style="fill:#fff"/></svg>