<svg xmlns="http://www.w3.org/2000/svg" xmlns:xlink="http://www.w3.org/1999/xlink" width="253.009" height="240" viewBox="0 0 253.009 240"><defs><clipPath id="a"><rect width="253.009" height="240" transform="translate(7272.063 233.396)" fill="none"/></clipPath></defs><g transform="translate(-7272.063 -233.396)" clip-path="url(#a)"><path d="M7328.371,307.08a68.325,68.325,0,0,1,10.758-13.839l-35.277-38.682a120.776,120.776,0,0,0-22.395,29.154Z" transform="translate(5.359 12.076)" fill="#5fa246"/><path d="M7366.387,288.37a67.361,67.361,0,0,1,14.79,9.268l35.38-38.623a120.572,120.572,0,0,0-31.353-19.559Z" transform="translate(53.822 3.459)" fill="#cca137"/><path d="M7435,278.006l-46.885,23.371a67.051,67.051,0,0,1,4.692,16.567l52.158-4.922A119.036,119.036,0,0,0,7435,278.006" transform="translate(66.22 25.455)" fill="#ae2d30"/><path d="M7324.413,312.631c0-1.055.038-2.109.081-3.157l-52.167-4.671c-.165,2.587-.264,5.2-.264,7.828a120.233,120.233,0,0,0,3.552,29.015L7326,327.2a67.8,67.8,0,0,1-1.586-14.564" transform="translate(0 40.745)" fill="#55743c"/><path d="M7386.415,337.087a68.3,68.3,0,0,1-12.722,11.966l27.545,44.6a120.9,120.9,0,0,0,26.972-25.048Z" transform="translate(57.99 59.166)" fill="#efb940"/><path d="M7392.133,312.464a66.985,66.985,0,0,1-1.552,14.393l50.379,14.476a119.617,119.617,0,0,0,3.522-28.869c0-2.474-.08-4.924-.232-7.368l-52.164,4.925c.028.818.047,1.627.047,2.442" transform="translate(67.627 40.912)" fill="#d0442e"/><path d="M7330.856,337.722l-41.7,31.69a120.979,120.979,0,0,0,27.228,24.668l27.539-44.55a68.181,68.181,0,0,1-13.07-11.808" transform="translate(9.756 59.529)" fill="#e69f3a"/><path d="M7324.9,317.573a66.731,66.731,0,0,1,5-16.805l-46.869-23.35a119.083,119.083,0,0,0-10.344,35.472Z" transform="translate(0.357 25.119)" fill="#3575b2"/><path d="M7402.974,391.851l-27.5-44.538a67.412,67.412,0,0,1-16.05,6.521l9.705,51.52a119.1,119.1,0,0,0,33.849-13.5" transform="translate(49.846 65.001)" fill="#842533"/><path d="M7391.964,323.6a67.725,67.725,0,0,1-7.322,15.078l41.83,31.55a119.423,119.423,0,0,0,15.83-32.163Z" transform="translate(64.238 51.468)" fill="#4ea4d1"/><path d="M7364.628,352.423a66.963,66.963,0,0,1-17.637.247l-9.7,51.519a120.461,120.461,0,0,0,37.036-.289Z" transform="translate(37.218 67.917)" fill="#d96c2f"/><path d="M7351.235,285.82a67.207,67.207,0,0,1,16.748,3.235l18.815-48.9a119.259,119.259,0,0,0-35.563-6.73Z" transform="translate(45.177 0.016)" fill="#cc2e2c"/><path d="M7354.764,354.041a67.309,67.309,0,0,1-16.612-6.282L7310.6,392.328a119.481,119.481,0,0,0,34.477,13.181Z" transform="translate(21.987 65.256)" fill="#c72f78"/><path d="M7342.417,288.827a66.893,66.893,0,0,1,17.094-3.041V233.4a119.544,119.544,0,0,0-36.04,6.565Z" transform="translate(29.333 0)" fill="#24325f"/><path d="M7333.978,339.7a67.186,67.186,0,0,1-7.983-16l-50.348,14.45a119.486,119.486,0,0,0,16.629,33.245Z" transform="translate(2.045 51.527)" fill="#c68e34"/><path d="M7334.61,296.924a67.823,67.823,0,0,1,14.512-8.783L7330.189,239.3a119.928,119.928,0,0,0-30.88,18.912Z" transform="translate(15.546 3.37)" fill="#204c80"/><path d="M7389.754,315.736l74.1-37.007c-5.022-11.55-18.864-29.977-28.406-37.76l-56.1,60.924a68.01,68.01,0,0,1,10.4,13.843" transform="translate(61.219 4.321)" fill="#4e9044"/></g></svg>