<svg xmlns="http://www.w3.org/2000/svg" viewBox="0 0 280 240"><path d="M170.49,69.68A30.49,30.49,0,1,1,140,39.19a30.49,30.49,0,0,1,30.49,30.49m-70.67,0A40.18,40.18,0,1,0,140,29.5,40.18,40.18,0,0,0,99.82,69.68h0" style="fill:#fff"/><path d="M270.35,181.27H213.57v-1.4c0-.48-.24-2-.33-3s-.58-2.38-.83-3.83a27.3,27.3,0,0,0-.62-3c-.24-1-.63-2.47-1-3.73l-.87-2.86c-.43-1.21-.87-2.37-1.35-3.59s-.72-1.84-1.11-2.71-1.11-2.38-1.69-3.54-.82-1.74-1.3-2.57-1.4-2.32-2.12-3.49-.92-1.55-1.45-2.27-1.79-2.48-2.75-3.69-.87-1.21-1.35-1.79A47.92,47.92,0,0,0,192,134.7l-.73-.44a48.69,48.69,0,0,1,79.08,37.86ZM75.84,200.66V187a2.58,2.58,0,0,0,0-.68,64.06,64.06,0,0,1,105-48.47c1.55,1.36,3,2.72,4.44,4.12a64,64,0,0,1,18.78,44.59v14.11ZM9.66,172.11A48.63,48.63,0,0,1,88.73,134l-1,1.07-1.88,2c-1.07,1.16-2.13,2.37-3.14,3.58l-1.69,2.19c-1,1.31-1.93,2.66-2.8,4s-1,1.4-1.4,2.13c-1,1.65-1.93,3.39-2.8,5.14,0,.44-.48.87-.68,1.31-1.06,2.23-2,4.51-2.84,6.83A6.22,6.22,0,0,1,70,164c-.58,1.74-1.11,3.54-1.55,5.33-.24.82-.39,1.7-.58,2.52-.34,1.6-.63,3.2-.82,4.85s-.24,1.84-.34,2.76-.24,1.36-.29,2H9.66Zm212-58.55a57.82,57.82,0,0,0-37.9,14.15,73.19,73.19,0,0,0-87.57,0A58.24,58.24,0,0,0,0,172.11v14.15a4.82,4.82,0,0,0,4.83,4.85H66.18v14.54A4.85,4.85,0,0,0,71,210.5H209a4.82,4.82,0,0,0,4.83-4.85h0V191.11h61.36a4.84,4.84,0,0,0,4.83-4.85V172.11a58.48,58.48,0,0,0-58.32-58.55" style="fill:#fff"/><path d="M221.45,101.53A22.59,22.59,0,1,1,244,78.89h0v0a22.59,22.59,0,0,1-22.54,22.59m0-54.82A32.28,32.28,0,1,0,253.68,79v-.1a32.23,32.23,0,0,0-32.23-32.23h0" style="fill:#fff"/><path d="M81.09,78.94A22.54,22.54,0,1,1,58.55,56.4,22.54,22.54,0,0,1,81.09,78.94h0m-54.77,0A32.24,32.24,0,1,0,58.55,46.71,32.23,32.23,0,0,0,26.32,78.94h0" style="fill:#fff"/></svg>