<svg xmlns="http://www.w3.org/2000/svg" width="797.252" height="555.888" viewBox="0 0 797.252 555.888">
  <defs>
    <style>
      .cls-1, .cls-3, .cls-4, .cls-7 {
        fill: none;
      }

      .cls-1 {
        stroke: #9a9b9f;
        stroke-width: 0.305px;
      }

      .cls-2 {
        fill: #292623;
        font-size: 13px;
        font-family: ArialMT, Arial;
      }

      .cls-3, .cls-4 {
        stroke: #aba8a5;
        stroke-linecap: round;
        stroke-width: 0.414px;
      }

      .cls-3 {
        stroke-dasharray: 1.651 1.651;
      }

      .cls-4 {
        stroke-dasharray: 1.658 1.658;
      }

      .cls-5 {
        fill: #fff;
      }

      .cls-6 {
        fill: #ebecec;
      }
    </style>
  </defs>
  <g id="Grupo_3433" data-name="Grupo 3433" transform="translate(-575.095 -2460.193)">
    <g id="Grupo_202" data-name="Grupo 202" transform="translate(575.095 2938.392)">
      <path id="Caminho_178" data-name="Caminho 178" class="cls-1" d="M0,0H797.252"/>
    </g>
    <g id="Grupo_203" data-name="Grupo 203" transform="translate(575.095 2798.893)">
      <path id="Caminho_179" data-name="Caminho 179" class="cls-1" d="M0,0H797.252"/>
    </g>
    <g id="Grupo_204" data-name="Grupo 204" transform="translate(575.095 2659.395)">
      <path id="Caminho_180" data-name="Caminho 180" class="cls-1" d="M0,0H797.252"/>
    </g>
    <g id="Grupo_205" data-name="Grupo 205" transform="translate(575.095 2891.892)">
      <path id="Caminho_181" data-name="Caminho 181" class="cls-1" d="M0,0H797.252"/>
    </g>
    <g id="Grupo_206" data-name="Grupo 206" transform="translate(575.095 2752.394)">
      <path id="Caminho_182" data-name="Caminho 182" class="cls-1" d="M0,0H797.252"/>
    </g>
    <g id="Grupo_207" data-name="Grupo 207" transform="translate(575.095 2612.895)">
      <path id="Caminho_183" data-name="Caminho 183" class="cls-1" d="M0,0H797.252"/>
    </g>
    <g id="Grupo_208" data-name="Grupo 208" transform="translate(575.095 2519.896)">
      <path id="Caminho_184" data-name="Caminho 184" class="cls-1" d="M0,0H797.252"/>
    </g>
    <g id="Grupo_209" data-name="Grupo 209" transform="translate(575.095 2845.392)">
      <path id="Caminho_185" data-name="Caminho 185" class="cls-1" d="M0,0H797.252"/>
    </g>
    <g id="Grupo_211" data-name="Grupo 211" transform="translate(575.095 2566.396)">
      <path id="Caminho_187" data-name="Caminho 187" class="cls-1" d="M0,0H797.252"/>
    </g>
    <g id="Grupo_212" data-name="Grupo 212" transform="translate(575.095 2473.397)">
      <path id="Caminho_188" data-name="Caminho 188" class="cls-1" d="M0,0H797.252"/>
    </g>
    <g id="Grupo" transform="translate(548 3073.296)">
      <text id="_2016" data-name="2016" class="cls-2" transform="translate(30.826 -108.542)"><tspan x="0" y="0">2016</tspan></text>
      <text id="_2017" data-name="2017" class="cls-2" transform="translate(282.894 -108.542)"><tspan x="0" y="0">2017</tspan></text>
      <text id="_2018" data-name="2018" class="cls-2" transform="translate(526.756 -108.542)"><tspan x="0" y="0">2018</tspan></text>
    </g>
    <g id="Grupo_213" data-name="Grupo 213" transform="translate(594.792 2950.745)">
      <path id="Caminho_189" data-name="Caminho 189" class="cls-3" d="M0,0V-490.345"/>
    </g>
    <g id="Grupo_214" data-name="Grupo 214" transform="translate(846.892 2950.745)">
      <path id="Caminho_190" data-name="Caminho 190" class="cls-3" d="M0,0V-490.345"/>
    </g>
    <g id="Grupo_215" data-name="Grupo 215" transform="translate(1090.757 2950.745)">
      <path id="Caminho_191" data-name="Caminho 191" class="cls-3" d="M0,0V-490.345"/>
    </g>
    <g id="Grupo_216" data-name="Grupo 216" transform="translate(1347.229 3015.874)">
      <path id="Caminho_192" data-name="Caminho 192" class="cls-4" d="M0,0V-555.474"/>
    </g>
    <path id="Caminho_193" data-name="Caminho 193" class="cls-5" d="M783.525-108.542H817.34v-9.636H783.525Z" transform="translate(548 3073.296)"/>
    <path id="Caminho_194" data-name="Caminho 194" class="cls-6" d="M783.525-105.757H817.34v-12.421H783.525Z" transform="translate(548 3073.296)"/>
    <text id="_2019" data-name="2019" class="cls-2" transform="translate(1331.525 2964.754)"><tspan x="0" y="0">2019</tspan></text>
    <path id="Caminho_196" data-name="Caminho 196" class="cls-7" d="M0,0H784.2V-399.573H0Z" transform="translate(579 2890.146)"/>
    <path id="Caminho_199" data-name="Caminho 199" class="cls-7" d="M0,0H784.2V-399.573H0Z" transform="translate(579 2890.146)"/>
  </g>
</svg>
