<svg xmlns="http://www.w3.org/2000/svg" width="16.5" height="16.767" viewBox="0 0 16.5 16.767"><g transform="translate(1.376 1.376)"><path d="M1634.933,1435.767a2.433,2.433,0,0,1-2.428-2.285l0-.148v-9.344a2.433,2.433,0,0,1,2.285-2.429l.148,0h3.893a.876.876,0,0,1,.1,1.746l-.1.006h-3.893a.682.682,0,0,0-.675.589l-.006.093v9.344a.682.682,0,0,0,.589.675l.092.006h9.344a.681.681,0,0,0,.675-.59l.006-.092v-3.893a.876.876,0,0,1,1.746-.1l.006.1v3.893a2.432,2.432,0,0,1-2.285,2.428l-.149,0Zm4.053-6.674a.876.876,0,0,1-.073-1.156l.073-.083,6.1-6.1h-2.635a.876.876,0,0,1-.87-.773l-.005-.1a.877.877,0,0,1,.774-.87l.1-.005h4.672a.876.876,0,0,1,.87.774l.005.1v4.672a.876.876,0,0,1-1.746.1l-.005-.1v-2.479l-6.024,6.024a.876.876,0,0,1-1.239,0Z" transform="translate(-1633.376 -1420.876)" fill="#0276b3" stroke="rgba(0,0,0,0)" stroke-miterlimit="10" stroke-width="1"/></g></svg>