<svg xmlns="http://www.w3.org/2000/svg" xmlns:xlink="http://www.w3.org/1999/xlink" width="349.825" height="308.153" viewBox="0 0 349.825 308.153">
  <defs>
    <clipPath id="clip-path">
      <rect id="Rectangle_19" data-name="Rectangle 19" width="333.572" height="228.694" fill="none"/>
    </clipPath>
  </defs>
  <g id="grafico_1" data-name="grafico 1" transform="translate(-33.42 -177.278)">
    <line id="Line_1" data-name="Line 1" x2="346.296" transform="translate(35.204 255.389)" fill="none" stroke="#a5a5a5" stroke-width="0.372"/>
    <line id="Line_2" data-name="Line 2" y1="0.035" x2="346.296" transform="translate(35.204 371.5)" fill="none" stroke="#a5a5a5" stroke-width="0.372"/>
    <line id="Line_3" data-name="Line 3" x2="346.296" y2="0.229" transform="translate(35.204 410.271)" fill="none" stroke="#a5a5a5" stroke-width="0.372"/>
    <line id="Line_4" data-name="Line 4" x2="346.296" transform="translate(35.204 332.8)" fill="none" stroke="#a5a5a5" stroke-width="0.372"/>
    <line id="Line_5" data-name="Line 5" x2="346.296" transform="translate(35.204 294.064)" fill="none" stroke="#a5a5a5" stroke-width="0.372"/>
    <text id="_60_901" data-name="60,901" transform="translate(47.856 378.334)" fill="#2e2a26" font-size="10" font-family="Arial-BoldMT, Arial" font-weight="700"><tspan x="0" y="0">60,901</tspan></text>
    <line id="Line_6" data-name="Line 6" y1="166.343" transform="translate(43.42 252.312)" fill="none" stroke="#a5a5a5" stroke-linecap="round" stroke-width="0.503" stroke-dasharray="2.011 2.011"/>
    <line id="Line_7" data-name="Line 7" y1="166.343" transform="translate(187.064 252.312)" fill="none" stroke="#a5a5a5" stroke-linecap="round" stroke-width="0.503" stroke-dasharray="2.011 2.011"/>
    <line id="Line_8" data-name="Line 8" y1="166.343" transform="translate(330.708 252.312)" fill="none" stroke="#a5a5a5" stroke-linecap="round" stroke-width="0.503" stroke-dasharray="2.011 2.011"/>
    <text id="_2018" data-name="2018" transform="translate(33.42 434.013)" fill="#2e2a26" font-size="9" font-family="ArialMT, Arial"><tspan x="0" y="0">2018</tspan></text>
    <text id="_2019" data-name="2019" transform="translate(177.064 434.013)" fill="#2e2a26" font-size="9" font-family="ArialMT, Arial"><tspan x="0" y="0">2019</tspan></text>
    <text id="_322_410" data-name="322,410" transform="translate(222.745 481.431)" fill="#2e2a26" font-size="18" font-family="Arial-BoldMT, Arial" font-weight="700"><tspan x="0" y="0">322,410</tspan></text>
    <text id="_2020" data-name="2020" transform="translate(320.709 434.013)" fill="#2e2a26" font-size="9" font-family="ArialMT, Arial"><tspan x="0" y="0">2020</tspan></text>
    <g id="Group_25" data-name="Group 25" transform="translate(35.204 244.237)" clip-path="url(#clip-path)">
      <path id="Path_27" data-name="Path 27" d="M838.8,2349.5s-93.583,68.5-143.37,88.748c-18.874,7.674-51.716,13.651-81.622,17.881-7.687,1.087-15.168,2.054-22.651,2.961l-2.16.26c-21.733,2.593-38,3.944-38,3.944" transform="translate(-543.312 -2343.959)" fill="none" stroke="#498bca" stroke-linecap="round" stroke-linejoin="round" stroke-width="4"/>
      <path id="Path_28" data-name="Path 28" d="M839.357,2539.76s-13.035,5.481-31.847,13.072c-11.053,4.46-24.424,9.772-38.138,15.04-28.713,11.028-59.051,21.883-74.271,24.848-35.651,6.945-144.1,15.739-144.1,15.739" transform="translate(-543.311 -2460.32)" fill="none" stroke="#2e4161" stroke-linecap="round" stroke-linejoin="round" stroke-width="4"/>
      <path id="Path_29" data-name="Path 29" d="M1289.753,2351.08a3.5,3.5,0,1,0-3.5-3.5,3.5,3.5,0,0,0,3.5,3.5" transform="translate(-993.762 -2342.041)" fill="#498bca"/>
      <path id="Path_30" data-name="Path 30" d="M920.358,2579.564a3.5,3.5,0,1,0-3.5-3.5,3.5,3.5,0,0,0,3.5,3.5" transform="translate(-768.767 -2481.382)" fill="#498bca"/>
      <path id="Path_31" data-name="Path 31" d="M550.677,2643.459a3.5,3.5,0,1,0-3.5-3.5,3.5,3.5,0,0,0,3.5,3.5" transform="translate(-542.757 -2520.626)" fill="#498bca"/>
      <path id="Path_32" data-name="Path 32" d="M550.677,2717.624a3.5,3.5,0,1,0-3.5-3.5,3.5,3.5,0,0,0,3.5,3.5" transform="translate(-541.757 -2565.484)" fill="#2e4161"/>
      <path id="Path_33" data-name="Path 33" d="M920.358,2677.975a3.5,3.5,0,1,0-3.5-3.5,3.5,3.5,0,0,0,3.5,3.5" transform="translate(-768.49 -2542.568)" fill="#2e4161"/>
      <path id="Path_34" data-name="Path 34" d="M1291.18,2541.626a3.5,3.5,0,1,0-3.5-3.5,3.5,3.5,0,0,0,3.5,3.5" transform="translate(-995.134 -2458.685)" fill="#2e4161"/>
    </g>
    <text id="_24_000" data-name="24,000" transform="translate(47.856 405.618)" fill="#2e2a26" font-size="10" font-family="Arial-BoldMT, Arial" font-weight="700"><tspan x="0" y="0">24,000</tspan></text>
    <text id="_92_378" data-name="92,378" transform="translate(192.481 348.701)" fill="#2e2a26" font-size="10" font-family="Arial-BoldMT, Arial" font-weight="700"><tspan x="0" y="0">92,378</tspan></text>
    <text id="_41_043" data-name="41,043" transform="translate(192.481 389.334)" fill="#2e2a26" font-size="10" font-family="Arial-BoldMT, Arial" font-weight="700"><tspan x="0" y="0">41,043</tspan></text>
    <text id="_209_881" data-name="209,881" transform="translate(336.245 250.312)" fill="#2e2a26" font-size="13" font-family="Arial-BoldMT, Arial" font-weight="700"><tspan x="0" y="0">209,881</tspan></text>
    <text id="_112_529" data-name="112,529" transform="translate(336.245 324.498)" fill="#2e2a26" font-size="13" font-family="Arial-BoldMT, Arial" font-weight="700"><tspan x="0" y="0" letter-spacing="-0.055em">1</tspan><tspan y="0">12,529</tspan></text>
    <text id="Total_beneficiaries_in_2020:" data-name="Total beneficiaries in 2020:" transform="translate(77.81 481.931)" fill="#2e2a26" font-size="11" font-family="Arial-BoldMT, Arial" font-weight="700"><tspan x="0" y="0">Total beneficiaries in 2020:</tspan></text>
    <text id="Event_with_learning_outcome" data-name="Event with learning outcome" transform="translate(47.537 187.278)" fill="#292623" font-size="11" font-family="ArialMT, Arial"><tspan x="0" y="0">Event with learning outcome</tspan></text>
    <circle id="Ellipse_7" data-name="Ellipse 7" cx="4.5" cy="4.5" r="4.5" transform="translate(33.42 179.278)" fill="#498bca"/>
    <text id="Other_knowledge-sharing_and_training-related_" data-name="Other knowledge-sharing and training-related " transform="translate(47.686 206.256)" fill="#292623" font-size="11" font-family="ArialMT, Arial"><tspan x="0" y="0">Other knowledge-sharing and training-related </tspan></text>
    <circle id="Ellipse_8" data-name="Ellipse 8" cx="4.5" cy="4.5" r="4.5" transform="translate(33.42 198.256)" fill="#2e4161"/>
  </g>
</svg>
