<svg xmlns="http://www.w3.org/2000/svg" width="223.276" height="456.387" viewBox="0 0 223.276 456.387">
  <g id="grafico_9" data-name="grafico 9" transform="translate(-95.362 -117.817)">
    <g id="Group_1366" data-name="Group 1366" transform="translate(21.638 -16)">
      <g id="Group_1359" data-name="Group 1359">
        <text id="Foundation" transform="translate(117.429 386.204)" fill="#2d2a26" font-size="11" font-family="ArialMT, Arial"><tspan x="0" y="0">Foundation</tspan></text>
        <text id="_4_" data-name="4%" transform="translate(83.724 388.204)" fill="#7f4593" font-size="18" font-family="Arial-BoldMT, Arial" font-weight="700"><tspan x="0" y="0">4%</tspan></text>
      </g>
      <g id="Group_1360" data-name="Group 1360" transform="translate(0 -5)">
        <text id="Private_Sector" data-name="Private Sector" transform="translate(116.929 424.204)" fill="#2d2a26" font-size="11" font-family="ArialMT, Arial"><tspan x="0" y="0">Private Sector</tspan></text>
        <text id="_6_" data-name="6%" transform="translate(83.724 426.204)" fill="#56a35c" font-size="18" font-family="Arial-BoldMT, Arial" font-weight="700"><tspan x="0" y="0">6%</tspan></text>
      </g>
      <g id="Group_1361" data-name="Group 1361" transform="translate(0 -10)">
        <text id="International_Organization_non_UN_" data-name="International Organization (non UN)  " transform="translate(117 462.204)" fill="#2d2a26" font-size="11" font-family="ArialMT, Arial"><tspan x="0" y="0" xml:space="preserve">International Organization (non UN)  </tspan></text>
        <text id="_5_" data-name="5%" transform="translate(83.724 464.204)" fill="#e2973f" font-size="18" font-family="Arial-BoldMT, Arial" font-weight="700"><tspan x="0" y="0">5%</tspan></text>
      </g>
      <g id="Group_1362" data-name="Group 1362" transform="translate(0 -15)">
        <text id="Government" transform="translate(117.429 500.204)" fill="#2d2a26" font-size="11" font-family="ArialMT, Arial"><tspan x="0" y="0">Government</tspan></text>
        <text id="_17_" data-name="17%" transform="translate(73.724 502.204)" fill="#5b89c4" font-size="18" font-family="Arial-BoldMT, Arial" font-weight="700"><tspan x="0" y="0">17%</tspan></text>
      </g>
      <g id="Group_1363" data-name="Group 1363" transform="translate(0 -20)">
        <text id="Academia" transform="translate(117.429 538.204)" fill="#2d2a26" font-size="11" font-family="ArialMT, Arial"><tspan x="0" y="0">Academia</tspan></text>
        <text id="_20_" data-name="20%" transform="translate(73.724 540.204)" fill="#72bee9" font-size="18" font-family="Arial-BoldMT, Arial" font-weight="700"><tspan x="0" y="0">20%</tspan></text>
      </g>
      <g id="Group_1364" data-name="Group 1364" transform="translate(0 -25)">
        <text id="NGO" transform="translate(116.929 576.204)" fill="#2d2a26" font-size="11" font-family="ArialMT, Arial"><tspan x="0" y="0">NGO</tspan></text>
        <text id="_21_" data-name="21%" transform="translate(73.724 578.204)" fill="#7173ad" font-size="18" font-family="Arial-BoldMT, Arial" font-weight="700"><tspan x="0" y="0">21%</tspan></text>
      </g>
      <g id="Group_1365" data-name="Group 1365" transform="translate(0 -30)">
        <text id="United_Nations" data-name="United Nations" transform="translate(117.429 614.204)" fill="#2d2a26" font-size="11" font-family="ArialMT, Arial"><tspan x="0" y="0">United Nations</tspan></text>
        <text id="_27_" data-name="27%" transform="translate(73.724 616.204)" fill="#32415f" font-size="18" font-family="Arial-BoldMT, Arial" font-weight="700"><tspan x="0" y="0">27%</tspan></text>
      </g>
    </g>
    <g id="Group_574" data-name="Group 574" transform="translate(100.155 117.817)">
      <path id="Path_674" data-name="Path 674" d="M791.771,15705.012a8.013,8.013,0,1,0,8.01,8.01,8.009,8.009,0,0,0-8.01-8.01" transform="translate(-586.091 -15512.448)" fill="#32415f"/>
      <path id="Path_675" data-name="Path 675" d="M763.51,15705.012a8.013,8.013,0,1,0,8.01,8.01,8.009,8.009,0,0,0-8.01-8.01" transform="translate(-579.861 -15512.448)" fill="#32415f"/>
      <path id="Path_676" data-name="Path 676" d="M735.25,15705.012a8.013,8.013,0,1,0,8.01,8.01,8.008,8.008,0,0,0-8.01-8.01" transform="translate(-573.63 -15512.448)" fill="#32415f"/>
      <path id="Path_677" data-name="Path 677" d="M706.989,15705.012a8.013,8.013,0,1,0,8.01,8.01,8.009,8.009,0,0,0-8.01-8.01" transform="translate(-567.4 -15512.448)" fill="#32415f"/>
      <path id="Path_678" data-name="Path 678" d="M678.729,15705.012a8.013,8.013,0,1,0,8.011,8.01,8.008,8.008,0,0,0-8.011-8.01" transform="translate(-561.169 -15512.448)" fill="#32415f"/>
      <path id="Path_679" data-name="Path 679" d="M791.771,15677.476a8.012,8.012,0,1,0,8.01,8.01,8.01,8.01,0,0,0-8.01-8.01" transform="translate(-586.091 -15506.38)" fill="#32415f"/>
      <path id="Path_680" data-name="Path 680" d="M763.51,15677.476a8.012,8.012,0,1,0,8.01,8.01,8.01,8.01,0,0,0-8.01-8.01" transform="translate(-579.861 -15506.38)" fill="#32415f"/>
      <path id="Path_681" data-name="Path 681" d="M735.25,15677.476a8.012,8.012,0,1,0,8.01,8.01,8.01,8.01,0,0,0-8.01-8.01" transform="translate(-573.63 -15506.38)" fill="#32415f"/>
      <path id="Path_682" data-name="Path 682" d="M706.989,15677.476a8.012,8.012,0,1,0,8.01,8.01,8.01,8.01,0,0,0-8.01-8.01" transform="translate(-567.4 -15506.38)" fill="#32415f"/>
      <path id="Path_683" data-name="Path 683" d="M678.729,15677.476a8.012,8.012,0,1,0,8.011,8.01,8.01,8.01,0,0,0-8.011-8.01" transform="translate(-561.169 -15506.38)" fill="#32415f"/>
      <path id="Path_684" data-name="Path 684" d="M791.771,15649.936a8.011,8.011,0,1,0,8.01,8.012,8.011,8.011,0,0,0-8.01-8.012" transform="translate(-586.091 -15500.308)" fill="#32415f"/>
      <path id="Path_685" data-name="Path 685" d="M763.51,15649.936a8.011,8.011,0,1,0,8.01,8.012,8.011,8.011,0,0,0-8.01-8.012" transform="translate(-579.861 -15500.308)" fill="#32415f"/>
      <path id="Path_686" data-name="Path 686" d="M735.25,15649.936a8.011,8.011,0,1,0,8.01,8.012,8.01,8.01,0,0,0-8.01-8.012" transform="translate(-573.63 -15500.308)" fill="#32415f"/>
      <path id="Path_687" data-name="Path 687" d="M706.989,15649.936a8.011,8.011,0,1,0,8.01,8.012,8.011,8.011,0,0,0-8.01-8.012" transform="translate(-567.4 -15500.308)" fill="#32415f"/>
      <path id="Path_688" data-name="Path 688" d="M678.729,15649.936a8.011,8.011,0,1,0,8.011,8.012,8.01,8.01,0,0,0-8.011-8.012" transform="translate(-561.169 -15500.308)" fill="#32415f"/>
      <path id="Path_689" data-name="Path 689" d="M791.771,15622.4a8.01,8.01,0,1,0,8.01,8.01,8.009,8.009,0,0,0-8.01-8.01" transform="translate(-586.091 -15494.238)" fill="#7173ad"/>
      <path id="Path_690" data-name="Path 690" d="M763.51,15622.4a8.01,8.01,0,1,0,8.01,8.01,8.009,8.009,0,0,0-8.01-8.01" transform="translate(-579.861 -15494.238)" fill="#7173ad"/>
      <path id="Path_691" data-name="Path 691" d="M735.25,15622.4a8.01,8.01,0,1,0,8.01,8.01,8.008,8.008,0,0,0-8.01-8.01" transform="translate(-573.63 -15494.238)" fill="#7173ad"/>
      <path id="Path_692" data-name="Path 692" d="M706.989,15622.4a8.01,8.01,0,1,0,8.01,8.01,8.009,8.009,0,0,0-8.01-8.01" transform="translate(-567.4 -15494.238)" fill="#7173ad"/>
      <path id="Path_693" data-name="Path 693" d="M678.729,15622.4a8.01,8.01,0,1,0,8.011,8.01,8.008,8.008,0,0,0-8.011-8.01" transform="translate(-561.169 -15494.238)" fill="#7173ad"/>
      <path id="Path_694" data-name="Path 694" d="M791.771,15594.862a8.012,8.012,0,1,0,8.01,8.01,8.01,8.01,0,0,0-8.01-8.01" transform="translate(-586.091 -15488.166)" fill="#7173ad"/>
      <path id="Path_695" data-name="Path 695" d="M763.51,15594.862a8.012,8.012,0,1,0,8.01,8.01,8.01,8.01,0,0,0-8.01-8.01" transform="translate(-579.861 -15488.166)" fill="#7173ad"/>
      <path id="Path_696" data-name="Path 696" d="M735.25,15594.862a8.012,8.012,0,1,0,8.01,8.01,8.01,8.01,0,0,0-8.01-8.01" transform="translate(-573.63 -15488.166)" fill="#7173ad"/>
      <path id="Path_697" data-name="Path 697" d="M706.989,15594.862a8.012,8.012,0,1,0,8.01,8.01,8.01,8.01,0,0,0-8.01-8.01" transform="translate(-567.4 -15488.166)" fill="#7173ad"/>
      <path id="Path_698" data-name="Path 698" d="M678.729,15594.862a8.012,8.012,0,1,0,8.011,8.01,8.01,8.01,0,0,0-8.011-8.01" transform="translate(-561.169 -15488.166)" fill="#7173ad"/>
      <path id="Path_699" data-name="Path 699" d="M791.771,15567.324a8.013,8.013,0,1,0,8.01,8.012,8.009,8.009,0,0,0-8.01-8.012" transform="translate(-586.091 -15482.095)" fill="#72bee9"/>
      <path id="Path_700" data-name="Path 700" d="M763.51,15567.324a8.013,8.013,0,1,0,8.01,8.012,8.009,8.009,0,0,0-8.01-8.012" transform="translate(-579.861 -15482.095)" fill="#72bee9"/>
      <path id="Path_701" data-name="Path 701" d="M735.25,15567.324a8.013,8.013,0,1,0,8.01,8.012,8.009,8.009,0,0,0-8.01-8.012" transform="translate(-573.63 -15482.095)" fill="#72bee9"/>
      <path id="Path_702" data-name="Path 702" d="M706.989,15567.324a8.013,8.013,0,1,0,8.01,8.012,8.009,8.009,0,0,0-8.01-8.012" transform="translate(-567.4 -15482.095)" fill="#72bee9"/>
      <path id="Path_703" data-name="Path 703" d="M678.729,15567.324a8.013,8.013,0,1,0,8.011,8.012,8.009,8.009,0,0,0-8.011-8.012" transform="translate(-561.169 -15482.095)" fill="#72bee9"/>
      <path id="Path_704" data-name="Path 704" d="M791.771,15539.787a8.011,8.011,0,1,0,8.01,8.008,8.009,8.009,0,0,0-8.01-8.008" transform="translate(-586.091 -15476.024)" fill="#72bee9"/>
      <path id="Path_705" data-name="Path 705" d="M763.51,15539.787a8.011,8.011,0,1,0,8.01,8.008,8.009,8.009,0,0,0-8.01-8.008" transform="translate(-579.861 -15476.024)" fill="#72bee9"/>
      <path id="Path_706" data-name="Path 706" d="M735.25,15539.787a8.011,8.011,0,1,0,8.01,8.008,8.008,8.008,0,0,0-8.01-8.008" transform="translate(-573.63 -15476.024)" fill="#72bee9"/>
      <path id="Path_707" data-name="Path 707" d="M706.989,15539.787a8.011,8.011,0,1,0,8.01,8.008,8.009,8.009,0,0,0-8.01-8.008" transform="translate(-567.4 -15476.024)" fill="#72bee9"/>
      <path id="Path_708" data-name="Path 708" d="M678.729,15539.787a8.011,8.011,0,1,0,8.011,8.008,8.008,8.008,0,0,0-8.011-8.008" transform="translate(-561.169 -15476.024)" fill="#72bee9"/>
      <path id="Path_709" data-name="Path 709" d="M791.771,15512.25a8.011,8.011,0,1,0,8.01,8.01,8.008,8.008,0,0,0-8.01-8.01" transform="translate(-586.091 -15469.954)" fill="#5b89c4"/>
      <path id="Path_710" data-name="Path 710" d="M763.51,15512.25a8.011,8.011,0,1,0,8.01,8.01,8.008,8.008,0,0,0-8.01-8.01" transform="translate(-579.861 -15469.954)" fill="#5b89c4"/>
      <path id="Path_711" data-name="Path 711" d="M735.25,15512.25a8.011,8.011,0,1,0,8.01,8.01,8.008,8.008,0,0,0-8.01-8.01" transform="translate(-573.63 -15469.954)" fill="#5b89c4"/>
      <path id="Path_712" data-name="Path 712" d="M706.989,15512.25a8.011,8.011,0,1,0,8.01,8.01,8.008,8.008,0,0,0-8.01-8.01" transform="translate(-567.4 -15469.954)" fill="#5b89c4"/>
      <path id="Path_713" data-name="Path 713" d="M678.729,15512.25a8.011,8.011,0,1,0,8.011,8.01,8.008,8.008,0,0,0-8.011-8.01" transform="translate(-561.169 -15469.954)" fill="#5b89c4"/>
      <path id="Path_714" data-name="Path 714" d="M791.771,15484.711a8.011,8.011,0,1,0,8.01,8.012,8.011,8.011,0,0,0-8.01-8.012" transform="translate(-586.091 -15463.882)" fill="#5b89c4"/>
      <path id="Path_715" data-name="Path 715" d="M763.51,15484.711a8.011,8.011,0,1,0,8.01,8.012,8.011,8.011,0,0,0-8.01-8.012" transform="translate(-579.861 -15463.882)" fill="#5b89c4"/>
      <path id="Path_716" data-name="Path 716" d="M735.25,15484.711a8.011,8.011,0,1,0,8.01,8.012,8.01,8.01,0,0,0-8.01-8.012" transform="translate(-573.63 -15463.882)" fill="#5b89c4"/>
      <path id="Path_717" data-name="Path 717" d="M706.989,15484.711a8.011,8.011,0,1,0,8.01,8.012,8.011,8.011,0,0,0-8.01-8.012" transform="translate(-567.4 -15463.882)" fill="#5b89c4"/>
      <path id="Path_718" data-name="Path 718" d="M678.729,15484.711a8.011,8.011,0,1,0,8.011,8.012,8.01,8.01,0,0,0-8.011-8.012" transform="translate(-561.169 -15463.882)" fill="#5b89c4"/>
      <path id="Path_719" data-name="Path 719" d="M791.771,15457.992a8.011,8.011,0,1,0,8.01,8.008,8.009,8.009,0,0,0-8.01-8.008" transform="translate(-586.091 -15457.992)" fill="#56a35c"/>
      <path id="Path_720" data-name="Path 720" d="M763.51,15457.992a8.011,8.011,0,1,0,8.01,8.008,8.009,8.009,0,0,0-8.01-8.008" transform="translate(-579.861 -15457.992)" fill="#56a35c"/>
      <path id="Path_721" data-name="Path 721" d="M735.25,15457.992a8.011,8.011,0,1,0,8.01,8.008,8.008,8.008,0,0,0-8.01-8.008" transform="translate(-573.63 -15457.992)" fill="#56a35c"/>
      <path id="Path_722" data-name="Path 722" d="M706.989,15457.992A8.011,8.011,0,1,0,715,15466a8.009,8.009,0,0,0-8.01-8.008" transform="translate(-567.4 -15457.992)" fill="#56a35c"/>
      <path id="Path_723" data-name="Path 723" d="M678.729,15457.992a8.011,8.011,0,1,0,8.011,8.008,8.008,8.008,0,0,0-8.011-8.008" transform="translate(-561.169 -15457.992)" fill="#56a35c"/>
      <path id="Path_724" data-name="Path 724" d="M651.24,15705.012a8.013,8.013,0,1,0,8.01,8.01,8.009,8.009,0,0,0-8.01-8.01" transform="translate(-555.109 -15512.448)" fill="#32415f"/>
      <path id="Path_725" data-name="Path 725" d="M622.979,15705.012a8.013,8.013,0,1,0,8.01,8.01,8.009,8.009,0,0,0-8.01-8.01" transform="translate(-548.878 -15512.448)" fill="#32415f"/>
      <path id="Path_726" data-name="Path 726" d="M594.718,15705.012a8.013,8.013,0,1,0,8.01,8.01,8.008,8.008,0,0,0-8.01-8.01" transform="translate(-542.648 -15512.448)" fill="#32415f"/>
      <path id="Path_727" data-name="Path 727" d="M566.457,15705.012a8.013,8.013,0,1,0,8.01,8.01,8.009,8.009,0,0,0-8.01-8.01" transform="translate(-536.417 -15512.448)" fill="#32415f"/>
      <path id="Path_728" data-name="Path 728" d="M538.2,15705.012a8.013,8.013,0,1,0,8.01,8.01,8.008,8.008,0,0,0-8.01-8.01" transform="translate(-530.187 -15512.448)" fill="#32415f"/>
      <path id="Path_729" data-name="Path 729" d="M651.24,15677.476a8.012,8.012,0,1,0,8.01,8.01,8.01,8.01,0,0,0-8.01-8.01" transform="translate(-555.109 -15506.38)" fill="#32415f"/>
      <path id="Path_730" data-name="Path 730" d="M622.979,15677.476a8.012,8.012,0,1,0,8.01,8.01,8.01,8.01,0,0,0-8.01-8.01" transform="translate(-548.878 -15506.38)" fill="#32415f"/>
      <path id="Path_731" data-name="Path 731" d="M594.718,15677.476a8.012,8.012,0,1,0,8.01,8.01,8.01,8.01,0,0,0-8.01-8.01" transform="translate(-542.648 -15506.38)" fill="#32415f"/>
      <path id="Path_732" data-name="Path 732" d="M566.457,15677.476a8.012,8.012,0,1,0,8.01,8.01,8.01,8.01,0,0,0-8.01-8.01" transform="translate(-536.417 -15506.38)" fill="#32415f"/>
      <path id="Path_733" data-name="Path 733" d="M538.2,15677.476a8.012,8.012,0,1,0,8.01,8.01,8.01,8.01,0,0,0-8.01-8.01" transform="translate(-530.187 -15506.38)" fill="#32415f"/>
      <path id="Path_734" data-name="Path 734" d="M651.24,15649.936a8.011,8.011,0,1,0,8.01,8.012,8.011,8.011,0,0,0-8.01-8.012" transform="translate(-555.109 -15500.308)" fill="#32415f"/>
      <path id="Path_735" data-name="Path 735" d="M622.979,15649.936a8.011,8.011,0,1,0,8.01,8.012,8.011,8.011,0,0,0-8.01-8.012" transform="translate(-548.878 -15500.308)" fill="#32415f"/>
      <path id="Path_736" data-name="Path 736" d="M594.718,15649.936a8.011,8.011,0,1,0,8.01,8.012,8.01,8.01,0,0,0-8.01-8.012" transform="translate(-542.648 -15500.308)" fill="#7173ad"/>
      <path id="Path_737" data-name="Path 737" d="M566.457,15649.936a8.011,8.011,0,1,0,8.01,8.012,8.011,8.011,0,0,0-8.01-8.012" transform="translate(-536.417 -15500.308)" fill="#7173ad"/>
      <path id="Path_738" data-name="Path 738" d="M538.2,15649.936a8.011,8.011,0,1,0,8.01,8.012,8.01,8.01,0,0,0-8.01-8.012" transform="translate(-530.187 -15500.308)" fill="#7173ad"/>
      <path id="Path_739" data-name="Path 739" d="M651.24,15622.4a8.01,8.01,0,1,0,8.01,8.01,8.009,8.009,0,0,0-8.01-8.01" transform="translate(-555.109 -15494.238)" fill="#7173ad"/>
      <path id="Path_740" data-name="Path 740" d="M622.979,15622.4a8.01,8.01,0,1,0,8.01,8.01,8.009,8.009,0,0,0-8.01-8.01" transform="translate(-548.878 -15494.238)" fill="#7173ad"/>
      <path id="Path_741" data-name="Path 741" d="M594.718,15622.4a8.01,8.01,0,1,0,8.01,8.01,8.008,8.008,0,0,0-8.01-8.01" transform="translate(-542.648 -15494.238)" fill="#7173ad"/>
      <path id="Path_742" data-name="Path 742" d="M566.457,15622.4a8.01,8.01,0,1,0,8.01,8.01,8.009,8.009,0,0,0-8.01-8.01" transform="translate(-536.417 -15494.238)" fill="#7173ad"/>
      <path id="Path_743" data-name="Path 743" d="M538.2,15622.4a8.01,8.01,0,1,0,8.01,8.01,8.008,8.008,0,0,0-8.01-8.01" transform="translate(-530.187 -15494.238)" fill="#7173ad"/>
      <path id="Path_744" data-name="Path 744" d="M651.24,15594.862a8.012,8.012,0,1,0,8.01,8.01,8.01,8.01,0,0,0-8.01-8.01" transform="translate(-555.109 -15488.166)" fill="#7173ad"/>
      <path id="Path_745" data-name="Path 745" d="M622.979,15594.862a8.012,8.012,0,1,0,8.01,8.01,8.01,8.01,0,0,0-8.01-8.01" transform="translate(-548.878 -15488.166)" fill="#7173ad"/>
      <path id="Path_746" data-name="Path 746" d="M594.718,15594.862a8.012,8.012,0,1,0,8.01,8.01,8.01,8.01,0,0,0-8.01-8.01" transform="translate(-542.648 -15488.166)" fill="#7173ad"/>
      <path id="Path_747" data-name="Path 747" d="M566.457,15594.862a8.012,8.012,0,1,0,8.01,8.01,8.01,8.01,0,0,0-8.01-8.01" transform="translate(-536.417 -15488.166)" fill="#72bee9"/>
      <path id="Path_748" data-name="Path 748" d="M538.2,15594.862a8.012,8.012,0,1,0,8.01,8.01,8.01,8.01,0,0,0-8.01-8.01" transform="translate(-530.187 -15488.166)" fill="#72bee9"/>
      <path id="Path_749" data-name="Path 749" d="M651.24,15567.324a8.013,8.013,0,1,0,8.01,8.012,8.009,8.009,0,0,0-8.01-8.012" transform="translate(-555.109 -15482.095)" fill="#72bee9"/>
      <path id="Path_750" data-name="Path 750" d="M622.979,15567.324a8.013,8.013,0,1,0,8.01,8.012,8.009,8.009,0,0,0-8.01-8.012" transform="translate(-548.878 -15482.095)" fill="#72bee9"/>
      <path id="Path_751" data-name="Path 751" d="M594.718,15567.324a8.013,8.013,0,1,0,8.01,8.012,8.009,8.009,0,0,0-8.01-8.012" transform="translate(-542.648 -15482.095)" fill="#72bee9"/>
      <path id="Path_752" data-name="Path 752" d="M566.457,15567.324a8.013,8.013,0,1,0,8.01,8.012,8.01,8.01,0,0,0-8.01-8.012" transform="translate(-536.417 -15482.095)" fill="#72bee9"/>
      <path id="Path_753" data-name="Path 753" d="M538.2,15567.324a8.013,8.013,0,1,0,8.01,8.012,8.009,8.009,0,0,0-8.01-8.012" transform="translate(-530.187 -15482.095)" fill="#72bee9"/>
      <path id="Path_754" data-name="Path 754" d="M651.24,15539.787a8.011,8.011,0,1,0,8.01,8.008,8.009,8.009,0,0,0-8.01-8.008" transform="translate(-555.109 -15476.024)" fill="#72bee9"/>
      <path id="Path_755" data-name="Path 755" d="M622.979,15539.787a8.011,8.011,0,1,0,8.01,8.008,8.009,8.009,0,0,0-8.01-8.008" transform="translate(-548.878 -15476.024)" fill="#72bee9"/>
      <path id="Path_756" data-name="Path 756" d="M594.718,15539.787a8.011,8.011,0,1,0,8.01,8.008,8.008,8.008,0,0,0-8.01-8.008" transform="translate(-542.648 -15476.024)" fill="#72bee9"/>
      <path id="Path_757" data-name="Path 757" d="M566.457,15539.787a8.011,8.011,0,1,0,8.01,8.008,8.009,8.009,0,0,0-8.01-8.008" transform="translate(-536.417 -15476.024)" fill="#5b89c4"/>
      <path id="Path_758" data-name="Path 758" d="M538.2,15539.787a8.011,8.011,0,1,0,8.01,8.008,8.008,8.008,0,0,0-8.01-8.008" transform="translate(-530.187 -15476.024)" fill="#5b89c4"/>
      <path id="Path_759" data-name="Path 759" d="M651.24,15512.25a8.011,8.011,0,1,0,8.01,8.01,8.008,8.008,0,0,0-8.01-8.01" transform="translate(-555.109 -15469.954)" fill="#5b89c4"/>
      <path id="Path_760" data-name="Path 760" d="M622.979,15512.25a8.011,8.011,0,1,0,8.01,8.01,8.008,8.008,0,0,0-8.01-8.01" transform="translate(-548.878 -15469.954)" fill="#5b89c4"/>
      <path id="Path_761" data-name="Path 761" d="M594.718,15512.25a8.011,8.011,0,1,0,8.01,8.01,8.008,8.008,0,0,0-8.01-8.01" transform="translate(-542.648 -15469.954)" fill="#5b89c4"/>
      <path id="Path_762" data-name="Path 762" d="M566.457,15512.25a8.011,8.011,0,1,0,8.01,8.01,8.008,8.008,0,0,0-8.01-8.01" transform="translate(-536.417 -15469.954)" fill="#5b89c4"/>
      <path id="Path_763" data-name="Path 763" d="M538.2,15512.25a8.011,8.011,0,1,0,8.01,8.01,8.008,8.008,0,0,0-8.01-8.01" transform="translate(-530.187 -15469.954)" fill="#5b89c4"/>
      <path id="Path_764" data-name="Path 764" d="M651.24,15484.711a8.011,8.011,0,1,0,8.01,8.012,8.011,8.011,0,0,0-8.01-8.012" transform="translate(-555.109 -15463.882)" fill="#e2973f"/>
      <path id="Path_765" data-name="Path 765" d="M622.979,15484.711a8.011,8.011,0,1,0,8.01,8.012,8.011,8.011,0,0,0-8.01-8.012" transform="translate(-548.878 -15463.882)" fill="#e2973f"/>
      <path id="Path_766" data-name="Path 766" d="M594.718,15484.711a8.011,8.011,0,1,0,8.01,8.012,8.01,8.01,0,0,0-8.01-8.012" transform="translate(-542.648 -15463.882)" fill="#e2973f"/>
      <path id="Path_767" data-name="Path 767" d="M566.457,15484.711a8.011,8.011,0,1,0,8.01,8.012,8.011,8.011,0,0,0-8.01-8.012" transform="translate(-536.417 -15463.882)" fill="#e2973f"/>
      <path id="Path_768" data-name="Path 768" d="M538.2,15484.711a8.011,8.011,0,1,0,8.01,8.012,8.01,8.01,0,0,0-8.01-8.012" transform="translate(-530.187 -15463.882)" fill="#e2973f"/>
      <path id="Path_769" data-name="Path 769" d="M651.24,15457.992a8.011,8.011,0,1,0,8.01,8.008,8.009,8.009,0,0,0-8.01-8.008" transform="translate(-555.109 -15457.992)" fill="#56a35c"/>
      <path id="Path_770" data-name="Path 770" d="M622.979,15457.992a8.011,8.011,0,1,0,8.01,8.008,8.009,8.009,0,0,0-8.01-8.008" transform="translate(-548.878 -15457.992)" fill="#7f4593"/>
      <path id="Path_771" data-name="Path 771" d="M594.718,15457.992a8.011,8.011,0,1,0,8.01,8.008,8.008,8.008,0,0,0-8.01-8.008" transform="translate(-542.648 -15457.992)" fill="#7f4593"/>
      <path id="Path_772" data-name="Path 772" d="M566.457,15457.992a8.011,8.011,0,1,0,8.01,8.008,8.009,8.009,0,0,0-8.01-8.008" transform="translate(-536.417 -15457.992)" fill="#7f4593"/>
      <path id="Path_773" data-name="Path 773" d="M538.2,15457.992a8.011,8.011,0,1,0,8.01,8.008,8.008,8.008,0,0,0-8.01-8.008" transform="translate(-530.187 -15457.992)" fill="#7f4593"/>
    </g>
  </g>
</svg>
