<svg id="facf1276-26e3-4c8c-8ce6-02fd46bb2843" data-name="Camada 1" xmlns="http://www.w3.org/2000/svg" width="357.49" height="395.36" viewBox="0 0 357.49 395.36">
  <path id="bd26f660-da9f-4b8b-aa9c-bec16a4411ae" data-name="Path 544" d="M285.58,192.57a8,8,0,1,0,8,8h0a8,8,0,0,0-8-8" style="fill: #26a753"/>
  <path id="b1257314-a34d-4c62-8399-986708c5c537" data-name="Path 545" d="M263.55,192.57a8,8,0,1,0,8,8h0a8,8,0,0,0-8-8" style="fill: #26a753"/>
  <path id="f7538ab7-d83f-4466-bc0f-3e2d2c6551e9" data-name="Path 546" d="M241.52,192.57a8,8,0,1,0,8,8h0a8,8,0,0,0-8-8" style="fill: #26a753"/>
  <path id="eb690a15-8847-4b4c-85bd-26ab2f617a29" data-name="Path 547" d="M219.49,192.57a8,8,0,1,0,8,8h0a8,8,0,0,0-8-8" style="fill: #26a753"/>
  <path id="b0057eab-39f7-4dc3-89cb-740b65c58f7d" data-name="Path 548" d="M197.46,192.57a8,8,0,1,0,8,8h0a8,8,0,0,0-8-8" style="fill: #26a753"/>
  <path id="b557142c-1870-4ead-8cce-c735115eeb2d" data-name="Path 549" d="M285.58,171.1a8,8,0,1,0,8,8h0a8,8,0,0,0-8-8h0" style="fill: #26a753"/>
  <path id="beac50ae-b3d5-40a6-a863-52cf9af5d566" data-name="Path 550" d="M263.55,171.1a8,8,0,1,0,8,8h0a8,8,0,0,0-8-8" style="fill: #26a753"/>
  <path id="bd8df196-7a74-4f77-a49b-4eebec87a032" data-name="Path 551" d="M241.52,171.1a8,8,0,1,0,8,8h0a8,8,0,0,0-8-8h0" style="fill: #26a753"/>
  <path id="adaf9679-3545-49ae-ba1f-4725ed5b5d76" data-name="Path 552" d="M219.49,171.1a8,8,0,1,0,8,8h0a8,8,0,0,0-8-8" style="fill: #26a753"/>
  <path id="a1975100-61d8-4f22-b07b-12b0da36cd11" data-name="Path 553" d="M197.46,171.1a8,8,0,1,0,8,8h0a8,8,0,0,0-8-8" style="fill: #26a753"/>
  <path id="ae801044-ea7f-4612-9718-96ab7dc7a89b" data-name="Path 554" d="M285.58,149.63a8,8,0,1,0,8,8,8,8,0,0,0-8-8" style="fill: #26a753"/>
  <path id="be85aeca-c2eb-45c2-9f09-f8df2bbec09e" data-name="Path 555" d="M263.55,149.63a8,8,0,1,0,8,8,8,8,0,0,0-8-8" style="fill: #26a753"/>
  <path id="ba4eb698-670c-441a-9d33-9a73b13b1a20" data-name="Path 556" d="M241.52,149.63a8,8,0,1,0,8,8,8,8,0,0,0-8-8" style="fill: #26a753"/>
  <path id="e05fc465-6f7a-44b9-aed9-6729c8ec6976" data-name="Path 557" d="M219.49,149.63a8,8,0,1,0,8,8,8,8,0,0,0-8-8" style="fill: #26a753"/>
  <path id="f6da6d5d-d3bc-4ca0-8db3-353be9d73ba2" data-name="Path 558" d="M197.46,149.63a8,8,0,1,0,8,8,8,8,0,0,0-8-8" style="fill: #26a753"/>
  <path id="a6585b25-fcd7-4a86-9645-3ac14c225724" data-name="Path 559" d="M285.58,128.17a8,8,0,1,0,8,8,8,8,0,0,0-8-8h0" style="fill: #26a753"/>
  <path id="bbc76178-e9a8-4c60-94df-ee3257580a7a" data-name="Path 560" d="M263.55,128.17a8,8,0,1,0,8,8,8,8,0,0,0-8-8h0" style="fill: #26a753"/>
  <path id="e07ede83-7557-470c-b88f-b8fb8fbf6246" data-name="Path 561" d="M241.52,128.17a8,8,0,1,0,8,8,8,8,0,0,0-8-8h0" style="fill: #26a753"/>
  <path id="a3fa4d91-321b-42a0-a509-8672400b450e" data-name="Path 562" d="M219.49,128.17a8,8,0,1,0,8,8,8,8,0,0,0-8-8h0" style="fill: #26a753"/>
  <path id="ac9de90d-49fc-4bf3-8789-827bffb29dc8" data-name="Path 563" d="M197.46,128.17a8,8,0,1,0,8,8,8,8,0,0,0-8-8h0" style="fill: #26a753"/>
  <path id="e0aa60e8-9476-4956-aa48-3578c0516f7f" data-name="Path 564" d="M285.58,106.7a8,8,0,1,0,8,8,8,8,0,0,0-8-8h0" style="fill: #26a753"/>
  <path id="b987f8ca-b9a2-4b15-abcf-e3ccce791923" data-name="Path 565" d="M263.55,106.7a8,8,0,1,0,8,8,8,8,0,0,0-8-8h0" style="fill: #26a753"/>
  <path id="f75efea3-f91c-4650-9dbc-501dce4c20e3" data-name="Path 566" d="M241.52,106.7a8,8,0,1,0,8,8,8,8,0,0,0-8-8h0" style="fill: #26a753"/>
  <path id="b2acda73-eadd-4755-8d49-c92504440eef" data-name="Path 567" d="M219.49,106.7a8,8,0,1,0,8,8,8,8,0,0,0-8-8h0" style="fill: #26a753"/>
  <path id="a44b12ea-45e5-4409-86fc-e7668fe36d50" data-name="Path 568" d="M197.46,106.7a8,8,0,1,0,8,8,8,8,0,0,0-8-8h0" style="fill: #26a753"/>
  <path id="ba7a7eba-ee1c-4224-ac9d-466f56261090" data-name="Path 569" d="M285.58,85.23a8,8,0,1,0,8,8,8,8,0,0,0-8-8h0" style="fill: #26a753"/>
  <path id="b8993ba7-ebec-4a45-9f9f-ca2c562e97c6" data-name="Path 570" d="M263.55,85.23a8,8,0,1,0,8,8,8,8,0,0,0-8-8" style="fill: #26a753"/>
  <path id="eef8056a-ddac-4f4d-b560-53be0160d999" data-name="Path 571" d="M241.52,85.23a8,8,0,1,0,8,8,8,8,0,0,0-8-8h0" style="fill: #7172b3"/>
  <path id="a56f33e2-653c-423c-b769-04e0f6c16183" data-name="Path 572" d="M219.49,85.23a8,8,0,1,0,8,8,8,8,0,0,0-8-8" style="fill: #7172b3"/>
  <path id="f2697db2-c34f-460e-95b1-8385dc77ad47" data-name="Path 573" d="M197.46,85.23a8,8,0,1,0,8,8,8,8,0,0,0-8-8" style="fill: #7172b3"/>
  <path id="f3767073-d34c-4792-8aad-a28c849b23fe" data-name="Path 574" d="M285.58,63.76a8,8,0,1,0,8,8h0a8,8,0,0,0-8-8" style="fill: #7172b3"/>
  <path id="ea5f0d98-c279-42b2-8c6f-bbac521fadb6" data-name="Path 575" d="M263.55,63.76a8,8,0,1,0,8,8h0a8,8,0,0,0-8-8" style="fill: #7172b3"/>
  <path id="a7edd51f-5806-4c77-b4f3-69616445dec0" data-name="Path 576" d="M241.52,63.76a8,8,0,1,0,8,8h0a8,8,0,0,0-8-8h0" style="fill: #7172b3"/>
  <path id="a6f239bb-2cf0-4aca-8ba9-f1599d11e261" data-name="Path 577" d="M219.49,63.76a8,8,0,1,0,8,8h0a8,8,0,0,0-8-8" style="fill: #7172b3"/>
  <path id="aaecd803-67ab-435e-9fe7-6819490cbc58" data-name="Path 578" d="M197.46,63.76a8,8,0,1,0,8,8h0a8,8,0,0,0-8-8" style="fill: #7172b3"/>
  <path id="f60b6521-5f18-45e9-88c9-03291cf01d80" data-name="Path 579" d="M285.58,42.3a8,8,0,1,0,8,8,8,8,0,0,0-8-8" style="fill: #7172b3"/>
  <path id="a8b2b292-f655-4546-873d-6059703d7e2d" data-name="Path 580" d="M263.55,42.3a8,8,0,1,0,8,8,8,8,0,0,0-8-8" style="fill: #7172b3"/>
  <path id="a6787162-ab37-4394-b668-16b9aa4ffd2c" data-name="Path 581" d="M241.52,42.3a8,8,0,1,0,8,8,8,8,0,0,0-8-8h0" style="fill: #7172b3"/>
  <path id="e2da8254-deea-4d34-8f98-3bdae1f52cb4" data-name="Path 582" d="M219.49,42.3a8,8,0,1,0,8,8,8,8,0,0,0-8-8" style="fill: #7172b3"/>
  <path id="bba65bf6-f48d-4494-91d2-51ed062d6d89" data-name="Path 583" d="M197.46,42.3a8,8,0,1,0,8,8,8,8,0,0,0-8-8" style="fill: #7172b3"/>
  <path id="f423f36a-3ad3-42a1-9749-de9241ef1ce4" data-name="Path 584" d="M285.58,20.83a8,8,0,1,0,8,8h0a8,8,0,0,0-8-8" style="fill: #7172b3"/>
  <path id="b248e87a-19bd-43a7-b48b-8847698b3dec" data-name="Path 585" d="M263.55,20.83a8,8,0,1,0,8,8h0a8,8,0,0,0-8-8" style="fill: #7172b3"/>
  <path id="eaff7d09-fa6d-4063-acfc-8d236bbb664d" data-name="Path 586" d="M241.52,20.83a8,8,0,1,0,8,8h0a8,8,0,0,0-8-8h0" style="fill: #7172b3"/>
  <path id="e7b2ed66-1c6d-43d4-b912-e4a7a504a006" data-name="Path 587" d="M219.49,20.83a8,8,0,1,0,8,8h0a8,8,0,0,0-8-8" style="fill: #7172b3"/>
  <path id="ab39a215-7a94-4c51-87a7-bf9d6fa48268" data-name="Path 588" d="M197.46,20.83a8,8,0,1,0,8,8h0a8,8,0,0,0-8-8" style="fill: #7172b3"/>
  <path id="fc0a85ca-e461-461c-bf3a-da11858b8cc1" data-name="Path 589" d="M285.58,0a8,8,0,1,0,8,8h0a8,8,0,0,0-8-8" style="fill: #50c1ef"/>
  <path id="bde841cb-9d82-433e-8954-41dea416fe50" data-name="Path 590" d="M263.55,0a8,8,0,1,0,8,8h0a8,8,0,0,0-8-8" style="fill: #50c1ef"/>
  <path id="a10ba3f1-812c-47a5-b943-673791748bc2" data-name="Path 591" d="M241.52,0a8,8,0,1,0,8,8h0a8,8,0,0,0-8-8h0" style="fill: #50c1ef"/>
  <path id="b5f34766-2221-44df-902e-ff78aa1e3815" data-name="Path 592" d="M219.49,0a8,8,0,1,0,8,8h0a8,8,0,0,0-8-8" style="fill: #50c1ef"/>
  <path id="ad14fa69-22ff-414d-a881-cf2615e87461" data-name="Path 593" d="M197.46,0a8,8,0,1,0,8,8h0a8,8,0,0,0-8-8" style="fill: #50c1ef"/>
  <path id="ac4eb5bf-5319-4a22-808a-4b14ce98aa6d" data-name="Path 594" d="M176,192.57a8,8,0,1,0,8,8h0a8,8,0,0,0-8-8" style="fill: #26a753"/>
  <path id="af9626b1-2ce6-417d-8303-19fd2b1653a0" data-name="Path 595" d="M154,192.57a8,8,0,1,0,8,8,8,8,0,0,0-8-8h0" style="fill: #26a753"/>
  <path id="f56f70fa-a8df-4b1c-9150-9a213cc03888" data-name="Path 596" d="M132,192.57a8,8,0,1,0,8,8h0a8,8,0,0,0-8-8" style="fill: #26a753"/>
  <path id="bb1dca93-9bff-43dd-b64d-5da266de6cf4" data-name="Path 597" d="M109.94,192.57a8,8,0,1,0,8,8h0a8,8,0,0,0-8-8" style="fill: #26a753"/>
  <path id="a54f29c4-8491-4ce8-a52c-696de9bb6d22" data-name="Path 598" d="M87.91,192.57a8,8,0,1,0,8,8,8,8,0,0,0-8-8h0" style="fill: #26a753"/>
  <path id="fa6da332-9163-4221-911f-5f3312ed08c1" data-name="Path 599" d="M176,171.1a8,8,0,1,0,8,8h0a8,8,0,0,0-8-8h0" style="fill: #26a753"/>
  <path id="b4b571be-9ffc-4993-8894-1326e10d5a33" data-name="Path 600" d="M154,171.1a8,8,0,1,0,8,8h0a8,8,0,0,0-8-8h0" style="fill: #26a753"/>
  <path id="ac6ccec0-8af0-482d-aa35-3fe2fcfa9e6b" data-name="Path 601" d="M132,171.1a8,8,0,1,0,8,8h0a8,8,0,0,0-8-8" style="fill: #26a753"/>
  <path id="a6c63869-df9a-4546-8406-a145057c3725" data-name="Path 602" d="M109.94,171.1a8,8,0,1,0,8,8h0a8,8,0,0,0-8-8" style="fill: #26a753"/>
  <path id="aaba03a0-40a6-4e5c-a80a-c8801101be9f" data-name="Path 603" d="M87.91,171.1a8,8,0,1,0,8,8h0a8,8,0,0,0-8-8" style="fill: #26a753"/>
  <path id="acfa0531-67c3-432f-9074-953461b7a23e" data-name="Path 604" d="M176,149.63a8,8,0,1,0,8,8,8,8,0,0,0-8-8" style="fill: #26a753"/>
  <path id="be801bdc-76e5-4d37-94cc-401429af18d9" data-name="Path 605" d="M154,149.63a8,8,0,1,0,8,8,8,8,0,0,0-8-8" style="fill: #26a753"/>
  <path id="e5bc02b5-2bb8-45bc-82cc-1b7c0e0f1e2b" data-name="Path 606" d="M132,149.63a8,8,0,1,0,8,8,8,8,0,0,0-8-8" style="fill: #26a753"/>
  <path id="aec1668b-0c67-42e2-a254-837b81a22d20" data-name="Path 607" d="M109.94,149.63a8,8,0,1,0,8,8,8,8,0,0,0-8-8" style="fill: #26a753"/>
  <path id="b907838f-a7d5-44ee-a98e-7c24d4312144" data-name="Path 608" d="M87.91,149.63a8,8,0,1,0,8,8,8,8,0,0,0-8-8" style="fill: #26a753"/>
  <path id="beb82a0b-d5bf-4ceb-90d7-21f28753dcf0" data-name="Path 609" d="M176,128.17a8,8,0,1,0,8,8,8,8,0,0,0-8-8h0" style="fill: #26a753"/>
  <path id="a391a04b-fc5c-4a49-b4cf-abbb12b882a1" data-name="Path 610" d="M154,128.17a8,8,0,1,0,8,8,8,8,0,0,0-8-8h0" style="fill: #26a753"/>
  <path id="a0c43175-29db-484f-b744-80cdeac1efc9" data-name="Path 611" d="M132,128.17a8,8,0,1,0,8,8,8,8,0,0,0-8-8h0" style="fill: #26a753"/>
  <path id="ffb52853-2f37-40ec-96f6-8a40951b7af2" data-name="Path 612" d="M109.94,128.17a8,8,0,1,0,8,8,8,8,0,0,0-8-8h0" style="fill: #26a753"/>
  <path id="a28dbd68-dde8-4a2d-aa29-49adeffb43b7" data-name="Path 613" d="M87.91,128.17a8,8,0,1,0,8,8,8,8,0,0,0-8-8h0" style="fill: #26a753"/>
  <path id="bb5bff59-62cf-4a88-9def-9e153badb940" data-name="Path 614" d="M176,106.7a8,8,0,1,0,8,8,8,8,0,0,0-8-8h0" style="fill: #26a753"/>
  <path id="aa7355c1-80b3-43fe-b584-a8628372b881" data-name="Path 615" d="M154,106.7a8,8,0,1,0,8,8,8,8,0,0,0-8-8h0" style="fill: #26a753"/>
  <path id="a5a080dd-fa42-4c80-b06a-97ff7aa52dfd" data-name="Path 616" d="M132,106.7a8,8,0,1,0,8,8,8,8,0,0,0-8-8h0" style="fill: #26a753"/>
  <path id="a1d6ccf0-fbd7-4275-8b40-f04ef3db4c20" data-name="Path 617" d="M109.94,106.7a8,8,0,1,0,8,8,8,8,0,0,0-8-8h0" style="fill: #26a753"/>
  <path id="b138f313-d02d-41a0-9e87-7453fd3a19fc" data-name="Path 618" d="M87.91,106.7a8,8,0,1,0,8,8,8,8,0,0,0-8-8h0" style="fill: #26a753"/>
  <path id="fe2e7ab4-386a-47b1-aac1-f06aacb4fa74" data-name="Path 619" d="M176,85.23a8,8,0,1,0,8,8,8,8,0,0,0-8-8h0" style="fill: #7172b3"/>
  <path id="e6ced185-4050-4d51-b17e-b9b0029dc957" data-name="Path 620" d="M154,85.23a8,8,0,1,0,8,8,8,8,0,0,0-8-8h0" style="fill: #7172b3"/>
  <path id="fe1f0a8c-f76a-4115-b327-f37dd7a5b4dd" data-name="Path 621" d="M132,85.23a8,8,0,1,0,8,8,8,8,0,0,0-8-8" style="fill: #7172b3"/>
  <path id="b0f8c9e3-f72b-4cac-adf6-b0ebe69eb8c2" data-name="Path 622" d="M109.94,85.23a8,8,0,1,0,8,8,8,8,0,0,0-8-8" style="fill: #7172b3"/>
  <path id="e95d37b5-613f-4e7d-a267-dac67908a05a" data-name="Path 623" d="M87.91,85.23a8,8,0,1,0,8,8,8,8,0,0,0-8-8" style="fill: #7172b3"/>
  <path id="f5614f86-92e2-4214-b1cf-04f2786c7479" data-name="Path 624" d="M176,63.76a8,8,0,1,0,8,8h0a8,8,0,0,0-8-8" style="fill: #7172b3"/>
  <path id="f919ee69-1cc4-4261-9fb1-dd7bd519df8b" data-name="Path 625" d="M154,63.76a8,8,0,1,0,8,8,8,8,0,0,0-8-8h0" style="fill: #7172b3"/>
  <path id="b4c80acc-fc98-4cf7-999b-ebbc7254d1a9" data-name="Path 626" d="M132,63.76a8,8,0,1,0,8,8h0a8,8,0,0,0-8-8" style="fill: #7172b3"/>
  <path id="e8b5aad6-374e-4bd8-83d8-8b743e6972cc" data-name="Path 627" d="M109.94,63.76a8,8,0,1,0,8,8h0a8,8,0,0,0-8-8" style="fill: #7172b3"/>
  <path id="a713f02d-2680-48ca-8336-9d4d67fa1591" data-name="Path 628" d="M87.91,63.76a8,8,0,1,0,8,8,8,8,0,0,0-8-8h0" style="fill: #7172b3"/>
  <path id="e0204b38-5c60-4427-af0b-f4dcbb619439" data-name="Path 629" d="M176,42.3a8,8,0,1,0,8,8,8,8,0,0,0-8-8" style="fill: #7172b3"/>
  <path id="e36e452c-e79d-440a-a3d6-4053d24795e3" data-name="Path 630" d="M154,42.3a8,8,0,1,0,8,8,8,8,0,0,0-8-8h0" style="fill: #7172b3"/>
  <path id="b891932a-c9ec-499c-b09f-94d798062f4f" data-name="Path 631" d="M132,42.3a8,8,0,1,0,8,8,8,8,0,0,0-8-8" style="fill: #7172b3"/>
  <path id="aa42f158-72a6-440f-8b30-7724ff073109" data-name="Path 632" d="M109.94,42.3a8,8,0,1,0,8,8,8,8,0,0,0-8-8" style="fill: #7172b3"/>
  <path id="fae6a476-d78c-4df9-bd6f-965e7450c4ee" data-name="Path 633" d="M87.91,42.3a8,8,0,1,0,8,8,8,8,0,0,0-8-8h0" style="fill: #7172b3"/>
  <path id="b61aa073-e2fe-46a3-91f6-446d71851734" data-name="Path 634" d="M176,20.83a8,8,0,1,0,8,8h0a8,8,0,0,0-8-8" style="fill: #7172b3"/>
  <path id="b7e7646d-a9b2-4a0e-b1ad-4b5d2b8bbd72" data-name="Path 635" d="M154,20.83a8,8,0,1,0,8,8,8,8,0,0,0-8-8h0" style="fill: #7172b3"/>
  <path id="eb29e8b1-e044-464e-8398-c30db509ec18" data-name="Path 636" d="M132,20.83a8,8,0,1,0,8,8h0a8,8,0,0,0-8-8" style="fill: #7172b3"/>
  <path id="a9764b4d-efb4-477b-ac5a-d475bc70377e" data-name="Path 637" d="M109.94,20.83a8,8,0,1,0,8,8h0a8,8,0,0,0-8-8" style="fill: #50c1ef"/>
  <path id="b46b21d4-7ca0-447c-9f63-91501c325429" data-name="Path 638" d="M87.91,20.83a8,8,0,1,0,8,8,8,8,0,0,0-8-8h0" style="fill: #50c1ef"/>
  <path id="ed9ea5e9-1de3-4190-a228-f82d13bb40f4" data-name="Path 639" d="M176,0a8,8,0,1,0,8,8h0a8,8,0,0,0-8-8" style="fill: #50c1ef"/>
  <path id="e23b7e5c-9c1a-48e3-9ed0-18eb4110d3d0" data-name="Path 640" d="M154,0a8,8,0,1,0,8,8,8,8,0,0,0-8-8h0" style="fill: #50c1ef"/>
  <path id="a1d60948-8b8b-4bd7-b400-2ebf5c3ebe67" data-name="Path 641" d="M132,0a8,8,0,1,0,8,8h0a8,8,0,0,0-8-8" style="fill: #2e4161"/>
  <path id="abc07607-b3ec-4840-be17-3ab78e61a914" data-name="Path 642" d="M109.94,0a8,8,0,1,0,8,8h0a8,8,0,0,0-8-8" style="fill: #2e4161"/>
  <path id="b9a77f0d-d963-4150-b318-d592b42e8a5c" data-name="Path 643" d="M87.91,0a8,8,0,1,0,8,8,8,8,0,0,0-8-8h0" style="fill: #f29420"/>
  <text transform="translate(79.49 349.24)" style="isolation: isolate;font-size: 11px;fill: #2e2a26;font-family: Arial-BoldMT, Arial;font-weight: 700">S04 </text>
  <text transform="translate(102.12 349.24)" style="isolation: isolate;font-size: 11px;fill: #2e2a26;font-family: ArialMT, Arial"><tspan xml:space="preserve">Inclusive and sustainable economic growth  </tspan></text>
  <text transform="translate(79.49 318.12)" style="isolation: isolate;font-size: 11px;fill: #2e2a26;font-family: Arial-BoldMT, Arial;font-weight: 700">S03 </text>
  <text transform="translate(102.12 318.12)" style="isolation: isolate;font-size: 11px;fill: #2e2a26;font-family: ArialMT, Arial">Planet, environmental protection and restoration</text>
  <text transform="translate(79.49 287)" style="isolation: isolate;font-size: 11px;fill: #2e2a26;font-family: Arial-BoldMT, Arial;font-weight: 700">S02 </text>
  <text transform="translate(102.12 287)" style="isolation: isolate;font-size: 11px;fill: #2e2a26;font-family: ArialMT, Arial">People and social inclusion</text>
  <text transform="translate(29.48 351.74)" style="isolation: isolate;font-size: 18px;fill: #f29420;font-family: Arial-BoldMT, Arial;font-weight: 700">1%</text>
  <text transform="translate(29.48 381.36)" style="isolation: isolate;font-size: 18px;fill: #2e4161;font-family: Arial-BoldMT, Arial;font-weight: 700">2%</text>
  <text transform="translate(29.48 259.88)" style="isolation: isolate;font-size: 18px;fill: #50c1ef;font-family: Arial-BoldMT, Arial;font-weight: 700">9%</text>
  <text transform="translate(19.47 319.12)" style="isolation: isolate;font-size: 18px;fill: #26a753;font-family: Arial-BoldMT, Arial;font-weight: 700">52%</text>
  <text transform="translate(19.47 289.5)" style="isolation: isolate;font-size: 18px;fill: #7172b3;font-family: Arial-BoldMT, Arial;font-weight: 700">36%</text>
  <text transform="translate(79.49 380.36)" style="isolation: isolate;font-size: 11px;fill: #2e2a26;font-family: Arial-BoldMT, Arial;font-weight: 700">S05</text>
  <text transform="translate(99.06 380.36)" style="isolation: isolate;font-size: 11px;fill: #2e2a26;font-family: ArialMT, Arial"><tspan xml:space="preserve"> Indivisible and integrated nature of the 2030</tspan><tspan x="217.1" y="0" style="letter-spacing: -0.055220170454545456em"> </tspan><tspan x="219.55" y="0">Agenda</tspan></text>
  <text transform="translate(79 255.88)" style="isolation: isolate;font-size: 11px;fill: #2e2a26;font-family: Arial-BoldMT, Arial;font-weight: 700">S01 </text>
  <text transform="translate(101.63 255.88)" style="isolation: isolate;font-size: 11px;fill: #2e2a26;font-family: ArialMT, Arial">Peace and just and inclusive societies</text>
</svg>
