<svg xmlns="http://www.w3.org/2000/svg" xmlns:xlink="http://www.w3.org/1999/xlink" width="350.757" height="317.003" viewBox="0 0 350.757 317.003">
  <defs>
    <clipPath id="clip-path">
      <rect id="Rectangle_23" data-name="Rectangle 23" width="350.757" height="317.003" fill="none"/>
    </clipPath>
    <clipPath id="clip-path-2">
      <rect id="Rectangle_25" data-name="Rectangle 25" width="350.757" height="313.54" fill="none"/>
    </clipPath>
  </defs>
  <g id="Grafico_2" transform="translate(-701.114 -3748.063)">
    <rect id="Rectangle_21" data-name="Rectangle 21" width="48.7" height="13.672" transform="translate(947.64 3983.351)" fill="#76a1d5"/>
    <rect id="Rectangle_22" data-name="Rectangle 22" width="50.192" height="128.11" transform="translate(745.014 3868.912)" fill="#498bca"/>
    <g id="Group_31" data-name="Group 31" transform="translate(701.114 3748.063)">
      <g id="Group_30" data-name="Group 30" clip-path="url(#clip-path)">
        <path id="Path_35" data-name="Path 35" d="M783.12,3767.071a13.442,13.442,0,1,1,13.441,13.441A13.441,13.441,0,0,1,783.12,3767.071Z" transform="translate(-727.566 -3749.859)" fill="none" stroke="#498bca" stroke-miterlimit="10" stroke-width="2.619"/>
        <path id="Path_36" data-name="Path 36" d="M812.74,3848.544a4.669,4.669,0,0,0,4.077-5.2c-.011-.09-.025-.181-.041-.27l-8.476-36.345a10.982,10.982,0,0,0-9.148-8.305,2.852,2.852,0,0,0-2.248.66l-3.619,3.083a4.6,4.6,0,0,1-5.974,0l-3.619-3.083a2.857,2.857,0,0,0-2.221-.66,10.967,10.967,0,0,0-9.094,8.359l-8.476,36.347a4.669,4.669,0,0,0,3.768,5.424c.089.017.177.028.268.04a4.348,4.348,0,0,0,1.817-.147l-4.035,16.88a2.988,2.988,0,0,0,2.286,3.553,3.03,3.03,0,0,0,.633.067h11.974l2.354,26.29a4.428,4.428,0,0,0,4.4,3.93h5.948a4.427,4.427,0,0,0,4.4-3.93l2.354-26.29h11.976a2.989,2.989,0,0,0,2.987-2.989,2.914,2.914,0,0,0-.069-.631l-4.036-16.88a4.32,4.32,0,0,0,1.8.093Z" transform="translate(-721.343 -3764.301)" fill="none" stroke="#498bca" stroke-miterlimit="10" stroke-width="2.619"/>
      </g>
    </g>
    <text id="Female" transform="translate(746.369 4017.026)" fill="#2e2a26" font-size="11" font-family="ArialMT, Arial"><tspan x="0" y="0">Female</tspan></text>
    <text id="Others" transform="translate(951.146 4017.026)" fill="#2e2a26" font-size="11" font-family="ArialMT, Arial"><tspan x="0" y="0">Others</tspan></text>
    <rect id="Rectangle_24" data-name="Rectangle 24" width="50.192" height="109.97" transform="translate(849.623 3887.052)" fill="#2e4161"/>
    <text id="Male" transform="translate(858.169 4017.026)" fill="#2e2a26" font-size="11" font-family="ArialMT, Arial"><tspan x="0" y="0">Male</tspan></text>
    <g id="Group_33" data-name="Group 33" transform="translate(701.114 3751.525)">
      <g id="Group_32" data-name="Group 32" clip-path="url(#clip-path-2)">
        <line id="Line_9" data-name="Line 9" x2="344.041" transform="translate(0 246.378)" fill="none" stroke="#939598" stroke-width="0.655"/>
      </g>
    </g>
    <text id="_51_" data-name="51%" transform="translate(744.371 4050.304)" fill="#498bca" font-size="27" font-family="Arial-BoldMT, Arial" font-weight="700"><tspan x="0" y="0">51%</tspan></text>
    <text id="_44_" data-name="44%" transform="translate(846.834 4050.304)" fill="#2e4161" font-size="27" font-family="Arial-BoldMT, Arial" font-weight="700"><tspan x="0" y="0">44%</tspan></text>
    <text id="_5_" data-name="5%" transform="translate(952.305 4051.304)" fill="#76a1d5" font-size="28" font-family="Arial-BoldMT, Arial" font-weight="700"><tspan x="0" y="0">5%</tspan></text>
    <path id="Path_37" data-name="Path 37" d="M950.972,3800.923a13.441,13.441,0,1,0-13.441-13.441A13.44,13.44,0,0,0,950.972,3800.923Z" transform="translate(-76.259 -8.38)" fill="none" stroke="#2e4161" stroke-miterlimit="10" stroke-width="2.619"/>
    <path id="Path_38" data-name="Path 38" d="M921.769,3831.692l3.31,24.93a9.679,9.679,0,0,0,6.3,8l5.583,51.152a4.429,4.429,0,0,0,4.4,3.917h8.84a4.413,4.413,0,0,0,4.385-3.917l5.57-51.152a9.679,9.679,0,0,0,6.512-8.076l3.309-24.932a11.392,11.392,0,0,0-11.314-12.68h-4.682a2.873,2.873,0,0,0-1.52.66l-3.619,3.083a4.6,4.6,0,0,1-5.973,0l-3.593-3.016a2.854,2.854,0,0,0-1.507-.66h-4.682a11.392,11.392,0,0,0-11.314,12.694Z" transform="translate(-71.151 -22.859)" fill="none" stroke="#2e4161" stroke-miterlimit="10" stroke-width="2.619"/>
  </g>
</svg>
