<svg xmlns="http://www.w3.org/2000/svg" width="269.268" height="342.424" viewBox="0 0 269.268 342.424">
  <g id="grafico_7" data-name="grafico 7" transform="translate(-95.751 -177.579)">
    <text id="_49_" data-name="49% " transform="translate(99.981 443)" fill="#498bca" font-size="20" font-family="Arial-BoldMT, Arial" font-weight="700"><tspan x="0" y="0">49% </tspan></text>
    <text id="Non-state_sectors" data-name="Non-state sectors" transform="translate(99.981 461.003)" fill="#2e2a26" font-size="11" font-family="ArialMT, Arial"><tspan x="0" y="0">Non-state sectors</tspan></text>
    <text id="_35_" data-name="35%" transform="translate(232.019 500)" fill="#2e4161" font-size="20" font-family="Arial-BoldMT, Arial" font-weight="700"><tspan x="0" y="0">35%</tspan></text>
    <text id="Other" transform="translate(232.519 518.003)" fill="#2e2a26" font-size="11" font-family="ArialMT, Arial"><tspan x="0" y="0">Other</tspan></text>
    <text id="_10_" data-name="10%" transform="translate(99.981 500)" fill="#8a3f98" font-size="20" font-family="Arial-BoldMT, Arial" font-weight="700"><tspan x="0" y="0">10%</tspan></text>
    <text id="Governments" transform="translate(99.981 518.003)" fill="#2e2a26" font-size="11" font-family="ArialMT, Arial"><tspan x="0" y="0">Governments</tspan></text>
    <text id="_6_" data-name="6%" transform="translate(232.019 443)" fill="#d83d26" font-size="20" font-family="Arial-BoldMT, Arial" font-weight="700"><tspan x="0" y="0">6%</tspan></text>
    <text id="International_organizations_" data-name="International organizations " transform="translate(232.019 461.003)" fill="#2e2a26" font-size="11" font-family="ArialMT, Arial"><tspan x="0" y="0">International organizations </tspan></text>
    <g id="Group_1358" data-name="Group 1358" transform="translate(95.751 177.579)">
      <path id="Path_2126" data-name="Path 2126" d="M808.5,8530.219l-22.452,8.993H775.723V8535.7a1.185,1.185,0,0,0-1.17-1.17h-4.681a1.186,1.186,0,0,0-1.17,1.17v3.512l-10.424-.043-22.349-8.95v-10.9a1.16,1.16,0,0,1,1.17-1.173h70.227a1.171,1.171,0,0,1,1.17,1.173Zm-37.454,6.65h2.342v7.025h-2.342Zm37.454,24.58a1.154,1.154,0,0,1-1.17,1.168H737.1a1.156,1.156,0,0,1-1.17-1.168v-28.7l22.093,8.824H768.7v3.51a1.185,1.185,0,0,0,1.17,1.169h4.681a1.184,1.184,0,0,0,1.17-1.169v-3.51l10.837-.036,21.936-8.764Zm-65.545-47.986h7.023v2.34h-7.023Zm21.07-2.342h16.386v4.68H764.021Zm30.431,2.342h7.023v2.34h-7.023Zm16.386,5.854a3.517,3.517,0,0,0-3.512-3.516h-3.511v-3.511a1.186,1.186,0,0,0-1.17-1.169h-9.363a1.187,1.187,0,0,0-1.172,1.169v3.511h-9.363v-5.85a1.185,1.185,0,0,0-1.17-1.172H762.849a1.187,1.187,0,0,0-1.17,1.172v5.85h-9.363v-3.511a1.187,1.187,0,0,0-1.172-1.169h-9.363a1.187,1.187,0,0,0-1.17,1.169v3.511H737.1a3.516,3.516,0,0,0-3.511,3.516v42.133a3.515,3.515,0,0,0,3.511,3.511h70.227a3.516,3.516,0,0,0,3.512-3.511Z" transform="translate(-660.964 -8425.659)" fill="#498bca"/>
      <path id="Path_2127" data-name="Path 2127" d="M602.312,8469.724a111.356,111.356,0,0,1,108.306-111.187v47.672a63.58,63.58,0,0,0-4.425,126.664l-3.325,47.568c-57.531-5.465-100.556-52.562-100.556-110.717" transform="translate(-602.312 -8358.533)" fill="#498bca"/>
      <path id="Path_2128" data-name="Path 2128" d="M808.649,8406.2v-47.672a106.872,106.872,0,0,1,36.023,7l-17.857,44.192a63.121,63.121,0,0,0-18.167-3.523" transform="translate(-694.5 -8358.529)" fill="#d83d26"/>
      <path id="Path_2129" data-name="Path 2129" d="M851.278,8419.34l17.858-44.2a105.4,105.4,0,0,1,48.385,40.6L877.1,8441a64.341,64.341,0,0,0-25.819-21.663" transform="translate(-713.546 -8365.951)" fill="#8a3f98"/>
      <path id="Path_2130" data-name="Path 2130" d="M910.412,8521.694a111.351,111.351,0,0,1-115.8,103.36l3.326-47.552c.531.015,1.041.021,1.537.021a63.583,63.583,0,0,0,55.407-94.781l40.418-25.255c11.955,20.1,16.761,40.587,15.11,64.206" transform="translate(-688.23 -8402.741)" fill="#2e4161"/>
    </g>
  </g>
</svg>
